<svg xmlns="http://www.w3.org/2000/svg" xmlns:xlink="http://www.w3.org/1999/xlink" contentStyleType="text/css" height="693px" preserveAspectRatio="none" style="width:570px;height:693px;background:#FFFFFF;" version="1.1" viewBox="0 0 570 693" width="570px" zoomAndPan="magnify"><defs/><g><!--class user--><g id="elem_user"><rect codeLine="21" fill="#F1F1F1" height="106.8906" id="user" rx="2.5" ry="2.5" style="stroke:#181818;stroke-width:0.5;" width="162.6201" x="194.5" y="7"/><ellipse cx="261.5034" cy="21" fill="#ADD1B2" rx="9" ry="9" style="stroke:#181818;stroke-width:1;"/><path d="M260.9722,21.5313 L260.9722,23 L263.5347,23 L263.5347,22.4531 Q263.5347,22.0938 263.6753,21.9375 Q263.8159,21.7813 264.0347,21.7813 Q264.2534,21.7813 264.394,21.9375 Q264.5347,22.0938 264.5347,22.4531 L264.5347,24 L259.8159,24 Q259.4565,24 259.3003,23.8594 Q259.144,23.7188 259.144,23.5 Q259.144,23.2813 259.3003,23.1406 Q259.4565,23 259.8159,23 L259.9722,23 L259.9722,19.0781 L259.8159,19.0781 Q259.4565,19.0781 259.3003,18.9375 Q259.144,18.7969 259.144,18.5781 Q259.144,18.3594 259.3003,18.2188 Q259.4565,18.0781 259.8159,18.0781 L264.3159,18.0781 L264.3159,19.6094 Q264.3159,19.9688 264.1753,20.125 Q264.0347,20.2656 263.8159,20.2656 Q263.5815,20.2656 263.4409,20.125 Q263.3159,19.9688 263.3159,19.6094 L263.3159,19.0781 L260.9722,19.0781 L260.9722,20.5313 L261.8628,20.5313 Q261.8628,20.1406 261.9253,20.0313 Q262.0815,19.7813 262.3628,19.7813 Q262.5815,19.7813 262.7222,19.9375 Q262.8628,20.0938 262.8628,20.4531 L262.8628,21.6094 Q262.8628,21.9375 262.7847,22.0469 Q262.6284,22.2813 262.3628,22.2813 Q262.0815,22.2813 261.9253,22.0313 Q261.8628,21.9219 261.8628,21.5313 L260.9722,21.5313 Z " fill="#000000"/><text fill="#000000" font-family="Liberation Sans" font-size="10" lengthAdjust="spacing" textLength="21.1133" x="279.0034" y="25.0918">User</text><line style="stroke:#181818;stroke-width:0.5;" x1="195.5" x2="356.1201" y1="35" y2="35"/><ellipse cx="205.5" cy="46.7891" fill="#000000" rx="3" ry="3" style="stroke:#000000;stroke-width:1;"/><text fill="#000000" font-family="Liberation Sans" font-size="10" lengthAdjust="spacing" textLength="87.8076" x="212.5" y="49.3809">id : INTEGER &#171;PK&#187;</text><line style="stroke:#181818;stroke-width:1;" x1="195.5" x2="356.1201" y1="55.5781" y2="55.5781"/><text fill="#000000" font-family="Liberation Sans" font-size="10" lengthAdjust="spacing" textLength="119.4824" x="200.5" y="69.959">username : VARCHAR(64)</text><text fill="#000000" font-family="Liberation Sans" font-size="10" lengthAdjust="spacing" textLength="104.4727" x="200.5" y="82.5371">email : VARCHAR(255)</text><text fill="#000000" font-family="Liberation Sans" font-size="10" lengthAdjust="spacing" textLength="150.6201" x="200.5" y="95.1152">password_hash : VARCHAR(255)</text><text fill="#000000" font-family="Liberation Sans" font-size="10" lengthAdjust="spacing" textLength="106.1475" x="200.5" y="107.6934">created_at : DATETIME</text></g><!--class matrix--><g id="elem_matrix"><rect codeLine="30" fill="#F1F1F1" height="220.0938" id="matrix" rx="2.5" ry="2.5" style="stroke:#181818;stroke-width:0.5;" width="172.6299" x="119.5" y="174"/><ellipse cx="164.8237" cy="188" fill="#ADD1B2" rx="9" ry="9" style="stroke:#181818;stroke-width:1;"/><path d="M164.2925,188.5313 L164.2925,190 L166.855,190 L166.855,189.4531 Q166.855,189.0938 166.9956,188.9375 Q167.1362,188.7813 167.355,188.7813 Q167.5737,188.7813 167.7144,188.9375 Q167.855,189.0938 167.855,189.4531 L167.855,191 L163.1362,191 Q162.7769,191 162.6206,190.8594 Q162.4644,190.7188 162.4644,190.5 Q162.4644,190.2813 162.6206,190.1406 Q162.7769,190 163.1362,190 L163.2925,190 L163.2925,186.0781 L163.1362,186.0781 Q162.7769,186.0781 162.6206,185.9375 Q162.4644,185.7969 162.4644,185.5781 Q162.4644,185.3594 162.6206,185.2188 Q162.7769,185.0781 163.1362,185.0781 L167.6362,185.0781 L167.6362,186.6094 Q167.6362,186.9688 167.4956,187.125 Q167.355,187.2656 167.1362,187.2656 Q166.9019,187.2656 166.7612,187.125 Q166.6362,186.9688 166.6362,186.6094 L166.6362,186.0781 L164.2925,186.0781 L164.2925,187.5313 L165.1831,187.5313 Q165.1831,187.1406 165.2456,187.0313 Q165.4019,186.7813 165.6831,186.7813 Q165.9019,186.7813 166.0425,186.9375 Q166.1831,187.0938 166.1831,187.4531 L166.1831,188.6094 Q166.1831,188.9375 166.105,189.0469 Q165.9487,189.2813 165.6831,189.2813 Q165.4019,189.2813 165.2456,189.0313 Q165.1831,188.9219 165.1831,188.5313 L164.2925,188.5313 Z " fill="#000000"/><text fill="#000000" font-family="Liberation Sans" font-size="10" lengthAdjust="spacing" textLength="74.4824" x="182.3237" y="192.0918">PopulationMatrix</text><line style="stroke:#181818;stroke-width:0.5;" x1="120.5" x2="291.1299" y1="202" y2="202"/><ellipse cx="130.5" cy="213.7891" fill="#000000" rx="3" ry="3" style="stroke:#000000;stroke-width:1;"/><text fill="#000000" font-family="Liberation Sans" font-size="10" lengthAdjust="spacing" textLength="87.8076" x="137.5" y="216.3809">id : INTEGER &#171;PK&#187;</text><line style="stroke:#181818;stroke-width:1;" x1="120.5" x2="291.1299" y1="222.5781" y2="222.5781"/><text fill="#000000" font-family="Liberation Sans" font-size="10" lengthAdjust="spacing" textLength="160.0732" x="125.5" y="236.959">owner_id : INTEGER &#171;FK, nullable&#187;</text><text fill="#000000" font-family="Liberation Sans" font-size="10" lengthAdjust="spacing" textLength="129.4922" x="125.5" y="249.5371">source_type : VARCHAR(64)</text><text fill="#000000" font-family="Liberation Sans" font-size="10" lengthAdjust="spacing" textLength="160.6299" x="125.5" y="262.1152">species_accepted : VARCHAR(255)</text><text fill="#000000" font-family="Liberation Sans" font-size="10" lengthAdjust="spacing" textLength="149.4971" x="125.5" y="274.6934">common_name : VARCHAR(255)</text><text fill="#000000" font-family="Liberation Sans" font-size="10" lengthAdjust="spacing" textLength="118.374" x="125.5" y="287.2715">kingdom : VARCHAR(128)</text><text fill="#000000" font-family="Liberation Sans" font-size="10" lengthAdjust="spacing" textLength="129.4922" x="125.5" y="299.8496">country_code : VARCHAR(8)</text><text fill="#000000" font-family="Liberation Sans" font-size="10" lengthAdjust="spacing" textLength="109.4629" x="125.5" y="312.4277">visibility : VARCHAR(16)</text><text fill="#000000" font-family="Liberation Sans" font-size="10" lengthAdjust="spacing" textLength="80.0195" x="125.5" y="325.0059">matrix_a : JSONB</text><text fill="#000000" font-family="Liberation Sans" font-size="10" lengthAdjust="spacing" textLength="80.0195" x="125.5" y="337.584">matrix_u : JSONB</text><text fill="#000000" font-family="Liberation Sans" font-size="10" lengthAdjust="spacing" textLength="77.2363" x="125.5" y="350.1621">matrix_f : JSONB</text><text fill="#000000" font-family="Liberation Sans" font-size="10" lengthAdjust="spacing" textLength="101.7139" x="125.5" y="362.7402">stage_names : JSONB</text><text fill="#000000" font-family="Liberation Sans" font-size="10" lengthAdjust="spacing" textLength="83.3691" x="125.5" y="375.3184">metadata : JSONB</text><text fill="#000000" font-family="Liberation Sans" font-size="10" lengthAdjust="spacing" textLength="106.1475" x="125.5" y="387.8965">created_at : DATETIME</text></g><!--class share--><g id="elem_share"><rect codeLine="48" fill="#F1F1F1" height="94.3125" id="share" rx="2.5" ry="2.5" style="stroke:#181818;stroke-width:0.5;" width="183.7432" x="7" y="523.5"/><ellipse cx="68.1685" cy="537.5" fill="#ADD1B2" rx="9" ry="9" style="stroke:#181818;stroke-width:1;"/><path d="M67.6372,538.0313 L67.6372,539.5 L70.1997,539.5 L70.1997,538.9531 Q70.1997,538.5938 70.3403,538.4375 Q70.481,538.2813 70.6997,538.2813 Q70.9185,538.2813 71.0591,538.4375 Q71.1997,538.5938 71.1997,538.9531 L71.1997,540.5 L66.481,540.5 Q66.1216,540.5 65.9653,540.3594 Q65.8091,540.2188 65.8091,540 Q65.8091,539.7813 65.9653,539.6406 Q66.1216,539.5 66.481,539.5 L66.6372,539.5 L66.6372,535.5781 L66.481,535.5781 Q66.1216,535.5781 65.9653,535.4375 Q65.8091,535.2969 65.8091,535.0781 Q65.8091,534.8594 65.9653,534.7188 Q66.1216,534.5781 66.481,534.5781 L70.981,534.5781 L70.981,536.1094 Q70.981,536.4688 70.8403,536.625 Q70.6997,536.7656 70.481,536.7656 Q70.2466,536.7656 70.106,536.625 Q69.981,536.4688 69.981,536.1094 L69.981,535.5781 L67.6372,535.5781 L67.6372,537.0313 L68.5278,537.0313 Q68.5278,536.6406 68.5903,536.5313 Q68.7466,536.2813 69.0278,536.2813 Q69.2466,536.2813 69.3872,536.4375 Q69.5278,536.5938 69.5278,536.9531 L69.5278,538.1094 Q69.5278,538.4375 69.4497,538.5469 Q69.2935,538.7813 69.0278,538.7813 Q68.7466,538.7813 68.5903,538.5313 Q68.5278,538.4219 68.5278,538.0313 L67.6372,538.0313 Z " fill="#000000"/><text fill="#000000" font-family="Liberation Sans" font-size="10" lengthAdjust="spacing" textLength="53.9063" x="85.6685" y="541.5918">MatrixShare</text><line style="stroke:#181818;stroke-width:0.5;" x1="8" x2="189.7432" y1="551.5" y2="551.5"/><ellipse cx="18" cy="563.2891" fill="#000000" rx="3" ry="3" style="stroke:#000000;stroke-width:1;"/><text fill="#000000" font-family="Liberation Sans" font-size="10" lengthAdjust="spacing" textLength="87.8076" x="25" y="565.8809">id : INTEGER &#171;PK&#187;</text><line style="stroke:#181818;stroke-width:1;" x1="8" x2="189.7432" y1="572.0781" y2="572.0781"/><text fill="#000000" font-family="Liberation Sans" font-size="10" lengthAdjust="spacing" textLength="120.0293" x="13" y="586.459">matrix_id : INTEGER &#171;FK&#187;</text><text fill="#000000" font-family="Liberation Sans" font-size="10" lengthAdjust="spacing" textLength="171.7432" x="13" y="599.0371">shared_with_user_id : INTEGER &#171;FK&#187;</text><text fill="#000000" font-family="Liberation Sans" font-size="10" lengthAdjust="spacing" textLength="106.1475" x="13" y="611.6152">created_at : DATETIME</text></g><!--class simrun--><g id="elem_simrun"><rect codeLine="56" fill="#F1F1F1" height="232.6719" id="simrun" rx="2.5" ry="2.5" style="stroke:#181818;stroke-width:0.5;" width="172.0586" x="243" y="454"/><ellipse cx="292.7622" cy="468" fill="#ADD1B2" rx="9" ry="9" style="stroke:#181818;stroke-width:1;"/><path d="M292.231,468.5313 L292.231,470 L294.7935,470 L294.7935,469.4531 Q294.7935,469.0938 294.9341,468.9375 Q295.0747,468.7813 295.2935,468.7813 Q295.5122,468.7813 295.6528,468.9375 Q295.7935,469.0938 295.7935,469.4531 L295.7935,471 L291.0747,471 Q290.7153,471 290.5591,470.8594 Q290.4028,470.7188 290.4028,470.5 Q290.4028,470.2813 290.5591,470.1406 Q290.7153,470 291.0747,470 L291.231,470 L291.231,466.0781 L291.0747,466.0781 Q290.7153,466.0781 290.5591,465.9375 Q290.4028,465.7969 290.4028,465.5781 Q290.4028,465.3594 290.5591,465.2188 Q290.7153,465.0781 291.0747,465.0781 L295.5747,465.0781 L295.5747,466.6094 Q295.5747,466.9688 295.4341,467.125 Q295.2935,467.2656 295.0747,467.2656 Q294.8403,467.2656 294.6997,467.125 Q294.5747,466.9688 294.5747,466.6094 L294.5747,466.0781 L292.231,466.0781 L292.231,467.5313 L293.1216,467.5313 Q293.1216,467.1406 293.1841,467.0313 Q293.3403,466.7813 293.6216,466.7813 Q293.8403,466.7813 293.981,466.9375 Q294.1216,467.0938 294.1216,467.4531 L294.1216,468.6094 Q294.1216,468.9375 294.0435,469.0469 Q293.8872,469.2813 293.6216,469.2813 Q293.3403,469.2813 293.1841,469.0313 Q293.1216,468.9219 293.1216,468.5313 L292.231,468.5313 Z " fill="#000000"/><text fill="#000000" font-family="Liberation Sans" font-size="10" lengthAdjust="spacing" textLength="65.0342" x="310.2622" y="472.0918">SimulationRun</text><line style="stroke:#181818;stroke-width:0.5;" x1="244" x2="414.0586" y1="482" y2="482"/><ellipse cx="254" cy="493.7891" fill="#000000" rx="3" ry="3" style="stroke:#000000;stroke-width:1;"/><text fill="#000000" font-family="Liberation Sans" font-size="10" lengthAdjust="spacing" textLength="87.8076" x="261" y="496.3809">id : INTEGER &#171;PK&#187;</text><line style="stroke:#181818;stroke-width:1;" x1="244" x2="414.0586" y1="502.5781" y2="502.5781"/><text fill="#000000" font-family="Liberation Sans" font-size="10" lengthAdjust="spacing" textLength="152.29" x="249" y="516.959">user_id : INTEGER &#171;FK, nullable&#187;</text><text fill="#000000" font-family="Liberation Sans" font-size="10" lengthAdjust="spacing" textLength="160.0586" x="249" y="529.5371">matrix_id : INTEGER &#171;FK, nullable&#187;</text><text fill="#000000" font-family="Liberation Sans" font-size="10" lengthAdjust="spacing" textLength="105.5908" x="249" y="542.1152">name : VARCHAR(255)</text><text fill="#000000" font-family="Liberation Sans" font-size="10" lengthAdjust="spacing" textLength="101.1475" x="249" y="554.6934">stochastic : BOOLEAN</text><text fill="#000000" font-family="Liberation Sans" font-size="10" lengthAdjust="spacing" textLength="87.2412" x="249" y="567.2715">matrix_ids : JSONB</text><text fill="#000000" font-family="Liberation Sans" font-size="10" lengthAdjust="spacing" textLength="113.9355" x="249" y="579.8496">random_seed : INTEGER</text><text fill="#000000" font-family="Liberation Sans" font-size="10" lengthAdjust="spacing" textLength="97.2559" x="249" y="592.4277">initial_vector : JSONB</text><text fill="#000000" font-family="Liberation Sans" font-size="10" lengthAdjust="spacing" textLength="87.8076" x="249" y="605.0059">n_steps : INTEGER</text><text fill="#000000" font-family="Liberation Sans" font-size="10" lengthAdjust="spacing" textLength="101.1426" x="249" y="617.584">result_history : JSONB</text><text fill="#000000" font-family="Liberation Sans" font-size="10" lengthAdjust="spacing" textLength="101.7139" x="249" y="630.1621">stage_names : JSONB</text><text fill="#000000" font-family="Liberation Sans" font-size="10" lengthAdjust="spacing" textLength="125.6055" x="249" y="642.7402">matrices_snapshot : JSONB</text><text fill="#000000" font-family="Liberation Sans" font-size="10" lengthAdjust="spacing" textLength="117.8271" x="249" y="655.3184">matrix_sequence : JSONB</text><text fill="#000000" font-family="Liberation Sans" font-size="10" lengthAdjust="spacing" textLength="80.5811" x="249" y="667.8965">analytics : JSONB</text><text fill="#000000" font-family="Liberation Sans" font-size="10" lengthAdjust="spacing" textLength="106.1475" x="249" y="680.4746">created_at : DATETIME</text></g><!--class job--><g id="elem_job"><rect codeLine="75" fill="#F1F1F1" height="169.7813" id="job" rx="2.5" ry="2.5" style="stroke:#181818;stroke-width:0.5;" width="164.29" x="399" y="199"/><ellipse cx="445.9888" cy="213" fill="#ADD1B2" rx="9" ry="9" style="stroke:#181818;stroke-width:1;"/><path d="M445.4575,213.5313 L445.4575,215 L448.02,215 L448.02,214.4531 Q448.02,214.0938 448.1606,213.9375 Q448.3013,213.7813 448.52,213.7813 Q448.7388,213.7813 448.8794,213.9375 Q449.02,214.0938 449.02,214.4531 L449.02,216 L444.3013,216 Q443.9419,216 443.7856,215.8594 Q443.6294,215.7188 443.6294,215.5 Q443.6294,215.2813 443.7856,215.1406 Q443.9419,215 444.3013,215 L444.4575,215 L444.4575,211.0781 L444.3013,211.0781 Q443.9419,211.0781 443.7856,210.9375 Q443.6294,210.7969 443.6294,210.5781 Q443.6294,210.3594 443.7856,210.2188 Q443.9419,210.0781 444.3013,210.0781 L448.8013,210.0781 L448.8013,211.6094 Q448.8013,211.9688 448.6606,212.125 Q448.52,212.2656 448.3013,212.2656 Q448.0669,212.2656 447.9263,212.125 Q447.8013,211.9688 447.8013,211.6094 L447.8013,211.0781 L445.4575,211.0781 L445.4575,212.5313 L446.3481,212.5313 Q446.3481,212.1406 446.4106,212.0313 Q446.5669,211.7813 446.8481,211.7813 Q447.0669,211.7813 447.2075,211.9375 Q447.3481,212.0938 447.3481,212.4531 L447.3481,213.6094 Q447.3481,213.9375 447.27,214.0469 Q447.1138,214.2813 446.8481,214.2813 Q446.5669,214.2813 446.4106,214.0313 Q446.3481,213.9219 446.3481,213.5313 L445.4575,213.5313 Z " fill="#000000"/><text fill="#000000" font-family="Liberation Sans" font-size="10" lengthAdjust="spacing" textLength="62.8125" x="463.4888" y="217.0918">SimulationJob</text><line style="stroke:#181818;stroke-width:0.5;" x1="400" x2="562.29" y1="227" y2="227"/><ellipse cx="410" cy="238.7891" fill="#000000" rx="3" ry="3" style="stroke:#000000;stroke-width:1;"/><text fill="#000000" font-family="Liberation Sans" font-size="10" lengthAdjust="spacing" textLength="87.8076" x="417" y="241.3809">id : INTEGER &#171;PK&#187;</text><line style="stroke:#181818;stroke-width:1;" x1="400" x2="562.29" y1="247.5781" y2="247.5781"/><text fill="#000000" font-family="Liberation Sans" font-size="10" lengthAdjust="spacing" textLength="152.29" x="405" y="261.959">user_id : INTEGER &#171;FK, nullable&#187;</text><text fill="#000000" font-family="Liberation Sans" font-size="10" lengthAdjust="spacing" textLength="112.8223" x="405" y="274.5371">job_type : VARCHAR(64)</text><text fill="#000000" font-family="Liberation Sans" font-size="10" lengthAdjust="spacing" textLength="101.6943" x="405" y="287.1152">status : VARCHAR(32)</text><text fill="#000000" font-family="Liberation Sans" font-size="10" lengthAdjust="spacing" textLength="75.0195" x="405" y="299.6934">params : JSONB</text><text fill="#000000" font-family="Liberation Sans" font-size="10" lengthAdjust="spacing" textLength="125.6055" x="405" y="312.2715">matrices_snapshot : JSONB</text><text fill="#000000" font-family="Liberation Sans" font-size="10" lengthAdjust="spacing" textLength="66.1279" x="405" y="324.8496">result : JSONB</text><text fill="#000000" font-family="Liberation Sans" font-size="10" lengthAdjust="spacing" textLength="55.0049" x="405" y="337.4277">error : TEXT</text><text fill="#000000" font-family="Liberation Sans" font-size="10" lengthAdjust="spacing" textLength="106.1475" x="405" y="350.0059">created_at : DATETIME</text><text fill="#000000" font-family="Liberation Sans" font-size="10" lengthAdjust="spacing" textLength="108.9404" x="405" y="362.584">updated_at : DATETIME</text></g><!--link user to matrix--><g id="link_user_matrix"><path codeLine="89" d="M243.5,122.03 C243.5,140.11 243.5,135.01 243.5,155.84 " fill="none" id="user-matrix" style="stroke:#333333;stroke-width:1;"/><line style="stroke:#333333;stroke-width:1;" x1="239.5" x2="247.5" y1="118.03" y2="118.03"/><line style="stroke:#333333;stroke-width:1;" x1="239.5" x2="247.5" y1="121.03" y2="121.03"/><line style="stroke:#333333;stroke-width:1;" x1="243.5" x2="243.5" y1="122.03" y2="114.03"/><line style="stroke:#333333;stroke-width:1;" x1="243.5" x2="249.5" y1="165.84" y2="173.84"/><line style="stroke:#333333;stroke-width:1;" x1="243.5" x2="237.5" y1="165.84" y2="173.84"/><line style="stroke:#333333;stroke-width:1;" x1="243.5" x2="243.5" y1="165.84" y2="173.84"/><ellipse cx="243.5" cy="159.84" fill="none" rx="4" ry="4" style="stroke:#333333;stroke-width:1;"/><text fill="#555555" font-family="Liberation Sans" font-size="9" lengthAdjust="spacing" textLength="21.0103" x="221.5" y="141.2828">owns</text></g><!--link user to share--><g id="link_user_share"><path codeLine="90" d="M186.35,61 C126.36,61 63.25,61 63.25,61 C63.25,61 63.25,379.35 63.25,505.48 " fill="none" id="user-share" style="stroke:#333333;stroke-width:1;"/><line style="stroke:#333333;stroke-width:1;" x1="190.35" x2="190.35" y1="57" y2="65"/><line style="stroke:#333333;stroke-width:1;" x1="187.35" x2="187.35" y1="57" y2="65"/><line style="stroke:#333333;stroke-width:1;" x1="186.35" x2="194.35" y1="61" y2="61"/><line style="stroke:#333333;stroke-width:1;" x1="63.25" x2="69.25" y1="515.48" y2="523.48"/><line style="stroke:#333333;stroke-width:1;" x1="63.25" x2="57.25" y1="515.48" y2="523.48"/><line style="stroke:#333333;stroke-width:1;" x1="63.25" x2="63.25" y1="515.48" y2="523.48"/><ellipse cx="63.25" cy="509.48" fill="none" rx="4" ry="4" style="stroke:#333333;stroke-width:1;"/><text fill="#555555" font-family="Liberation Sans" font-size="9" lengthAdjust="spacing" textLength="33.5127" x="29.25" y="224.0328">receives</text></g><!--link matrix to share--><g id="link_matrix_share"><path codeLine="91" d="M155.25,402.36 C155.25,447.13 155.25,470.42 155.25,505.45 " fill="none" id="matrix-share" style="stroke:#333333;stroke-width:1;"/><line style="stroke:#333333;stroke-width:1;" x1="151.25" x2="159.25" y1="398.36" y2="398.36"/><line style="stroke:#333333;stroke-width:1;" x1="151.25" x2="159.25" y1="401.36" y2="401.36"/><line style="stroke:#333333;stroke-width:1;" x1="155.25" x2="155.25" y1="402.36" y2="394.36"/><line style="stroke:#333333;stroke-width:1;" x1="155.25" x2="161.25" y1="515.45" y2="523.45"/><line style="stroke:#333333;stroke-width:1;" x1="155.25" x2="149.25" y1="515.45" y2="523.45"/><line style="stroke:#333333;stroke-width:1;" x1="155.25" x2="155.25" y1="515.45" y2="523.45"/><ellipse cx="155.25" cy="509.45" fill="none" rx="4" ry="4" style="stroke:#333333;stroke-width:1;"/><text fill="#555555" font-family="Liberation Sans" font-size="9" lengthAdjust="spacing" textLength="41.5239" x="113.25" y="456.2528">shared via</text></g><!--link user to simrun--><g id="link_user_simrun"><path codeLine="92" d="M314.17,122.12 C314.17,202.23 314.17,329.14 314.17,435.79 " fill="none" id="user-simrun" style="stroke:#333333;stroke-width:1;"/><line style="stroke:#333333;stroke-width:1;" x1="310.17" x2="318.17" y1="118.12" y2="118.12"/><line style="stroke:#333333;stroke-width:1;" x1="310.17" x2="318.17" y1="121.12" y2="121.12"/><line style="stroke:#333333;stroke-width:1;" x1="314.17" x2="314.17" y1="122.12" y2="114.12"/><line style="stroke:#333333;stroke-width:1;" x1="314.17" x2="320.17" y1="445.79" y2="453.79"/><line style="stroke:#333333;stroke-width:1;" x1="314.17" x2="308.17" y1="445.79" y2="453.79"/><line style="stroke:#333333;stroke-width:1;" x1="314.17" x2="314.17" y1="445.79" y2="453.79"/><ellipse cx="314.17" cy="439.79" fill="none" rx="4" ry="4" style="stroke:#333333;stroke-width:1;"/><text fill="#555555" font-family="Liberation Sans" font-size="9" lengthAdjust="spacing" textLength="21.0103" x="315.17" y="281.2928">owns</text></g><!--link matrix to simrun--><g id="link_matrix_simrun"><path codeLine="93" d="M267.75,402.36 C267.75,421.75 267.75,415.99 267.75,435.55 " fill="none" id="matrix-simrun" style="stroke:#333333;stroke-width:1;"/><line style="stroke:#333333;stroke-width:1;" x1="263.75" x2="271.75" y1="398.36" y2="398.36"/><line style="stroke:#333333;stroke-width:1;" x1="263.75" x2="271.75" y1="401.36" y2="401.36"/><line style="stroke:#333333;stroke-width:1;" x1="267.75" x2="267.75" y1="402.36" y2="394.36"/><line style="stroke:#333333;stroke-width:1;" x1="267.75" x2="273.75" y1="445.55" y2="453.55"/><line style="stroke:#333333;stroke-width:1;" x1="267.75" x2="261.75" y1="445.55" y2="453.55"/><line style="stroke:#333333;stroke-width:1;" x1="267.75" x2="267.75" y1="445.55" y2="453.55"/><ellipse cx="267.75" cy="439.55" fill="none" rx="4" ry="4" style="stroke:#333333;stroke-width:1;"/><text fill="#555555" font-family="Liberation Sans" font-size="9" lengthAdjust="spacing" textLength="29.0215" x="237.75" y="421.2928">used in</text></g><!--link user to job--><g id="link_user_job"><path codeLine="94" d="M335.83,122.03 C335.83,188.15 335.83,284 335.83,284 C335.83,284 347.9,284 380.66,284 " fill="none" id="user-job" style="stroke:#333333;stroke-width:1;"/><line style="stroke:#333333;stroke-width:1;" x1="331.83" x2="339.83" y1="118.03" y2="118.03"/><line style="stroke:#333333;stroke-width:1;" x1="331.83" x2="339.83" y1="121.03" y2="121.03"/><line style="stroke:#333333;stroke-width:1;" x1="335.83" x2="335.83" y1="122.03" y2="114.03"/><line style="stroke:#333333;stroke-width:1;" x1="390.66" x2="398.66" y1="284" y2="278"/><line style="stroke:#333333;stroke-width:1;" x1="390.66" x2="398.66" y1="284" y2="290"/><line style="stroke:#333333;stroke-width:1;" x1="390.66" x2="398.66" y1="284" y2="284"/><ellipse cx="384.66" cy="284" fill="none" rx="4" ry="4" style="stroke:#333333;stroke-width:1;"/><text fill="#555555" font-family="Liberation Sans" font-size="9" lengthAdjust="spacing" textLength="31.0078" x="303.83" y="227.7728">submits</text></g><!--SRC=[hLJVJzim47xdhx3AopQjKg63COIG2aktyQEWjfls5bsIe_5mxCnsw3hO_xwpKrGtRLKcBG-HTT_T-RlxpcVkkIn1Gy4ol8DAsBwITW05iYkUe0RBbMGZa6R7hFCSyT_8zZe1Q7B8r9JB2Ri3OJ104aZl9rfLCZjNGcaspRaDSS4bsbc9J6cRgvq0GMcvdR777SREbCvGrmbsEvrkv-YzipPIxqPHlzll4U98DhqzSJiJo18bifq_uLMWjPhwc-PHNVyjPphmttCcru8FBikSPkkhGTrYO5X51v_h3UCPEsPV1kFeKpHa9oUtbwUdP6-twUUyfEluCVlM6vv_xWrV7RvxJG0Mm4LWtJyuSEOIZ9bI6-8SJBuAfnh1OXQ39UnZRnoDlrn78RrRLLR22tiDLlDVdchXZzl9ggb47JSS-fTlcQo4W4IWTpMgqYd6NircLQR4bAE98Ksn9A9hAb15eMJSwCaS9AKccIe2O6__g8wgfDMpE5LP6EQn1svumeKhFuWxT51TU0m4N8nk1cSBKxLgkWjCni84FKaJEgA536oORgiWjGoZ73HwBOmxRPTYpcb5Yre1boEBfzpciHkm3MvRkOruCH-MOILhThpGbNpPM6yTb4qrDDpMZuAnAgKtO7bAsDdDpLNK6uGvGrqqI9gQs206Lv6TIsuvYFW1KqjFUn4WOsEnD4lE6WtjlJZdTBEURPy5HoIbKJSIIfChkpfG1dzMA5CC490WPbIJ-PSHMiXqeH8lqm-L_2UDADE6bsp1LYOmT_Vh_KIBzALzg5iQ690MiDDX77qVRwoSc9VP-exudVlqr6whn-UbHXujsbkcjGJMhyo36bFa3qWEyuWb5tAeNnEj4MZagD_2ue96V0qJIa4PpTfoj9E8rGnCbHJSKeA_]--></g></svg>