<svg xmlns="http://www.w3.org/2000/svg" xmlns:xlink="http://www.w3.org/1999/xlink" contentStyleType="text/css" height="685px" preserveAspectRatio="none" style="width:201px;height:685px;background:#FFFFFF;" version="1.1" viewBox="0 0 201 685" width="201px" zoomAndPan="magnify"><defs/><g><!--cluster FastAPI Application  (:8000)--><g id="cluster_FastAPI Application  (:8000)"><path d="M20,225.5 L165.4707,225.5 A4.5,4.5 0 0 1 168.4707,228.5 L175.4707,245.3359 L175,245.3359 A3,3 0 0 1 178,248.3359 L178,564.5 A3,3 0 0 1 175,567.5 L20,567.5 A3,3 0 0 1 17,564.5 L17,228.5 A3,3 0 0 1 20,225.5 " fill="#EEF3FA" style="stroke:#003087;stroke-width:1.5;"/><line style="stroke:#003087;stroke-width:1.5;" x1="17" x2="175.4707" y1="245.3359" y2="245.3359"/><text fill="#003087" font-family="Liberation Sans" font-size="11" font-weight="bold" lengthAdjust="spacing" textLength="145.4707" x="21" y="238.9189">FastAPI Application  (:8000)</text></g><!--entity ctrl--><g id="elem_ctrl"><rect fill="#D6E8F7" height="57.6719" rx="3" ry="3" style="stroke:#0056A0;stroke-width:0.5;" width="112.7354" x="40.5" y="257.5"/><rect fill="#D6E8F7" height="10" style="stroke:#0056A0;stroke-width:0.5;" width="15" x="133.2354" y="262.5"/><rect fill="#D6E8F7" height="2" style="stroke:#0056A0;stroke-width:0.5;" width="4" x="131.2354" y="264.5"/><rect fill="#D6E8F7" height="2" style="stroke:#0056A0;stroke-width:0.5;" width="4" x="131.2354" y="268.5"/><text fill="#003087" font-family="Liberation Sans" font-size="11" lengthAdjust="spacing" textLength="53.1846" x="55.5" y="288.9189">Controllers</text><text fill="#003087" font-family="Liberation Sans" font-size="11" lengthAdjust="spacing" textLength="72.7354" x="55.5" y="302.7549">(HTTP routing)</text></g><!--entity svc--><g id="elem_svc"><rect fill="#D6E8F7" height="57.6719" rx="3" ry="3" style="stroke:#0056A0;stroke-width:0.5;" width="117.6392" x="38" y="375.5"/><rect fill="#D6E8F7" height="10" style="stroke:#0056A0;stroke-width:0.5;" width="15" x="135.6392" y="380.5"/><rect fill="#D6E8F7" height="2" style="stroke:#0056A0;stroke-width:0.5;" width="4" x="133.6392" y="382.5"/><rect fill="#D6E8F7" height="2" style="stroke:#0056A0;stroke-width:0.5;" width="4" x="133.6392" y="386.5"/><text fill="#003087" font-family="Liberation Sans" font-size="11" lengthAdjust="spacing" textLength="42.1792" x="53" y="406.9189">Services</text><text fill="#003087" font-family="Liberation Sans" font-size="11" lengthAdjust="spacing" textLength="77.6392" x="53" y="420.7549">(Business logic)</text></g><!--entity repo--><g id="elem_repo"><rect fill="#D6E8F7" height="57.6719" rx="3" ry="3" style="stroke:#0056A0;stroke-width:0.5;" width="107.853" x="43" y="493.5"/><rect fill="#D6E8F7" height="10" style="stroke:#0056A0;stroke-width:0.5;" width="15" x="130.853" y="498.5"/><rect fill="#D6E8F7" height="2" style="stroke:#0056A0;stroke-width:0.5;" width="4" x="128.853" y="500.5"/><rect fill="#D6E8F7" height="2" style="stroke:#0056A0;stroke-width:0.5;" width="4" x="128.853" y="504.5"/><text fill="#003087" font-family="Liberation Sans" font-size="11" lengthAdjust="spacing" textLength="61.1392" x="58" y="524.9189">Repositories</text><text fill="#003087" font-family="Liberation Sans" font-size="11" lengthAdjust="spacing" textLength="67.853" x="58" y="538.7549">(Data access)</text></g><!--entity user--><g id="elem_user"><ellipse cx="97" cy="14" fill="#F5E6D3" rx="8" ry="8" style="stroke:#8B4513;stroke-width:0.5;"/><path d="M97,22 L97,49 M84,30 L110,30 M97,49 L84,64 M97,49 L110,64 " fill="none" style="stroke:#8B4513;stroke-width:0.5;"/><text fill="#8B4513" font-family="Liberation Sans" font-size="11" font-weight="bold" lengthAdjust="spacing" textLength="24.46" x="84.77" y="76.9189">User</text></g><!--entity frontend--><g id="elem_frontend"><rect fill="#D6E8F7" height="57.6719" rx="3" ry="3" style="stroke:#0056A0;stroke-width:0.5;" width="114.5991" x="39.5" y="139.5"/><rect fill="#D6E8F7" height="10" style="stroke:#0056A0;stroke-width:0.5;" width="15" x="134.0991" y="144.5"/><rect fill="#D6E8F7" height="2" style="stroke:#0056A0;stroke-width:0.5;" width="4" x="132.0991" y="146.5"/><rect fill="#D6E8F7" height="2" style="stroke:#0056A0;stroke-width:0.5;" width="4" x="132.0991" y="150.5"/><text fill="#003087" font-family="Liberation Sans" font-size="11" lengthAdjust="spacing" textLength="74.5991" x="54.5" y="170.9189">Shiny Frontend</text><text fill="#003087" font-family="Liberation Sans" font-size="11" lengthAdjust="spacing" textLength="73.9922" x="54.5" y="184.7549">(app.py  :8080)</text></g><!--entity db--><g id="elem_db"><path d="M9.5,621.5 C9.5,611.5 97.1392,611.5 97.1392,611.5 C97.1392,611.5 184.7783,611.5 184.7783,621.5 L184.7783,658.1719 C184.7783,668.1719 97.1392,668.1719 97.1392,668.1719 C97.1392,668.1719 9.5,668.1719 9.5,658.1719 L9.5,621.5 " fill="#E6F0D8" style="stroke:#5A7A3A;stroke-width:0.5;"/><path d="M9.5,621.5 C9.5,631.5 97.1392,631.5 97.1392,631.5 C97.1392,631.5 184.7783,631.5 184.7783,621.5 " fill="none" style="stroke:#5A7A3A;stroke-width:0.5;"/><text fill="#3A5A1A" font-family="Liberation Sans" font-size="11" font-weight="bold" lengthAdjust="spacing" textLength="78.8584" x="19.5" y="646.9189">PostgreSQL 16</text><text fill="#3A5A1A" font-family="Liberation Sans" font-size="11" font-weight="bold" lengthAdjust="spacing" textLength="155.2783" x="19.5" y="660.7549">users &#183; matrices &#183; simulations</text></g><!--link user to frontend--><g id="link_user_frontend"><path d="M97,79.62 C97,98.64 97,115.47 97,133.23 " fill="none" id="user-to-frontend" style="stroke:#333333;stroke-width:1;"/><polygon fill="#333333" points="97,139.23,101,130.23,97,134.23,93,130.23,97,139.23" style="stroke:#333333;stroke-width:1;"/><text fill="#555555" font-family="Liberation Sans" font-size="10" lengthAdjust="spacing" textLength="53.9111" x="43" y="106.8009">HTTP :8080</text></g><!--link frontend to ctrl--><g id="link_frontend_ctrl"><path d="M97,197.67 C97,215.82 97,233.09 97,251.26 " fill="none" id="frontend-to-ctrl" style="stroke:#333333;stroke-width:1;"/><polygon fill="#333333" points="97,257.26,101,248.26,97,252.26,93,248.26,97,257.26" style="stroke:#333333;stroke-width:1;"/><text fill="#555555" font-family="Liberation Sans" font-size="10" lengthAdjust="spacing" textLength="89.4775" x="7" y="224.8409">REST / JSON :8000</text></g><!--link ctrl to svc--><g id="link_ctrl_svc"><path d="M97,315.67 C97,333.82 97,351.09 97,369.26 " fill="none" id="ctrl-to-svc" style="stroke:#333333;stroke-width:1;"/><polygon fill="#333333" points="97,375.26,101,366.26,97,370.26,93,366.26,97,375.26" style="stroke:#333333;stroke-width:1;"/></g><!--link svc to repo--><g id="link_svc_repo"><path d="M97,433.67 C97,451.82 97,469.09 97,487.26 " fill="none" id="svc-to-repo" style="stroke:#333333;stroke-width:1;"/><polygon fill="#333333" points="97,493.26,101,484.26,97,488.26,93,484.26,97,493.26" style="stroke:#333333;stroke-width:1;"/></g><!--link repo to db--><g id="link_repo_db"><path d="M97,551.54 C97,569.76 97,587.14 97,605.29 " fill="none" id="repo-to-db" style="stroke:#333333;stroke-width:1;"/><polygon fill="#333333" points="97,611.29,101,602.29,97,606.29,93,602.29,97,611.29" style="stroke:#333333;stroke-width:1;"/><text fill="#555555" font-family="Liberation Sans" font-size="10" lengthAdjust="spacing" textLength="84.4629" x="12" y="578.8009">SQLAlchemy ORM</text></g><!--SRC=[XL9FRzem5B_xKppHItVePiGIeXucGI7QfgvbXDvwUKaCM7Nio3P5RDhdsdsVRBO39McZpH8eUhz_Vi_FF75PeyOAIhR6dR2falOEAmQtF6SQBLSICfI6c3vcndym60vRe5OxMTueBPc6k5KtMopLdiiDh54Ora9oB9usHvbG6lPRRjkuu9BPGyr0QRjLf8LWOHt_9m6OAbqotUWlakd7Q3ZorLVE5saqZsSUyNT_pGxzs8DWa2jHab_jf49LjP9CshTfb4RnXFQbpU9vaewxQPIEQ3BkcjTEY1lMPnt8FTRpUJfA9xtM_swaH8ivcfwm2CSumjwmEAMpf1ismWY7-9ymr5hjGz995KxNAGhdv1JsYNgRvd473uRf0Q21dViWvFmGWspBvG5IxMHCbe_o4klwVNq0k4veGjy5qVg84d8QyY15OoUBBp2fQy6BPi7Xqccer_ZBjZ9kd5mh8PWsBk3pQhNm2sxT6ZV-XTMYgyYOVkO5y_JfphZLDGQ4sl2Y4PZdeijVibePxbhbGJDpx-FssXcOHg0TxiVnyd23XJ9serds_HQ6yQFqSp7mvpTKQBLFzj-6LpiHUZF1fSm9yKG8v-hgqyjatBWWz1McHivbJ_BjDP9hMCwp5No0hzdz7OHfaJFgkRupzuDp9LpT_vrBPNx4dQ5hO2AABQiESB_yHlu2]--></g></svg>