<svg xmlns="http://www.w3.org/2000/svg" xmlns:xlink="http://www.w3.org/1999/xlink" contentStyleType="text/css" height="239px" preserveAspectRatio="none" style="width:364px;height:239px;background:#FFFFFF;" version="1.1" viewBox="0 0 364 239" width="364px" zoomAndPan="magnify"><defs/><g><!--entity user--><g id="elem_user"><ellipse cx="73.5281" cy="14" fill="#D6E4F0" rx="8" ry="8" style="stroke:#003087;stroke-width:0.5;"/><path d="M73.5281,22 L73.5281,49 M60.5281,30 L86.5281,30 M73.5281,49 L60.5281,64 M73.5281,49 L86.5281,64 " fill="none" style="stroke:#003087;stroke-width:0.5;"/><text fill="#003087" font-family="Liberation Sans" font-size="11" font-weight="bold" lengthAdjust="spacing" textLength="24.46" x="13.02" y="76.9189">User</text><text fill="#003087" font-family="Liberation Sans" font-size="11" font-weight="bold" lengthAdjust="spacing" textLength="121.0161" x="13.02" y="90.7549">(Browser / HTTP client)</text></g><!--entity system--><g id="elem_system"><rect fill="#003087" height="52.7031" rx="4" ry="4" style="stroke:#003087;stroke-width:2;" width="202.0254" x="34.52" y="180.5"/><text fill="#FFFFFF" font-family="Liberation Sans" font-size="13" font-weight="bold" lengthAdjust="spacing" textLength="179.8291" x="44.52" y="203.9951">Population Growth Simulator</text><text fill="#FFFFFF" font-family="Liberation Sans" font-size="13" font-weight="bold" lengthAdjust="spacing" textLength="182.0254" x="44.52" y="220.3467">FastAPI &#183; Shiny &#183; PostgreSQL</text></g><!--entity compadre--><g id="elem_compadre"><path d="M221.52,31 C221.52,21 284.3957,21 284.3957,21 C284.3957,21 347.2715,21 347.2715,31 L347.2715,67.6719 C347.2715,77.6719 284.3957,77.6719 284.3957,77.6719 C284.3957,77.6719 221.52,77.6719 221.52,67.6719 L221.52,31 " fill="#E9ECEF" style="stroke:#6C757D;stroke-width:0.5;"/><path d="M221.52,31 C221.52,41 284.3957,41 284.3957,41 C284.3957,41 347.2715,41 347.2715,31 " fill="none" style="stroke:#6C757D;stroke-width:0.5;"/><text fill="#495057" font-family="Liberation Sans" font-size="11" font-weight="bold" lengthAdjust="spacing" textLength="64.1685" x="231.52" y="56.4189">COMPADRE</text><text fill="#495057" font-family="Liberation Sans" font-size="11" font-weight="bold" lengthAdjust="spacing" textLength="105.7515" x="231.52" y="70.2549">(External matrix DB)</text></g><!--link user to system--><g id="link_user_system"><path d="M27.46,93.93 C14.17,111.72 6,132.36 17.52,150.5 C25.47,163.02 31.8983,169.7281 44.7683,177.2981 " fill="none" id="user-to-system" style="stroke:#333333;stroke-width:1;"/><polygon fill="#333333" points="49.94,180.34,44.2104,172.3293,45.6302,177.805,40.1545,179.2249,49.94,180.34" style="stroke:#333333;stroke-width:1;"/><text fill="#555555" font-family="Liberation Sans" font-size="10" lengthAdjust="spacing" textLength="73.9063" x="18.52" y="134.8809">Browse matrices</text><text fill="#555555" font-family="Liberation Sans" font-size="10" lengthAdjust="spacing" textLength="71.1426" x="19.9018" y="147.459">Run simulations</text></g><!--link system to user--><g id="link_system_user"><path d="M125.31,180.4 C115.95,156.92 104.1232,127.2429 93.0132,99.3929 " fill="none" id="system-to-user" style="stroke:#333333;stroke-width:1;"/><polygon fill="#333333" points="90.79,93.82,90.4095,103.6615,92.6426,98.4641,97.84,100.6973,90.79,93.82" style="stroke:#333333;stroke-width:1;"/><text fill="#555555" font-family="Liberation Sans" font-size="10" lengthAdjust="spacing" textLength="107.251" x="113.52" y="141.3809">Results &#183; Plots &#183; Exports</text></g><!--link compadre to system--><g id="link_compadre_system"><path d="M274.13,78.08 C264.92,99.72 249.8,129.59 229.52,150.5 C218.3,162.06 209.3349,169.0165 195.4649,177.2165 " fill="none" id="compadre-to-system" style="stroke:#333333;stroke-width:1;"/><polygon fill="#333333" points="190.3,180.27,200.083,179.133,194.6041,177.7254,196.0117,172.2465,190.3,180.27" style="stroke:#333333;stroke-width:1;"/><text fill="#555555" font-family="Liberation Sans" font-size="10" lengthAdjust="spacing" textLength="49.4629" x="266.7563" y="134.8809">Matrix data</text><text fill="#555555" font-family="Liberation Sans" font-size="10" lengthAdjust="spacing" textLength="83.9355" x="249.52" y="147.459">(seeded at startup)</text></g><!--SRC=[XPEnRjim48PtFSN1MPeXg5B7SPAXG6pBRO6aKIrtot8MBnPXYXHu56mtw7DrxvE54jrMIerM4_7VtVz_f4ZUI5sXnH84FM6jtDneznbBWZkv8ejE6WqPQexuM6Scln6SdtUArjHQJ8tLPE6getE1mcobNiCJAgPEPONvPdqOKyR2jf2Eeau3vixBpn70n5X1DhITnF4mlXetwYk3azbbSZ6FVQL1VDtTOhkz8bWP9QBltIHBkKEzzhL_fBNgif3vHXCpl3j6q4lhRkkl_8FGdkEmJoFGuGhv2CnbFXwDnR7Wv3gP9lF-rY-kH_7eVrj7QyssJJfC3TklxpHglnvptDY4FpJuocGVzPk9T_8hU0iVbyiKSYL9kzC184FjzUZFAGzIKzKgNB8FVieLaCcoKOmtcYExs_GJ_Fm1MI7rlbcaXjtQKlRbhlNZFJigezydDPW-tAUtiqNYCPAT8wjHGOdEoXtC9e4XDsM5mlehrj30sTdxWmtSG40F4pdnerxK6ZWWUKZ_2a9dCzHEty22s3y6Rk6K2OjaLndhEFeLrG-v3pmDjCTa8a42q04xjAwkJgCN]--></g></svg>