<svg xmlns="http://www.w3.org/2000/svg" xmlns:xlink="http://www.w3.org/1999/xlink" contentStyleType="text/css" height="978px" preserveAspectRatio="none" style="width:1098px;height:978px;background:#FFFFFF;" version="1.1" viewBox="0 0 1098 978" width="1098px" zoomAndPan="magnify"><defs/><g><rect fill="none" height="541.4609" style="stroke:#000000;stroke-width:1.5;" width="1081.6543" x="10" y="343.2266"/><rect fill="none" height="338.8359" style="stroke:#000000;stroke-width:1.5;" width="1061.6543" x="20" y="538.8516"/><line style="stroke:#181818;stroke-width:0.5;stroke-dasharray:5.0,5.0;" x1="44" x2="44" y1="77.5781" y2="901.6875"/><line style="stroke:#181818;stroke-width:0.5;stroke-dasharray:5.0,5.0;" x1="204.7261" x2="204.7261" y1="77.5781" y2="901.6875"/><line style="stroke:#181818;stroke-width:0.5;stroke-dasharray:5.0,5.0;" x1="401.8979" x2="401.8979" y1="77.5781" y2="901.6875"/><line style="stroke:#181818;stroke-width:0.5;stroke-dasharray:5.0,5.0;" x1="599.3926" x2="599.3926" y1="77.5781" y2="901.6875"/><line style="stroke:#181818;stroke-width:0.5;stroke-dasharray:5.0,5.0;" x1="835.8472" x2="835.8472" y1="77.5781" y2="901.6875"/><line style="stroke:#181818;stroke-width:0.5;stroke-dasharray:5.0,5.0;" x1="1041.1816" x2="1041.1816" y1="77.5781" y2="901.6875"/><text fill="#8B4513" font-family="Liberation Sans" font-size="10" font-weight="bold" lengthAdjust="spacing" textLength="22.2363" x="30" y="75.3809">User</text><ellipse cx="44.1182" cy="13.5" fill="#F5E6D3" rx="8" ry="8" style="stroke:#8B4513;stroke-width:0.5;"/><path d="M44.1182,21.5 L44.1182,48.5 M31.1182,29.5 L57.1182,29.5 M44.1182,48.5 L31.1182,63.5 M44.1182,48.5 L57.1182,63.5 " fill="none" style="stroke:#8B4513;stroke-width:0.5;"/><text fill="#8B4513" font-family="Liberation Sans" font-size="10" font-weight="bold" lengthAdjust="spacing" textLength="22.2363" x="30" y="911.0684">User</text><ellipse cx="44.1182" cy="921.7656" fill="#F5E6D3" rx="8" ry="8" style="stroke:#8B4513;stroke-width:0.5;"/><path d="M44.1182,929.7656 L44.1182,956.7656 M31.1182,937.7656 L57.1182,937.7656 M44.1182,956.7656 L31.1182,971.7656 M44.1182,956.7656 L57.1182,971.7656 " fill="none" style="stroke:#8B4513;stroke-width:0.5;"/><rect fill="#D6E8F7" height="26.5781" rx="2.5" ry="2.5" style="stroke:#0056A0;stroke-width:0.5;" width="57.3252" x="176.7261" y="50"/><text fill="#003087" font-family="Liberation Sans" font-size="10" font-weight="bold" lengthAdjust="spacing" textLength="43.3252" x="183.7261" y="67.3809">Frontend</text><rect fill="#D6E8F7" height="26.5781" rx="2.5" ry="2.5" style="stroke:#0056A0;stroke-width:0.5;" width="57.3252" x="176.7261" y="900.6875"/><text fill="#003087" font-family="Liberation Sans" font-size="10" font-weight="bold" lengthAdjust="spacing" textLength="43.3252" x="183.7261" y="918.0684">Frontend</text><rect fill="#D6E8F7" height="26.5781" rx="2.5" ry="2.5" style="stroke:#0056A0;stroke-width:0.5;" width="61.7783" x="371.8979" y="50"/><text fill="#003087" font-family="Liberation Sans" font-size="10" font-weight="bold" lengthAdjust="spacing" textLength="47.7783" x="378.8979" y="67.3809">Controller</text><rect fill="#D6E8F7" height="26.5781" rx="2.5" ry="2.5" style="stroke:#0056A0;stroke-width:0.5;" width="61.7783" x="371.8979" y="900.6875"/><text fill="#003087" font-family="Liberation Sans" font-size="10" font-weight="bold" lengthAdjust="spacing" textLength="47.7783" x="378.8979" y="918.0684">Controller</text><rect fill="#D6E8F7" height="26.5781" rx="2.5" ry="2.5" style="stroke:#0056A0;stroke-width:0.5;" width="49.5859" x="575.3926" y="50"/><text fill="#003087" font-family="Liberation Sans" font-size="10" font-weight="bold" lengthAdjust="spacing" textLength="35.5859" x="582.3926" y="67.3809">Service</text><rect fill="#D6E8F7" height="26.5781" rx="2.5" ry="2.5" style="stroke:#0056A0;stroke-width:0.5;" width="49.5859" x="575.3926" y="900.6875"/><text fill="#003087" font-family="Liberation Sans" font-size="10" font-weight="bold" lengthAdjust="spacing" textLength="35.5859" x="582.3926" y="918.0684">Service</text><rect fill="#D6E8F7" height="26.5781" rx="2.5" ry="2.5" style="stroke:#0056A0;stroke-width:0.5;" width="66.2314" x="802.8472" y="50"/><text fill="#003087" font-family="Liberation Sans" font-size="10" font-weight="bold" lengthAdjust="spacing" textLength="52.2314" x="809.8472" y="67.3809">Repository</text><rect fill="#D6E8F7" height="26.5781" rx="2.5" ry="2.5" style="stroke:#0056A0;stroke-width:0.5;" width="66.2314" x="802.8472" y="900.6875"/><text fill="#003087" font-family="Liberation Sans" font-size="10" font-weight="bold" lengthAdjust="spacing" textLength="52.2314" x="809.8472" y="918.0684">Repository</text><text fill="#3A5A1A" font-family="Liberation Sans" font-size="10" lengthAdjust="spacing" textLength="54.4727" x="1011.1816" y="75.3809">PostgreSQL</text><path d="M1023.418,29 C1023.418,19 1041.418,19 1041.418,19 C1041.418,19 1059.418,19 1059.418,29 L1059.418,55 C1059.418,65 1041.418,65 1041.418,65 C1041.418,65 1023.418,65 1023.418,55 L1023.418,29 " fill="#E6F0D8" style="stroke:#5A7A3A;stroke-width:1.5;"/><path d="M1023.418,29 C1023.418,39 1041.418,39 1041.418,39 C1041.418,39 1059.418,39 1059.418,29 " fill="none" style="stroke:#5A7A3A;stroke-width:1.5;"/><text fill="#3A5A1A" font-family="Liberation Sans" font-size="10" lengthAdjust="spacing" textLength="54.4727" x="1011.1816" y="911.0684">PostgreSQL</text><path d="M1023.418,923.2656 C1023.418,913.2656 1041.418,913.2656 1041.418,913.2656 C1041.418,913.2656 1059.418,913.2656 1059.418,923.2656 L1059.418,949.2656 C1059.418,959.2656 1041.418,959.2656 1041.418,959.2656 C1041.418,959.2656 1023.418,959.2656 1023.418,949.2656 L1023.418,923.2656 " fill="#E6F0D8" style="stroke:#5A7A3A;stroke-width:1.5;"/><path d="M1023.418,923.2656 C1023.418,933.2656 1041.418,933.2656 1041.418,933.2656 C1041.418,933.2656 1059.418,933.2656 1059.418,923.2656 " fill="none" style="stroke:#5A7A3A;stroke-width:1.5;"/><polygon fill="#181818" points="193.3887,114.7344,203.3887,118.7344,193.3887,122.7344,197.3887,118.7344" style="stroke:#181818;stroke-width:1;"/><line style="stroke:#181818;stroke-width:1;" x1="44.1182" x2="199.3887" y1="118.7344" y2="118.7344"/><text fill="#000000" font-family="Liberation Sans" font-size="10" lengthAdjust="spacing" textLength="98.916" x="51.1182" y="101.959">1. Fill registration form</text><text fill="#000000" font-family="Liberation Sans" font-size="10" lengthAdjust="spacing" textLength="128.9355" x="59.4531" y="114.5371">(username, email, password)</text><polygon fill="#181818" points="390.7871,141.3125,400.7871,145.3125,390.7871,149.3125,394.7871,145.3125" style="stroke:#181818;stroke-width:1;"/><line style="stroke:#181818;stroke-width:1;" x1="205.3887" x2="396.7871" y1="145.3125" y2="145.3125"/><text fill="#000000" font-family="Liberation Sans" font-size="10" lengthAdjust="spacing" textLength="173.3984" x="212.3887" y="141.1152">2. POST /v1/auth/register (JSON body)</text><path d="M325,158.3125 L325,224.3125 L480,224.3125 L480,168.3125 L470,158.3125 L325,158.3125 " fill="#FFFDE7" style="stroke:#AAAAAA;stroke-width:0.5;"/><path d="M470,158.3125 L470,168.3125 L480,168.3125 L470,158.3125 " fill="#FFFDE7" style="stroke:#AAAAAA;stroke-width:0.5;"/><text fill="#000000" font-family="Liberation Sans" font-size="9" lengthAdjust="spacing" textLength="133.5674" x="331" y="172.6553">3. Pydantic UserCreate validation</text><text fill="#000000" font-family="Liberation Sans" font-size="9" lengthAdjust="spacing" textLength="126.7163" x="338.5015" y="183.9756">username &#8805; 3 chars, no spaces</text><text fill="#000000" font-family="Liberation Sans" font-size="9" lengthAdjust="spacing" textLength="49.5132" x="338.5015" y="195.2959">email format</text><text fill="#000000" font-family="Liberation Sans" font-size="9" lengthAdjust="spacing" textLength="79.1851" x="338.5015" y="206.6162">password &#8805; 8 chars</text><text fill="#000000" font-family="Liberation Sans" font-size="9" lengthAdjust="spacing" textLength="69.0205" x="338.5015" y="217.9365">(server-enforced)</text><polygon fill="#181818" points="588.1855,244.4922,598.1855,248.4922,588.1855,252.4922,592.1855,248.4922" style="stroke:#181818;stroke-width:1;"/><line style="stroke:#181818;stroke-width:1;" x1="402.7871" x2="594.1855" y1="248.4922" y2="248.4922"/><text fill="#000000" font-family="Liberation Sans" font-size="10" lengthAdjust="spacing" textLength="173.3984" x="409.7871" y="244.2949">4. register(username, email, password)</text><polygon fill="#181818" points="823.9629,271.0703,833.9629,275.0703,823.9629,279.0703,827.9629,275.0703" style="stroke:#181818;stroke-width:1;"/><line style="stroke:#181818;stroke-width:1;" x1="600.1855" x2="829.9629" y1="275.0703" y2="275.0703"/><text fill="#000000" font-family="Liberation Sans" font-size="10" lengthAdjust="spacing" textLength="142.2998" x="607.1855" y="270.873">5. get_by_username(username)</text><polygon fill="#181818" points="1029.418,297.6484,1039.418,301.6484,1029.418,305.6484,1033.418,301.6484" style="stroke:#181818;stroke-width:1;"/><line style="stroke:#181818;stroke-width:1;" x1="835.9629" x2="1035.418" y1="301.6484" y2="301.6484"/><text fill="#000000" font-family="Liberation Sans" font-size="10" lengthAdjust="spacing" textLength="181.4551" x="842.9629" y="297.4512">6. SELECT users WHERE username = ?</text><polygon fill="#181818" points="846.9629,324.2266,836.9629,328.2266,846.9629,332.2266,842.9629,328.2266" style="stroke:#181818;stroke-width:1;"/><line style="stroke:#181818;stroke-width:1;stroke-dasharray:2.0,2.0;" x1="840.9629" x2="1040.418" y1="328.2266" y2="328.2266"/><text fill="#000000" font-family="Liberation Sans" font-size="10" lengthAdjust="spacing" textLength="35.5713" x="852.9629" y="324.0293">7. result</text><path d="M10,343.2266 L66.6699,343.2266 L66.6699,347.8047 L56.6699,357.8047 L10,357.8047 L10,343.2266 " fill="#EEEEEE" style="stroke:#000000;stroke-width:1.5;"/><rect fill="none" height="541.4609" style="stroke:#000000;stroke-width:1.5;" width="1081.6543" x="10" y="343.2266"/><text fill="#000000" font-family="Liberation Sans" font-size="10" font-weight="bold" lengthAdjust="spacing" textLength="11.6699" x="25" y="354.6074">alt</text><text fill="#000000" font-family="Liberation Sans" font-size="10" font-weight="bold" lengthAdjust="spacing" textLength="120.6104" x="81.6699" y="355.6074">[username already taken]</text><polygon fill="#181818" points="413.7871,372.3828,403.7871,376.3828,413.7871,380.3828,409.7871,376.3828" style="stroke:#181818;stroke-width:1;"/><line style="stroke:#181818;stroke-width:1;stroke-dasharray:2.0,2.0;" x1="407.7871" x2="599.1855" y1="376.3828" y2="376.3828"/><text fill="#000000" font-family="Liberation Sans" font-size="10" lengthAdjust="spacing" textLength="70.0244" x="419.7871" y="372.1855">raise HTTP 409</text><polygon fill="#181818" points="216.3887,398.9609,206.3887,402.9609,216.3887,406.9609,212.3887,402.9609" style="stroke:#181818;stroke-width:1;"/><line style="stroke:#181818;stroke-width:1;stroke-dasharray:2.0,2.0;" x1="210.3887" x2="401.7871" y1="402.9609" y2="402.9609"/><text fill="#000000" font-family="Liberation Sans" font-size="10" lengthAdjust="spacing" textLength="52.8076" x="222.3887" y="398.7637">409 Conflict</text><polygon fill="#181818" points="55.1182,425.5391,45.1182,429.5391,55.1182,433.5391,51.1182,429.5391" style="stroke:#181818;stroke-width:1;"/><line style="stroke:#181818;stroke-width:1;stroke-dasharray:2.0,2.0;" x1="49.1182" x2="204.3887" y1="429.5391" y2="429.5391"/><text fill="#000000" font-family="Liberation Sans" font-size="10" lengthAdjust="spacing" textLength="116.0449" x="61.1182" y="425.3418">"Username already taken"</text><line style="stroke:#000000;stroke-width:1;stroke-dasharray:2.0,2.0;" x1="10" x2="1091.6543" y1="438.5391" y2="438.5391"/><text fill="#000000" font-family="Liberation Sans" font-size="10" font-weight="bold" lengthAdjust="spacing" textLength="98.9355" x="15" y="448.9199">[username available]</text><polygon fill="#181818" points="823.9629,466.6953,833.9629,470.6953,823.9629,474.6953,827.9629,470.6953" style="stroke:#181818;stroke-width:1;"/><line style="stroke:#181818;stroke-width:1;" x1="600.1855" x2="829.9629" y1="470.6953" y2="470.6953"/><text fill="#000000" font-family="Liberation Sans" font-size="10" lengthAdjust="spacing" textLength="101.1572" x="607.1855" y="466.498">8. get_by_email(email)</text><polygon fill="#181818" points="1029.418,493.2734,1039.418,497.2734,1029.418,501.2734,1033.418,497.2734" style="stroke:#181818;stroke-width:1;"/><line style="stroke:#181818;stroke-width:1;" x1="835.9629" x2="1035.418" y1="497.2734" y2="497.2734"/><text fill="#000000" font-family="Liberation Sans" font-size="10" lengthAdjust="spacing" textLength="160.8838" x="842.9629" y="493.0762">9. SELECT users WHERE email = ?</text><polygon fill="#181818" points="846.9629,519.8516,836.9629,523.8516,846.9629,527.8516,842.9629,523.8516" style="stroke:#181818;stroke-width:1;"/><line style="stroke:#181818;stroke-width:1;stroke-dasharray:2.0,2.0;" x1="840.9629" x2="1040.418" y1="523.8516" y2="523.8516"/><text fill="#000000" font-family="Liberation Sans" font-size="10" lengthAdjust="spacing" textLength="41.1328" x="852.9629" y="519.6543">10. result</text><path d="M20,538.8516 L76.6699,538.8516 L76.6699,543.4297 L66.6699,553.4297 L20,553.4297 L20,538.8516 " fill="#EEEEEE" style="stroke:#000000;stroke-width:1.5;"/><rect fill="none" height="338.8359" style="stroke:#000000;stroke-width:1.5;" width="1061.6543" x="20" y="538.8516"/><text fill="#000000" font-family="Liberation Sans" font-size="10" font-weight="bold" lengthAdjust="spacing" textLength="11.6699" x="35" y="550.2324">alt</text><text fill="#000000" font-family="Liberation Sans" font-size="10" font-weight="bold" lengthAdjust="spacing" textLength="121.167" x="91.6699" y="551.2324">[email already registered]</text><polygon fill="#181818" points="413.7871,568.0078,403.7871,572.0078,413.7871,576.0078,409.7871,572.0078" style="stroke:#181818;stroke-width:1;"/><line style="stroke:#181818;stroke-width:1;stroke-dasharray:2.0,2.0;" x1="407.7871" x2="599.1855" y1="572.0078" y2="572.0078"/><text fill="#000000" font-family="Liberation Sans" font-size="10" lengthAdjust="spacing" textLength="70.0244" x="419.7871" y="567.8105">raise HTTP 409</text><polygon fill="#181818" points="216.3887,594.5859,206.3887,598.5859,216.3887,602.5859,212.3887,598.5859" style="stroke:#181818;stroke-width:1;"/><line style="stroke:#181818;stroke-width:1;stroke-dasharray:2.0,2.0;" x1="210.3887" x2="401.7871" y1="598.5859" y2="598.5859"/><text fill="#000000" font-family="Liberation Sans" font-size="10" lengthAdjust="spacing" textLength="52.8076" x="222.3887" y="594.3887">409 Conflict</text><polygon fill="#181818" points="55.1182,621.1641,45.1182,625.1641,55.1182,629.1641,51.1182,625.1641" style="stroke:#181818;stroke-width:1;"/><line style="stroke:#181818;stroke-width:1;stroke-dasharray:2.0,2.0;" x1="49.1182" x2="204.3887" y1="625.1641" y2="625.1641"/><text fill="#000000" font-family="Liberation Sans" font-size="10" lengthAdjust="spacing" textLength="114.9268" x="61.1182" y="620.9668">"Email already registered"</text><line style="stroke:#000000;stroke-width:1;stroke-dasharray:2.0,2.0;" x1="20" x2="1081.6543" y1="634.1641" y2="634.1641"/><text fill="#000000" font-family="Liberation Sans" font-size="10" font-weight="bold" lengthAdjust="spacing" textLength="77.2607" x="25" y="644.5449">[email available]</text><path d="M528,652.7422 L528,673.7422 L671,673.7422 L671,662.7422 L661,652.7422 L528,652.7422 " fill="#FFFDE7" style="stroke:#AAAAAA;stroke-width:0.5;"/><path d="M661,652.7422 L661,662.7422 L671,662.7422 L661,652.7422 " fill="#FFFDE7" style="stroke:#AAAAAA;stroke-width:0.5;"/><text fill="#000000" font-family="Liberation Sans" font-size="9" lengthAdjust="spacing" textLength="122.5547" x="534" y="667.085">11. Hash password with bcrypt</text><polygon fill="#181818" points="823.9629,693.6406,833.9629,697.6406,823.9629,701.6406,827.9629,697.6406" style="stroke:#181818;stroke-width:1;"/><line style="stroke:#181818;stroke-width:1;" x1="600.1855" x2="829.9629" y1="697.6406" y2="697.6406"/><text fill="#000000" font-family="Liberation Sans" font-size="10" lengthAdjust="spacing" textLength="211.7773" x="607.1855" y="693.4434">12. create(username, email, hashed_password)</text><polygon fill="#181818" points="1029.418,720.2188,1039.418,724.2188,1029.418,728.2188,1033.418,724.2188" style="stroke:#181818;stroke-width:1;"/><line style="stroke:#181818;stroke-width:1;" x1="835.9629" x2="1035.418" y1="724.2188" y2="724.2188"/><text fill="#000000" font-family="Liberation Sans" font-size="10" lengthAdjust="spacing" textLength="107.2461" x="842.9629" y="720.0215">13. INSERT INTO users</text><polygon fill="#181818" points="846.9629,746.7969,836.9629,750.7969,846.9629,754.7969,842.9629,750.7969" style="stroke:#181818;stroke-width:1;"/><line style="stroke:#181818;stroke-width:1;stroke-dasharray:2.0,2.0;" x1="840.9629" x2="1040.418" y1="750.7969" y2="750.7969"/><text fill="#000000" font-family="Liberation Sans" font-size="10" lengthAdjust="spacing" textLength="56.6846" x="852.9629" y="746.5996">14. User row</text><polygon fill="#181818" points="611.1855,773.375,601.1855,777.375,611.1855,781.375,607.1855,777.375" style="stroke:#181818;stroke-width:1;"/><line style="stroke:#181818;stroke-width:1;stroke-dasharray:2.0,2.0;" x1="605.1855" x2="834.9629" y1="777.375" y2="777.375"/><text fill="#000000" font-family="Liberation Sans" font-size="10" lengthAdjust="spacing" textLength="93.3643" x="617.1855" y="773.1777">15. User ORM object</text><polygon fill="#181818" points="413.7871,799.9531,403.7871,803.9531,413.7871,807.9531,409.7871,803.9531" style="stroke:#181818;stroke-width:1;"/><line style="stroke:#181818;stroke-width:1;stroke-dasharray:2.0,2.0;" x1="407.7871" x2="599.1855" y1="803.9531" y2="803.9531"/><text fill="#000000" font-family="Liberation Sans" font-size="10" lengthAdjust="spacing" textLength="70.0293" x="419.7871" y="799.7559">16. UserRecord</text><polygon fill="#181818" points="216.3887,826.5313,206.3887,830.5313,216.3887,834.5313,212.3887,830.5313" style="stroke:#181818;stroke-width:1;"/><line style="stroke:#181818;stroke-width:1;stroke-dasharray:2.0,2.0;" x1="210.3887" x2="401.7871" y1="830.5313" y2="830.5313"/><text fill="#000000" font-family="Liberation Sans" font-size="10" lengthAdjust="spacing" textLength="130.0586" x="222.3887" y="826.334">17. 201 Created (user JSON)</text><polygon fill="#181818" points="55.1182,865.6875,45.1182,869.6875,55.1182,873.6875,51.1182,869.6875" style="stroke:#181818;stroke-width:1;"/><line style="stroke:#181818;stroke-width:1;stroke-dasharray:2.0,2.0;" x1="49.1182" x2="204.3887" y1="869.6875" y2="869.6875"/><text fill="#000000" font-family="Liberation Sans" font-size="10" lengthAdjust="spacing" textLength="80.5957" x="61.1182" y="852.9121">18. Show success</text><text fill="#000000" font-family="Liberation Sans" font-size="10" lengthAdjust="spacing" textLength="72.2607" x="72.2314" y="865.4902">Redirect to login</text><!--SRC=[ZLHTRjiu47xdAGRkImAaZbJ7ZbDWTz4cCj8YJLBBHLyM24OIRRDXH9UaRNWNFK0Fqelr91sIaYmdJdS5M8R8RsQ- -UR7t8joWHeVeE1JN4exKgMznWSELoBZ6grG9QHO6cRs8LFn3uSuQbsQEHPgBSePJ54Qthh9CB-VQRKiYtCbbORrNDZslU5VbxpC-GTk3Cxu6obc9KW-jQm5ehSLkLXWQU5V1l1MwOBhuF155FK7Ro9t-YZKYuj1CXoTqeqZtQ1xqR0-I-r6SiYKBDYtLZZCBK6V11g-FUd7lNs1HlraSD7R3TIWVnEeG8iP6luqLXzFiOVxOYM3KNGnt8tLmpx6kEEwL7QFM_JFtXH6eukaqSKL-8pyiI15U3gV3DUTwWCDBEcJjKlJ6MaovcNH2O1fzRaBEgT3hQHqlWYKMort0IdNAv7pJXN6hFBT-p5VA2E8ryOxqFJ96YKTprjbx4ppzEEL1nGPOuwhv_toJsXumMk8kp0IKfAJcJ2swlofqWz_bmG-S6ObpSKHy0SKyeWwqPWrANh8MEF5kNHPaBjNNRYzIITml8gFSMddny4lnJvudzvSKmSK6pBrnL4hElRP0_J8RbDGTY87f_AvvaYG5KfHU4xCaw_fmC_lFw07-HorEQ9IWrbWpaq0UQO-1xJXf2RjpOR1BDmSa4EYyPANXCyvfUKISlGOyodLab4HWF8xwKATqU-qyUZQrDM7JFjTc75xbstkQiF6mo7pcDgWoC356dGXJQwIyubFsy3dosISR2Nu0_vY7kdDoAwAS-ee6jfKrBpIRl4eITDY0nRlkPFJSNHcLUKq2kgUoyda5awYCrPLr05QtK8tGEqxbI9tqcuxW62-mrw78NaQiCCuxSKMcnL9Xfda5PF7QWqRjRou1_vzoAhxHqgTxLKgz86JgG8-4YgEjahHe95MmQBcNHUQ5xvN_akl_wNOCvebpmJka8dNhMBM4WrWEqHkGuJqOfhdIpJpRSklXPr3bklD8iHl-hlEgQrwJFER-z5xsjrpSikBkssJEmVUhbM9c0RvtNMQZ2VqDxa9zV183sYhJwFaMWMqMhTS4Q0QjRXV0Mx67q1bNtWbOE2yBKGy2BWnpudMiuM8QIvUHJ64pLA4rGPkAHq-MvUOkZ2TgpMOPKxhnVYT26DU24rim2gGQYRSCBabxtw_0000]--></g></svg>