<svg xmlns="http://www.w3.org/2000/svg" xmlns:xlink="http://www.w3.org/1999/xlink" contentStyleType="text/css" height="806px" preserveAspectRatio="none" style="width:926px;height:806px;background:#FFFFFF;" version="1.1" viewBox="0 0 926 806" width="926px" zoomAndPan="magnify"><defs/><g><line style="stroke:#181818;stroke-width:0.5;stroke-dasharray:5.0,5.0;" x1="19" x2="19" y1="77.5781" y2="729.6641"/><line style="stroke:#181818;stroke-width:0.5;stroke-dasharray:5.0,5.0;" x1="204.7798" x2="204.7798" y1="77.5781" y2="729.6641"/><line style="stroke:#181818;stroke-width:0.5;stroke-dasharray:5.0,5.0;" x1="384.1782" x2="384.1782" y1="77.5781" y2="729.6641"/><line style="stroke:#181818;stroke-width:0.5;stroke-dasharray:5.0,5.0;" x1="532.7764" x2="532.7764" y1="77.5781" y2="729.6641"/><line style="stroke:#181818;stroke-width:0.5;stroke-dasharray:5.0,5.0;" x1="714.7437" x2="714.7437" y1="77.5781" y2="729.6641"/><line style="stroke:#181818;stroke-width:0.5;stroke-dasharray:5.0,5.0;" x1="891.4502" x2="891.4502" y1="77.5781" y2="729.6641"/><text fill="#8B4513" font-family="Liberation Sans" font-size="10" font-weight="bold" lengthAdjust="spacing" textLength="22.2363" x="5" y="75.3809">User</text><ellipse cx="19.1182" cy="13.5" fill="#F5E6D3" rx="8" ry="8" style="stroke:#8B4513;stroke-width:0.5;"/><path d="M19.1182,21.5 L19.1182,48.5 M6.1182,29.5 L32.1182,29.5 M19.1182,48.5 L6.1182,63.5 M19.1182,48.5 L32.1182,63.5 " fill="none" style="stroke:#8B4513;stroke-width:0.5;"/><text fill="#8B4513" font-family="Liberation Sans" font-size="10" font-weight="bold" lengthAdjust="spacing" textLength="22.2363" x="5" y="739.0449">User</text><ellipse cx="19.1182" cy="749.7422" fill="#F5E6D3" rx="8" ry="8" style="stroke:#8B4513;stroke-width:0.5;"/><path d="M19.1182,757.7422 L19.1182,784.7422 M6.1182,765.7422 L32.1182,765.7422 M19.1182,784.7422 L6.1182,799.7422 M19.1182,784.7422 L32.1182,799.7422 " fill="none" style="stroke:#8B4513;stroke-width:0.5;"/><rect fill="#D6E8F7" height="26.5781" rx="2.5" ry="2.5" style="stroke:#0056A0;stroke-width:0.5;" width="57.3252" x="176.7798" y="50"/><text fill="#003087" font-family="Liberation Sans" font-size="10" font-weight="bold" lengthAdjust="spacing" textLength="43.3252" x="183.7798" y="67.3809">Frontend</text><rect fill="#D6E8F7" height="26.5781" rx="2.5" ry="2.5" style="stroke:#0056A0;stroke-width:0.5;" width="57.3252" x="176.7798" y="728.6641"/><text fill="#003087" font-family="Liberation Sans" font-size="10" font-weight="bold" lengthAdjust="spacing" textLength="43.3252" x="183.7798" y="746.0449">Frontend</text><rect fill="#D6E8F7" height="26.5781" rx="2.5" ry="2.5" style="stroke:#0056A0;stroke-width:0.5;" width="61.7783" x="354.1782" y="50"/><text fill="#003087" font-family="Liberation Sans" font-size="10" font-weight="bold" lengthAdjust="spacing" textLength="47.7783" x="361.1782" y="67.3809">Controller</text><rect fill="#D6E8F7" height="26.5781" rx="2.5" ry="2.5" style="stroke:#0056A0;stroke-width:0.5;" width="61.7783" x="354.1782" y="728.6641"/><text fill="#003087" font-family="Liberation Sans" font-size="10" font-weight="bold" lengthAdjust="spacing" textLength="47.7783" x="361.1782" y="746.0449">Controller</text><rect fill="#D6E8F7" height="26.5781" rx="2.5" ry="2.5" style="stroke:#0056A0;stroke-width:0.5;" width="49.5859" x="508.7764" y="50"/><text fill="#003087" font-family="Liberation Sans" font-size="10" font-weight="bold" lengthAdjust="spacing" textLength="35.5859" x="515.7764" y="67.3809">Service</text><rect fill="#D6E8F7" height="26.5781" rx="2.5" ry="2.5" style="stroke:#0056A0;stroke-width:0.5;" width="49.5859" x="508.7764" y="728.6641"/><text fill="#003087" font-family="Liberation Sans" font-size="10" font-weight="bold" lengthAdjust="spacing" textLength="35.5859" x="515.7764" y="746.0449">Service</text><rect fill="#D6E8F7" height="26.5781" rx="2.5" ry="2.5" style="stroke:#0056A0;stroke-width:0.5;" width="66.2314" x="681.7437" y="50"/><text fill="#003087" font-family="Liberation Sans" font-size="10" font-weight="bold" lengthAdjust="spacing" textLength="52.2314" x="688.7437" y="67.3809">Repository</text><rect fill="#D6E8F7" height="26.5781" rx="2.5" ry="2.5" style="stroke:#0056A0;stroke-width:0.5;" width="66.2314" x="681.7437" y="728.6641"/><text fill="#003087" font-family="Liberation Sans" font-size="10" font-weight="bold" lengthAdjust="spacing" textLength="52.2314" x="688.7437" y="746.0449">Repository</text><text fill="#3A5A1A" font-family="Liberation Sans" font-size="10" lengthAdjust="spacing" textLength="54.4727" x="861.4502" y="75.3809">PostgreSQL</text><path d="M873.6865,29 C873.6865,19 891.6865,19 891.6865,19 C891.6865,19 909.6865,19 909.6865,29 L909.6865,55 C909.6865,65 891.6865,65 891.6865,65 C891.6865,65 873.6865,65 873.6865,55 L873.6865,29 " fill="#E6F0D8" style="stroke:#5A7A3A;stroke-width:1.5;"/><path d="M873.6865,29 C873.6865,39 891.6865,39 891.6865,39 C891.6865,39 909.6865,39 909.6865,29 " fill="none" style="stroke:#5A7A3A;stroke-width:1.5;"/><text fill="#3A5A1A" font-family="Liberation Sans" font-size="10" lengthAdjust="spacing" textLength="54.4727" x="861.4502" y="739.0449">PostgreSQL</text><path d="M873.6865,751.2422 C873.6865,741.2422 891.6865,741.2422 891.6865,741.2422 C891.6865,741.2422 909.6865,741.2422 909.6865,751.2422 L909.6865,777.2422 C909.6865,787.2422 891.6865,787.2422 891.6865,787.2422 C891.6865,787.2422 873.6865,787.2422 873.6865,777.2422 L873.6865,751.2422 " fill="#E6F0D8" style="stroke:#5A7A3A;stroke-width:1.5;"/><path d="M873.6865,751.2422 C873.6865,761.2422 891.6865,761.2422 891.6865,761.2422 C891.6865,761.2422 909.6865,761.2422 909.6865,751.2422 " fill="none" style="stroke:#5A7A3A;stroke-width:1.5;"/><polygon fill="#181818" points="193.4424,114.7344,203.4424,118.7344,193.4424,122.7344,197.4424,118.7344" style="stroke:#181818;stroke-width:1;"/><line style="stroke:#181818;stroke-width:1;" x1="19.1182" x2="199.4424" y1="118.7344" y2="118.7344"/><text fill="#000000" font-family="Liberation Sans" font-size="10" lengthAdjust="spacing" textLength="102.2754" x="26.1182" y="101.959">1. Configure simulation</text><text fill="#000000" font-family="Liberation Sans" font-size="10" lengthAdjust="spacing" textLength="152.2656" x="34.4531" y="114.5371">(matrix, initial vector, steps, name)</text><polygon fill="#181818" points="373.0674,153.8906,383.0674,157.8906,373.0674,161.8906,377.0674,157.8906" style="stroke:#181818;stroke-width:1;"/><line style="stroke:#181818;stroke-width:1;" x1="205.4424" x2="379.0674" y1="157.8906" y2="157.8906"/><text fill="#000000" font-family="Liberation Sans" font-size="10" lengthAdjust="spacing" textLength="107.2607" x="212.4424" y="141.1152">2. POST /v1/simulations</text><text fill="#000000" font-family="Liberation Sans" font-size="10" lengthAdjust="spacing" textLength="132.8613" x="220.7773" y="153.6934">Authorization: Bearer &lt;token&gt;</text><path d="M296,170.8906 L296,247.8906 L474,247.8906 L474,180.8906 L464,170.8906 L296,170.8906 " fill="#FFFDE7" style="stroke:#AAAAAA;stroke-width:0.5;"/><path d="M464,170.8906 L464,180.8906 L474,180.8906 L464,170.8906 " fill="#FFFDE7" style="stroke:#AAAAAA;stroke-width:0.5;"/><text fill="#000000" font-family="Liberation Sans" font-size="9" lengthAdjust="spacing" textLength="137.3203" x="302" y="185.2334">3. Validate JWT &#8594; resolve user_id</text><text fill="#000000" font-family="Liberation Sans" font-size="9" lengthAdjust="spacing" textLength="97.5454" x="309.5015" y="196.5537">Parse SimulationCreate:</text><text fill="#000000" font-family="Liberation Sans" font-size="9" lengthAdjust="spacing" textLength="149.5503" x="309.5015" y="207.874">- Exactly one of matrix_id / matrix_ids</text><text fill="#000000" font-family="Liberation Sans" font-size="9" lengthAdjust="spacing" textLength="127.1953" x="309.5015" y="219.1943">- matrix_ids requires &#8805; 2 entries</text><text fill="#000000" font-family="Liberation Sans" font-size="9" lengthAdjust="spacing" textLength="84.0542" x="309.5015" y="230.5146">- n_steps in [1, 1000]</text><text fill="#000000" font-family="Liberation Sans" font-size="9" lengthAdjust="spacing" textLength="100.5425" x="309.5015" y="241.835">- initial_vector non-empty</text><polygon fill="#181818" points="521.5693,268.3906,531.5693,272.3906,521.5693,276.3906,525.5693,272.3906" style="stroke:#181818;stroke-width:1;"/><line style="stroke:#181818;stroke-width:1;" x1="385.0674" x2="527.5693" y1="272.3906" y2="272.3906"/><text fill="#000000" font-family="Liberation Sans" font-size="10" lengthAdjust="spacing" textLength="124.502" x="392.0674" y="268.1934">4. service.run(data, user_id)</text><polygon fill="#181818" points="702.8594,294.9688,712.8594,298.9688,702.8594,302.9688,706.8594,298.9688" style="stroke:#181818;stroke-width:1;"/><line style="stroke:#181818;stroke-width:1;" x1="533.5693" x2="708.8594" y1="298.9688" y2="298.9688"/><text fill="#000000" font-family="Liberation Sans" font-size="10" lengthAdjust="spacing" textLength="157.29" x="540.5693" y="294.7715">5. matrix_repo.get_by_id(matrix_id)</text><polygon fill="#181818" points="879.6865,321.5469,889.6865,325.5469,879.6865,329.5469,883.6865,325.5469" style="stroke:#181818;stroke-width:1;"/><line style="stroke:#181818;stroke-width:1;" x1="714.8594" x2="885.6865" y1="325.5469" y2="325.5469"/><text fill="#000000" font-family="Liberation Sans" font-size="10" lengthAdjust="spacing" textLength="142.2949" x="721.8594" y="321.3496">6. SELECT population_matrices</text><polygon fill="#181818" points="725.8594,348.125,715.8594,352.125,725.8594,356.125,721.8594,352.125" style="stroke:#181818;stroke-width:1;"/><line style="stroke:#181818;stroke-width:1;stroke-dasharray:2.0,2.0;" x1="719.8594" x2="890.6865" y1="352.125" y2="352.125"/><text fill="#000000" font-family="Liberation Sans" font-size="10" lengthAdjust="spacing" textLength="53.3398" x="731.8594" y="347.9277">7. ORM row</text><polygon fill="#181818" points="544.5693,374.7031,534.5693,378.7031,544.5693,382.7031,540.5693,378.7031" style="stroke:#181818;stroke-width:1;"/><line style="stroke:#181818;stroke-width:1;stroke-dasharray:2.0,2.0;" x1="538.5693" x2="713.8594" y1="378.7031" y2="378.7031"/><text fill="#000000" font-family="Liberation Sans" font-size="10" lengthAdjust="spacing" textLength="115.0635" x="550.5693" y="374.5059">8. PopulationMatrix object</text><path d="M466,391.7031 L466,423.7031 L600,423.7031 L600,401.7031 L590,391.7031 L466,391.7031 " fill="#FFFDE7" style="stroke:#AAAAAA;stroke-width:0.5;"/><path d="M590,391.7031 L590,401.7031 L600,401.7031 L590,391.7031 " fill="#FFFDE7" style="stroke:#AAAAAA;stroke-width:0.5;"/><text fill="#000000" font-family="Liberation Sans" font-size="9" lengthAdjust="spacing" textLength="113.0625" x="472" y="406.0459">9. Validate vector dimension</text><text fill="#000000" font-family="Liberation Sans" font-size="9" lengthAdjust="spacing" textLength="104.5371" x="479.5015" y="417.3662">matches matrix dimension</text><path d="M456,434.3438 L456,477.3438 L610,477.3438 L610,444.3438 L600,434.3438 L456,434.3438 " fill="#FFFDE7" style="stroke:#AAAAAA;stroke-width:0.5;"/><path d="M600,434.3438 L600,444.3438 L610,444.3438 L600,434.3438 " fill="#FFFDE7" style="stroke:#AAAAAA;stroke-width:0.5;"/><text fill="#000000" font-family="Liberation Sans" font-size="9" lengthAdjust="spacing" textLength="133.062" x="462" y="448.6865">10. Run projection loop (NumPy):</text><text fill="#000000" font-family="Liberation Sans" font-size="9" lengthAdjust="spacing" textLength="66.6475" x="472.002" y="460.0068">v(t+1) = A @ v(t)</text><text fill="#000000" font-family="Liberation Sans" font-size="9" lengthAdjust="spacing" textLength="103.0474" x="472.002" y="471.3271">Collect history[0..n_steps]</text><polygon fill="#181818" points="702.8594,535.6172,712.8594,539.6172,702.8594,543.6172,706.8594,539.6172" style="stroke:#181818;stroke-width:1;"/><line style="stroke:#181818;stroke-width:1;" x1="533.5693" x2="708.8594" y1="539.6172" y2="539.6172"/><text fill="#000000" font-family="Liberation Sans" font-size="10" lengthAdjust="spacing" textLength="91.709" x="540.5693" y="497.6855">11. sim_repo.create(</text><text fill="#000000" font-family="Liberation Sans" font-size="10" lengthAdjust="spacing" textLength="112.2705" x="551.6826" y="510.2637">user_id, name, matrix_id,</text><text fill="#000000" font-family="Liberation Sans" font-size="10" lengthAdjust="spacing" textLength="98.9404" x="551.6826" y="522.8418">initial_vector, n_steps,</text><text fill="#000000" font-family="Liberation Sans" font-size="10" lengthAdjust="spacing" textLength="128.3936" x="551.6826" y="535.4199">result_history, stage_names)</text><polygon fill="#181818" points="879.6865,562.1953,889.6865,566.1953,879.6865,570.1953,883.6865,566.1953" style="stroke:#181818;stroke-width:1;"/><line style="stroke:#181818;stroke-width:1;" x1="714.8594" x2="885.6865" y1="566.1953" y2="566.1953"/><text fill="#000000" font-family="Liberation Sans" font-size="10" lengthAdjust="spacing" textLength="152.8271" x="721.8594" y="561.998">12. INSERT INTO simulation_runs</text><polygon fill="#181818" points="725.8594,588.7734,715.8594,592.7734,725.8594,596.7734,721.8594,592.7734" style="stroke:#181818;stroke-width:1;"/><line style="stroke:#181818;stroke-width:1;stroke-dasharray:2.0,2.0;" x1="719.8594" x2="890.6865" y1="592.7734" y2="592.7734"/><text fill="#000000" font-family="Liberation Sans" font-size="10" lengthAdjust="spacing" textLength="100.6055" x="731.8594" y="588.5762">13. SimulationRun row</text><polygon fill="#181818" points="544.5693,615.3516,534.5693,619.3516,544.5693,623.3516,540.5693,619.3516" style="stroke:#181818;stroke-width:1;"/><line style="stroke:#181818;stroke-width:1;stroke-dasharray:2.0,2.0;" x1="538.5693" x2="713.8594" y1="619.3516" y2="619.3516"/><text fill="#000000" font-family="Liberation Sans" font-size="10" lengthAdjust="spacing" textLength="69.4727" x="550.5693" y="615.1543">14. ORM object</text><polygon fill="#181818" points="396.0674,641.9297,386.0674,645.9297,396.0674,649.9297,392.0674,645.9297" style="stroke:#181818;stroke-width:1;"/><line style="stroke:#181818;stroke-width:1;stroke-dasharray:2.0,2.0;" x1="390.0674" x2="532.5693" y1="645.9297" y2="645.9297"/><text fill="#000000" font-family="Liberation Sans" font-size="10" lengthAdjust="spacing" textLength="95.6055" x="402.0674" y="641.7324">15. SimulationRecord</text><polygon fill="#181818" points="216.4424,668.5078,206.4424,672.5078,216.4424,676.5078,212.4424,672.5078" style="stroke:#181818;stroke-width:1;"/><line style="stroke:#181818;stroke-width:1;stroke-dasharray:2.0,2.0;" x1="210.4424" x2="384.0674" y1="672.5078" y2="672.5078"/><text fill="#000000" font-family="Liberation Sans" font-size="10" lengthAdjust="spacing" textLength="155.625" x="222.4424" y="668.3105">16. 201 Created (simulation JSON)</text><polygon fill="#181818" points="30.1182,707.6641,20.1182,711.6641,30.1182,715.6641,26.1182,711.6641" style="stroke:#181818;stroke-width:1;"/><line style="stroke:#181818;stroke-width:1;stroke-dasharray:2.0,2.0;" x1="24.1182" x2="204.4424" y1="711.6641" y2="711.6641"/><text fill="#000000" font-family="Liberation Sans" font-size="10" lengthAdjust="spacing" textLength="162.3242" x="36.1182" y="694.8887">17. Render population dynamics plot</text><text fill="#000000" font-family="Liberation Sans" font-size="10" lengthAdjust="spacing" textLength="116.7188" x="47.2314" y="707.4668">Add entry to simulation list</text><!--SRC=[VLNTSXet5BxNKvmXDp35wrrZCF6acM8CCyduhon9Bj8C8tO5g1RIHjBYa4vlEzFRlaDVB4_I8-soB3PJBcnqpgVpyttd2FF8PKOrNKFA5ZGNTgoalQDh1ZTypZIrN4c8gJJ474F6_3k3AAmvpOgcwedB9IoeCApccTFaSQbLBjEX4ah3quhRkj-mhpcJ2Rjbnj0b6mY-b23Omf8Q2FzQdl2CIWj_480hfLEcYu2lmh3R6uJE-YpLg-lUg3- -G8yhka9tmlxE5jkjO31N8YL_rjBHn2BqHQB-rNatwXnBDEwEUjUTmqGL-dyIfTJIEJNiPQuklQ0TUYpNg3SEh_k7kJgqIoDw45egUoGizP-ZBOp7rwEA5oVmQun72YgAJ-E3ORfH7gY178-aBarZhF4oascZ02pAuo5eY4QjX72n49HOBGu1CTCRdh16cSPiaaF_X6NASAnhwmDeF9AAILVdWp9sgLdywuq7f7D2NAs-xfEtKDK5bn05WFKi-3BN30nVvy8F_syIeSqrjPf_QmENt78gOCCS6sqmbcMc3H8NfaMgO2woQyQdkOIp01xkuocSRgBJVM3Z8mzokrAQV_UcIxXYL6DvRwnwPF8j8LuxjK6J9mUW4y17AZWsoU3zfody-EiVRDieiM5UXHbFYK_xG3Lo45VfXfhXdSl2UGAZRwYds8AI67y1HNzu6KxttyqElBTWhgyvnuJmu-z_uGmO2iXP1PGpJmZI19-ZDZuCOVXbvokfcnNKuLJA4xREx9OunboVX7ZE77aej2FkFC17mKz0e7FPTCgsTrssY0Svj9CTqTrWLwWp14jcP_Cj8fjL-ItYeUvEElVIz0A8HpUZuHGobPLCpJm-mQuyw0JXPOQB0Eudjw3LKna8NMMfVTIuYd3h4uAQ_uwzraLq0mpmkgPXoKRArqmQl5gmXHKaAoIvgBpctNFrF6WK1Z399MHQkQpksHPAPT2yozSFsrOfF6oQzgUe1J_307vnXrPf7xerJ2oik77hz3aCWbBCBxMapocFS6bmeWl24pzXJJ_MEvMArMZl9wXTk0-7eRqRdDAByuM_BxEo5hTb-7imSv7CImaZNAztT_5eCiL_q_lQwivmQ5wA6E4AxTV2KNPCp-YyqBhKi6WStNv4qTqz2C8IV5hByKLG_LN12JiB8oZMBuNclZnu7z_VrLyDlEaV9xo5apP16nxsSmdf5YdWYO5CA5imDKXJluDRiAhMEGYaZlm7]--></g></svg>