<svg xmlns="http://www.w3.org/2000/svg" xmlns:xlink="http://www.w3.org/1999/xlink" contentStyleType="text/css" height="476px" preserveAspectRatio="none" style="width:501px;height:476px;background:#FFFFFF;" version="1.1" viewBox="0 0 501 476" width="501px" zoomAndPan="magnify"><defs/><g><line style="stroke:#003087;stroke-width:0.5;stroke-dasharray:5.0,5.0;" x1="96" x2="96" y1="45.1563" y2="432.375"/><line style="stroke:#003087;stroke-width:0.5;stroke-dasharray:5.0,5.0;" x1="224.313" x2="224.313" y1="45.1563" y2="432.375"/><line style="stroke:#003087;stroke-width:0.5;stroke-dasharray:5.0,5.0;" x1="331.0518" x2="331.0518" y1="45.1563" y2="432.375"/><line style="stroke:#003087;stroke-width:0.5;stroke-dasharray:5.0,5.0;" x1="457.4751" x2="457.4751" y1="45.1563" y2="432.375"/><rect fill="#EEF3FA" height="39.1563" rx="2.5" ry="2.5" style="stroke:#003087;stroke-width:0.5;" width="66.2217" x="63" y="5"/><text fill="#003087" font-family="Liberation Sans" font-size="10" font-weight="bold" lengthAdjust="spacing" textLength="23.3398" x="84.4409" y="22.3809">main</text><text fill="#003087" font-family="Liberation Sans" font-size="10" font-weight="bold" lengthAdjust="spacing" textLength="52.2217" x="70" y="34.959">(protected)</text><rect fill="#EEF3FA" height="39.1563" rx="2.5" ry="2.5" style="stroke:#003087;stroke-width:0.5;" width="66.2217" x="63" y="431.375"/><text fill="#003087" font-family="Liberation Sans" font-size="10" font-weight="bold" lengthAdjust="spacing" textLength="23.3398" x="84.4409" y="448.7559">main</text><text fill="#003087" font-family="Liberation Sans" font-size="10" font-weight="bold" lengthAdjust="spacing" textLength="52.2217" x="70" y="461.334">(protected)</text><rect fill="#EEF3FA" height="39.1563" rx="2.5" ry="2.5" style="stroke:#003087;stroke-width:0.5;" width="85.6895" x="182.313" y="5"/><text fill="#003087" font-family="Liberation Sans" font-size="10" font-weight="bold" lengthAdjust="spacing" textLength="71.6895" x="189.313" y="22.3809">feature/&lt;topic&gt;</text><text fill="#003087" font-family="Liberation Sans" font-size="10" font-weight="bold" lengthAdjust="spacing" textLength="62.793" x="193.7612" y="34.959">or fix/&lt;topic&gt;</text><rect fill="#EEF3FA" height="39.1563" rx="2.5" ry="2.5" style="stroke:#003087;stroke-width:0.5;" width="85.6895" x="182.313" y="431.375"/><text fill="#003087" font-family="Liberation Sans" font-size="10" font-weight="bold" lengthAdjust="spacing" textLength="71.6895" x="189.313" y="448.7559">feature/&lt;topic&gt;</text><text fill="#003087" font-family="Liberation Sans" font-size="10" font-weight="bold" lengthAdjust="spacing" textLength="62.793" x="193.7612" y="461.334">or fix/&lt;topic&gt;</text><rect fill="#EEF3FA" height="39.1563" rx="2.5" ry="2.5" style="stroke:#003087;stroke-width:0.5;" width="86.7734" x="288.0518" y="5"/><text fill="#003087" font-family="Liberation Sans" font-size="10" font-weight="bold" lengthAdjust="spacing" textLength="72.7734" x="295.0518" y="22.3809">GitHub Actions</text><text fill="#003087" font-family="Liberation Sans" font-size="10" font-weight="bold" lengthAdjust="spacing" textLength="16.6602" x="323.1084" y="34.959">(CI)</text><rect fill="#EEF3FA" height="39.1563" rx="2.5" ry="2.5" style="stroke:#003087;stroke-width:0.5;" width="86.7734" x="288.0518" y="431.375"/><text fill="#003087" font-family="Liberation Sans" font-size="10" font-weight="bold" lengthAdjust="spacing" textLength="72.7734" x="295.0518" y="448.7559">GitHub Actions</text><text fill="#003087" font-family="Liberation Sans" font-size="10" font-weight="bold" lengthAdjust="spacing" textLength="16.6602" x="323.1084" y="461.334">(CI)</text><rect fill="#EEF3FA" height="26.5781" rx="2.5" ry="2.5" style="stroke:#003087;stroke-width:0.5;" width="74.5664" x="420.4751" y="17.5781"/><text fill="#003087" font-family="Liberation Sans" font-size="10" font-weight="bold" lengthAdjust="spacing" textLength="60.5664" x="427.4751" y="34.959">Pull Request</text><rect fill="#EEF3FA" height="26.5781" rx="2.5" ry="2.5" style="stroke:#003087;stroke-width:0.5;" width="74.5664" x="420.4751" y="431.375"/><text fill="#003087" font-family="Liberation Sans" font-size="10" font-weight="bold" lengthAdjust="spacing" textLength="60.5664" x="427.4751" y="448.7559">Pull Request</text><polygon fill="#003087" points="213.1577,79.7969,223.1577,83.7969,213.1577,87.7969,217.1577,83.7969" style="stroke:#003087;stroke-width:1;"/><line style="stroke:#003087;stroke-width:1;" x1="96.1108" x2="219.1577" y1="83.7969" y2="83.7969"/><text fill="#555555" font-family="Liberation Sans" font-size="9" lengthAdjust="spacing" textLength="62.0332" x="103.1108" y="68.499">branch off main</text><text fill="#555555" font-family="Liberation Sans" font-size="9" lengthAdjust="spacing" textLength="105.0469" x="103.1108" y="79.8193">(git checkout -b feature/...)</text><line style="stroke:#003087;stroke-width:1;" x1="225.1577" x2="267.1577" y1="109.1172" y2="109.1172"/><line style="stroke:#003087;stroke-width:1;" x1="267.1577" x2="267.1577" y1="109.1172" y2="122.1172"/><line style="stroke:#003087;stroke-width:1;" x1="226.1577" x2="267.1577" y1="122.1172" y2="122.1172"/><polygon fill="#003087" points="236.1577,118.1172,226.1577,122.1172,236.1577,126.1172,232.1577,122.1172" style="stroke:#003087;stroke-width:1;"/><text fill="#555555" font-family="Liberation Sans" font-size="9" lengthAdjust="spacing" textLength="92.2808" x="232.1577" y="105.1396">implement + write tests</text><polygon fill="#003087" points="445.7583,154.7578,455.7583,158.7578,445.7583,162.7578,449.7583,158.7578" style="stroke:#003087;stroke-width:1;"/><line style="stroke:#003087;stroke-width:1;" x1="225.1577" x2="451.7583" y1="158.7578" y2="158.7578"/><text fill="#555555" font-family="Liberation Sans" font-size="9" lengthAdjust="spacing" textLength="69.0513" x="232.1577" y="143.46">open pull request</text><text fill="#555555" font-family="Liberation Sans" font-size="9" lengthAdjust="spacing" textLength="49.522" x="232.1577" y="154.7803">targets main</text><polygon fill="#003087" points="342.4385,191.3984,332.4385,195.3984,342.4385,199.3984,338.4385,195.3984" style="stroke:#003087;stroke-width:1;"/><line style="stroke:#003087;stroke-width:1;" x1="336.4385" x2="456.7583" y1="195.3984" y2="195.3984"/><text fill="#555555" font-family="Liberation Sans" font-size="9" lengthAdjust="spacing" textLength="51.0073" x="348.4385" y="180.1006">trigger ci.yml</text><text fill="#555555" font-family="Liberation Sans" font-size="9" lengthAdjust="spacing" textLength="50.0273" x="348.4385" y="191.4209">(push event)</text><line style="stroke:#003087;stroke-width:1;" x1="331.4385" x2="373.4385" y1="232.0391" y2="232.0391"/><line style="stroke:#003087;stroke-width:1;" x1="373.4385" x2="373.4385" y1="232.0391" y2="245.0391"/><line style="stroke:#003087;stroke-width:1;" x1="332.4385" x2="373.4385" y1="245.0391" y2="245.0391"/><polygon fill="#003087" points="342.4385,241.0391,332.4385,245.0391,342.4385,249.0391,338.4385,245.0391" style="stroke:#003087;stroke-width:1;"/><text fill="#555555" font-family="Liberation Sans" font-size="9" lengthAdjust="spacing" textLength="112.3198" x="338.4385" y="216.7412">unit tests &#8594; integration tests</text><text fill="#555555" font-family="Liberation Sans" font-size="9" lengthAdjust="spacing" textLength="47.2896" x="338.4385" y="228.0615">&#8594; coverage</text><polygon fill="#003087" points="445.7583,266.3594,455.7583,270.3594,445.7583,274.3594,449.7583,270.3594" style="stroke:#003087;stroke-width:1;"/><line style="stroke:#003087;stroke-width:1;" x1="331.4385" x2="451.7583" y1="270.3594" y2="270.3594"/><text fill="#555555" font-family="Liberation Sans" font-size="9" lengthAdjust="spacing" textLength="49.2583" x="338.4385" y="266.3818">CI passes &#10003;</text><polygon fill="#003087" points="107.1108,303,97.1108,307,107.1108,311,103.1108,307" style="stroke:#003087;stroke-width:1;"/><line style="stroke:#003087;stroke-width:1;" x1="101.1108" x2="456.7583" y1="307" y2="307"/><text fill="#555555" font-family="Liberation Sans" font-size="9" lengthAdjust="spacing" textLength="57.5244" x="113.1108" y="291.7021">merge to main</text><text fill="#555555" font-family="Liberation Sans" font-size="9" lengthAdjust="spacing" textLength="105.0293" x="113.1108" y="303.0225">(squash or merge commit)</text><line style="stroke:#003087;stroke-width:1;" x1="96.1108" x2="138.1108" y1="343.6406" y2="343.6406"/><line style="stroke:#003087;stroke-width:1;" x1="138.1108" x2="138.1108" y1="343.6406" y2="356.6406"/><line style="stroke:#003087;stroke-width:1;" x1="97.1108" x2="138.1108" y1="356.6406" y2="356.6406"/><polygon fill="#003087" points="107.1108,352.6406,97.1108,356.6406,107.1108,360.6406,103.1108,356.6406" style="stroke:#003087;stroke-width:1;"/><text fill="#555555" font-family="Liberation Sans" font-size="9" lengthAdjust="spacing" textLength="44.5298" x="103.1108" y="328.3428">tag release</text><text fill="#555555" font-family="Liberation Sans" font-size="9" lengthAdjust="spacing" textLength="37.5205" x="103.1108" y="339.6631">(optional)</text><path d="M5,369.6406 L5,416.6406 L188,416.6406 L188,379.6406 L178,369.6406 L5,369.6406 " fill="#FFF9E6" style="stroke:#C8A400;stroke-width:0.5;"/><path d="M178,369.6406 L178,379.6406 L188,379.6406 L178,369.6406 " fill="#FFF9E6" style="stroke:#C8A400;stroke-width:0.5;"/><text fill="#555555" font-family="Liberation Sans" font-size="10" lengthAdjust="spacing" textLength="162.8711" x="11" y="385.0215">main is the single integration branch.</text><text fill="#555555" font-family="Liberation Sans" font-size="10" lengthAdjust="spacing" textLength="142.29" x="11" y="397.5996">Direct pushes are not permitted;</text><text fill="#555555" font-family="Liberation Sans" font-size="10" lengthAdjust="spacing" textLength="113.3838" x="11" y="410.1777">all changes arrive via PR.</text><!--SRC=[XLJBRjim4BphAnR9fKOHnqNwID8YWErQRO2WC9AhBsjg9H6MI8QaxAH1h_s0zjglwvTqILcex1YjRzgTsHaEbtOhgGnQh26Z79lAfrhvBrWJtCWbMVHIAxX3vH9t27adlnAy6lMQhiHCRwGg8CVAKQ-pHB4gh6vKDjMLjh0ffQUaJwNxXfGWU4e0njRgJGiy7etEHkVlGb5uRIVQPcJtMpSofnkfw71tZjPB8Gqg_t_0di_ZsImzIyUxe73uVyo8sVZ7Yc2fgunx4_rmM3WqzWNJytIIfictVZXA-pQOv-WqlPYzZQDw0jFpyUlHYAizfs_YRtSkXfpZu7rdpubjBTxvHPXY_XuOZcgKQg5U6Cj6XQTiS0Je85HtSJcXRooTVl3QI76rK2oGouVkExAsc5tY9-a_Dykm0xoJZgMcrws6aBl0ULDLS1kMoVa8C3P9WX4ukUf6moKiBIfHWivps7elf0THabZfniF9iiEU3eV3GT8HTsR8sbHK4wk-X8tbVGRFeguFDfPnsf024tpPrjT2URG5-IuX6w12CjHRMHHa-MFuM5SXqSQLG6iM6IICw72DOhTH3Nv__m5IUIgsxpLM5ogKXLxpAoveouncfjTWq3bYug-VM-aOpoNKnAR0wouHTzyWg_CLjHsXwrgoZoxDBSrZmGUh21qnIPlW0gj1aiIj3HRQOq9Ba0vyIU3uNu9VIDzvUoT31dwKbjS8mk7PA7AMF0iCMTRdxNhF4EGuHOcgY00hrmHhYJ2_7IQailXYaZy0]--></g></svg>