<svg xmlns="http://www.w3.org/2000/svg" xmlns:xlink="http://www.w3.org/1999/xlink" contentStyleType="text/css" height="703px" preserveAspectRatio="none" style="width:502px;height:703px;background:#FFFFFF;" version="1.1" viewBox="0 0 502 703" width="502px" zoomAndPan="magnify"><defs/><g><rect fill="none" height="12.5781" style="stroke:none;stroke-width:1;" width="469.8457" x="15" y="11"/><ellipse cx="204.3486" cy="38.5781" fill="#003087" rx="10" ry="10" style="stroke:#222222;stroke-width:1;"/><rect fill="#EEF3FA" height="32.5781" rx="12.5" ry="12.5" style="stroke:#003087;stroke-width:0.5;" width="100.5908" x="154.0532" y="68.5781"/><text fill="#003087" font-family="Liberation Sans" font-size="10" lengthAdjust="spacing" textLength="80.5908" x="164.0532" y="88.959">Push / PR to main</text><rect fill="#003087" height="6" rx="2.5" ry="2.5" style="stroke:#003087;stroke-width:1;" width="245.644" x="21" y="121.1563"/><rect fill="#EEF3FA" height="32.5781" rx="12.5" ry="12.5" style="stroke:#003087;stroke-width:0.5;" width="166.8848" x="33" y="147.1563"/><text fill="#003087" font-family="Liberation Sans" font-size="10" lengthAdjust="spacing" textLength="146.8848" x="43" y="167.5371">Checkout (actions/checkout@v4)</text><rect fill="#EEF3FA" height="45.1563" rx="12.5" ry="12.5" style="stroke:#003087;stroke-width:0.5;" width="139.6533" x="46.6157" y="199.7344"/><text fill="#003087" font-family="Liberation Sans" font-size="10" lengthAdjust="spacing" textLength="82.2852" x="56.6157" y="220.1152">Setup Python 3.13</text><text fill="#003087" font-family="Liberation Sans" font-size="10" lengthAdjust="spacing" textLength="119.6533" x="56.6157" y="232.6934">(actions/setup-python@v5)</text><rect fill="#EEF3FA" height="45.1563" rx="12.5" ry="12.5" style="stroke:#003087;stroke-width:0.5;" width="152.2607" x="40.312" y="264.8906"/><text fill="#003087" font-family="Liberation Sans" font-size="10" lengthAdjust="spacing" textLength="91.1768" x="50.312" y="285.2715">Install dependencies</text><text fill="#003087" font-family="Liberation Sans" font-size="10" lengthAdjust="spacing" textLength="132.2607" x="50.312" y="297.8496">(pip install -r requirements.txt)</text><rect fill="#EEF3FA" height="45.1563" rx="12.5" ry="12.5" style="stroke:#003087;stroke-width:0.5;" width="125.6201" x="53.6323" y="330.0469"/><text fill="#003087" font-family="Liberation Sans" font-size="10" lengthAdjust="spacing" textLength="73.9209" x="63.6323" y="350.4277">Apply migrations</text><text fill="#003087" font-family="Liberation Sans" font-size="10" lengthAdjust="spacing" textLength="105.6201" x="63.6323" y="363.0059">(alembic upgrade head)</text><rect fill="#EEF3FA" height="45.1563" rx="12.5" ry="12.5" style="stroke:#003087;stroke-width:0.5;" width="110.0244" x="61.4302" y="395.2031"/><text fill="#003087" font-family="Liberation Sans" font-size="10" lengthAdjust="spacing" textLength="41.6797" x="71.4302" y="415.584">Unit tests</text><text fill="#003087" font-family="Liberation Sans" font-size="10" lengthAdjust="spacing" textLength="90.0244" x="71.4302" y="428.1621">(pytest tests/unit/ -v)</text><rect fill="#EEF3FA" height="45.1563" rx="12.5" ry="12.5" style="stroke:#003087;stroke-width:0.5;" width="165.8887" x="33.498" y="460.3594"/><text fill="#003087" font-family="Liberation Sans" font-size="10" lengthAdjust="spacing" textLength="71.1523" x="43.498" y="480.7402">Integration tests</text><text fill="#003087" font-family="Liberation Sans" font-size="10" lengthAdjust="spacing" textLength="145.8887" x="43.498" y="493.3184">(pytest tests/ --ignore=tests/unit/)</text><rect fill="#EEF3FA" height="45.1563" rx="12.5" ry="12.5" style="stroke:#003087;stroke-width:0.5;" width="134.5117" x="49.1865" y="525.5156"/><text fill="#003087" font-family="Liberation Sans" font-size="10" lengthAdjust="spacing" textLength="114.5117" x="59.1865" y="545.8965">Generate coverage report</text><text fill="#003087" font-family="Liberation Sans" font-size="10" lengthAdjust="spacing" textLength="30.0098" x="59.1865" y="558.4746">(pytest</text><text fill="#003087" font-family="Liberation Sans" font-size="10" lengthAdjust="spacing" text-decoration="line-through" textLength="34.7461" x="91.9746" y="558.4746">cov=api</text><text fill="#003087" font-family="Liberation Sans" font-size="10" lengthAdjust="spacing" textLength="35.8545" x="129.499" y="558.4746">cov=db)</text><rect fill="#EEF3FA" height="32.5781" rx="12.5" ry="12.5" style="stroke:#003087;stroke-width:0.5;" width="105.0537" x="63.9155" y="590.6719"/><text fill="#003087" font-family="Liberation Sans" font-size="10" lengthAdjust="spacing" textLength="85.0537" x="73.9155" y="611.0527">Upload to Codecov</text><line style="stroke:#000000;stroke-width:1.5;" x1="15" x2="15" y1="11" y2="691.25"/><rect fill="#EEF3FA" height="45.1563" rx="12.5" ry="12.5" style="stroke:#003087;stroke-width:0.5;" width="116.4404" x="336.3301" y="264.8906"/><text fill="#003087" font-family="Liberation Sans" font-size="10" lengthAdjust="spacing" textLength="57.251" x="346.3301" y="285.2715">Bandit SAST</text><text fill="#003087" font-family="Liberation Sans" font-size="10" lengthAdjust="spacing" textLength="96.4404" x="346.3301" y="297.8496">(audit pass &#8594; artifact)</text><rect fill="#EEF3FA" height="45.1563" rx="12.5" ry="12.5" style="stroke:#003087;stroke-width:0.5;" width="147.8125" x="320.644" y="330.0469"/><text fill="#003087" font-family="Liberation Sans" font-size="10" lengthAdjust="spacing" textLength="57.251" x="330.644" y="350.4277">Bandit SAST</text><text fill="#003087" font-family="Liberation Sans" font-size="10" lengthAdjust="spacing" textLength="127.8125" x="330.644" y="363.0059">(gate pass &#8212; HIGH severity)</text><rect fill="#EEF3FA" height="45.1563" rx="12.5" ry="12.5" style="stroke:#003087;stroke-width:0.5;" width="115.3174" x="336.8916" y="395.2031"/><text fill="#003087" font-family="Liberation Sans" font-size="10" lengthAdjust="spacing" textLength="38.3594" x="346.8916" y="415.584">pip-audit</text><text fill="#003087" font-family="Liberation Sans" font-size="10" lengthAdjust="spacing" textLength="95.3174" x="346.8916" y="428.1621">(CVE scan &#8594; artifact)</text><rect fill="#EEF3FA" height="45.1563" rx="12.5" ry="12.5" style="stroke:#003087;stroke-width:0.5;" width="137.2314" x="325.9346" y="460.3594"/><text fill="#003087" font-family="Liberation Sans" font-size="10" lengthAdjust="spacing" textLength="89.4775" x="335.9346" y="480.7402">Trivy container scan</text><text fill="#003087" font-family="Liberation Sans" font-size="10" lengthAdjust="spacing" textLength="117.2314" x="335.9346" y="493.3184">(CRITICAL/HIGH severity)</text><rect fill="#003087" height="6" rx="2.5" ry="2.5" style="stroke:#003087;stroke-width:1;" width="203.8125" x="276.644" y="643.25"/><ellipse cx="299.644" cy="680.25" fill="none" rx="11" ry="11" style="stroke:#222222;stroke-width:1;"/><ellipse cx="299.644" cy="680.25" fill="#222222" rx="6" ry="6" style="stroke:#222222;stroke-width:1;"/><line style="stroke:#000000;stroke-width:1.5;" x1="270.644" x2="270.644" y1="11" y2="691.25"/><line style="stroke:#000000;stroke-width:1.5;" x1="484.4565" x2="484.4565" y1="11" y2="691.25"/><line style="stroke:#333333;stroke-width:1;" x1="204.3486" x2="204.3486" y1="48.5781" y2="68.5781"/><polygon fill="#333333" points="200.3486,58.5781,204.3486,68.5781,208.3486,58.5781,204.3486,62.5781" style="stroke:#333333;stroke-width:1;"/><line style="stroke:#333333;stroke-width:1;" x1="116.4424" x2="116.4424" y1="179.7344" y2="199.7344"/><polygon fill="#333333" points="112.4424,189.7344,116.4424,199.7344,120.4424,189.7344,116.4424,193.7344" style="stroke:#333333;stroke-width:1;"/><line style="stroke:#333333;stroke-width:1;" x1="116.4424" x2="116.4424" y1="244.8906" y2="264.8906"/><polygon fill="#333333" points="112.4424,254.8906,116.4424,264.8906,120.4424,254.8906,116.4424,258.8906" style="stroke:#333333;stroke-width:1;"/><line style="stroke:#333333;stroke-width:1;" x1="116.4424" x2="116.4424" y1="310.0469" y2="330.0469"/><polygon fill="#333333" points="112.4424,320.0469,116.4424,330.0469,120.4424,320.0469,116.4424,324.0469" style="stroke:#333333;stroke-width:1;"/><line style="stroke:#333333;stroke-width:1;" x1="116.4424" x2="116.4424" y1="375.2031" y2="395.2031"/><polygon fill="#333333" points="112.4424,385.2031,116.4424,395.2031,120.4424,385.2031,116.4424,389.2031" style="stroke:#333333;stroke-width:1;"/><line style="stroke:#333333;stroke-width:1;" x1="116.4424" x2="116.4424" y1="440.3594" y2="460.3594"/><polygon fill="#333333" points="112.4424,450.3594,116.4424,460.3594,120.4424,450.3594,116.4424,454.3594" style="stroke:#333333;stroke-width:1;"/><line style="stroke:#333333;stroke-width:1;" x1="116.4424" x2="116.4424" y1="505.5156" y2="525.5156"/><polygon fill="#333333" points="112.4424,515.5156,116.4424,525.5156,120.4424,515.5156,116.4424,519.5156" style="stroke:#333333;stroke-width:1;"/><line style="stroke:#333333;stroke-width:1;" x1="116.4424" x2="116.4424" y1="570.6719" y2="590.6719"/><polygon fill="#333333" points="112.4424,580.6719,116.4424,590.6719,120.4424,580.6719,116.4424,584.6719" style="stroke:#333333;stroke-width:1;"/><line style="stroke:#333333;stroke-width:1;" x1="116.4424" x2="116.4424" y1="127.1563" y2="147.1563"/><polygon fill="#333333" points="112.4424,137.1563,116.4424,147.1563,120.4424,137.1563,116.4424,141.1563" style="stroke:#333333;stroke-width:1;"/><line style="stroke:#333333;stroke-width:1;" x1="204.3486" x2="204.3486" y1="101.1563" y2="121.1563"/><polygon fill="#333333" points="200.3486,111.1563,204.3486,121.1563,208.3486,111.1563,204.3486,115.1563" style="stroke:#333333;stroke-width:1;"/><line style="stroke:#333333;stroke-width:1;" x1="394.5503" x2="394.5503" y1="310.0469" y2="330.0469"/><polygon fill="#333333" points="390.5503,320.0469,394.5503,330.0469,398.5503,320.0469,394.5503,324.0469" style="stroke:#333333;stroke-width:1;"/><line style="stroke:#333333;stroke-width:1;" x1="394.5503" x2="394.5503" y1="375.2031" y2="395.2031"/><polygon fill="#333333" points="390.5503,385.2031,394.5503,395.2031,398.5503,385.2031,394.5503,389.2031" style="stroke:#333333;stroke-width:1;"/><line style="stroke:#333333;stroke-width:1;" x1="394.5503" x2="394.5503" y1="440.3594" y2="460.3594"/><polygon fill="#333333" points="390.5503,450.3594,394.5503,460.3594,398.5503,450.3594,394.5503,454.3594" style="stroke:#333333;stroke-width:1;"/><line style="stroke:#333333;stroke-width:1;" x1="394.5503" x2="394.5503" y1="505.5156" y2="643.25"/><polygon fill="#333333" points="390.5503,633.25,394.5503,643.25,398.5503,633.25,394.5503,637.25" style="stroke:#333333;stroke-width:1;"/><line style="stroke:#333333;stroke-width:1;" x1="299.644" x2="299.644" y1="649.25" y2="669.25"/><polygon fill="#333333" points="295.644,659.25,299.644,669.25,303.644,659.25,299.644,663.25" style="stroke:#333333;stroke-width:1;"/><line style="stroke:#333333;stroke-width:1;" x1="259.644" x2="259.644" y1="127.1563" y2="131.1563"/><line style="stroke:#333333;stroke-width:1;" x1="259.644" x2="394.5503" y1="131.1563" y2="131.1563"/><line style="stroke:#333333;stroke-width:1;" x1="394.5503" x2="394.5503" y1="131.1563" y2="264.8906"/><polygon fill="#333333" points="390.5503,254.8906,394.5503,264.8906,398.5503,254.8906,394.5503,258.8906" style="stroke:#333333;stroke-width:1;"/><line style="stroke:#333333;stroke-width:1;" x1="116.4424" x2="116.4424" y1="623.25" y2="629.25"/><line style="stroke:#333333;stroke-width:1;" x1="116.4424" x2="283.644" y1="629.25" y2="629.25"/><line style="stroke:#333333;stroke-width:1;" x1="283.644" x2="283.644" y1="629.25" y2="643.25"/><polygon fill="#333333" points="279.644,633.25,283.644,643.25,287.644,633.25,283.644,637.25" style="stroke:#333333;stroke-width:1;"/><text fill="#000000" font-family="Liberation Sans" font-size="10" lengthAdjust="spacing" textLength="25.5518" x="130.0461" y="21.3809">ci.yml</text><text fill="#000000" font-family="Liberation Sans" font-size="10" lengthAdjust="spacing" textLength="52.7832" x="351.1587" y="21.3809">security.yml</text><!--SRC=[RLBDRjD04BxxAKRg1GvEKeKAQ5MfQPIqaIfKrO4JburtOgzYxowxOmT3aJZn08Wdv4cOjKr8GdnQp_UptywCtoXjXHCbI5oBgg2vqVHEb0WFQeLEa38Q4g5zv4yn4_K5uNoq1_fSIBDLEeErA3pk8IkHRZ9dAYsdfZ0EjhaYZFO88YLLAshWQmHmQvn4rp7FHgFnwCthK3toE9lDvkFvX96GvfYTa73_5MSxxPxhqKNV3c8vPxPjffuqRh_3Eo_Qhw-rNNaRN9vJDMZAuZdo8Kfq-LZv78Rm-0Hae1HANqNHshWD2tTKWCjfZkd6L0GlGa-CziEqhzpKhrvU1Kg2L5buR2Zd0Oq7v-EFUaVs0OjjYztK5vrWeJb3KV3qB6g9EbNeMMEL1TL3iGE7dohbi4HDVa2VgTDEh2qQA5NMBKJGYGBBbKgXiboK23aAsP7VQqL0wAcrRyAf-nrMZ0mXhly68kmDJzCXZbMcZSFhFNcdlKCTbXCXDJKVCkJWrZZwPn7735qBg_gJNFNfR6643EsV6ecCz1C0aV4umXmyffNZDTnDurPeoKzA9iaoFBmAFrPu3xz__EJj8BNcndVkXzGi9EoOtt_1_UBk7ZnoNZRlwDpykFLZylJ337mgz0dNfLDrmq_Ln17HjRIWU5ei5zF9m_3OEU81GxjMl7V6Hdy0]--></g></svg>