<svg xmlns="http://www.w3.org/2000/svg" xmlns:xlink="http://www.w3.org/1999/xlink" contentStyleType="text/css" height="726px" preserveAspectRatio="none" style="width:1033px;height:726px;background:#FFFFFF;" version="1.1" viewBox="0 0 1033 726" width="1033px" zoomAndPan="magnify"><defs/><g><rect fill="none" height="362.7344" style="stroke:#000000;stroke-width:1.5;" width="1016.1514" x="10" y="269.4922"/><line style="stroke:#181818;stroke-width:0.5;stroke-dasharray:5.0,5.0;" x1="34" x2="34" y1="77.5781" y2="649.2266"/><line style="stroke:#181818;stroke-width:0.5;stroke-dasharray:5.0,5.0;" x1="241.2837" x2="241.2837" y1="77.5781" y2="649.2266"/><line style="stroke:#181818;stroke-width:0.5;stroke-dasharray:5.0,5.0;" x1="406.2534" x2="406.2534" y1="77.5781" y2="649.2266"/><line style="stroke:#181818;stroke-width:0.5;stroke-dasharray:5.0,5.0;" x1="612.9424" x2="612.9424" y1="77.5781" y2="649.2266"/><line style="stroke:#181818;stroke-width:0.5;stroke-dasharray:5.0,5.0;" x1="795.0708" x2="795.0708" y1="77.5781" y2="649.2266"/><line style="stroke:#181818;stroke-width:0.5;stroke-dasharray:5.0,5.0;" x1="985.6787" x2="985.6787" y1="77.5781" y2="649.2266"/><text fill="#8B4513" font-family="Liberation Sans" font-size="10" font-weight="bold" lengthAdjust="spacing" textLength="22.2363" x="20" y="75.3809">User</text><ellipse cx="34.1182" cy="13.5" fill="#F5E6D3" rx="8" ry="8" style="stroke:#8B4513;stroke-width:0.5;"/><path d="M34.1182,21.5 L34.1182,48.5 M21.1182,29.5 L47.1182,29.5 M34.1182,48.5 L21.1182,63.5 M34.1182,48.5 L47.1182,63.5 " fill="none" style="stroke:#8B4513;stroke-width:0.5;"/><text fill="#8B4513" font-family="Liberation Sans" font-size="10" font-weight="bold" lengthAdjust="spacing" textLength="22.2363" x="20" y="658.6074">User</text><ellipse cx="34.1182" cy="669.3047" fill="#F5E6D3" rx="8" ry="8" style="stroke:#8B4513;stroke-width:0.5;"/><path d="M34.1182,677.3047 L34.1182,704.3047 M21.1182,685.3047 L47.1182,685.3047 M34.1182,704.3047 L21.1182,719.3047 M34.1182,704.3047 L47.1182,719.3047 " fill="none" style="stroke:#8B4513;stroke-width:0.5;"/><rect fill="#D6E8F7" height="26.5781" rx="2.5" ry="2.5" style="stroke:#0056A0;stroke-width:0.5;" width="57.3252" x="213.2837" y="50"/><text fill="#003087" font-family="Liberation Sans" font-size="10" font-weight="bold" lengthAdjust="spacing" textLength="43.3252" x="220.2837" y="67.3809">Frontend</text><rect fill="#D6E8F7" height="26.5781" rx="2.5" ry="2.5" style="stroke:#0056A0;stroke-width:0.5;" width="57.3252" x="213.2837" y="648.2266"/><text fill="#003087" font-family="Liberation Sans" font-size="10" font-weight="bold" lengthAdjust="spacing" textLength="43.3252" x="220.2837" y="665.6074">Frontend</text><rect fill="#D6E8F7" height="26.5781" rx="2.5" ry="2.5" style="stroke:#0056A0;stroke-width:0.5;" width="61.7783" x="376.2534" y="50"/><text fill="#003087" font-family="Liberation Sans" font-size="10" font-weight="bold" lengthAdjust="spacing" textLength="47.7783" x="383.2534" y="67.3809">Controller</text><rect fill="#D6E8F7" height="26.5781" rx="2.5" ry="2.5" style="stroke:#0056A0;stroke-width:0.5;" width="61.7783" x="376.2534" y="648.2266"/><text fill="#003087" font-family="Liberation Sans" font-size="10" font-weight="bold" lengthAdjust="spacing" textLength="47.7783" x="383.2534" y="665.6074">Controller</text><rect fill="#D6E8F7" height="26.5781" rx="2.5" ry="2.5" style="stroke:#0056A0;stroke-width:0.5;" width="49.5859" x="588.9424" y="50"/><text fill="#003087" font-family="Liberation Sans" font-size="10" font-weight="bold" lengthAdjust="spacing" textLength="35.5859" x="595.9424" y="67.3809">Service</text><rect fill="#D6E8F7" height="26.5781" rx="2.5" ry="2.5" style="stroke:#0056A0;stroke-width:0.5;" width="49.5859" x="588.9424" y="648.2266"/><text fill="#003087" font-family="Liberation Sans" font-size="10" font-weight="bold" lengthAdjust="spacing" textLength="35.5859" x="595.9424" y="665.6074">Service</text><rect fill="#D6E8F7" height="26.5781" rx="2.5" ry="2.5" style="stroke:#0056A0;stroke-width:0.5;" width="66.2314" x="762.0708" y="50"/><text fill="#003087" font-family="Liberation Sans" font-size="10" font-weight="bold" lengthAdjust="spacing" textLength="52.2314" x="769.0708" y="67.3809">Repository</text><rect fill="#D6E8F7" height="26.5781" rx="2.5" ry="2.5" style="stroke:#0056A0;stroke-width:0.5;" width="66.2314" x="762.0708" y="648.2266"/><text fill="#003087" font-family="Liberation Sans" font-size="10" font-weight="bold" lengthAdjust="spacing" textLength="52.2314" x="769.0708" y="665.6074">Repository</text><text fill="#3A5A1A" font-family="Liberation Sans" font-size="10" lengthAdjust="spacing" textLength="54.4727" x="955.6787" y="75.3809">PostgreSQL</text><path d="M967.915,29 C967.915,19 985.915,19 985.915,19 C985.915,19 1003.915,19 1003.915,29 L1003.915,55 C1003.915,65 985.915,65 985.915,65 C985.915,65 967.915,65 967.915,55 L967.915,29 " fill="#E6F0D8" style="stroke:#5A7A3A;stroke-width:1.5;"/><path d="M967.915,29 C967.915,39 985.915,39 985.915,39 C985.915,39 1003.915,39 1003.915,29 " fill="none" style="stroke:#5A7A3A;stroke-width:1.5;"/><text fill="#3A5A1A" font-family="Liberation Sans" font-size="10" lengthAdjust="spacing" textLength="54.4727" x="955.6787" y="658.6074">PostgreSQL</text><path d="M967.915,670.8047 C967.915,660.8047 985.915,660.8047 985.915,660.8047 C985.915,660.8047 1003.915,660.8047 1003.915,670.8047 L1003.915,696.8047 C1003.915,706.8047 985.915,706.8047 985.915,706.8047 C985.915,706.8047 967.915,706.8047 967.915,696.8047 L967.915,670.8047 " fill="#E6F0D8" style="stroke:#5A7A3A;stroke-width:1.5;"/><path d="M967.915,670.8047 C967.915,680.8047 985.915,680.8047 985.915,680.8047 C985.915,680.8047 1003.915,680.8047 1003.915,670.8047 " fill="none" style="stroke:#5A7A3A;stroke-width:1.5;"/><polygon fill="#181818" points="229.9463,114.7344,239.9463,118.7344,229.9463,122.7344,233.9463,118.7344" style="stroke:#181818;stroke-width:1;"/><line style="stroke:#181818;stroke-width:1;" x1="34.1182" x2="235.9463" y1="118.7344" y2="118.7344"/><text fill="#000000" font-family="Liberation Sans" font-size="10" lengthAdjust="spacing" textLength="76.6699" x="41.1182" y="101.959">1. Fill matrix form</text><text fill="#000000" font-family="Liberation Sans" font-size="10" lengthAdjust="spacing" textLength="161.1719" x="49.4531" y="114.5371">(species, matrix_a, stage names, ...)</text><polygon fill="#181818" points="395.1426,153.8906,405.1426,157.8906,395.1426,161.8906,399.1426,157.8906" style="stroke:#181818;stroke-width:1;"/><line style="stroke:#181818;stroke-width:1;" x1="241.9463" x2="401.1426" y1="157.8906" y2="157.8906"/><text fill="#000000" font-family="Liberation Sans" font-size="10" lengthAdjust="spacing" textLength="95.0244" x="248.9463" y="141.1152">2. POST /v1/matrices</text><text fill="#000000" font-family="Liberation Sans" font-size="10" lengthAdjust="spacing" textLength="132.8613" x="257.2813" y="153.6934">Authorization: Bearer &lt;token&gt;</text><path d="M327,170.8906 L327,191.8906 L485,191.8906 L485,180.8906 L475,170.8906 L327,170.8906 " fill="#FFFDE7" style="stroke:#AAAAAA;stroke-width:0.5;"/><path d="M475,170.8906 L475,180.8906 L485,180.8906 L475,170.8906 " fill="#FFFDE7" style="stroke:#AAAAAA;stroke-width:0.5;"/><text fill="#000000" font-family="Liberation Sans" font-size="9" lengthAdjust="spacing" textLength="137.3203" x="333" y="185.2334">3. Validate JWT &#8594; resolve user_id</text><path d="M288,202.2109 L288,257.2109 L525,257.2109 L525,212.2109 L515,202.2109 L288,202.2109 " fill="#FFFDE7" style="stroke:#AAAAAA;stroke-width:0.5;"/><path d="M515,202.2109 L515,212.2109 L525,212.2109 L515,202.2109 " fill="#FFFDE7" style="stroke:#AAAAAA;stroke-width:0.5;"/><text fill="#000000" font-family="Liberation Sans" font-size="9" lengthAdjust="spacing" textLength="141.5654" x="294" y="216.5537">4. Pydantic MatrixCreate validation:</text><text fill="#000000" font-family="Liberation Sans" font-size="9" lengthAdjust="spacing" textLength="167.0801" x="301.5015" y="227.874">- matrix_a must be square and non-empty</text><text fill="#000000" font-family="Liberation Sans" font-size="9" lengthAdjust="spacing" textLength="209.061" x="301.5015" y="239.1943">- matrix_u / matrix_f must match matrix_a dimension</text><text fill="#000000" font-family="Liberation Sans" font-size="9" lengthAdjust="spacing" textLength="201.0981" x="301.5015" y="250.5146">- stage_names count must equal matrix dimension</text><path d="M10,269.4922 L66.6699,269.4922 L66.6699,274.0703 L56.6699,284.0703 L10,284.0703 L10,269.4922 " fill="#EEEEEE" style="stroke:#000000;stroke-width:1.5;"/><rect fill="none" height="362.7344" style="stroke:#000000;stroke-width:1.5;" width="1016.1514" x="10" y="269.4922"/><text fill="#000000" font-family="Liberation Sans" font-size="10" font-weight="bold" lengthAdjust="spacing" textLength="11.6699" x="25" y="280.873">alt</text><text fill="#000000" font-family="Liberation Sans" font-size="10" font-weight="bold" lengthAdjust="spacing" textLength="76.123" x="81.6699" y="281.873">[validation fails]</text><polygon fill="#181818" points="252.9463,311.2266,242.9463,315.2266,252.9463,319.2266,248.9463,315.2266" style="stroke:#181818;stroke-width:1;"/><line style="stroke:#181818;stroke-width:1;stroke-dasharray:2.0,2.0;" x1="246.9463" x2="406.1426" y1="315.2266" y2="315.2266"/><text fill="#000000" font-family="Liberation Sans" font-size="10" lengthAdjust="spacing" textLength="113.9551" x="258.9463" y="298.4512">422 Unprocessable Entity</text><text fill="#000000" font-family="Liberation Sans" font-size="10" lengthAdjust="spacing" textLength="104.4775" x="258.9463" y="311.0293">(field-level error details)</text><polygon fill="#181818" points="45.1182,337.8047,35.1182,341.8047,45.1182,345.8047,41.1182,341.8047" style="stroke:#181818;stroke-width:1;"/><line style="stroke:#181818;stroke-width:1;stroke-dasharray:2.0,2.0;" x1="39.1182" x2="240.9463" y1="341.8047" y2="341.8047"/><text fill="#000000" font-family="Liberation Sans" font-size="10" lengthAdjust="spacing" textLength="98.9355" x="51.1182" y="337.6074">Show validation errors</text><line style="stroke:#000000;stroke-width:1;stroke-dasharray:2.0,2.0;" x1="10" x2="1026.1514" y1="350.8047" y2="350.8047"/><text fill="#000000" font-family="Liberation Sans" font-size="10" font-weight="bold" lengthAdjust="spacing" textLength="90.0293" x="15" y="361.1855">[validation passes]</text><polygon fill="#181818" points="601.7354,378.9609,611.7354,382.9609,601.7354,386.9609,605.7354,382.9609" style="stroke:#181818;stroke-width:1;"/><line style="stroke:#181818;stroke-width:1;" x1="407.1426" x2="607.7354" y1="382.9609" y2="382.9609"/><text fill="#000000" font-family="Liberation Sans" font-size="10" lengthAdjust="spacing" textLength="182.5928" x="414.1426" y="378.7637">5. create_matrix(data, owner_id=user_id)</text><path d="M530,395.9609 L530,427.9609 L696,427.9609 L696,405.9609 L686,395.9609 L530,395.9609 " fill="#FFFDE7" style="stroke:#AAAAAA;stroke-width:0.5;"/><path d="M686,395.9609 L686,405.9609 L696,405.9609 L686,395.9609 " fill="#FFFDE7" style="stroke:#AAAAAA;stroke-width:0.5;"/><text fill="#000000" font-family="Liberation Sans" font-size="9" lengthAdjust="spacing" textLength="134.4551" x="536" y="410.3037">6. source_type forced to "custom"</text><text fill="#000000" font-family="Liberation Sans" font-size="9" lengthAdjust="spacing" textLength="137.5884" x="543.5015" y="421.624">owner_id set to authenticated user</text><polygon fill="#181818" points="783.1865,460.7578,793.1865,464.7578,783.1865,468.7578,787.1865,464.7578" style="stroke:#181818;stroke-width:1;"/><line style="stroke:#181818;stroke-width:1;" x1="613.7354" x2="789.1865" y1="464.7578" y2="464.7578"/><text fill="#000000" font-family="Liberation Sans" font-size="10" lengthAdjust="spacing" textLength="136.7188" x="620.7354" y="447.9824">7. create(species, matrix_a, ...,</text><text fill="#000000" font-family="Liberation Sans" font-size="10" lengthAdjust="spacing" textLength="149.1162" x="629.0703" y="460.5605">source_type="custom", owner_id)</text><polygon fill="#181818" points="973.915,487.3359,983.915,491.3359,973.915,495.3359,977.915,491.3359" style="stroke:#181818;stroke-width:1;"/><line style="stroke:#181818;stroke-width:1;" x1="795.1865" x2="979.915" y1="491.3359" y2="491.3359"/><text fill="#000000" font-family="Liberation Sans" font-size="10" lengthAdjust="spacing" textLength="166.7285" x="802.1865" y="487.1387">8. INSERT INTO population_matrices</text><polygon fill="#181818" points="806.1865,513.9141,796.1865,517.9141,806.1865,521.9141,802.1865,517.9141" style="stroke:#181818;stroke-width:1;"/><line style="stroke:#181818;stroke-width:1;stroke-dasharray:2.0,2.0;" x1="800.1865" x2="984.915" y1="517.9141" y2="517.9141"/><text fill="#000000" font-family="Liberation Sans" font-size="10" lengthAdjust="spacing" textLength="104.4922" x="812.1865" y="513.7168">9. PopulationMatrix row</text><polygon fill="#181818" points="624.7354,540.4922,614.7354,544.4922,624.7354,548.4922,620.7354,544.4922" style="stroke:#181818;stroke-width:1;"/><line style="stroke:#181818;stroke-width:1;stroke-dasharray:2.0,2.0;" x1="618.7354" x2="794.1865" y1="544.4922" y2="544.4922"/><text fill="#000000" font-family="Liberation Sans" font-size="10" lengthAdjust="spacing" textLength="69.4727" x="630.7354" y="540.2949">10. ORM object</text><polygon fill="#181818" points="418.1426,567.0703,408.1426,571.0703,418.1426,575.0703,414.1426,571.0703" style="stroke:#181818;stroke-width:1;"/><line style="stroke:#181818;stroke-width:1;stroke-dasharray:2.0,2.0;" x1="412.1426" x2="612.7354" y1="571.0703" y2="571.0703"/><text fill="#000000" font-family="Liberation Sans" font-size="10" lengthAdjust="spacing" textLength="76.1377" x="424.1426" y="566.873">11. MatrixRecord</text><polygon fill="#181818" points="252.9463,593.6484,242.9463,597.6484,252.9463,601.6484,248.9463,597.6484" style="stroke:#181818;stroke-width:1;"/><line style="stroke:#181818;stroke-width:1;stroke-dasharray:2.0,2.0;" x1="246.9463" x2="406.1426" y1="597.6484" y2="597.6484"/><text fill="#000000" font-family="Liberation Sans" font-size="10" lengthAdjust="spacing" textLength="137.8271" x="258.9463" y="593.4512">12. 201 Created (matrix JSON)</text><polygon fill="#181818" points="45.1182,620.2266,35.1182,624.2266,45.1182,628.2266,41.1182,624.2266" style="stroke:#181818;stroke-width:1;"/><line style="stroke:#181818;stroke-width:1;stroke-dasharray:2.0,2.0;" x1="39.1182" x2="240.9463" y1="624.2266" y2="624.2266"/><text fill="#000000" font-family="Liberation Sans" font-size="10" lengthAdjust="spacing" textLength="183.8281" x="51.1182" y="620.0293">13. Show new matrix in "My Matrices" tab</text><!--SRC=[VLJRSXev47tNLtIH5wVA7eCncBYILFa2LKd5TjRZxBwaYj9e6b0if8caWILR-xeVi9-uNx8jpJ0C2GaFWAJMwTEdJyizIrrmovUGuuoNoa-CzlTyYV11PcYvbqP3ohLZxb1aAhyXzBgjGxVWkLbBFOSPLmvR9naNptDhIftV66Kih1VIjyyTVYrH2xn3v_WShvISQr0uywmLHDzU2bbmxU4l1d1jR8ws0dpHxGw6Lzsm-rsg5xV3yMXoGIU1T1FTxuwsUwdVA8JCg9pztKh7XQVG7nADhiy7lVwXH9F1U7ZRtq_KHFyYKSuzpxZ37tCD-0NlyqEvniD9ztQqdwlF1xp7zw2ryGTWUVmSB64okHqtkeG6lo8yLabHVJgV7DfElU0EIbgoTciw4qkNKUUTAc1MB_U3RcZJ6gK25WK9RzL-G8fs9GLswZHk9VRF7x4mJXAlJGImj6IDae7dH-Fyt6BwsuSOa6UC1QwHzybRQ7Z19VGIc4YbOCczbN_2pDZbPqrXHwv08T4TroTJVWpEaq51qvZGTf8aBra355138J759PmbyF4XVOBJLUyqtXVe8knLwHV6ocznmYxX6habNg-zUKRzbh7ODBEYhQWAG3-1txcIL1t2-p-UuBz__gLwdL4hZF9FPSv2_d3nmFLpuh79IJGfu2xMSMCnOAqgq422LR8qTSAoT1uo1FUr97R08xm-mMNXDzy5bt2w_Jkhxj5AB7POkLoYTfHcUp5gE8qQWY3x-UeQFGAyQSBkqguqhdoBDBqoKZbMQtv2whTQUdvs1fzqOOq8Jqf6SpSc0VpcipwQILJvYS8LAa1hoTav-W3rahLS4V2YNouXNPXrEs-yv1ZI6zVUBhXpkED3PY3J1YCC4X1HyMbLsr7mwJ6OjOwzUrFtCAJVDIyOFgWrJC2PqWgS-as1mPi2S_06Ee8qCyiEgsTn2qUFgG_dd5o6eUcKEA_65A3HiYONM8RH8PONMvQ7N4z6FuxURN5visMmAoMK4E42Rfx5CHWbyEu-7Jy-qS_J0nIcA5KKRBeT2bR71ibhCg_8iqrWPLgmPjt0KsGjRg-RmCFZ7PZi2mhVr4K1iGqKGDDT8JoYe6Vm9uRfqRYUTNjGpKOEHxKFtwSFzpypHeycCvf3uthhMwcXSxUfCb9j7Q0dALYO_Gy0]--></g></svg>