<svg xmlns="http://www.w3.org/2000/svg" xmlns:xlink="http://www.w3.org/1999/xlink" contentStyleType="text/css" height="770px" preserveAspectRatio="none" style="width:524px;height:770px;background:#FFFFFF;" version="1.1" viewBox="0 0 524 770" width="524px" zoomAndPan="magnify"><defs/><g><!--cluster Docker Host--><g id="cluster_Docker Host"><polygon fill="#EEF3FA" points="39,104.5,49,94.5,286,94.5,286,743.5,276,753.5,39,753.5,39,104.5" style="stroke:#003087;stroke-width:1;"/><line style="stroke:#003087;stroke-width:1;" x1="276" x2="286" y1="104.5" y2="94.5"/><line style="stroke:#003087;stroke-width:1;" x1="39" x2="276" y1="104.5" y2="104.5"/><line style="stroke:#003087;stroke-width:1;" x1="276" x2="276" y1="104.5" y2="753.5"/><text fill="#003087" font-family="Liberation Sans" font-size="10" font-weight="bold" lengthAdjust="spacing" textLength="58.9063" x="129.0469" y="117.8809">Docker Host</text></g><!--cluster frontend--><g id="cluster_frontend"><polygon fill="#EEF3FA" points="71,156.5,81,146.5,227,146.5,227,272.5,217,282.5,71,282.5,71,156.5" style="stroke:#003087;stroke-width:1;"/><line style="stroke:#003087;stroke-width:1;" x1="217" x2="227" y1="156.5" y2="146.5"/><line style="stroke:#003087;stroke-width:1;" x1="71" x2="217" y1="156.5" y2="156.5"/><line style="stroke:#003087;stroke-width:1;" x1="217" x2="217" y1="156.5" y2="282.5"/><text fill="#003087" font-family="Liberation Sans" font-size="10" font-weight="bold" lengthAdjust="spacing" textLength="40.5469" x="124.7266" y="169.8809">frontend</text><text fill="#003087" font-family="Liberation Sans" font-size="10" font-weight="bold" lengthAdjust="spacing" textLength="80" x="105" y="182.459">Shiny for Python</text></g><!--cluster api--><g id="cluster_api"><polygon fill="#EEF3FA" points="74,332.5,84,322.5,234,322.5,234,448.5,224,458.5,74,458.5,74,332.5" style="stroke:#003087;stroke-width:1;"/><line style="stroke:#003087;stroke-width:1;" x1="224" x2="234" y1="332.5" y2="322.5"/><line style="stroke:#003087;stroke-width:1;" x1="74" x2="224" y1="332.5" y2="332.5"/><line style="stroke:#003087;stroke-width:1;" x1="224" x2="224" y1="332.5" y2="458.5"/><text fill="#003087" font-family="Liberation Sans" font-size="10" font-weight="bold" lengthAdjust="spacing" textLength="14.4482" x="142.7759" y="345.8809">api</text><text fill="#003087" font-family="Liberation Sans" font-size="10" font-weight="bold" lengthAdjust="spacing" textLength="84.7461" x="107.627" y="358.459">FastAPI + uvicorn</text></g><!--cluster db--><g id="cluster_db"><polygon fill="#EEF3FA" points="71,508.5,81,498.5,254,498.5,254,637.5,244,647.5,71,647.5,71,508.5" style="stroke:#003087;stroke-width:1;"/><line style="stroke:#003087;stroke-width:1;" x1="244" x2="254" y1="508.5" y2="498.5"/><line style="stroke:#003087;stroke-width:1;" x1="71" x2="244" y1="508.5" y2="508.5"/><line style="stroke:#003087;stroke-width:1;" x1="244" x2="244" y1="508.5" y2="647.5"/><text fill="#003087" font-family="Liberation Sans" font-size="10" font-weight="bold" lengthAdjust="spacing" textLength="12.2168" x="152.3916" y="521.8809">db</text><text fill="#003087" font-family="Liberation Sans" font-size="10" font-weight="bold" lengthAdjust="spacing" textLength="88.9111" x="114.0444" y="534.459">postgres:16-alpine</text></g><!--entity vol--><g id="elem_vol"><path d="M55.5,693.5 C55.5,683.5 103.8398,683.5 103.8398,683.5 C103.8398,683.5 152.1797,683.5 152.1797,693.5 L152.1797,727.6563 C152.1797,737.6563 103.8398,737.6563 103.8398,737.6563 C103.8398,737.6563 55.5,737.6563 55.5,727.6563 L55.5,693.5 " fill="#D6E4F0" style="stroke:#003087;stroke-width:0.5;"/><path d="M55.5,693.5 C55.5,703.5 103.8398,703.5 103.8398,703.5 C103.8398,703.5 152.1797,703.5 152.1797,693.5 " fill="none" style="stroke:#003087;stroke-width:0.5;"/><text fill="#003087" font-family="Liberation Sans" font-size="10" font-weight="bold" lengthAdjust="spacing" textLength="68.3545" x="65.5" y="717.8809">postgres_data</text><text fill="#003087" font-family="Liberation Sans" font-size="10" font-weight="bold" lengthAdjust="spacing" textLength="76.6797" x="65.5" y="730.459">(named volume)</text></g><!--entity Shiny app\n:8080--><g id="elem_Shiny app\n:8080"><rect fill="#F1F1F1" height="55.1563" rx="2.5" ry="2.5" style="stroke:#181818;stroke-width:0.5;" width="84.4775" x="119" y="203.5"/><rect fill="#F1F1F1" height="10" style="stroke:#181818;stroke-width:0.5;" width="15" x="183.4775" y="208.5"/><rect fill="#F1F1F1" height="2" style="stroke:#181818;stroke-width:0.5;" width="4" x="181.4775" y="210.5"/><rect fill="#F1F1F1" height="2" style="stroke:#181818;stroke-width:0.5;" width="4" x="181.4775" y="214.5"/><text fill="#000000" font-family="Liberation Sans" font-size="10" lengthAdjust="spacing" textLength="44.4775" x="134" y="233.8809">Shiny app</text><text fill="#000000" font-family="Liberation Sans" font-size="10" lengthAdjust="spacing" textLength="25.0244" x="134" y="246.459">:8080</text></g><!--entity REST API\n:8000--><g id="elem_REST API\n:8000"><rect fill="#F1F1F1" height="55.1563" rx="2.5" ry="2.5" style="stroke:#181818;stroke-width:0.5;" width="85.5664" x="121" y="379.5"/><rect fill="#F1F1F1" height="10" style="stroke:#181818;stroke-width:0.5;" width="15" x="186.5664" y="384.5"/><rect fill="#F1F1F1" height="2" style="stroke:#181818;stroke-width:0.5;" width="4" x="184.5664" y="386.5"/><rect fill="#F1F1F1" height="2" style="stroke:#181818;stroke-width:0.5;" width="4" x="184.5664" y="390.5"/><text fill="#000000" font-family="Liberation Sans" font-size="10" lengthAdjust="spacing" textLength="45.5664" x="136" y="409.8809">REST API</text><text fill="#000000" font-family="Liberation Sans" font-size="10" lengthAdjust="spacing" textLength="25.0244" x="136" y="422.459">:8000</text></g><!--entity PostgreSQL\n:5432 (container)\n:5435 (host)--><g id="elem_PostgreSQL\n:5432 (container)\n:5435 (host)"><rect fill="#F1F1F1" height="67.7344" rx="2.5" ry="2.5" style="stroke:#181818;stroke-width:0.5;" width="115.6006" x="114" y="555.5"/><rect fill="#F1F1F1" height="10" style="stroke:#181818;stroke-width:0.5;" width="15" x="209.6006" y="560.5"/><rect fill="#F1F1F1" height="2" style="stroke:#181818;stroke-width:0.5;" width="4" x="207.6006" y="562.5"/><rect fill="#F1F1F1" height="2" style="stroke:#181818;stroke-width:0.5;" width="4" x="207.6006" y="566.5"/><text fill="#000000" font-family="Liberation Sans" font-size="10" lengthAdjust="spacing" textLength="54.4727" x="129" y="585.8809">PostgreSQL</text><text fill="#000000" font-family="Liberation Sans" font-size="10" lengthAdjust="spacing" textLength="75.6006" x="129" y="598.459">:5432 (container)</text><text fill="#000000" font-family="Liberation Sans" font-size="10" lengthAdjust="spacing" textLength="53.3643" x="129" y="611.0371">:5435 (host)</text></g><!--entity browser--><g id="elem_browser"><ellipse cx="176.0073" cy="14" fill="#D6E4F0" rx="8" ry="8" style="stroke:#003087;stroke-width:0.5;"/><path d="M176.0073,22 L176.0073,49 M163.0073,30 L189.0073,30 M176.0073,49 L163.0073,64 M176.0073,49 L189.0073,64 " fill="none" style="stroke:#003087;stroke-width:0.5;"/><text fill="#003087" font-family="Liberation Sans" font-size="10" font-weight="bold" lengthAdjust="spacing" textLength="40.0146" x="156" y="75.8809">Browser</text></g><g id="elem_GMN16"><path d="M302,559.5 L302,619.8125 L517.8145,619.8125 L517.8145,569.5 L507.8145,559.5 L302,559.5 " fill="#FEFFDD" style="stroke:#181818;stroke-width:0.5;"/><path d="M507.8145,559.5 L507.8145,569.5 L517.8145,569.5 L507.8145,559.5 " fill="#FEFFDD" style="stroke:#181818;stroke-width:1;"/><text fill="#000000" font-family="Liberation Sans" font-size="10" lengthAdjust="spacing" textLength="88.3887" x="308" y="574.8809">host-side port: 5435</text><text fill="#000000" font-family="Liberation Sans" font-size="10" lengthAdjust="spacing" textLength="88.9502" x="308" y="587.459">container port: 5432</text><text fill="#000000" font-family="Liberation Sans" font-size="10" lengthAdjust="spacing" textLength="136.1572" x="308" y="600.0371">docker-compose.yml overrides</text><text fill="#000000" font-family="Liberation Sans" font-size="10" lengthAdjust="spacing" textLength="194.8145" x="308" y="612.6152">POSTGRES_PORT=5432 inside containers</text></g><!--link browser to frontend--><g id="link_browser_frontend"><path d="M155.58,30.5 C128.48,30.5 84,30.5 84,30.5 C84,30.5 84,77.54 84,126.05 C84,132.1137 84,138.2005 84,144.2212 C84,144.9737 84,139.7253 84,140.4756 " fill="none" id="browser-to-frontend" style="stroke:#333333;stroke-width:1;"/><polygon fill="#333333" points="84,146.4756,88,137.4756,84,141.4756,80,137.4756,84,146.4756" style="stroke:#333333;stroke-width:1;"/><text fill="#555555" font-family="Liberation Sans" font-size="9" lengthAdjust="spacing" textLength="48.52" x="35" y="92.0128">HTTP :8080</text></g><!--link browser to api--><g id="link_browser_api"><path d="M155.9,54.5 C133.23,54.5 99.5,54.5 99.5,54.5 C99.5,54.5 99.5,142.75 99.5,231 C99.5,253.0625 99.5,275.125 99.5,295.8086 C99.5,300.9795 99.5,306.0642 99.5,311.0412 C99.5,313.5297 99.5,315.9913 99.5,318.4232 C99.5,319.6392 99.5,314.8477 99.5,316.0485 " fill="none" id="browser-to-api" style="stroke:#333333;stroke-width:1;"/><polygon fill="#333333" points="99.5,322.0485,103.5,313.0485,99.5,317.0485,95.5,313.0485,99.5,322.0485" style="stroke:#333333;stroke-width:1;"/><text fill="#555555" font-family="Liberation Sans" font-size="9" lengthAdjust="spacing" textLength="48.52" x="47.7478" y="196.8028">HTTP :8000</text><text fill="#555555" font-family="Liberation Sans" font-size="9" lengthAdjust="spacing" textLength="53.0156" x="45.5" y="208.1231">(Swagger UI)</text></g><!--link frontend to api--><g id="link_frontend_api"><path d="M84,283.2953 C84,283.8908 84,284.4889 84,285.0895 C84,286.2907 84,287.5019 84,288.7219 C84,298.482 84,308.8078 84,319.1312 C84,319.7765 84,320.4217 84,321.0667 C84,321.3893 84,315.7117 84,316.0342 " fill="none" id="frontend-to-api" style="stroke:#333333;stroke-width:1;"/><polygon fill="#333333" points="84,322.0342,88,313.0342,84,317.0342,80,313.0342,84,322.0342" style="stroke:#333333;stroke-width:1;"/><text fill="#555555" font-family="Liberation Sans" font-size="9" lengthAdjust="spacing" textLength="50.001" x="33" y="305.3628">HTTP REST</text><text fill="#555555" font-family="Liberation Sans" font-size="9" lengthAdjust="spacing" textLength="22.522" x="46.7395" y="316.6831">:8000</text></g><!--link api to db--><g id="link_api_db"><path d="M84,459.1443 C84,459.4597 84,459.7759 84,460.0929 C84,460.7268 84,461.3637 84,462.0034 C84,464.5623 84,467.1666 84,469.8062 C84,475.0853 84,480.5056 84,485.9859 C84,488.7261 84,491.4813 84,494.2414 C84,495.6214 84,491.0027 84,492.3839 " fill="none" id="api-to-db" style="stroke:#333333;stroke-width:1;"/><polygon fill="#333333" points="84,498.3839,88,489.3839,84,493.3839,80,489.3839,84,498.3839" style="stroke:#333333;stroke-width:1;"/><text fill="#555555" font-family="Liberation Sans" font-size="9" lengthAdjust="spacing" textLength="76.0166" x="7" y="487.1228">SQLAlchemy ORM</text><text fill="#555555" font-family="Liberation Sans" font-size="9" lengthAdjust="spacing" textLength="43.0225" x="23.4971" y="498.4431">TCP :5432</text></g><!--link db to vol--><g id="link_db_vol"><path d="M79,647.9078 C79,648.0604 79,648.213 79,648.3656 C79,650.8075 79,653.2529 79,655.6859 C79,665.4181 79,668.9525 79,677.27 " fill="none" id="db-to-vol" style="stroke:#333333;stroke-width:1;"/><polygon fill="#333333" points="79,683.27,83,674.27,79,678.27,75,674.27,79,683.27" style="stroke:#333333;stroke-width:1;"/><text fill="#555555" font-family="Liberation Sans" font-size="9" lengthAdjust="spacing" textLength="51.0249" x="27" y="634.1128">persists data</text></g><!--link db to GMN16--><g id="link_db_GMN16"><path d="M79,498.3516 C79,498.0901 79,497.8452 79,497.6174 C79,497.1617 79,496.7746 79,496.4609 C79,495.8336 79,495.5 79,495.5 C79,495.5 410,495.5 410,495.5 C410,495.5 410,531.99 410,559.5 " fill="none" id="db-GMN16" style="stroke:#333333;stroke-width:1;stroke-dasharray:7.0,7.0;"/></g><!--SRC=[lPDVRzem5CNV_Ickw0jeOafBwHZI9j4MrahTo4Zsj4oL4vl48h4Zsu2ogTzzrmx_YlQoFInFqJqdltlliMDMGjPKqmeONz9rQMTAsY-qul0aKgwf5Kf2HAKXva_EIFpaS1cSYAQWJ6s5p659IyDFb9HcgrohjMHtgbGQjeMmftef9BTDpK5fMoXoeaZ5EFmY0BTACwxRpo-2O12Cthdg6VXYEfqDPXDKt8ZdRZ-sRKeEgIePUJbjnAYbAJL_rUp-Pdez2_wX6SqiUlzB9wtLrdVQVJNmpslIq3zxaZlNzuxIJjcvHOBXkWFKGDg-4-BFfNEliXNNyA2CxM0J9BJrfKOGbooHKI5a0qlaX0qUhVIKlUpd0lZUccXT9t8y2aR13oo_76cq5ecSKMCduIEyWVL6P4gt99JsaCKqYW4TdX6SCrYQo1h7p3KtuykRFYrhl7EUmT8z8cmDqTSdX0ol1rVGpN1IYaxTQqj3w1RewXtmXtlJsUEVNIcHNOc_4eEDAjSLx_bE-4vSiBiKeT__UCnY30zn788Fu9N3xNWKWm3HqPRcEShV7dla03ZpkZnsMH1NTZAkEWPSRr9c1QyQc2y-9pA-Gx3Rbg3iN3WcscgkZJ3M-0tTWLiEMkI51RL44AxkWkWRWV7M-D-EmSM3vKDan_AL2yhVbNwcAWoAlssg4jI6QutV6vJ3UHH_mfcVm_aY_k335zB33pn3t9fk4F8R]--></g></svg>