<svg xmlns="http://www.w3.org/2000/svg" xmlns:xlink="http://www.w3.org/1999/xlink" contentStyleType="text/css" height="643px" preserveAspectRatio="none" style="width:282px;height:643px;background:#FFFFFF;" version="1.1" viewBox="0 0 282 643" width="282px" zoomAndPan="magnify"><defs/><g><!--class users--><g id="elem_users"><rect codeLine="22" fill="#F1F1F1" height="106.8906" id="users" rx="2.5" ry="2.5" style="stroke:#181818;stroke-width:0.5;" width="184.2754" x="71.5" y="7"/><ellipse cx="147.6611" cy="21" fill="#ADD1B2" rx="9" ry="9" style="stroke:#181818;stroke-width:1;"/><path d="M147.1299,21.5313 L147.1299,23 L149.6924,23 L149.6924,22.4531 Q149.6924,22.0938 149.833,21.9375 Q149.9736,21.7813 150.1924,21.7813 Q150.4111,21.7813 150.5518,21.9375 Q150.6924,22.0938 150.6924,22.4531 L150.6924,24 L145.9736,24 Q145.6143,24 145.458,23.8594 Q145.3018,23.7188 145.3018,23.5 Q145.3018,23.2813 145.458,23.1406 Q145.6143,23 145.9736,23 L146.1299,23 L146.1299,19.0781 L145.9736,19.0781 Q145.6143,19.0781 145.458,18.9375 Q145.3018,18.7969 145.3018,18.5781 Q145.3018,18.3594 145.458,18.2188 Q145.6143,18.0781 145.9736,18.0781 L150.4736,18.0781 L150.4736,19.6094 Q150.4736,19.9688 150.333,20.125 Q150.1924,20.2656 149.9736,20.2656 Q149.7393,20.2656 149.5986,20.125 Q149.4736,19.9688 149.4736,19.6094 L149.4736,19.0781 L147.1299,19.0781 L147.1299,20.5313 L148.0205,20.5313 Q148.0205,20.1406 148.083,20.0313 Q148.2393,19.7813 148.5205,19.7813 Q148.7393,19.7813 148.8799,19.9375 Q149.0205,20.0938 149.0205,20.4531 L149.0205,21.6094 Q149.0205,21.9375 148.9424,22.0469 Q148.7861,22.2813 148.5205,22.2813 Q148.2393,22.2813 148.083,22.0313 Q148.0205,21.9219 148.0205,21.5313 L147.1299,21.5313 Z " fill="#000000"/><text fill="#000000" font-family="Liberation Sans" font-size="10" lengthAdjust="spacing" textLength="24.4531" x="165.1611" y="25.0918">users</text><line style="stroke:#181818;stroke-width:0.5;" x1="72.5" x2="254.7754" y1="35" y2="35"/><ellipse cx="82.5" cy="46.7891" fill="#000000" rx="3" ry="3" style="stroke:#000000;stroke-width:1;"/><text fill="#000000" font-family="Liberation Sans" font-size="10" lengthAdjust="spacing" textLength="78.9307" x="89.5" y="49.3809">id : SERIAL &#171;PK&#187;</text><line style="stroke:#181818;stroke-width:1;" x1="72.5" x2="254.7754" y1="55.5781" y2="55.5781"/><text fill="#000000" font-family="Liberation Sans" font-size="10" lengthAdjust="spacing" textLength="172.2754" x="77.5" y="69.959">username : VARCHAR(64) &#171;UNIQUE&#187;</text><text fill="#000000" font-family="Liberation Sans" font-size="10" lengthAdjust="spacing" textLength="157.2656" x="77.5" y="82.5371">email : VARCHAR(255) &#171;UNIQUE&#187;</text><text fill="#000000" font-family="Liberation Sans" font-size="10" lengthAdjust="spacing" textLength="138.3984" x="77.5" y="95.1152">hashed_password : VARCHAR</text><text fill="#000000" font-family="Liberation Sans" font-size="10" lengthAdjust="spacing" textLength="113.9258" x="77.5" y="107.6934">created_at : TIMESTAMP</text></g><!--class population_matrices--><g id="elem_population_matrices"><rect codeLine="31" fill="#F1F1F1" height="207.5156" id="population_matrices" rx="2.5" ry="2.5" style="stroke:#181818;stroke-width:0.5;" width="172.6299" x="7" y="174"/><ellipse cx="44.8164" cy="188" fill="#ADD1B2" rx="9" ry="9" style="stroke:#181818;stroke-width:1;"/><path d="M44.2852,188.5313 L44.2852,190 L46.8477,190 L46.8477,189.4531 Q46.8477,189.0938 46.9883,188.9375 Q47.1289,188.7813 47.3477,188.7813 Q47.5664,188.7813 47.707,188.9375 Q47.8477,189.0938 47.8477,189.4531 L47.8477,191 L43.1289,191 Q42.7695,191 42.6133,190.8594 Q42.457,190.7188 42.457,190.5 Q42.457,190.2813 42.6133,190.1406 Q42.7695,190 43.1289,190 L43.2852,190 L43.2852,186.0781 L43.1289,186.0781 Q42.7695,186.0781 42.6133,185.9375 Q42.457,185.7969 42.457,185.5781 Q42.457,185.3594 42.6133,185.2188 Q42.7695,185.0781 43.1289,185.0781 L47.6289,185.0781 L47.6289,186.6094 Q47.6289,186.9688 47.4883,187.125 Q47.3477,187.2656 47.1289,187.2656 Q46.8945,187.2656 46.7539,187.125 Q46.6289,186.9688 46.6289,186.6094 L46.6289,186.0781 L44.2852,186.0781 L44.2852,187.5313 L45.1758,187.5313 Q45.1758,187.1406 45.2383,187.0313 Q45.3945,186.7813 45.6758,186.7813 Q45.8945,186.7813 46.0352,186.9375 Q46.1758,187.0938 46.1758,187.4531 L46.1758,188.6094 Q46.1758,188.9375 46.0977,189.0469 Q45.9414,189.2813 45.6758,189.2813 Q45.3945,189.2813 45.2383,189.0313 Q45.1758,188.9219 45.1758,188.5313 L44.2852,188.5313 Z " fill="#000000"/><text fill="#000000" font-family="Liberation Sans" font-size="10" lengthAdjust="spacing" textLength="89.4971" x="62.3164" y="192.0918">population_matrices</text><line style="stroke:#181818;stroke-width:0.5;" x1="8" x2="178.6299" y1="202" y2="202"/><ellipse cx="18" cy="213.7891" fill="#000000" rx="3" ry="3" style="stroke:#000000;stroke-width:1;"/><text fill="#000000" font-family="Liberation Sans" font-size="10" lengthAdjust="spacing" textLength="78.9307" x="25" y="216.3809">id : SERIAL &#171;PK&#187;</text><line style="stroke:#181818;stroke-width:1;" x1="8" x2="178.6299" y1="222.5781" y2="222.5781"/><text fill="#000000" font-family="Liberation Sans" font-size="10" lengthAdjust="spacing" textLength="160.0732" x="13" y="236.959">owner_id : INTEGER &#171;FK, nullable&#187;</text><text fill="#000000" font-family="Liberation Sans" font-size="10" lengthAdjust="spacing" textLength="111.709" x="13" y="249.5371">source_type : VARCHAR</text><text fill="#000000" font-family="Liberation Sans" font-size="10" lengthAdjust="spacing" textLength="160.6299" x="13" y="262.1152">species_accepted : VARCHAR(255)</text><text fill="#000000" font-family="Liberation Sans" font-size="10" lengthAdjust="spacing" textLength="149.4971" x="13" y="274.6934">common_name : VARCHAR(255)</text><text fill="#000000" font-family="Liberation Sans" font-size="10" lengthAdjust="spacing" textLength="118.374" x="13" y="287.2715">kingdom : VARCHAR(128)</text><text fill="#000000" font-family="Liberation Sans" font-size="10" lengthAdjust="spacing" textLength="129.4922" x="13" y="299.8496">country_code : VARCHAR(8)</text><text fill="#000000" font-family="Liberation Sans" font-size="10" lengthAdjust="spacing" textLength="80.0195" x="13" y="312.4277">matrix_a : JSONB</text><text fill="#000000" font-family="Liberation Sans" font-size="10" lengthAdjust="spacing" textLength="80.0195" x="13" y="325.0059">matrix_u : JSONB</text><text fill="#000000" font-family="Liberation Sans" font-size="10" lengthAdjust="spacing" textLength="77.2363" x="13" y="337.584">matrix_f : JSONB</text><text fill="#000000" font-family="Liberation Sans" font-size="10" lengthAdjust="spacing" textLength="101.7139" x="13" y="350.1621">stage_names : JSONB</text><text fill="#000000" font-family="Liberation Sans" font-size="10" lengthAdjust="spacing" textLength="83.3691" x="13" y="362.7402">metadata : JSONB</text><text fill="#000000" font-family="Liberation Sans" font-size="10" lengthAdjust="spacing" textLength="113.9258" x="13" y="375.3184">created_at : TIMESTAMP</text></g><!--class simulation_runs--><g id="elem_simulation_runs"><rect codeLine="48" fill="#F1F1F1" height="194.9375" id="simulation_runs" rx="2.5" ry="2.5" style="stroke:#181818;stroke-width:0.5;" width="172.0586" x="77.5" y="442"/><ellipse cx="124.7622" cy="456" fill="#ADD1B2" rx="9" ry="9" style="stroke:#181818;stroke-width:1;"/><path d="M124.231,456.5313 L124.231,458 L126.7935,458 L126.7935,457.4531 Q126.7935,457.0938 126.9341,456.9375 Q127.0747,456.7813 127.2935,456.7813 Q127.5122,456.7813 127.6528,456.9375 Q127.7935,457.0938 127.7935,457.4531 L127.7935,459 L123.0747,459 Q122.7153,459 122.5591,458.8594 Q122.4028,458.7188 122.4028,458.5 Q122.4028,458.2813 122.5591,458.1406 Q122.7153,458 123.0747,458 L123.231,458 L123.231,454.0781 L123.0747,454.0781 Q122.7153,454.0781 122.5591,453.9375 Q122.4028,453.7969 122.4028,453.5781 Q122.4028,453.3594 122.5591,453.2188 Q122.7153,453.0781 123.0747,453.0781 L127.5747,453.0781 L127.5747,454.6094 Q127.5747,454.9688 127.4341,455.125 Q127.2935,455.2656 127.0747,455.2656 Q126.8403,455.2656 126.6997,455.125 Q126.5747,454.9688 126.5747,454.6094 L126.5747,454.0781 L124.231,454.0781 L124.231,455.5313 L125.1216,455.5313 Q125.1216,455.1406 125.1841,455.0313 Q125.3403,454.7813 125.6216,454.7813 Q125.8403,454.7813 125.981,454.9375 Q126.1216,455.0938 126.1216,455.4531 L126.1216,456.6094 Q126.1216,456.9375 126.0435,457.0469 Q125.8872,457.2813 125.6216,457.2813 Q125.3403,457.2813 125.1841,457.0313 Q125.1216,456.9219 125.1216,456.5313 L124.231,456.5313 Z " fill="#000000"/><text fill="#000000" font-family="Liberation Sans" font-size="10" lengthAdjust="spacing" textLength="70.0342" x="142.2622" y="460.0918">simulation_runs</text><line style="stroke:#181818;stroke-width:0.5;" x1="78.5" x2="248.5586" y1="470" y2="470"/><ellipse cx="88.5" cy="481.7891" fill="#000000" rx="3" ry="3" style="stroke:#000000;stroke-width:1;"/><text fill="#000000" font-family="Liberation Sans" font-size="10" lengthAdjust="spacing" textLength="78.9307" x="95.5" y="484.3809">id : SERIAL &#171;PK&#187;</text><line style="stroke:#181818;stroke-width:1;" x1="78.5" x2="248.5586" y1="490.5781" y2="490.5781"/><text fill="#000000" font-family="Liberation Sans" font-size="10" lengthAdjust="spacing" textLength="152.29" x="83.5" y="504.959">user_id : INTEGER &#171;FK, nullable&#187;</text><text fill="#000000" font-family="Liberation Sans" font-size="10" lengthAdjust="spacing" textLength="160.0586" x="83.5" y="517.5371">matrix_id : INTEGER &#171;FK, nullable&#187;</text><text fill="#000000" font-family="Liberation Sans" font-size="10" lengthAdjust="spacing" textLength="105.5908" x="83.5" y="530.1152">name : VARCHAR(255)</text><text fill="#000000" font-family="Liberation Sans" font-size="10" lengthAdjust="spacing" textLength="87.2412" x="83.5" y="542.6934">matrix_ids : JSONB</text><text fill="#000000" font-family="Liberation Sans" font-size="10" lengthAdjust="spacing" textLength="101.1475" x="83.5" y="555.2715">stochastic : BOOLEAN</text><text fill="#000000" font-family="Liberation Sans" font-size="10" lengthAdjust="spacing" textLength="113.9355" x="83.5" y="567.8496">random_seed : INTEGER</text><text fill="#000000" font-family="Liberation Sans" font-size="10" lengthAdjust="spacing" textLength="97.2559" x="83.5" y="580.4277">initial_vector : JSONB</text><text fill="#000000" font-family="Liberation Sans" font-size="10" lengthAdjust="spacing" textLength="87.8076" x="83.5" y="593.0059">n_steps : INTEGER</text><text fill="#000000" font-family="Liberation Sans" font-size="10" lengthAdjust="spacing" textLength="101.1426" x="83.5" y="605.584">result_history : JSONB</text><text fill="#000000" font-family="Liberation Sans" font-size="10" lengthAdjust="spacing" textLength="101.7139" x="83.5" y="618.1621">stage_names : JSONB</text><text fill="#000000" font-family="Liberation Sans" font-size="10" lengthAdjust="spacing" textLength="113.9258" x="83.5" y="630.7402">created_at : TIMESTAMP</text></g><!--link users to population_matrices--><g id="link_users_population_matrices"><path codeLine="64" d="M125.75,122.26 C125.75,140.38 125.75,135.26 125.75,155.91 " fill="none" id="users-population_matrices" style="stroke:#003087;stroke-width:1;"/><line style="stroke:#003087;stroke-width:1;" x1="121.75" x2="129.75" y1="118.26" y2="118.26"/><line style="stroke:#003087;stroke-width:1;" x1="121.75" x2="129.75" y1="121.26" y2="121.26"/><line style="stroke:#003087;stroke-width:1;" x1="125.75" x2="125.75" y1="122.26" y2="114.26"/><line style="stroke:#003087;stroke-width:1;" x1="125.75" x2="131.75" y1="165.91" y2="173.91"/><line style="stroke:#003087;stroke-width:1;" x1="125.75" x2="119.75" y1="165.91" y2="173.91"/><line style="stroke:#003087;stroke-width:1;" x1="125.75" x2="125.75" y1="165.91" y2="173.91"/><ellipse cx="125.75" cy="159.91" fill="none" rx="4" ry="4" style="stroke:#003087;stroke-width:1;"/><text fill="#444444" font-family="Liberation Sans" font-size="9" lengthAdjust="spacing" textLength="66.0278" x="58.75" y="141.4328">owns (owner_id)</text></g><!--link users to simulation_runs--><g id="link_users_simulation_runs"><path codeLine="65" d="M214.75,122.05 C214.75,201.27 214.75,324.97 214.75,423.99 " fill="none" id="users-simulation_runs" style="stroke:#003087;stroke-width:1;"/><line style="stroke:#003087;stroke-width:1;" x1="210.75" x2="218.75" y1="118.05" y2="118.05"/><line style="stroke:#003087;stroke-width:1;" x1="210.75" x2="218.75" y1="121.05" y2="121.05"/><line style="stroke:#003087;stroke-width:1;" x1="214.75" x2="214.75" y1="122.05" y2="114.05"/><line style="stroke:#003087;stroke-width:1;" x1="214.75" x2="220.75" y1="433.99" y2="441.99"/><line style="stroke:#003087;stroke-width:1;" x1="214.75" x2="208.75" y1="433.99" y2="441.99"/><line style="stroke:#003087;stroke-width:1;" x1="214.75" x2="214.75" y1="433.99" y2="441.99"/><ellipse cx="214.75" cy="427.99" fill="none" rx="4" ry="4" style="stroke:#003087;stroke-width:1;"/><text fill="#444444" font-family="Liberation Sans" font-size="9" lengthAdjust="spacing" textLength="59.0229" x="215.75" y="275.3628">owns (user_id)</text></g><!--link population_matrices to simulation_runs--><g id="link_population_matrices_simulation_runs"><path codeLine="66" d="M128.75,390.1 C128.75,409.76 128.75,404.25 128.75,423.71 " fill="none" id="population_matrices-simulation_runs" style="stroke:#003087;stroke-width:1;"/><line style="stroke:#003087;stroke-width:1;" x1="124.75" x2="132.75" y1="386.1" y2="386.1"/><line style="stroke:#003087;stroke-width:1;" x1="124.75" x2="132.75" y1="389.1" y2="389.1"/><line style="stroke:#003087;stroke-width:1;" x1="128.75" x2="128.75" y1="390.1" y2="382.1"/><line style="stroke:#003087;stroke-width:1;" x1="128.75" x2="134.75" y1="433.71" y2="441.71"/><line style="stroke:#003087;stroke-width:1;" x1="128.75" x2="122.75" y1="433.71" y2="441.71"/><line style="stroke:#003087;stroke-width:1;" x1="128.75" x2="128.75" y1="433.71" y2="441.71"/><ellipse cx="128.75" cy="427.71" fill="none" rx="4" ry="4" style="stroke:#003087;stroke-width:1;"/><text fill="#444444" font-family="Liberation Sans" font-size="9" lengthAdjust="spacing" textLength="74.0259" x="53.75" y="409.2428">used in (matrix_id)</text></g><!--SRC=[ZLHDRzf04BtpArRaGgeYaQysHL4a4vc6Xa0Af5Thi0UyodhNsbsNqgJ_lUCD7ni7H7pmuRqtis_UZcsUkCn1GyOId44XR5T9Eu0CMPzFKOFbIh8nI5CpkvHZ_XVPISiZJGg9Md0vPpCG1Zrc2l7JNAj29ZTAACqMARS-BxX4kyoHAMrJLVCOb9RR9NkkCTPHEa7zsk2erJfhNNujqKhhep3iddK3OagJLVKj0lLuLxFXtM1sAP1DbKXg_tmheBLQE2UxgbROkNlMdSg8lfLTLcFK2uFQr5sJJumdhCt6uQWNzDdLrSFTzJN1pIQzIfaiRwBDVWMZczjWrFXoVaoYnq7lvsFeX9W15vxWzEAYeaZ1f9X4EHYpeEosMk9YZM2914lmf7SVZYV1_ODlDLTv8TmIH1bOpMFyW76raAWZn_S6a_1xE291z-upauKGC1Nef4OLEiR8tRXlokGOSpGHn37cvAuoNMbRPHaPgcIp8kccvedAFEBazFArgf1MBwDO9NwPuzniVo8W_CTuEEXieU8zDFCWOs6EpednXMWX0UktEnoruTawQbt83-x7mPHNdW_9TcUvAJPlHbOnBPNbCO6TuR0V1WE2DKYAFJA8tb64Syaj1n7znjZIjx7j8oDZCJTln1eD_LYYbDCXUdamv_sXka-CRP-NbsPJFRCTwqoLTLfOmnhhjJskxoklN96ZDkMhww3gNQViwT1sVuE4KcADJThKuZy0]--></g></svg>