<svg xmlns="http://www.w3.org/2000/svg" xmlns:xlink="http://www.w3.org/1999/xlink" contentStyleType="text/css" height="822px" preserveAspectRatio="none" style="width:901px;height:822px;background:#FFFFFF;" version="1.1" viewBox="0 0 901 822" width="901px" zoomAndPan="magnify"><defs/><g><rect fill="none" height="403.4375" style="stroke:#000000;stroke-width:1.5;" width="635.0938" x="10" y="324.5234"/><line style="stroke:#181818;stroke-width:0.5;stroke-dasharray:5.0,5.0;" x1="34" x2="34" y1="77.5781" y2="744.9609"/><line style="stroke:#181818;stroke-width:0.5;stroke-dasharray:5.0,5.0;" x1="228.52" x2="228.52" y1="77.5781" y2="744.9609"/><line style="stroke:#181818;stroke-width:0.5;stroke-dasharray:5.0,5.0;" x1="400.6968" x2="400.6968" y1="77.5781" y2="744.9609"/><line style="stroke:#181818;stroke-width:0.5;stroke-dasharray:5.0,5.0;" x1="537.6152" x2="537.6152" y1="77.5781" y2="744.9609"/><line style="stroke:#181818;stroke-width:0.5;stroke-dasharray:5.0,5.0;" x1="652.3364" x2="652.3364" y1="77.5781" y2="744.9609"/><line style="stroke:#181818;stroke-width:0.5;stroke-dasharray:5.0,5.0;" x1="866.5674" x2="866.5674" y1="77.5781" y2="744.9609"/><text fill="#8B4513" font-family="Liberation Sans" font-size="10" font-weight="bold" lengthAdjust="spacing" textLength="22.2363" x="20" y="75.3809">User</text><ellipse cx="34.1182" cy="13.5" fill="#F5E6D3" rx="8" ry="8" style="stroke:#8B4513;stroke-width:0.5;"/><path d="M34.1182,21.5 L34.1182,48.5 M21.1182,29.5 L47.1182,29.5 M34.1182,48.5 L21.1182,63.5 M34.1182,48.5 L47.1182,63.5 " fill="none" style="stroke:#8B4513;stroke-width:0.5;"/><text fill="#8B4513" font-family="Liberation Sans" font-size="10" font-weight="bold" lengthAdjust="spacing" textLength="22.2363" x="20" y="754.3418">User</text><ellipse cx="34.1182" cy="765.0391" fill="#F5E6D3" rx="8" ry="8" style="stroke:#8B4513;stroke-width:0.5;"/><path d="M34.1182,773.0391 L34.1182,800.0391 M21.1182,781.0391 L47.1182,781.0391 M34.1182,800.0391 L21.1182,815.0391 M34.1182,800.0391 L47.1182,815.0391 " fill="none" style="stroke:#8B4513;stroke-width:0.5;"/><rect fill="#D6E8F7" height="26.5781" rx="2.5" ry="2.5" style="stroke:#0056A0;stroke-width:0.5;" width="57.3252" x="200.52" y="50"/><text fill="#003087" font-family="Liberation Sans" font-size="10" font-weight="bold" lengthAdjust="spacing" textLength="43.3252" x="207.52" y="67.3809">Frontend</text><rect fill="#D6E8F7" height="26.5781" rx="2.5" ry="2.5" style="stroke:#0056A0;stroke-width:0.5;" width="57.3252" x="200.52" y="743.9609"/><text fill="#003087" font-family="Liberation Sans" font-size="10" font-weight="bold" lengthAdjust="spacing" textLength="43.3252" x="207.52" y="761.3418">Frontend</text><rect fill="#D6E8F7" height="26.5781" rx="2.5" ry="2.5" style="stroke:#0056A0;stroke-width:0.5;" width="61.7783" x="370.6968" y="50"/><text fill="#003087" font-family="Liberation Sans" font-size="10" font-weight="bold" lengthAdjust="spacing" textLength="47.7783" x="377.6968" y="67.3809">Controller</text><rect fill="#D6E8F7" height="26.5781" rx="2.5" ry="2.5" style="stroke:#0056A0;stroke-width:0.5;" width="61.7783" x="370.6968" y="743.9609"/><text fill="#003087" font-family="Liberation Sans" font-size="10" font-weight="bold" lengthAdjust="spacing" textLength="47.7783" x="377.6968" y="761.3418">Controller</text><rect fill="#D6E8F7" height="26.5781" rx="2.5" ry="2.5" style="stroke:#0056A0;stroke-width:0.5;" width="49.5859" x="513.6152" y="50"/><text fill="#003087" font-family="Liberation Sans" font-size="10" font-weight="bold" lengthAdjust="spacing" textLength="35.5859" x="520.6152" y="67.3809">Service</text><rect fill="#D6E8F7" height="26.5781" rx="2.5" ry="2.5" style="stroke:#0056A0;stroke-width:0.5;" width="49.5859" x="513.6152" y="743.9609"/><text fill="#003087" font-family="Liberation Sans" font-size="10" font-weight="bold" lengthAdjust="spacing" textLength="35.5859" x="520.6152" y="761.3418">Service</text><rect fill="#D6E8F7" height="26.5781" rx="2.5" ry="2.5" style="stroke:#0056A0;stroke-width:0.5;" width="66.2314" x="619.3364" y="50"/><text fill="#003087" font-family="Liberation Sans" font-size="10" font-weight="bold" lengthAdjust="spacing" textLength="52.2314" x="626.3364" y="67.3809">Repository</text><rect fill="#D6E8F7" height="26.5781" rx="2.5" ry="2.5" style="stroke:#0056A0;stroke-width:0.5;" width="66.2314" x="619.3364" y="743.9609"/><text fill="#003087" font-family="Liberation Sans" font-size="10" font-weight="bold" lengthAdjust="spacing" textLength="52.2314" x="626.3364" y="761.3418">Repository</text><text fill="#3A5A1A" font-family="Liberation Sans" font-size="10" lengthAdjust="spacing" textLength="54.4727" x="836.5674" y="75.3809">PostgreSQL</text><path d="M848.8037,29 C848.8037,19 866.8037,19 866.8037,19 C866.8037,19 884.8037,19 884.8037,29 L884.8037,55 C884.8037,65 866.8037,65 866.8037,65 C866.8037,65 848.8037,65 848.8037,55 L848.8037,29 " fill="#E6F0D8" style="stroke:#5A7A3A;stroke-width:1.5;"/><path d="M848.8037,29 C848.8037,39 866.8037,39 866.8037,39 C866.8037,39 884.8037,39 884.8037,29 " fill="none" style="stroke:#5A7A3A;stroke-width:1.5;"/><text fill="#3A5A1A" font-family="Liberation Sans" font-size="10" lengthAdjust="spacing" textLength="54.4727" x="836.5674" y="754.3418">PostgreSQL</text><path d="M848.8037,766.5391 C848.8037,756.5391 866.8037,756.5391 866.8037,756.5391 C866.8037,756.5391 884.8037,756.5391 884.8037,766.5391 L884.8037,792.5391 C884.8037,802.5391 866.8037,802.5391 866.8037,802.5391 C866.8037,802.5391 848.8037,802.5391 848.8037,792.5391 L848.8037,766.5391 " fill="#E6F0D8" style="stroke:#5A7A3A;stroke-width:1.5;"/><path d="M848.8037,766.5391 C848.8037,776.5391 866.8037,776.5391 866.8037,776.5391 C866.8037,776.5391 884.8037,776.5391 884.8037,766.5391 " fill="none" style="stroke:#5A7A3A;stroke-width:1.5;"/><polygon fill="#181818" points="217.1826,102.1563,227.1826,106.1563,217.1826,110.1563,221.1826,106.1563" style="stroke:#181818;stroke-width:1;"/><line style="stroke:#181818;stroke-width:1;" x1="34.1182" x2="223.1826" y1="106.1563" y2="106.1563"/><text fill="#000000" font-family="Liberation Sans" font-size="10" lengthAdjust="spacing" textLength="171.0645" x="41.1182" y="101.959">1. Click "Export" on a saved simulation</text><polygon fill="#181818" points="389.5859,141.3125,399.5859,145.3125,389.5859,149.3125,393.5859,145.3125" style="stroke:#181818;stroke-width:1;"/><line style="stroke:#181818;stroke-width:1;" x1="229.1826" x2="395.5859" y1="145.3125" y2="145.3125"/><text fill="#000000" font-family="Liberation Sans" font-size="10" lengthAdjust="spacing" textLength="148.4033" x="236.1826" y="128.5371">2. GET /v1/simulations/{id}/export</text><text fill="#000000" font-family="Liberation Sans" font-size="10" lengthAdjust="spacing" textLength="132.8613" x="244.5176" y="141.1152">Authorization: Bearer &lt;token&gt;</text><path d="M322,158.3125 L322,179.3125 L480,179.3125 L480,168.3125 L470,158.3125 L322,158.3125 " fill="#FFFDE7" style="stroke:#AAAAAA;stroke-width:0.5;"/><path d="M470,158.3125 L470,168.3125 L480,168.3125 L470,158.3125 " fill="#FFFDE7" style="stroke:#AAAAAA;stroke-width:0.5;"/><text fill="#000000" font-family="Liberation Sans" font-size="9" lengthAdjust="spacing" textLength="137.3203" x="328" y="172.6553">3. Validate JWT &#8594; resolve user_id</text><polygon fill="#181818" points="526.4082,199.2109,536.4082,203.2109,526.4082,207.2109,530.4082,203.2109" style="stroke:#181818;stroke-width:1;"/><line style="stroke:#181818;stroke-width:1;" x1="401.5859" x2="532.4082" y1="203.2109" y2="203.2109"/><text fill="#000000" font-family="Liberation Sans" font-size="10" lengthAdjust="spacing" textLength="112.8223" x="408.5859" y="199.0137">4. export(sim_id, user_id)</text><polygon fill="#181818" points="640.4521,225.7891,650.4521,229.7891,640.4521,233.7891,644.4521,229.7891" style="stroke:#181818;stroke-width:1;"/><line style="stroke:#181818;stroke-width:1;" x1="538.4082" x2="646.4521" y1="229.7891" y2="229.7891"/><text fill="#000000" font-family="Liberation Sans" font-size="10" lengthAdjust="spacing" textLength="90.0439" x="545.4082" y="225.5918">5. get_by_id(sim_id)</text><polygon fill="#181818" points="854.8037,252.3672,864.8037,256.3672,854.8037,260.3672,858.8037,256.3672" style="stroke:#181818;stroke-width:1;"/><line style="stroke:#181818;stroke-width:1;" x1="652.4521" x2="860.8037" y1="256.3672" y2="256.3672"/><text fill="#000000" font-family="Liberation Sans" font-size="10" lengthAdjust="spacing" textLength="190.3516" x="659.4521" y="252.1699">6. SELECT simulation_runs WHERE id = ?</text><polygon fill="#181818" points="663.4521,278.9453,653.4521,282.9453,663.4521,286.9453,659.4521,282.9453" style="stroke:#181818;stroke-width:1;"/><line style="stroke:#181818;stroke-width:1;stroke-dasharray:2.0,2.0;" x1="657.4521" x2="865.8037" y1="282.9453" y2="282.9453"/><text fill="#000000" font-family="Liberation Sans" font-size="10" lengthAdjust="spacing" textLength="95.0439" x="669.4521" y="278.748">7. SimulationRun row</text><polygon fill="#181818" points="549.4082,305.5234,539.4082,309.5234,549.4082,313.5234,545.4082,309.5234" style="stroke:#181818;stroke-width:1;"/><line style="stroke:#181818;stroke-width:1;stroke-dasharray:2.0,2.0;" x1="543.4082" x2="651.4521" y1="309.5234" y2="309.5234"/><text fill="#000000" font-family="Liberation Sans" font-size="10" lengthAdjust="spacing" textLength="63.9111" x="555.4082" y="305.3262">8. ORM object</text><path d="M10,324.5234 L66.6699,324.5234 L66.6699,329.1016 L56.6699,339.1016 L10,339.1016 L10,324.5234 " fill="#EEEEEE" style="stroke:#000000;stroke-width:1.5;"/><rect fill="none" height="403.4375" style="stroke:#000000;stroke-width:1.5;" width="635.0938" x="10" y="324.5234"/><text fill="#000000" font-family="Liberation Sans" font-size="10" font-weight="bold" lengthAdjust="spacing" textLength="11.6699" x="25" y="335.9043">alt</text><text fill="#000000" font-family="Liberation Sans" font-size="10" font-weight="bold" lengthAdjust="spacing" textLength="105.5322" x="81.6699" y="336.9043">[simulation not found]</text><polygon fill="#181818" points="412.5859,353.6797,402.5859,357.6797,412.5859,361.6797,408.5859,357.6797" style="stroke:#181818;stroke-width:1;"/><line style="stroke:#181818;stroke-width:1;stroke-dasharray:2.0,2.0;" x1="406.5859" x2="537.4082" y1="357.6797" y2="357.6797"/><text fill="#000000" font-family="Liberation Sans" font-size="10" lengthAdjust="spacing" textLength="70.0244" x="418.5859" y="353.4824">raise HTTP 404</text><polygon fill="#181818" points="240.1826,380.2578,230.1826,384.2578,240.1826,388.2578,236.1826,384.2578" style="stroke:#181818;stroke-width:1;"/><line style="stroke:#181818;stroke-width:1;stroke-dasharray:2.0,2.0;" x1="234.1826" x2="400.5859" y1="384.2578" y2="384.2578"/><text fill="#000000" font-family="Liberation Sans" font-size="10" lengthAdjust="spacing" textLength="66.1572" x="246.1826" y="380.0605">404 Not Found</text><polygon fill="#181818" points="45.1182,406.8359,35.1182,410.8359,45.1182,414.8359,41.1182,410.8359" style="stroke:#181818;stroke-width:1;"/><line style="stroke:#181818;stroke-width:1;stroke-dasharray:2.0,2.0;" x1="39.1182" x2="228.1826" y1="410.8359" y2="410.8359"/><text fill="#000000" font-family="Liberation Sans" font-size="10" lengthAdjust="spacing" textLength="48.9063" x="51.1182" y="406.6387">Show error</text><line style="stroke:#000000;stroke-width:1;stroke-dasharray:2.0,2.0;" x1="10" x2="645.0938" y1="419.8359" y2="419.8359"/><text fill="#000000" font-family="Liberation Sans" font-size="10" font-weight="bold" lengthAdjust="spacing" textLength="54.4336" x="15" y="430.2168">[not owner]</text><path d="M440,438.4141 L440,459.4141 L635,459.4141 L635,448.4141 L625,438.4141 L440,438.4141 " fill="#FFFDE7" style="stroke:#AAAAAA;stroke-width:0.5;"/><path d="M625,438.4141 L625,448.4141 L635,448.4141 L625,438.4141 " fill="#FFFDE7" style="stroke:#AAAAAA;stroke-width:0.5;"/><text fill="#000000" font-family="Liberation Sans" font-size="9" lengthAdjust="spacing" textLength="174.0938" x="446" y="452.7568">9. Ownership check: run.user_id == user_id</text><polygon fill="#181818" points="412.5859,479.3125,402.5859,483.3125,412.5859,487.3125,408.5859,483.3125" style="stroke:#181818;stroke-width:1;"/><line style="stroke:#181818;stroke-width:1;stroke-dasharray:2.0,2.0;" x1="406.5859" x2="537.4082" y1="483.3125" y2="483.3125"/><text fill="#000000" font-family="Liberation Sans" font-size="10" lengthAdjust="spacing" textLength="70.0244" x="418.5859" y="479.1152">raise HTTP 403</text><polygon fill="#181818" points="240.1826,505.8906,230.1826,509.8906,240.1826,513.8906,236.1826,509.8906" style="stroke:#181818;stroke-width:1;"/><line style="stroke:#181818;stroke-width:1;stroke-dasharray:2.0,2.0;" x1="234.1826" x2="400.5859" y1="509.8906" y2="509.8906"/><text fill="#000000" font-family="Liberation Sans" font-size="10" lengthAdjust="spacing" textLength="64.4922" x="246.1826" y="505.6934">403 Forbidden</text><polygon fill="#181818" points="45.1182,532.4688,35.1182,536.4688,45.1182,540.4688,41.1182,536.4688" style="stroke:#181818;stroke-width:1;"/><line style="stroke:#181818;stroke-width:1;stroke-dasharray:2.0,2.0;" x1="39.1182" x2="228.1826" y1="536.4688" y2="536.4688"/><text fill="#000000" font-family="Liberation Sans" font-size="10" lengthAdjust="spacing" textLength="48.9063" x="51.1182" y="532.2715">Show error</text><line style="stroke:#000000;stroke-width:1;stroke-dasharray:2.0,2.0;" x1="10" x2="645.0938" y1="545.4688" y2="545.4688"/><text fill="#000000" font-family="Liberation Sans" font-size="10" font-weight="bold" lengthAdjust="spacing" textLength="57.7783" x="15" y="555.8496">[authorised]</text><path d="M445,564.0469 L445,630.0469 L631,630.0469 L631,574.0469 L621,564.0469 L445,564.0469 " fill="#FFFDE7" style="stroke:#AAAAAA;stroke-width:0.5;"/><path d="M621,564.0469 L621,574.0469 L631,574.0469 L621,564.0469 " fill="#FFFDE7" style="stroke:#AAAAAA;stroke-width:0.5;"/><text fill="#000000" font-family="Liberation Sans" font-size="9" lengthAdjust="spacing" textLength="99.0659" x="451" y="578.3896">10. Build export payload:</text><text fill="#000000" font-family="Liberation Sans" font-size="9" lengthAdjust="spacing" textLength="137.562" x="461.002" y="589.71">{format_version, name, stochastic,</text><text fill="#000000" font-family="Liberation Sans" font-size="9" lengthAdjust="spacing" textLength="140.0449" x="463.5024" y="601.0303">matrix_id, matrix_ids, initial_vector,</text><text fill="#000000" font-family="Liberation Sans" font-size="9" lengthAdjust="spacing" textLength="153.0967" x="463.5024" y="612.3506">n_steps, random_seed, stage_names,</text><text fill="#000000" font-family="Liberation Sans" font-size="9" lengthAdjust="spacing" textLength="109.0635" x="463.5024" y="623.6709">result_history, exported_at}</text><polygon fill="#181818" points="412.5859,650.2266,402.5859,654.2266,412.5859,658.2266,408.5859,654.2266" style="stroke:#181818;stroke-width:1;"/><line style="stroke:#181818;stroke-width:1;stroke-dasharray:2.0,2.0;" x1="406.5859" x2="537.4082" y1="654.2266" y2="654.2266"/><text fill="#000000" font-family="Liberation Sans" font-size="10" lengthAdjust="spacing" textLength="62.8125" x="418.5859" y="650.0293">11. export dict</text><polygon fill="#181818" points="240.1826,676.8047,230.1826,680.8047,240.1826,684.8047,236.1826,680.8047" style="stroke:#181818;stroke-width:1;"/><line style="stroke:#181818;stroke-width:1;stroke-dasharray:2.0,2.0;" x1="234.1826" x2="400.5859" y1="680.8047" y2="680.8047"/><text fill="#000000" font-family="Liberation Sans" font-size="10" lengthAdjust="spacing" textLength="100.6201" x="246.1826" y="676.6074">12. 200 JSON payload</text><polygon fill="#181818" points="45.1182,715.9609,35.1182,719.9609,45.1182,723.9609,41.1182,719.9609" style="stroke:#181818;stroke-width:1;"/><line style="stroke:#181818;stroke-width:1;stroke-dasharray:2.0,2.0;" x1="39.1182" x2="228.1826" y1="719.9609" y2="719.9609"/><text fill="#000000" font-family="Liberation Sans" font-size="10" lengthAdjust="spacing" textLength="147.8516" x="51.1182" y="703.1855">13. Trigger browser file download</text><text fill="#000000" font-family="Liberation Sans" font-size="10" lengthAdjust="spacing" textLength="102.29" x="62.2314" y="715.7637">Saved as &lt;name&gt;.json</text><!--SRC=[ZLNDRXit4BxpAGRAfG6KzMvaoOeGk_3Fga7WEAcbDfS22-vo935QaIh9bU8OllO1-eXzaWwfzNfLAq7t88YSRsQ- -QLTIhNcXgz0u8nNfHjhvMxu2k5QvcYuarh1X2lBx27aH7v3IEAMq2wuq5kfvZ3ZfSMM9EV5ScvqfSIbBhM1xKAwjjpYdnMg0Z-WjNoEvwMSAoXnvbWBHBzE5dBDbODx1d2XZK2pC_WYZlk3yzZV_iVLYwj1EXoVaCIJRj2zUFXuDt5t9KAkIy4UMkvuuGZwpD7muhYVz0uv6lVJmLLltr63_e4ZmHtFkSNdllhyXFVu8L_fO1nV3VTzzNYV9tpFjDBkW5aUleCXZCTNQPCNN-0tP8_jKh7xEhzPD9twm2rKT6JjqdJ6XfHHYSuECAkF-w1BkZIwBBqj0XNEbFk02PgDBB1Jkx6RObz-Ysjj9V6w2mOC7LcJIS_paxPkRd3owtK0Y9mnppNmVdK63IyOGHB1PIcB9NJIhsjjN0UeypbOla41LgwgCWm3OusED-0v1siZU1t1B-aKZZR9qHFS7jrByN24mUGVYe3dbLje8xy5yGWka1iYzDRf9QepnaArz8QkGZe0UX7ypaj9OI6y_po5V_xwcmArkjnWo7ic1VDil29ZWOydHhdof8uZsFd-YJWHjFkeyv85X8Vwj16q7y4SNPRVaRH6lsH1va4Y3q4E8fYar-dbj9MIp5JAmkTtwMqAKi0f_Cm2-XNfrRPFIAt1trOAZDxMjWbKSnr6yF7s0-Zy2nOqzBnqBIS-FfZvDcMxuBnYY7O4Xakgzxlfz1CSnyUihee7jEfB4hWX6-FQnbCP2HUQOWIJXTu26gCDGrfUmQVUAcfkWAV2-3Rq9Nz3VBtGBkGQYWKMIw9IgQZEC9oUDWK2Q4hqO_QzxxBl4NEJIo5G_K_sVDTf5iL1-aaSmKKbIr5t2EtMkr9pCMBrOCFzJ9iLTnbfMIf15nGz35smJXSBRcaCkmqK26Varz1XpL_R1Qcaaxma4tvzjF0gimxNX31S2RtABABmfcdpPzwDRM6ftUczoHRI-b7lrdnHPDmzF4_jKsvtSvaaZpC0Gb9Z7KvmGkFxEexX_UJZpMCclfFdX4PoQkHyJgUS6jdVpYHjTNhubDSBSqwlfjySj7NU-dZEeY-MjeVVWVy2]--></g></svg>