<svg xmlns="http://www.w3.org/2000/svg" xmlns:xlink="http://www.w3.org/1999/xlink" contentStyleType="text/css" height="885px" preserveAspectRatio="none" style="width:955px;height:885px;background:#FFFFFF;" version="1.1" viewBox="0 0 955 885" width="955px" zoomAndPan="magnify"><defs/><g><rect fill="none" height="424.3672" style="stroke:#000000;stroke-width:1.5;" width="938.5928" x="10" y="366.9297"/><line style="stroke:#181818;stroke-width:0.5;stroke-dasharray:5.0,5.0;" x1="34" x2="34" y1="77.5781" y2="808.2969"/><line style="stroke:#181818;stroke-width:0.5;stroke-dasharray:5.0,5.0;" x1="188.6323" x2="188.6323" y1="77.5781" y2="808.2969"/><line style="stroke:#181818;stroke-width:0.5;stroke-dasharray:5.0,5.0;" x1="395.2866" x2="395.2866" y1="77.5781" y2="808.2969"/><line style="stroke:#181818;stroke-width:0.5;stroke-dasharray:5.0,5.0;" x1="573.3428" x2="573.3428" y1="77.5781" y2="808.2969"/><line style="stroke:#181818;stroke-width:0.5;stroke-dasharray:5.0,5.0;" x1="736.9751" x2="736.9751" y1="77.5781" y2="808.2969"/><line style="stroke:#181818;stroke-width:0.5;stroke-dasharray:5.0,5.0;" x1="908.1201" x2="908.1201" y1="77.5781" y2="808.2969"/><text fill="#8B4513" font-family="Liberation Sans" font-size="10" font-weight="bold" lengthAdjust="spacing" textLength="22.2363" x="20" y="75.3809">User</text><ellipse cx="34.1182" cy="13.5" fill="#F5E6D3" rx="8" ry="8" style="stroke:#8B4513;stroke-width:0.5;"/><path d="M34.1182,21.5 L34.1182,48.5 M21.1182,29.5 L47.1182,29.5 M34.1182,48.5 L21.1182,63.5 M34.1182,48.5 L47.1182,63.5 " fill="none" style="stroke:#8B4513;stroke-width:0.5;"/><text fill="#8B4513" font-family="Liberation Sans" font-size="10" font-weight="bold" lengthAdjust="spacing" textLength="22.2363" x="20" y="817.6777">User</text><ellipse cx="34.1182" cy="828.375" fill="#F5E6D3" rx="8" ry="8" style="stroke:#8B4513;stroke-width:0.5;"/><path d="M34.1182,836.375 L34.1182,863.375 M21.1182,844.375 L47.1182,844.375 M34.1182,863.375 L21.1182,878.375 M34.1182,863.375 L47.1182,878.375 " fill="none" style="stroke:#8B4513;stroke-width:0.5;"/><rect fill="#D6E8F7" height="26.5781" rx="2.5" ry="2.5" style="stroke:#0056A0;stroke-width:0.5;" width="57.3252" x="160.6323" y="50"/><text fill="#003087" font-family="Liberation Sans" font-size="10" font-weight="bold" lengthAdjust="spacing" textLength="43.3252" x="167.6323" y="67.3809">Frontend</text><rect fill="#D6E8F7" height="26.5781" rx="2.5" ry="2.5" style="stroke:#0056A0;stroke-width:0.5;" width="57.3252" x="160.6323" y="807.2969"/><text fill="#003087" font-family="Liberation Sans" font-size="10" font-weight="bold" lengthAdjust="spacing" textLength="43.3252" x="167.6323" y="824.6777">Frontend</text><rect fill="#D6E8F7" height="26.5781" rx="2.5" ry="2.5" style="stroke:#0056A0;stroke-width:0.5;" width="61.7783" x="365.2866" y="50"/><text fill="#003087" font-family="Liberation Sans" font-size="10" font-weight="bold" lengthAdjust="spacing" textLength="47.7783" x="372.2866" y="67.3809">Controller</text><rect fill="#D6E8F7" height="26.5781" rx="2.5" ry="2.5" style="stroke:#0056A0;stroke-width:0.5;" width="61.7783" x="365.2866" y="807.2969"/><text fill="#003087" font-family="Liberation Sans" font-size="10" font-weight="bold" lengthAdjust="spacing" textLength="47.7783" x="372.2866" y="824.6777">Controller</text><rect fill="#D6E8F7" height="26.5781" rx="2.5" ry="2.5" style="stroke:#0056A0;stroke-width:0.5;" width="49.5859" x="549.3428" y="50"/><text fill="#003087" font-family="Liberation Sans" font-size="10" font-weight="bold" lengthAdjust="spacing" textLength="35.5859" x="556.3428" y="67.3809">Service</text><rect fill="#D6E8F7" height="26.5781" rx="2.5" ry="2.5" style="stroke:#0056A0;stroke-width:0.5;" width="49.5859" x="549.3428" y="807.2969"/><text fill="#003087" font-family="Liberation Sans" font-size="10" font-weight="bold" lengthAdjust="spacing" textLength="35.5859" x="556.3428" y="824.6777">Service</text><rect fill="#D6E8F7" height="26.5781" rx="2.5" ry="2.5" style="stroke:#0056A0;stroke-width:0.5;" width="66.2314" x="703.9751" y="50"/><text fill="#003087" font-family="Liberation Sans" font-size="10" font-weight="bold" lengthAdjust="spacing" textLength="52.2314" x="710.9751" y="67.3809">Repository</text><rect fill="#D6E8F7" height="26.5781" rx="2.5" ry="2.5" style="stroke:#0056A0;stroke-width:0.5;" width="66.2314" x="703.9751" y="807.2969"/><text fill="#003087" font-family="Liberation Sans" font-size="10" font-weight="bold" lengthAdjust="spacing" textLength="52.2314" x="710.9751" y="824.6777">Repository</text><text fill="#3A5A1A" font-family="Liberation Sans" font-size="10" lengthAdjust="spacing" textLength="54.4727" x="878.1201" y="75.3809">PostgreSQL</text><path d="M890.3564,29 C890.3564,19 908.3564,19 908.3564,19 C908.3564,19 926.3564,19 926.3564,29 L926.3564,55 C926.3564,65 908.3564,65 908.3564,65 C908.3564,65 890.3564,65 890.3564,55 L890.3564,29 " fill="#E6F0D8" style="stroke:#5A7A3A;stroke-width:1.5;"/><path d="M890.3564,29 C890.3564,39 908.3564,39 908.3564,39 C908.3564,39 926.3564,39 926.3564,29 " fill="none" style="stroke:#5A7A3A;stroke-width:1.5;"/><text fill="#3A5A1A" font-family="Liberation Sans" font-size="10" lengthAdjust="spacing" textLength="54.4727" x="878.1201" y="817.6777">PostgreSQL</text><path d="M890.3564,829.875 C890.3564,819.875 908.3564,819.875 908.3564,819.875 C908.3564,819.875 926.3564,819.875 926.3564,829.875 L926.3564,855.875 C926.3564,865.875 908.3564,865.875 908.3564,865.875 C908.3564,865.875 890.3564,865.875 890.3564,855.875 L890.3564,829.875 " fill="#E6F0D8" style="stroke:#5A7A3A;stroke-width:1.5;"/><path d="M890.3564,829.875 C890.3564,839.875 908.3564,839.875 908.3564,839.875 C908.3564,839.875 926.3564,839.875 926.3564,829.875 " fill="none" style="stroke:#5A7A3A;stroke-width:1.5;"/><polygon fill="#181818" points="177.2949,114.7344,187.2949,118.7344,177.2949,122.7344,181.2949,118.7344" style="stroke:#181818;stroke-width:1;"/><line style="stroke:#181818;stroke-width:1;" x1="34.1182" x2="183.2949" y1="118.7344" y2="118.7344"/><text fill="#000000" font-family="Liberation Sans" font-size="10" lengthAdjust="spacing" textLength="118.7988" x="41.1182" y="101.959">1. Click "Import simulation"</text><text fill="#000000" font-family="Liberation Sans" font-size="10" lengthAdjust="spacing" textLength="106.167" x="49.4531" y="114.5371">Select a .json export file</text><line style="stroke:#181818;stroke-width:1;" x1="189.2949" x2="231.2949" y1="145.3125" y2="145.3125"/><line style="stroke:#181818;stroke-width:1;" x1="231.2949" x2="231.2949" y1="145.3125" y2="158.3125"/><line style="stroke:#181818;stroke-width:1;" x1="190.2949" x2="231.2949" y1="158.3125" y2="158.3125"/><polygon fill="#181818" points="200.2949,154.3125,190.2949,158.3125,200.2949,162.3125,196.2949,158.3125" style="stroke:#181818;stroke-width:1;"/><text fill="#000000" font-family="Liberation Sans" font-size="10" lengthAdjust="spacing" textLength="192.8809" x="196.2949" y="141.1152">2. Read and parse file contents (client-side)</text><path d="M127,171.3125 L127,214.3125 L251,214.3125 L251,181.3125 L241,171.3125 L127,171.3125 " fill="#FFFDE7" style="stroke:#AAAAAA;stroke-width:0.5;"/><path d="M241,171.3125 L241,181.3125 L251,181.3125 L241,171.3125 " fill="#FFFDE7" style="stroke:#AAAAAA;stroke-width:0.5;"/><text fill="#000000" font-family="Liberation Sans" font-size="9" lengthAdjust="spacing" textLength="103.5439" x="133" y="185.6553">3. Basic client-side check:</text><text fill="#000000" font-family="Liberation Sans" font-size="9" lengthAdjust="spacing" textLength="68.0186" x="140.5015" y="196.9756">file is valid JSON</text><text fill="#000000" font-family="Liberation Sans" font-size="9" lengthAdjust="spacing" textLength="86.4316" x="140.5015" y="208.2959">format_version == "1"</text><polygon fill="#181818" points="384.1758,260.0078,394.1758,264.0078,384.1758,268.0078,388.1758,264.0078" style="stroke:#181818;stroke-width:1;"/><line style="stroke:#181818;stroke-width:1;" x1="189.2949" x2="390.1758" y1="264.0078" y2="264.0078"/><text fill="#000000" font-family="Liberation Sans" font-size="10" lengthAdjust="spacing" textLength="137.8223" x="196.2949" y="234.6543">4. POST /v1/simulations/import</text><text fill="#000000" font-family="Liberation Sans" font-size="10" lengthAdjust="spacing" textLength="132.8613" x="204.6299" y="247.2324">Authorization: Bearer &lt;token&gt;</text><text fill="#000000" font-family="Liberation Sans" font-size="10" lengthAdjust="spacing" textLength="126.1816" x="204.6299" y="259.8105">Body: parsed JSON payload</text><path d="M308,277.0078 L308,354.0078 L484,354.0078 L484,287.0078 L474,277.0078 L308,277.0078 " fill="#FFFDE7" style="stroke:#AAAAAA;stroke-width:0.5;"/><path d="M474,277.0078 L474,287.0078 L484,287.0078 L474,277.0078 " fill="#FFFDE7" style="stroke:#AAAAAA;stroke-width:0.5;"/><text fill="#000000" font-family="Liberation Sans" font-size="9" lengthAdjust="spacing" textLength="137.3203" x="314" y="291.3506">5. Validate JWT &#8594; resolve user_id</text><text fill="#000000" font-family="Liberation Sans" font-size="9" lengthAdjust="spacing" textLength="147.5728" x="321.5015" y="302.6709">Pydantic SimulationImport validation:</text><text fill="#000000" font-family="Liberation Sans" font-size="9" lengthAdjust="spacing" textLength="104.0405" x="321.5015" y="313.9912">- result_history non-empty</text><text fill="#000000" font-family="Liberation Sans" font-size="9" lengthAdjust="spacing" textLength="106.875" x="321.5015" y="325.3115">- n_steps &#8805; 1 and &#8804; 10000</text><text fill="#000000" font-family="Liberation Sans" font-size="9" lengthAdjust="spacing" textLength="100.5425" x="321.5015" y="336.6318">- initial_vector non-empty</text><text fill="#000000" font-family="Liberation Sans" font-size="9" lengthAdjust="spacing" textLength="97.541" x="321.5015" y="347.9521">- format_version present</text><path d="M10,366.9297 L66.6699,366.9297 L66.6699,371.5078 L56.6699,381.5078 L10,381.5078 L10,366.9297 " fill="#EEEEEE" style="stroke:#000000;stroke-width:1.5;"/><rect fill="none" height="424.3672" style="stroke:#000000;stroke-width:1.5;" width="938.5928" x="10" y="366.9297"/><text fill="#000000" font-family="Liberation Sans" font-size="10" font-weight="bold" lengthAdjust="spacing" textLength="11.6699" x="25" y="378.3105">alt</text><text fill="#000000" font-family="Liberation Sans" font-size="10" font-weight="bold" lengthAdjust="spacing" textLength="76.123" x="81.6699" y="379.3105">[validation fails]</text><polygon fill="#181818" points="200.2949,396.0859,190.2949,400.0859,200.2949,404.0859,196.2949,400.0859" style="stroke:#181818;stroke-width:1;"/><line style="stroke:#181818;stroke-width:1;stroke-dasharray:2.0,2.0;" x1="194.2949" x2="395.1758" y1="400.0859" y2="400.0859"/><text fill="#000000" font-family="Liberation Sans" font-size="10" lengthAdjust="spacing" textLength="113.9551" x="206.2949" y="395.8887">422 Unprocessable Entity</text><polygon fill="#181818" points="45.1182,422.6641,35.1182,426.6641,45.1182,430.6641,41.1182,426.6641" style="stroke:#181818;stroke-width:1;"/><line style="stroke:#181818;stroke-width:1;stroke-dasharray:2.0,2.0;" x1="39.1182" x2="188.2949" y1="426.6641" y2="426.6641"/><text fill="#000000" font-family="Liberation Sans" font-size="10" lengthAdjust="spacing" textLength="98.9355" x="51.1182" y="422.4668">Show validation errors</text><line style="stroke:#000000;stroke-width:1;stroke-dasharray:2.0,2.0;" x1="10" x2="948.5928" y1="435.6641" y2="435.6641"/><text fill="#000000" font-family="Liberation Sans" font-size="10" font-weight="bold" lengthAdjust="spacing" textLength="29.4482" x="15" y="446.0449">[valid]</text><polygon fill="#181818" points="562.1357,463.8203,572.1357,467.8203,562.1357,471.8203,566.1357,467.8203" style="stroke:#181818;stroke-width:1;"/><line style="stroke:#181818;stroke-width:1;" x1="396.1758" x2="568.1357" y1="467.8203" y2="467.8203"/><text fill="#000000" font-family="Liberation Sans" font-size="10" lengthAdjust="spacing" textLength="153.96" x="403.1758" y="463.623">6. import_simulation(data, user_id)</text><path d="M483,480.8203 L483,523.8203 L663,523.8203 L663,490.8203 L653,480.8203 L483,480.8203 " fill="#FFFDE7" style="stroke:#AAAAAA;stroke-width:0.5;"/><path d="M653,480.8203 L653,490.8203 L663,490.8203 L653,480.8203 " fill="#FFFDE7" style="stroke:#AAAAAA;stroke-width:0.5;"/><text fill="#000000" font-family="Liberation Sans" font-size="9" lengthAdjust="spacing" textLength="151.563" x="489" y="495.1631">7. No re-computation &#8212; result_history</text><text fill="#000000" font-family="Liberation Sans" font-size="9" lengthAdjust="spacing" textLength="152.064" x="496.5015" y="506.4834">is taken as-is from the import payload.</text><text fill="#000000" font-family="Liberation Sans" font-size="9" lengthAdjust="spacing" textLength="143.5913" x="496.5015" y="517.8037">Auto-generate name if not provided.</text><polygon fill="#181818" points="725.0908,607.25,735.0908,611.25,725.0908,615.25,729.0908,611.25" style="stroke:#181818;stroke-width:1;"/><line style="stroke:#181818;stroke-width:1;" x1="574.1357" x2="731.0908" y1="611.25" y2="611.25"/><text fill="#000000" font-family="Liberation Sans" font-size="10" lengthAdjust="spacing" textLength="42.2412" x="581.1357" y="544.1621">8. create(</text><text fill="#000000" font-family="Liberation Sans" font-size="10" lengthAdjust="spacing" textLength="116.167" x="592.249" y="556.7402">user_id, name, stochastic,</text><text fill="#000000" font-family="Liberation Sans" font-size="10" lengthAdjust="spacing" textLength="94.4678" x="592.249" y="569.3184">matrix_id, matrix_ids,</text><text fill="#000000" font-family="Liberation Sans" font-size="10" lengthAdjust="spacing" textLength="98.9404" x="592.249" y="581.8965">initial_vector, n_steps,</text><text fill="#000000" font-family="Liberation Sans" font-size="10" lengthAdjust="spacing" textLength="127.8418" x="592.249" y="594.4746">result_history, stage_names,</text><text fill="#000000" font-family="Liberation Sans" font-size="10" lengthAdjust="spacing" textLength="64.4824" x="592.249" y="607.0527">random_seed)</text><polygon fill="#181818" points="896.3564,633.8281,906.3564,637.8281,896.3564,641.8281,900.3564,637.8281" style="stroke:#181818;stroke-width:1;"/><line style="stroke:#181818;stroke-width:1;" x1="737.0908" x2="902.3564" y1="637.8281" y2="637.8281"/><text fill="#000000" font-family="Liberation Sans" font-size="10" lengthAdjust="spacing" textLength="147.2656" x="744.0908" y="633.6309">9. INSERT INTO simulation_runs</text><polygon fill="#181818" points="748.0908,660.4063,738.0908,664.4063,748.0908,668.4063,744.0908,664.4063" style="stroke:#181818;stroke-width:1;"/><line style="stroke:#181818;stroke-width:1;stroke-dasharray:2.0,2.0;" x1="742.0908" x2="907.3564" y1="664.4063" y2="664.4063"/><text fill="#000000" font-family="Liberation Sans" font-size="10" lengthAdjust="spacing" textLength="100.6055" x="754.0908" y="660.209">10. SimulationRun row</text><polygon fill="#181818" points="585.1357,686.9844,575.1357,690.9844,585.1357,694.9844,581.1357,690.9844" style="stroke:#181818;stroke-width:1;"/><line style="stroke:#181818;stroke-width:1;stroke-dasharray:2.0,2.0;" x1="579.1357" x2="736.0908" y1="690.9844" y2="690.9844"/><text fill="#000000" font-family="Liberation Sans" font-size="10" lengthAdjust="spacing" textLength="69.4727" x="591.1357" y="686.7871">11. ORM object</text><polygon fill="#181818" points="407.1758,713.5625,397.1758,717.5625,407.1758,721.5625,403.1758,717.5625" style="stroke:#181818;stroke-width:1;"/><line style="stroke:#181818;stroke-width:1;stroke-dasharray:2.0,2.0;" x1="401.1758" x2="573.1357" y1="717.5625" y2="717.5625"/><text fill="#000000" font-family="Liberation Sans" font-size="10" lengthAdjust="spacing" textLength="95.6055" x="413.1758" y="713.3652">12. SimulationRecord</text><polygon fill="#181818" points="200.2949,740.1406,190.2949,744.1406,200.2949,748.1406,196.2949,744.1406" style="stroke:#181818;stroke-width:1;"/><line style="stroke:#181818;stroke-width:1;stroke-dasharray:2.0,2.0;" x1="194.2949" x2="395.1758" y1="744.1406" y2="744.1406"/><text fill="#000000" font-family="Liberation Sans" font-size="10" lengthAdjust="spacing" textLength="71.7188" x="206.2949" y="739.9434">13. 201 Created</text><polygon fill="#181818" points="45.1182,779.2969,35.1182,783.2969,45.1182,787.2969,41.1182,783.2969" style="stroke:#181818;stroke-width:1;"/><line style="stroke:#181818;stroke-width:1;stroke-dasharray:2.0,2.0;" x1="39.1182" x2="188.2949" y1="783.2969" y2="783.2969"/><text fill="#000000" font-family="Liberation Sans" font-size="10" lengthAdjust="spacing" textLength="131.1768" x="51.1182" y="766.5215">14. Show imported simulation</text><text fill="#000000" font-family="Liberation Sans" font-size="10" lengthAdjust="spacing" textLength="91.709" x="62.2314" y="779.0996">Add to simulation list</text><!--SRC=[VLLDZzf84BtxLvJ8PLO23uQ18MWJQJv0IfJCpEB9xcKbrDW5T6YwsUus4nAjjAULSeto4tR_sFoIhMuROy-GzG7ixkUgL-zLjSsAomtJR0qfpbacx5X9UyFM2E_u33MpN4c8cJI1EOQC-MU4g5tPD4kMgWSk5p1dmc1bPyQIrKAhJAPNIYWD3qjkg_i6_yXG9lWUZM4Bl11y8K7Wt0OL4FrQdl0DanQ-102NIgUeyu0lskrU_wBjLf-aUd7T7mt6vxJZI9VeRdkmNuljJY3Cb4Y3FolfM689-YpHuFAi5tMF9HhtHlthRZrHYVwVH2cpRCOCFi_LO-Uiouxb6lN7xUj1FLUNzLZ4Qg6biaV2CdyTBM4ylXwLkZY3NrAy89SYlneV3Ef6yS0CPFGOLArfZ3MzZ39jv81vyLW7NT6YLaAuM0HAh1PrG8nwonDi56dCDgdlJt2Z32TUEnz0qsDGAkbutYbZ5nhZNzvvG3eB0iVLyswzXf8N324AuKhmP0MDD-kDqXOCNsV23q3ZTqdu60Kc5XY47mqD1Nxog3aN69HXdiJiX311bWAZ9o9Ef1mS4W-m1auImUccPNYAFmM1TqfjYL-f5q0t98iCJw22XMI9oMeO-3fyI6vWomHFuMryUrEiAxrcTahXZ1lYLw-W4JK2Hypb2UgadVP4-2o4kzlu7awtqUcXVdFAlIHUXelCBfNcd_tE42wHQIByirKhbAyzubAbks5URyw7xdT2iRHQeJSRe1V2huute_Mtlzt3uz_Vo4QZn1PzLqrvcbTpjql9Sf8XBcaLFctpznsR7Dfo4UY0cYwvSRr1zSeMhZTsjz-NKsDnO-3nwxyGUNSUl_v3vnXTUmYNt78cI3xVzyz2F55tGod9dOgyJ5IfqMd8XGaAeLiaUQLDpZeT-20tMYNkw9kHdICgrUSwc4Il-DOTGhnK3zNGgBNI9a0wRlFbCWqPIpC3z4u_XDp3wS7M4pSgpRtCr7y01t_ShBbApqEuKIHeAr7hJMRpZ8z_VN-YSL0S1jI7bb4dqBIrk9_xDTWb5idtZH3kuTHCghL0wRuq2D9zT_ZSiI11rPOwtKCFeXRrkCBSi5DXWn0IZVJsYU-zVJLD7wm9H2vPCaEDqyptoJJDFtb4UMkAlRhdpNsR5BlrWbre-afDNPeIGPsarbE3I6eM31tLT0REWvSXlBc9HvDx-hk_hPmlKvr9rniUvumkQelQOQNT9va4hHxAm8Ghp8texBgTl0Sr-qZCIv48K8nrrAa5meI-13_enOZEcquxWYilQlg35epeeF1jcFjAStwe9jVY8at1gieo21BEpKVm7m00]--></g></svg>