<svg xmlns="http://www.w3.org/2000/svg" xmlns:xlink="http://www.w3.org/1999/xlink" contentStyleType="text/css" height="823px" preserveAspectRatio="none" style="width:1064px;height:823px;background:#FFFFFF;" version="1.1" viewBox="0 0 1064 823" width="1064px" zoomAndPan="magnify"><defs/><g><rect fill="none" height="462.5313" style="stroke:#000000;stroke-width:1.5;" width="856.7593" x="10" y="266.625"/><rect fill="none" height="255.1641" style="stroke:#000000;stroke-width:1.5;" width="741.313" x="20" y="466.9922"/><line style="stroke:#181818;stroke-width:0.5;stroke-dasharray:5.0,5.0;" x1="44" x2="44" y1="77.5781" y2="746.1563"/><line style="stroke:#181818;stroke-width:0.5;stroke-dasharray:5.0,5.0;" x1="203.9155" x2="203.9155" y1="77.5781" y2="746.1563"/><line style="stroke:#181818;stroke-width:0.5;stroke-dasharray:5.0,5.0;" x1="462.894" x2="462.894" y1="77.5781" y2="746.1563"/><line style="stroke:#181818;stroke-width:0.5;stroke-dasharray:5.0,5.0;" x1="656.5508" x2="656.5508" y1="77.5781" y2="746.1563"/><line style="stroke:#181818;stroke-width:0.5;stroke-dasharray:5.0,5.0;" x1="823.5278" x2="823.5278" y1="77.5781" y2="746.1563"/><line style="stroke:#181818;stroke-width:0.5;stroke-dasharray:5.0,5.0;" x1="1028.8623" x2="1028.8623" y1="77.5781" y2="746.1563"/><text fill="#8B4513" font-family="Liberation Sans" font-size="10" font-weight="bold" lengthAdjust="spacing" textLength="22.2363" x="30" y="75.3809">User</text><ellipse cx="44.1182" cy="13.5" fill="#F5E6D3" rx="8" ry="8" style="stroke:#8B4513;stroke-width:0.5;"/><path d="M44.1182,21.5 L44.1182,48.5 M31.1182,29.5 L57.1182,29.5 M44.1182,48.5 L31.1182,63.5 M44.1182,48.5 L57.1182,63.5 " fill="none" style="stroke:#8B4513;stroke-width:0.5;"/><text fill="#8B4513" font-family="Liberation Sans" font-size="10" font-weight="bold" lengthAdjust="spacing" textLength="22.2363" x="30" y="755.5371">User</text><ellipse cx="44.1182" cy="766.2344" fill="#F5E6D3" rx="8" ry="8" style="stroke:#8B4513;stroke-width:0.5;"/><path d="M44.1182,774.2344 L44.1182,801.2344 M31.1182,782.2344 L57.1182,782.2344 M44.1182,801.2344 L31.1182,816.2344 M44.1182,801.2344 L57.1182,816.2344 " fill="none" style="stroke:#8B4513;stroke-width:0.5;"/><rect fill="#D6E8F7" height="26.5781" rx="2.5" ry="2.5" style="stroke:#0056A0;stroke-width:0.5;" width="57.3252" x="175.9155" y="50"/><text fill="#003087" font-family="Liberation Sans" font-size="10" font-weight="bold" lengthAdjust="spacing" textLength="43.3252" x="182.9155" y="67.3809">Frontend</text><rect fill="#D6E8F7" height="26.5781" rx="2.5" ry="2.5" style="stroke:#0056A0;stroke-width:0.5;" width="57.3252" x="175.9155" y="745.1563"/><text fill="#003087" font-family="Liberation Sans" font-size="10" font-weight="bold" lengthAdjust="spacing" textLength="43.3252" x="182.9155" y="762.5371">Frontend</text><rect fill="#D6E8F7" height="26.5781" rx="2.5" ry="2.5" style="stroke:#0056A0;stroke-width:0.5;" width="61.7783" x="432.894" y="50"/><text fill="#003087" font-family="Liberation Sans" font-size="10" font-weight="bold" lengthAdjust="spacing" textLength="47.7783" x="439.894" y="67.3809">Controller</text><rect fill="#D6E8F7" height="26.5781" rx="2.5" ry="2.5" style="stroke:#0056A0;stroke-width:0.5;" width="61.7783" x="432.894" y="745.1563"/><text fill="#003087" font-family="Liberation Sans" font-size="10" font-weight="bold" lengthAdjust="spacing" textLength="47.7783" x="439.894" y="762.5371">Controller</text><rect fill="#D6E8F7" height="26.5781" rx="2.5" ry="2.5" style="stroke:#0056A0;stroke-width:0.5;" width="49.5859" x="632.5508" y="50"/><text fill="#003087" font-family="Liberation Sans" font-size="10" font-weight="bold" lengthAdjust="spacing" textLength="35.5859" x="639.5508" y="67.3809">Service</text><rect fill="#D6E8F7" height="26.5781" rx="2.5" ry="2.5" style="stroke:#0056A0;stroke-width:0.5;" width="49.5859" x="632.5508" y="745.1563"/><text fill="#003087" font-family="Liberation Sans" font-size="10" font-weight="bold" lengthAdjust="spacing" textLength="35.5859" x="639.5508" y="762.5371">Service</text><rect fill="#D6E8F7" height="26.5781" rx="2.5" ry="2.5" style="stroke:#0056A0;stroke-width:0.5;" width="66.2314" x="790.5278" y="50"/><text fill="#003087" font-family="Liberation Sans" font-size="10" font-weight="bold" lengthAdjust="spacing" textLength="52.2314" x="797.5278" y="67.3809">Repository</text><rect fill="#D6E8F7" height="26.5781" rx="2.5" ry="2.5" style="stroke:#0056A0;stroke-width:0.5;" width="66.2314" x="790.5278" y="745.1563"/><text fill="#003087" font-family="Liberation Sans" font-size="10" font-weight="bold" lengthAdjust="spacing" textLength="52.2314" x="797.5278" y="762.5371">Repository</text><text fill="#3A5A1A" font-family="Liberation Sans" font-size="10" lengthAdjust="spacing" textLength="54.4727" x="998.8623" y="75.3809">PostgreSQL</text><path d="M1011.0986,29 C1011.0986,19 1029.0986,19 1029.0986,19 C1029.0986,19 1047.0986,19 1047.0986,29 L1047.0986,55 C1047.0986,65 1029.0986,65 1029.0986,65 C1029.0986,65 1011.0986,65 1011.0986,55 L1011.0986,29 " fill="#E6F0D8" style="stroke:#5A7A3A;stroke-width:1.5;"/><path d="M1011.0986,29 C1011.0986,39 1029.0986,39 1029.0986,39 C1029.0986,39 1047.0986,39 1047.0986,29 " fill="none" style="stroke:#5A7A3A;stroke-width:1.5;"/><text fill="#3A5A1A" font-family="Liberation Sans" font-size="10" lengthAdjust="spacing" textLength="54.4727" x="998.8623" y="755.5371">PostgreSQL</text><path d="M1011.0986,767.7344 C1011.0986,757.7344 1029.0986,757.7344 1029.0986,757.7344 C1029.0986,757.7344 1047.0986,757.7344 1047.0986,767.7344 L1047.0986,793.7344 C1047.0986,803.7344 1029.0986,803.7344 1029.0986,803.7344 C1029.0986,803.7344 1011.0986,803.7344 1011.0986,793.7344 L1011.0986,767.7344 " fill="#E6F0D8" style="stroke:#5A7A3A;stroke-width:1.5;"/><path d="M1011.0986,767.7344 C1011.0986,777.7344 1029.0986,777.7344 1029.0986,777.7344 C1029.0986,777.7344 1047.0986,777.7344 1047.0986,767.7344 " fill="none" style="stroke:#5A7A3A;stroke-width:1.5;"/><polygon fill="#181818" points="192.5781,102.1563,202.5781,106.1563,192.5781,110.1563,196.5781,106.1563" style="stroke:#181818;stroke-width:1;"/><line style="stroke:#181818;stroke-width:1;" x1="44.1182" x2="198.5781" y1="106.1563" y2="106.1563"/><text fill="#000000" font-family="Liberation Sans" font-size="10" lengthAdjust="spacing" textLength="136.46" x="51.1182" y="101.959">1. Enter username + password</text><polygon fill="#181818" points="451.7832,141.3125,461.7832,145.3125,451.7832,149.3125,455.7832,145.3125" style="stroke:#181818;stroke-width:1;"/><line style="stroke:#181818;stroke-width:1;" x1="204.5781" x2="457.7832" y1="145.3125" y2="145.3125"/><text fill="#000000" font-family="Liberation Sans" font-size="10" lengthAdjust="spacing" textLength="100.6104" x="211.5781" y="128.5371">2. POST /v1/auth/login</text><text fill="#000000" font-family="Liberation Sans" font-size="10" lengthAdjust="spacing" textLength="125.0391" x="219.9131" y="141.1152">(form: username, password)</text><polygon fill="#181818" points="645.3438,167.8906,655.3438,171.8906,645.3438,175.8906,649.3438,171.8906" style="stroke:#181818;stroke-width:1;"/><line style="stroke:#181818;stroke-width:1;" x1="463.7832" x2="651.3438" y1="171.8906" y2="171.8906"/><text fill="#000000" font-family="Liberation Sans" font-size="10" lengthAdjust="spacing" textLength="165.0879" x="470.7832" y="167.6934">3. authenticate(username, password)</text><polygon fill="#181818" points="811.6436,194.4688,821.6436,198.4688,811.6436,202.4688,815.6436,198.4688" style="stroke:#181818;stroke-width:1;"/><line style="stroke:#181818;stroke-width:1;" x1="657.3438" x2="817.6436" y1="198.4688" y2="198.4688"/><text fill="#000000" font-family="Liberation Sans" font-size="10" lengthAdjust="spacing" textLength="142.2998" x="664.3438" y="194.2715">4. get_by_username(username)</text><polygon fill="#181818" points="1017.0986,221.0469,1027.0986,225.0469,1017.0986,229.0469,1021.0986,225.0469" style="stroke:#181818;stroke-width:1;"/><line style="stroke:#181818;stroke-width:1;" x1="823.6436" x2="1023.0986" y1="225.0469" y2="225.0469"/><text fill="#000000" font-family="Liberation Sans" font-size="10" lengthAdjust="spacing" textLength="181.4551" x="830.6436" y="220.8496">5. SELECT users WHERE username = ?</text><polygon fill="#181818" points="834.6436,247.625,824.6436,251.625,834.6436,255.625,830.6436,251.625" style="stroke:#181818;stroke-width:1;"/><line style="stroke:#181818;stroke-width:1;stroke-dasharray:2.0,2.0;" x1="828.6436" x2="1028.0986" y1="251.625" y2="251.625"/><text fill="#000000" font-family="Liberation Sans" font-size="10" lengthAdjust="spacing" textLength="96.1377" x="840.6436" y="247.4277">6. User row (or None)</text><path d="M10,266.625 L66.6699,266.625 L66.6699,271.2031 L56.6699,281.2031 L10,281.2031 L10,266.625 " fill="#EEEEEE" style="stroke:#000000;stroke-width:1.5;"/><rect fill="none" height="462.5313" style="stroke:#000000;stroke-width:1.5;" width="856.7593" x="10" y="266.625"/><text fill="#000000" font-family="Liberation Sans" font-size="10" font-weight="bold" lengthAdjust="spacing" textLength="11.6699" x="25" y="278.0059">alt</text><text fill="#000000" font-family="Liberation Sans" font-size="10" font-weight="bold" lengthAdjust="spacing" textLength="76.6504" x="81.6699" y="279.0059">[user not found]</text><polygon fill="#181818" points="668.3438,295.7813,658.3438,299.7813,668.3438,303.7813,664.3438,299.7813" style="stroke:#181818;stroke-width:1;"/><line style="stroke:#181818;stroke-width:1;stroke-dasharray:2.0,2.0;" x1="662.3438" x2="822.6436" y1="299.7813" y2="299.7813"/><text fill="#000000" font-family="Liberation Sans" font-size="10" lengthAdjust="spacing" textLength="23.9063" x="674.3438" y="295.584">None</text><polygon fill="#181818" points="474.7832,322.3594,464.7832,326.3594,474.7832,330.3594,470.7832,326.3594" style="stroke:#181818;stroke-width:1;"/><line style="stroke:#181818;stroke-width:1;stroke-dasharray:2.0,2.0;" x1="468.7832" x2="656.3438" y1="326.3594" y2="326.3594"/><text fill="#000000" font-family="Liberation Sans" font-size="10" lengthAdjust="spacing" textLength="70.0244" x="480.7832" y="322.1621">raise HTTP 401</text><polygon fill="#181818" points="215.5781,348.9375,205.5781,352.9375,215.5781,356.9375,211.5781,352.9375" style="stroke:#181818;stroke-width:1;"/><line style="stroke:#181818;stroke-width:1;stroke-dasharray:2.0,2.0;" x1="209.5781" x2="462.7832" y1="352.9375" y2="352.9375"/><text fill="#000000" font-family="Liberation Sans" font-size="10" lengthAdjust="spacing" textLength="78.9453" x="221.5781" y="348.7402">401 Unauthorized</text><polygon fill="#181818" points="55.1182,375.5156,45.1182,379.5156,55.1182,383.5156,51.1182,379.5156" style="stroke:#181818;stroke-width:1;"/><line style="stroke:#181818;stroke-width:1;stroke-dasharray:2.0,2.0;" x1="49.1182" x2="203.5781" y1="379.5156" y2="379.5156"/><text fill="#000000" font-family="Liberation Sans" font-size="10" lengthAdjust="spacing" textLength="92.2607" x="61.1182" y="375.3184">Show error message</text><line style="stroke:#000000;stroke-width:1;stroke-dasharray:2.0,2.0;" x1="10" x2="866.7593" y1="388.5156" y2="388.5156"/><text fill="#000000" font-family="Liberation Sans" font-size="10" font-weight="bold" lengthAdjust="spacing" textLength="58.3252" x="15" y="398.8965">[user found]</text><polygon fill="#181818" points="668.3438,416.6719,658.3438,420.6719,668.3438,424.6719,664.3438,420.6719" style="stroke:#181818;stroke-width:1;"/><line style="stroke:#181818;stroke-width:1;stroke-dasharray:2.0,2.0;" x1="662.3438" x2="822.6436" y1="420.6719" y2="420.6719"/><text fill="#000000" font-family="Liberation Sans" font-size="10" lengthAdjust="spacing" textLength="87.8027" x="674.3438" y="416.4746">7. User ORM object</text><path d="M556,433.6719 L556,454.6719 L758,454.6719 L758,443.6719 L748,433.6719 L556,433.6719 " fill="#FFFDE7" style="stroke:#AAAAAA;stroke-width:0.5;"/><path d="M748,433.6719 L748,443.6719 L758,443.6719 L748,433.6719 " fill="#FFFDE7" style="stroke:#AAAAAA;stroke-width:0.5;"/><text fill="#000000" font-family="Liberation Sans" font-size="9" lengthAdjust="spacing" textLength="181.0811" x="562" y="448.0146">8. bcrypt.verify(password, hashed_password)</text><path d="M20,466.9922 L76.6699,466.9922 L76.6699,471.5703 L66.6699,481.5703 L20,481.5703 L20,466.9922 " fill="#EEEEEE" style="stroke:#000000;stroke-width:1.5;"/><rect fill="none" height="255.1641" style="stroke:#000000;stroke-width:1.5;" width="741.313" x="20" y="466.9922"/><text fill="#000000" font-family="Liberation Sans" font-size="10" font-weight="bold" lengthAdjust="spacing" textLength="11.6699" x="35" y="478.373">alt</text><text fill="#000000" font-family="Liberation Sans" font-size="10" font-weight="bold" lengthAdjust="spacing" textLength="86.1133" x="91.6699" y="479.373">[wrong password]</text><polygon fill="#181818" points="474.7832,496.1484,464.7832,500.1484,474.7832,504.1484,470.7832,500.1484" style="stroke:#181818;stroke-width:1;"/><line style="stroke:#181818;stroke-width:1;stroke-dasharray:2.0,2.0;" x1="468.7832" x2="656.3438" y1="500.1484" y2="500.1484"/><text fill="#000000" font-family="Liberation Sans" font-size="10" lengthAdjust="spacing" textLength="70.0244" x="480.7832" y="495.9512">raise HTTP 401</text><polygon fill="#181818" points="215.5781,522.7266,205.5781,526.7266,215.5781,530.7266,211.5781,526.7266" style="stroke:#181818;stroke-width:1;"/><line style="stroke:#181818;stroke-width:1;stroke-dasharray:2.0,2.0;" x1="209.5781" x2="462.7832" y1="526.7266" y2="526.7266"/><text fill="#000000" font-family="Liberation Sans" font-size="10" lengthAdjust="spacing" textLength="78.9453" x="221.5781" y="522.5293">401 Unauthorized</text><polygon fill="#181818" points="55.1182,549.3047,45.1182,553.3047,55.1182,557.3047,51.1182,553.3047" style="stroke:#181818;stroke-width:1;"/><line style="stroke:#181818;stroke-width:1;stroke-dasharray:2.0,2.0;" x1="49.1182" x2="203.5781" y1="553.3047" y2="553.3047"/><text fill="#000000" font-family="Liberation Sans" font-size="10" lengthAdjust="spacing" textLength="92.2607" x="61.1182" y="549.1074">Show error message</text><line style="stroke:#000000;stroke-width:1;stroke-dasharray:2.0,2.0;" x1="20" x2="761.313" y1="562.3047" y2="562.3047"/><text fill="#000000" font-family="Liberation Sans" font-size="10" font-weight="bold" lengthAdjust="spacing" textLength="90.0244" x="25" y="572.6855">[password correct]</text><path d="M563,580.8828 L563,623.8828 L751,623.8828 L751,590.8828 L741,580.8828 L563,580.8828 " fill="#FFFDE7" style="stroke:#AAAAAA;stroke-width:0.5;"/><path d="M741,580.8828 L741,590.8828 L751,590.8828 L741,580.8828 " fill="#FFFDE7" style="stroke:#AAAAAA;stroke-width:0.5;"/><text fill="#000000" font-family="Liberation Sans" font-size="9" lengthAdjust="spacing" textLength="142.5806" x="569" y="595.2256">9. Build JWT payload {sub: user_id}</text><text fill="#000000" font-family="Liberation Sans" font-size="9" lengthAdjust="spacing" textLength="159.8115" x="576.5015" y="606.5459">Sign with HS256 + JWT_SECRET_KEY</text><text fill="#000000" font-family="Liberation Sans" font-size="9" lengthAdjust="spacing" textLength="56.5225" x="576.5015" y="617.8662">Expiry: 7 days</text><polygon fill="#181818" points="474.7832,644.4219,464.7832,648.4219,474.7832,652.4219,470.7832,648.4219" style="stroke:#181818;stroke-width:1;"/><line style="stroke:#181818;stroke-width:1;stroke-dasharray:2.0,2.0;" x1="468.7832" x2="656.3438" y1="648.4219" y2="648.4219"/><text fill="#000000" font-family="Liberation Sans" font-size="10" lengthAdjust="spacing" textLength="169.5605" x="480.7832" y="644.2246">10. Token {access_token, token_type}</text><polygon fill="#181818" points="215.5781,671,205.5781,675,215.5781,679,211.5781,675" style="stroke:#181818;stroke-width:1;"/><line style="stroke:#181818;stroke-width:1;stroke-dasharray:2.0,2.0;" x1="209.5781" x2="462.7832" y1="675" y2="675"/><text fill="#000000" font-family="Liberation Sans" font-size="10" lengthAdjust="spacing" textLength="235.2051" x="221.5781" y="670.8027">11. 200 {"access_token": "...", "token_type": "bearer"}</text><polygon fill="#181818" points="55.1182,710.1563,45.1182,714.1563,55.1182,718.1563,51.1182,714.1563" style="stroke:#181818;stroke-width:1;"/><line style="stroke:#181818;stroke-width:1;stroke-dasharray:2.0,2.0;" x1="49.1182" x2="203.5781" y1="714.1563" y2="714.1563"/><text fill="#000000" font-family="Liberation Sans" font-size="10" lengthAdjust="spacing" textLength="115.0684" x="61.1182" y="697.3809">12. Store token in session</text><text fill="#000000" font-family="Liberation Sans" font-size="10" lengthAdjust="spacing" textLength="95.5908" x="72.2314" y="709.959">Redirect to main view</text><!--SRC=[ZLLXRzf84Fs-lsBaVabrgME7G2ZIjMeIewXDanocgYgTXDRs0dinktHtWVgY_FURiOqnARdMKWAxy-RDcxVZnJv8jUI6Bo0JKxxAtL0hTyiN0cva8WntKYk8kRBC7aB6yby1OT0AsZdFz4Qg6KnvRaKhal3qOMRqIcMNEjS6DdFfsd4hlg-4IiLdOIsVYG-vd2d8nTIn5WZ_EvdA9LSE7Xd0XJQPC1NXgo3ezZu4jFkirAkhNjGVdcE4H3VeJj3VxiMko0KaEi_OKwiSJnr2VohKlpZhXfr3XORTg7VLsI_KeF-dKCOTJxWLFzVgydFUuOTgHRrXSDNVhzNXNHxoFMgbtG5QNZu7MnWEhwB65phWjyZ7AYkgn_jYXV7g1RUmmYLh7uqtD9WiLEPLW6czt0TTugRHUKvS24gToVS1iJ1hcGglBcFNwNvy99RQIjHLb0G6bwnnadJUQ-jcHiH_tPI0B66Cj9Qwtxo3HXSC8FGXmk-cR4RH6_07Jfkr6tIDDJXA8fqbmm1EVRY_YyTmiWvF-ChDJt8za-flXS6ZgJQBGSDst92zPWq1iM5JKBDrV20IeR13xiJHeTm6JhdKS9rxviDCk4bIJBPPJVfhrk0eAKjWMx3hGnpTH9VZKgQ5hzVHADePy2UyPmtw3UQswlLye240epTmX8DngnKMOZntPJvD7KnfgbWja_9ByOCIo-hEQRlqOm26Iposw_7u7iw2aDL64w1rJ1Y1BufiqWPda-XtXuFGilW0uZdg4iQWiaLrdp21rr4LVadNUTtJtUWpwEGVaJe4bQ-FNkCsZHyrt_SXIKsnT3xkocbnj3sTOvXpEnVPP7TS02ICEF0hcRD1iRFTO17VBttuRIT-smkKHMviPK2gZQdQFTGmm5iVBbOop-3Zrp5c5Rdc6JpQLL8D-4HcJpKIdvWkxerqSxYEJxizV8ymQn97bwDeFFaKVTiXenzBQGeq7k-_mfRxBRkUErCDNXZuCDOFGi4ZJrFiP-9eTGpbnyGLI_7qecSXlkMdGG2FNZlN6u3d-xvt3DwEX3OJmGrUJaylMXlY1H3Z_IEgwY0L_enPYp-QvHq08v59CXR3iE0ONKkngOQ2qTz_]--></g></svg>