<svg xmlns="http://www.w3.org/2000/svg" xmlns:xlink="http://www.w3.org/1999/xlink" contentStyleType="text/css" height="879px" preserveAspectRatio="none" style="width:1048px;height:879px;background:#FFFFFF;" version="1.1" viewBox="0 0 1048 879" width="1048px" zoomAndPan="magnify"><defs/><g><line style="stroke:#181818;stroke-width:0.5;stroke-dasharray:5.0,5.0;" x1="19" x2="19" y1="77.5781" y2="802.4688"/><line style="stroke:#181818;stroke-width:0.5;stroke-dasharray:5.0,5.0;" x1="251.4351" x2="251.4351" y1="77.5781" y2="802.4688"/><line style="stroke:#181818;stroke-width:0.5;stroke-dasharray:5.0,5.0;" x1="419.1831" x2="419.1831" y1="77.5781" y2="802.4688"/><line style="stroke:#181818;stroke-width:0.5;stroke-dasharray:5.0,5.0;" x1="616.6777" x2="616.6777" y1="77.5781" y2="802.4688"/><line style="stroke:#181818;stroke-width:0.5;stroke-dasharray:5.0,5.0;" x1="781.4282" x2="781.4282" y1="77.5781" y2="802.4688"/><line style="stroke:#181818;stroke-width:0.5;stroke-dasharray:5.0,5.0;" x1="1013.7207" x2="1013.7207" y1="77.5781" y2="802.4688"/><text fill="#8B4513" font-family="Liberation Sans" font-size="10" font-weight="bold" lengthAdjust="spacing" textLength="22.2363" x="5" y="75.3809">User</text><ellipse cx="19.1182" cy="13.5" fill="#F5E6D3" rx="8" ry="8" style="stroke:#8B4513;stroke-width:0.5;"/><path d="M19.1182,21.5 L19.1182,48.5 M6.1182,29.5 L32.1182,29.5 M19.1182,48.5 L6.1182,63.5 M19.1182,48.5 L32.1182,63.5 " fill="none" style="stroke:#8B4513;stroke-width:0.5;"/><text fill="#8B4513" font-family="Liberation Sans" font-size="10" font-weight="bold" lengthAdjust="spacing" textLength="22.2363" x="5" y="811.8496">User</text><ellipse cx="19.1182" cy="822.5469" fill="#F5E6D3" rx="8" ry="8" style="stroke:#8B4513;stroke-width:0.5;"/><path d="M19.1182,830.5469 L19.1182,857.5469 M6.1182,838.5469 L32.1182,838.5469 M19.1182,857.5469 L6.1182,872.5469 M19.1182,857.5469 L32.1182,872.5469 " fill="none" style="stroke:#8B4513;stroke-width:0.5;"/><rect fill="#D6E8F7" height="26.5781" rx="2.5" ry="2.5" style="stroke:#0056A0;stroke-width:0.5;" width="57.3252" x="223.4351" y="50"/><text fill="#003087" font-family="Liberation Sans" font-size="10" font-weight="bold" lengthAdjust="spacing" textLength="43.3252" x="230.4351" y="67.3809">Frontend</text><rect fill="#D6E8F7" height="26.5781" rx="2.5" ry="2.5" style="stroke:#0056A0;stroke-width:0.5;" width="57.3252" x="223.4351" y="801.4688"/><text fill="#003087" font-family="Liberation Sans" font-size="10" font-weight="bold" lengthAdjust="spacing" textLength="43.3252" x="230.4351" y="818.8496">Frontend</text><rect fill="#D6E8F7" height="26.5781" rx="2.5" ry="2.5" style="stroke:#0056A0;stroke-width:0.5;" width="61.7783" x="389.1831" y="50"/><text fill="#003087" font-family="Liberation Sans" font-size="10" font-weight="bold" lengthAdjust="spacing" textLength="47.7783" x="396.1831" y="67.3809">Controller</text><rect fill="#D6E8F7" height="26.5781" rx="2.5" ry="2.5" style="stroke:#0056A0;stroke-width:0.5;" width="61.7783" x="389.1831" y="801.4688"/><text fill="#003087" font-family="Liberation Sans" font-size="10" font-weight="bold" lengthAdjust="spacing" textLength="47.7783" x="396.1831" y="818.8496">Controller</text><rect fill="#D6E8F7" height="26.5781" rx="2.5" ry="2.5" style="stroke:#0056A0;stroke-width:0.5;" width="49.5859" x="592.6777" y="50"/><text fill="#003087" font-family="Liberation Sans" font-size="10" font-weight="bold" lengthAdjust="spacing" textLength="35.5859" x="599.6777" y="67.3809">Service</text><rect fill="#D6E8F7" height="26.5781" rx="2.5" ry="2.5" style="stroke:#0056A0;stroke-width:0.5;" width="49.5859" x="592.6777" y="801.4688"/><text fill="#003087" font-family="Liberation Sans" font-size="10" font-weight="bold" lengthAdjust="spacing" textLength="35.5859" x="599.6777" y="818.8496">Service</text><rect fill="#D6E8F7" height="26.5781" rx="2.5" ry="2.5" style="stroke:#0056A0;stroke-width:0.5;" width="66.2314" x="748.4282" y="50"/><text fill="#003087" font-family="Liberation Sans" font-size="10" font-weight="bold" lengthAdjust="spacing" textLength="52.2314" x="755.4282" y="67.3809">Repository</text><rect fill="#D6E8F7" height="26.5781" rx="2.5" ry="2.5" style="stroke:#0056A0;stroke-width:0.5;" width="66.2314" x="748.4282" y="801.4688"/><text fill="#003087" font-family="Liberation Sans" font-size="10" font-weight="bold" lengthAdjust="spacing" textLength="52.2314" x="755.4282" y="818.8496">Repository</text><text fill="#3A5A1A" font-family="Liberation Sans" font-size="10" lengthAdjust="spacing" textLength="54.4727" x="983.7207" y="75.3809">PostgreSQL</text><path d="M995.957,29 C995.957,19 1013.957,19 1013.957,19 C1013.957,19 1031.957,19 1031.957,29 L1031.957,55 C1031.957,65 1013.957,65 1013.957,65 C1013.957,65 995.957,65 995.957,55 L995.957,29 " fill="#E6F0D8" style="stroke:#5A7A3A;stroke-width:1.5;"/><path d="M995.957,29 C995.957,39 1013.957,39 1013.957,39 C1013.957,39 1031.957,39 1031.957,29 " fill="none" style="stroke:#5A7A3A;stroke-width:1.5;"/><text fill="#3A5A1A" font-family="Liberation Sans" font-size="10" lengthAdjust="spacing" textLength="54.4727" x="983.7207" y="811.8496">PostgreSQL</text><path d="M995.957,824.0469 C995.957,814.0469 1013.957,814.0469 1013.957,814.0469 C1013.957,814.0469 1031.957,814.0469 1031.957,824.0469 L1031.957,850.0469 C1031.957,860.0469 1013.957,860.0469 1013.957,860.0469 C1013.957,860.0469 995.957,860.0469 995.957,850.0469 L995.957,824.0469 " fill="#E6F0D8" style="stroke:#5A7A3A;stroke-width:1.5;"/><path d="M995.957,824.0469 C995.957,834.0469 1013.957,834.0469 1013.957,834.0469 C1013.957,834.0469 1031.957,834.0469 1031.957,824.0469 " fill="none" style="stroke:#5A7A3A;stroke-width:1.5;"/><polygon fill="#181818" points="240.0977,114.7344,250.0977,118.7344,240.0977,122.7344,244.0977,118.7344" style="stroke:#181818;stroke-width:1;"/><line style="stroke:#181818;stroke-width:1;" x1="19.1182" x2="246.0977" y1="118.7344" y2="118.7344"/><text fill="#000000" font-family="Liberation Sans" font-size="10" lengthAdjust="spacing" textLength="124.502" x="26.1182" y="101.959">1. Navigate to simulation list</text><text fill="#000000" font-family="Liberation Sans" font-size="10" lengthAdjust="spacing" textLength="123.374" x="34.4531" y="114.5371">(or click a saved simulation)</text><polygon fill="#181818" points="408.0723,153.8906,418.0723,157.8906,408.0723,161.8906,412.0723,157.8906" style="stroke:#181818;stroke-width:1;"/><line style="stroke:#181818;stroke-width:1;" x1="252.0977" x2="414.0723" y1="157.8906" y2="157.8906"/><text fill="#000000" font-family="Liberation Sans" font-size="10" lengthAdjust="spacing" textLength="100.5908" x="259.0977" y="141.1152">2. GET /v1/simulations</text><text fill="#000000" font-family="Liberation Sans" font-size="10" lengthAdjust="spacing" textLength="132.8613" x="267.4326" y="153.6934">Authorization: Bearer &lt;token&gt;</text><path d="M340,170.8906 L340,191.8906 L498,191.8906 L498,180.8906 L488,170.8906 L340,170.8906 " fill="#FFFDE7" style="stroke:#AAAAAA;stroke-width:0.5;"/><path d="M488,170.8906 L488,180.8906 L498,180.8906 L488,170.8906 " fill="#FFFDE7" style="stroke:#AAAAAA;stroke-width:0.5;"/><text fill="#000000" font-family="Liberation Sans" font-size="9" lengthAdjust="spacing" textLength="137.3203" x="346" y="185.2334">3. Validate JWT &#8594; resolve user_id</text><polygon fill="#181818" points="605.4707,211.7891,615.4707,215.7891,605.4707,219.7891,609.4707,215.7891" style="stroke:#181818;stroke-width:1;"/><line style="stroke:#181818;stroke-width:1;" x1="420.0723" x2="611.4707" y1="215.7891" y2="215.7891"/><text fill="#000000" font-family="Liberation Sans" font-size="10" lengthAdjust="spacing" textLength="105.0439" x="427.0723" y="211.5918">4. list_for_user(user_id)</text><polygon fill="#181818" points="769.5439,238.3672,779.5439,242.3672,769.5439,246.3672,773.5439,242.3672" style="stroke:#181818;stroke-width:1;"/><line style="stroke:#181818;stroke-width:1;" x1="617.4707" x2="775.5439" y1="242.3672" y2="242.3672"/><text fill="#000000" font-family="Liberation Sans" font-size="10" lengthAdjust="spacing" textLength="103.9355" x="624.4707" y="238.1699">5. list_by_user(user_id)</text><polygon fill="#181818" points="1001.957,290.1016,1011.957,294.1016,1001.957,298.1016,1005.957,294.1016" style="stroke:#181818;stroke-width:1;"/><line style="stroke:#181818;stroke-width:1;" x1="781.5439" x2="1007.957" y1="294.1016" y2="294.1016"/><text fill="#000000" font-family="Liberation Sans" font-size="10" lengthAdjust="spacing" textLength="122.832" x="788.5439" y="264.748">6. SELECT simulation_runs</text><text fill="#000000" font-family="Liberation Sans" font-size="10" lengthAdjust="spacing" textLength="89.7559" x="796.8789" y="277.3262">WHERE user_id = ?</text><text fill="#000000" font-family="Liberation Sans" font-size="10" lengthAdjust="spacing" textLength="132.8271" x="796.8789" y="289.9043">ORDER BY created_at DESC</text><polygon fill="#181818" points="792.5439,316.6797,782.5439,320.6797,792.5439,324.6797,788.5439,320.6797" style="stroke:#181818;stroke-width:1;"/><line style="stroke:#181818;stroke-width:1;stroke-dasharray:2.0,2.0;" x1="786.5439" x2="1012.957" y1="320.6797" y2="320.6797"/><text fill="#000000" font-family="Liberation Sans" font-size="10" lengthAdjust="spacing" textLength="61.6895" x="798.5439" y="316.4824">7. List of rows</text><polygon fill="#181818" points="628.4707,343.2578,618.4707,347.2578,628.4707,351.2578,624.4707,347.2578" style="stroke:#181818;stroke-width:1;"/><line style="stroke:#181818;stroke-width:1;stroke-dasharray:2.0,2.0;" x1="622.4707" x2="780.5439" y1="347.2578" y2="347.2578"/><text fill="#000000" font-family="Liberation Sans" font-size="10" lengthAdjust="spacing" textLength="140.0732" x="634.4707" y="343.0605">8. List of SimulationRun objects</text><polygon fill="#181818" points="431.0723,382.4141,421.0723,386.4141,431.0723,390.4141,427.0723,386.4141" style="stroke:#181818;stroke-width:1;"/><line style="stroke:#181818;stroke-width:1;stroke-dasharray:2.0,2.0;" x1="425.0723" x2="616.4707" y1="386.4141" y2="386.4141"/><text fill="#000000" font-family="Liberation Sans" font-size="10" lengthAdjust="spacing" textLength="162.2852" x="437.0723" y="369.6387">9. List of SimulationSummaryRecord</text><text fill="#000000" font-family="Liberation Sans" font-size="10" lengthAdjust="spacing" textLength="142.8369" x="445.4072" y="382.2168">(no result_history &#8212; lightweight)</text><polygon fill="#181818" points="263.0977,408.9922,253.0977,412.9922,263.0977,416.9922,259.0977,412.9922" style="stroke:#181818;stroke-width:1;"/><line style="stroke:#181818;stroke-width:1;stroke-dasharray:2.0,2.0;" x1="257.0977" x2="419.0723" y1="412.9922" y2="412.9922"/><text fill="#000000" font-family="Liberation Sans" font-size="10" lengthAdjust="spacing" textLength="88.374" x="269.0977" y="408.7949">10. 200 JSON array</text><polygon fill="#181818" points="30.1182,435.5703,20.1182,439.5703,30.1182,443.5703,26.1182,439.5703" style="stroke:#181818;stroke-width:1;"/><line style="stroke:#181818;stroke-width:1;stroke-dasharray:2.0,2.0;" x1="24.1182" x2="251.0977" y1="439.5703" y2="439.5703"/><text fill="#000000" font-family="Liberation Sans" font-size="10" lengthAdjust="spacing" textLength="112.2754" x="36.1182" y="435.373">11. Render simulation list</text><polygon fill="#181818" points="240.0977,462.1484,250.0977,466.1484,240.0977,470.1484,244.0977,466.1484" style="stroke:#181818;stroke-width:1;"/><line style="stroke:#181818;stroke-width:1;" x1="19.1182" x2="246.0977" y1="466.1484" y2="466.1484"/><text fill="#000000" font-family="Liberation Sans" font-size="10" lengthAdjust="spacing" textLength="133.3936" x="26.1182" y="461.9512">12. Click on a simulation entry</text><polygon fill="#181818" points="408.0723,501.3047,418.0723,505.3047,408.0723,509.3047,412.0723,505.3047" style="stroke:#181818;stroke-width:1;"/><line style="stroke:#181818;stroke-width:1;" x1="252.0977" x2="414.0723" y1="505.3047" y2="505.3047"/><text fill="#000000" font-family="Liberation Sans" font-size="10" lengthAdjust="spacing" textLength="123.3936" x="259.0977" y="488.5293">13. GET /v1/simulations/{id}</text><text fill="#000000" font-family="Liberation Sans" font-size="10" lengthAdjust="spacing" textLength="132.8613" x="270.2109" y="501.1074">Authorization: Bearer &lt;token&gt;</text><polygon fill="#181818" points="605.4707,527.8828,615.4707,531.8828,605.4707,535.8828,609.4707,531.8828" style="stroke:#181818;stroke-width:1;"/><line style="stroke:#181818;stroke-width:1;" x1="420.0723" x2="611.4707" y1="531.8828" y2="531.8828"/><text fill="#000000" font-family="Liberation Sans" font-size="10" lengthAdjust="spacing" textLength="104.4922" x="427.0723" y="527.6855">14. get(sim_id, user_id)</text><polygon fill="#181818" points="769.5439,554.4609,779.5439,558.4609,769.5439,562.4609,773.5439,558.4609" style="stroke:#181818;stroke-width:1;"/><line style="stroke:#181818;stroke-width:1;" x1="617.4707" x2="775.5439" y1="558.4609" y2="558.4609"/><text fill="#000000" font-family="Liberation Sans" font-size="10" lengthAdjust="spacing" textLength="95.6055" x="624.4707" y="554.2637">15. get_by_id(sim_id)</text><polygon fill="#181818" points="1001.957,581.0391,1011.957,585.0391,1001.957,589.0391,1005.957,585.0391" style="stroke:#181818;stroke-width:1;"/><line style="stroke:#181818;stroke-width:1;" x1="781.5439" x2="1007.957" y1="585.0391" y2="585.0391"/><text fill="#000000" font-family="Liberation Sans" font-size="10" lengthAdjust="spacing" textLength="195.9131" x="788.5439" y="580.8418">16. SELECT simulation_runs WHERE id = ?</text><polygon fill="#181818" points="792.5439,607.6172,782.5439,611.6172,792.5439,615.6172,788.5439,611.6172" style="stroke:#181818;stroke-width:1;"/><line style="stroke:#181818;stroke-width:1;stroke-dasharray:2.0,2.0;" x1="786.5439" x2="1012.957" y1="611.6172" y2="611.6172"/><text fill="#000000" font-family="Liberation Sans" font-size="10" lengthAdjust="spacing" textLength="208.4131" x="798.5439" y="607.4199">17. SimulationRun row (full, with result_history)</text><polygon fill="#181818" points="628.4707,634.1953,618.4707,638.1953,628.4707,642.1953,624.4707,638.1953" style="stroke:#181818;stroke-width:1;"/><line style="stroke:#181818;stroke-width:1;stroke-dasharray:2.0,2.0;" x1="622.4707" x2="780.5439" y1="638.1953" y2="638.1953"/><text fill="#000000" font-family="Liberation Sans" font-size="10" lengthAdjust="spacing" textLength="69.4727" x="634.4707" y="633.998">18. ORM object</text><path d="M543,651.1953 L543,694.1953 L690,694.1953 L690,661.1953 L680,651.1953 L543,651.1953 " fill="#FFFDE7" style="stroke:#AAAAAA;stroke-width:0.5;"/><path d="M680,651.1953 L680,661.1953 L690,661.1953 L680,651.1953 " fill="#FFFDE7" style="stroke:#AAAAAA;stroke-width:0.5;"/><text fill="#000000" font-family="Liberation Sans" font-size="9" lengthAdjust="spacing" textLength="86.5415" x="549" y="665.5381">19. Ownership check:</text><text fill="#000000" font-family="Liberation Sans" font-size="9" lengthAdjust="spacing" textLength="90.0571" x="559.002" y="676.8584">run.user_id == user_id</text><text fill="#000000" font-family="Liberation Sans" font-size="9" lengthAdjust="spacing" textLength="116.3145" x="559.002" y="688.1787">&#8594; 403 Forbidden if mismatch</text><polygon fill="#181818" points="431.0723,714.7344,421.0723,718.7344,431.0723,722.7344,427.0723,718.7344" style="stroke:#181818;stroke-width:1;"/><line style="stroke:#181818;stroke-width:1;stroke-dasharray:2.0,2.0;" x1="425.0723" x2="616.4707" y1="718.7344" y2="718.7344"/><text fill="#000000" font-family="Liberation Sans" font-size="10" lengthAdjust="spacing" textLength="173.3984" x="437.0723" y="714.5371">20. SimulationRecord (full, with history)</text><polygon fill="#181818" points="263.0977,741.3125,253.0977,745.3125,263.0977,749.3125,259.0977,745.3125" style="stroke:#181818;stroke-width:1;"/><line style="stroke:#181818;stroke-width:1;stroke-dasharray:2.0,2.0;" x1="257.0977" x2="419.0723" y1="745.3125" y2="745.3125"/><text fill="#000000" font-family="Liberation Sans" font-size="10" lengthAdjust="spacing" textLength="62.8125" x="269.0977" y="741.1152">21. 200 JSON</text><polygon fill="#181818" points="30.1182,780.4688,20.1182,784.4688,30.1182,788.4688,26.1182,784.4688" style="stroke:#181818;stroke-width:1;"/><line style="stroke:#181818;stroke-width:1;stroke-dasharray:2.0,2.0;" x1="24.1182" x2="251.0977" y1="784.4688" y2="784.4688"/><text fill="#000000" font-family="Liberation Sans" font-size="10" lengthAdjust="spacing" textLength="162.3242" x="36.1182" y="767.6934">22. Render population dynamics plot</text><text fill="#000000" font-family="Liberation Sans" font-size="10" lengthAdjust="spacing" textLength="197.8662" x="47.2314" y="780.2715">Show metadata (matrix, steps, seed, stages)</text><!--SRC=[XPNTZjeu5CVl_HH7z0QaAPF0m52qRJK3eLKrdUcIsQrMMWcPs12N45FRWQLLfRtg0wps2ViaU-naCWamNIv0zldxVFviz4ga6whe6XXVq2mn4vcQMxhcS2FcN54ZP0eXJJNHfvIX-CB1zof67LCcTo9Tme8ccbSiSngjbafcAHl9H2hOnS9KxPf_pdWQyVTSQxhaLubOff3mXI4L4NuR4OaDJGry9G3NKZ6kSeVFFA_Nl_Bixa6eP-D-C9XSeiKcNQgxtk1XBpJxXCDS9enyguIZaK7fKQ31zKNFxvuADEa5_N6t7gXK_oGGeuREgUR7iNhqadRfgLX1V-AD1_LONTgZFgsvJgKvuPQwpyaI9fDnKFR53lW5-YDvA_9FupVDLQDOK0qPBabrD8s9miCyPOrSi2YMTT48DvLC4kiBHP5HILqGShKL4MyKOVGsgjkdV2ErmBpspe729IaxQVFy8BLPAXx-UkC4R4w8pTNb_VmLb7d14FmstDAjM5Bibf6WnJfBSlmJeSsVAPveOWEYH4GheA3fbhEAgaLANzQnhSL56KAd3M-2UpZV-kUFSkqSNcKcbafySLj3kEPKONA_6BdYwIj2tEJa5hTSQm2wRVYT9eBP7Dzzl8SVt__1ehLCjjpDO2OOiHdOWuIu76mos3URo4NRbJ9RI3MpwcPnf4MSm2fj1r7PAvJp_O7GsQsGpLrj_JQ4mKqmkgzqOgQoehoFRuDfy90Ol8JNRlTkEWwcSFq7H8fZ8Mn63Oo3S4ISp-VelSZYiesFa3OW5w3aJXV1qLxKCtYqXsNqQPQ2d7_YaT55MNZ0TM88BquT2BFrcghzb4TuFV8nfz9s5P-uMOnof0j-_FqlTcGPcnsttwsYj-YwIf3NXexdmRlmxXQeKdHVOGAbZZoK8MbJtCF50MG_WHCX6ZdoK4ghvpXUeVsJxFdTa_2TVnNicwlrVn0yHCX7XfRSDD4NZlGCdYJ8xpcX9KYmGdwCZ_yaFmKxEJP7PFY8Hdta20Wq5rcIdC5EcFXWVgqZTdo4vsxwla2bUjNi8mFW8ojtkvGh7OiDH36FLaEIltUONhja-cLvxtAZlP4NNXVVJZKNZF4Kn0BMGg-fYUBAtJn4i-FLAd8mrWegApb5NiT_9EyaSvrEoTn6RXxOOVkKhaMaOPF8_8M3CCP6hhcXzXc59gQjn5zde0tVQFpXdDa5_Zth5laF]--></g></svg>