<?xml version="1.0" encoding="us-ascii" standalone="no"?><svg xmlns="http://www.w3.org/2000/svg" xmlns:xlink="http://www.w3.org/1999/xlink" contentStyleType="text/css" height="744px" preserveAspectRatio="none" style="width:1001px;height:744px;background:#FFFFFF;" version="1.1" viewBox="0 0 1001 744" width="1001px" zoomAndPan="magnify"><defs/><g><rect fill="none" height="12.5781" style="stroke:none;stroke-width:1.0;" width="968.5" x="15" y="11"/><ellipse cx="158" cy="53.5781" fill="#003087" rx="10" ry="10" style="stroke:#222222;stroke-width:1.0;"/><rect fill="#EEF3FA" height="45.1563" rx="12.5" ry="12.5" style="stroke:#003087;stroke-width:0.5;" width="127" x="94.5" y="83.5781"/><text fill="#003087" font-family="Liberation Sans" font-size="10" lengthAdjust="spacing" textLength="44" x="104.5" y="103.959">Checkout</text><text fill="#003087" font-family="Liberation Sans" font-size="10" lengthAdjust="spacing" textLength="107" x="104.5" y="116.5371">(actions/checkout@v4)</text><rect fill="#EEF3FA" height="45.1563" rx="12.5" ry="12.5" style="stroke:#003087;stroke-width:0.5;" width="176" x="70" y="148.7344"/><text fill="#003087" font-family="Liberation Sans" font-size="10" lengthAdjust="spacing" textLength="56" x="80" y="169.1152">Setup Typst</text><text fill="#003087" font-family="Liberation Sans" font-size="10" lengthAdjust="spacing" textLength="156" x="80" y="181.6934">(typst-community/setup-typst@v3)</text><rect fill="#EEF3FA" height="45.1563" rx="12.5" ry="12.5" style="stroke:#003087;stroke-width:0.5;" width="193" x="61.5" y="213.8906"/><text fill="#003087" font-family="Liberation Sans" font-size="10" lengthAdjust="spacing" textLength="86" x="71.5" y="234.2715">Install Roboto font</text><text fill="#003087" font-family="Liberation Sans" font-size="10" lengthAdjust="spacing" textLength="173" x="71.5" y="246.8496">(apt-get install fonts-roboto-unhinted)</text><rect fill="#EEF3FA" height="45.1563" rx="12.5" ry="12.5" style="stroke:#003087;stroke-width:0.5;" width="250" x="33" y="279.0469"/><text fill="#003087" font-family="Liberation Sans" font-size="10" lengthAdjust="spacing" textLength="91" x="43" y="299.4277">Compile document</text><text fill="#003087" font-family="Liberation Sans" font-size="10" lengthAdjust="spacing" textLength="230" x="43" y="312.0059">(typst compile tfg-doc/main.typ tfg-doc/main.pdf)</text><rect fill="#EEF3FA" height="45.1563" rx="12.5" ry="12.5" style="stroke:#003087;stroke-width:0.5;" width="219" x="48.5" y="344.2031"/><text fill="#003087" font-family="Liberation Sans" font-size="10" lengthAdjust="spacing" textLength="93" x="58.5" y="364.584">Upload PDF artifact</text><text fill="#003087" font-family="Liberation Sans" font-size="10" lengthAdjust="spacing" textLength="199" x="58.5" y="377.1621">(actions/upload-artifact@v4 &#8594; tfg-doc-pdf)</text><rect fill="#003087" height="6" rx="2.5" ry="2.5" style="stroke:#003087;stroke-width:1.0;" width="274" x="21" y="409.3594"/><line style="stroke:#000000;stroke-width:1.5;" x1="15" x2="15" y1="11" y2="732.6953"/><rect fill="#EEF3FA" height="32.5781" rx="12.5" ry="12.5" style="stroke:#003087;stroke-width:0.5;" width="126" x="362.5" y="499.2266"/><text fill="#003087" font-family="Liberation Sans" font-size="10" lengthAdjust="spacing" textLength="106" x="372.5" y="519.6074">Download PDF artifact</text><path d="M566,551.8047 L566,571.6719 L546,575.6719 L566,579.6719 L566,599.5391 A0,0 0 0 0 566,599.5391 L728,599.5391 A0,0 0 0 0 728,599.5391 L728,561.8047 L718,551.8047 L566,551.8047 A0,0 0 0 0 566,551.8047 " fill="#FFF9E6" style="stroke:#C8A400;stroke-width:0.5;"/><path d="M718,551.8047 L718,561.8047 L728,561.8047 L718,551.8047 " fill="#FFF9E6" style="stroke:#C8A400;stroke-width:0.5;"/><text fill="#555555" font-family="Liberation Sans" font-size="10" lengthAdjust="spacing" textLength="134" x="572" y="567.1855">The docs-latest tag is reused</text><text fill="#555555" font-family="Liberation Sans" font-size="10" lengthAdjust="spacing" textLength="141" x="572" y="579.7637">on every run, keeping a single</text><text fill="#555555" font-family="Liberation Sans" font-size="10" lengthAdjust="spacing" textLength="103" x="572" y="592.3418">stable download URL.</text><rect fill="#EEF3FA" height="45.1563" rx="12.5" ry="12.5" style="stroke:#003087;stroke-width:0.5;" width="241" x="305" y="553.0938"/><text fill="#003087" font-family="Liberation Sans" font-size="10" lengthAdjust="spacing" textLength="112" x="315" y="573.4746">Publish GitHub Release</text><text fill="#003087" font-family="Liberation Sans" font-size="10" lengthAdjust="spacing" textLength="221" x="315" y="586.0527">(tag: docs-latest, rolling &#8212; URL never changes)</text><line style="stroke:#000000;stroke-width:1.5;" x1="299" x2="299" y1="11" y2="732.6953"/><rect fill="#EEF3FA" height="32.5781" rx="12.5" ry="12.5" style="stroke:#003087;stroke-width:0.5;" width="126" x="812" y="435.3594"/><text fill="#003087" font-family="Liberation Sans" font-size="10" lengthAdjust="spacing" textLength="106" x="822" y="455.7402">Download PDF artifact</text><rect fill="#EEF3FA" height="45.1563" rx="12.5" ry="12.5" style="stroke:#003087;stroke-width:0.5;" width="141" x="804.5" y="487.9375"/><text fill="#003087" font-family="Liberation Sans" font-size="10" lengthAdjust="spacing" textLength="111" x="814.5" y="508.3184">Add redirect index.html</text><text fill="#003087" font-family="Liberation Sans" font-size="10" lengthAdjust="spacing" textLength="121" x="814.5" y="520.8965">(meta refresh &#8594; main.pdf)</text><rect fill="#EEF3FA" height="45.1563" rx="12.5" ry="12.5" style="stroke:#003087;stroke-width:0.5;" width="184" x="783" y="553.0938"/><text fill="#003087" font-family="Liberation Sans" font-size="10" lengthAdjust="spacing" textLength="101" x="793" y="573.4746">Upload pages artifact</text><text fill="#003087" font-family="Liberation Sans" font-size="10" lengthAdjust="spacing" textLength="164" x="793" y="586.0527">(actions/upload-pages-artifact@v3)</text><rect fill="#EEF3FA" height="45.1563" rx="12.5" ry="12.5" style="stroke:#003087;stroke-width:0.5;" width="147" x="801.5" y="619.5391"/><text fill="#003087" font-family="Liberation Sans" font-size="10" lengthAdjust="spacing" textLength="113" x="811.5" y="639.9199">Deploy to GitHub Pages</text><text fill="#003087" font-family="Liberation Sans" font-size="10" lengthAdjust="spacing" textLength="127" x="811.5" y="652.498">(actions/deploy-pages@v4)</text><rect fill="#003087" height="6" rx="2.5" ry="2.5" style="stroke:#003087;stroke-width:1.0;" width="240" x="739" y="684.6953"/><ellipse cx="762" cy="721.6953" fill="none" rx="11" ry="11" style="stroke:#222222;stroke-width:1.0;"/><ellipse cx="762" cy="721.6953" fill="#222222" rx="6" ry="6" style="stroke:#222222;stroke-width:1.0;"/><line style="stroke:#000000;stroke-width:1.5;" x1="733" x2="733" y1="11" y2="732.6953"/><line style="stroke:#000000;stroke-width:1.5;" x1="983" x2="983" y1="11" y2="732.6953"/><line style="stroke:#333333;stroke-width:1.0;" x1="158" x2="158" y1="28.5781" y2="43.5781"/><polygon fill="#333333" points="154,33.5781,158,43.5781,162,33.5781,158,37.5781" style="stroke:#333333;stroke-width:1.0;"/><line style="stroke:#333333;stroke-width:1.0;" x1="158" x2="158" y1="63.5781" y2="83.5781"/><polygon fill="#333333" points="154,73.5781,158,83.5781,162,73.5781,158,77.5781" style="stroke:#333333;stroke-width:1.0;"/><line style="stroke:#333333;stroke-width:1.0;" x1="158" x2="158" y1="128.7344" y2="148.7344"/><polygon fill="#333333" points="154,138.7344,158,148.7344,162,138.7344,158,142.7344" style="stroke:#333333;stroke-width:1.0;"/><line style="stroke:#333333;stroke-width:1.0;" x1="158" x2="158" y1="193.8906" y2="213.8906"/><polygon fill="#333333" points="154,203.8906,158,213.8906,162,203.8906,158,207.8906" style="stroke:#333333;stroke-width:1.0;"/><line style="stroke:#333333;stroke-width:1.0;" x1="158" x2="158" y1="259.0469" y2="279.0469"/><polygon fill="#333333" points="154,269.0469,158,279.0469,162,269.0469,158,273.0469" style="stroke:#333333;stroke-width:1.0;"/><line style="stroke:#333333;stroke-width:1.0;" x1="158" x2="158" y1="324.2031" y2="344.2031"/><polygon fill="#333333" points="154,334.2031,158,344.2031,162,334.2031,158,338.2031" style="stroke:#333333;stroke-width:1.0;"/><line style="stroke:#333333;stroke-width:1.0;" x1="158" x2="158" y1="389.3594" y2="409.3594"/><polygon fill="#333333" points="154,399.3594,158,409.3594,162,399.3594,158,403.3594" style="stroke:#333333;stroke-width:1.0;"/><line style="stroke:#333333;stroke-width:1.0;" x1="425.5" x2="425.5" y1="531.8047" y2="553.0938"/><polygon fill="#333333" points="421.5,543.0938,425.5,553.0938,429.5,543.0938,425.5,547.0938" style="stroke:#333333;stroke-width:1.0;"/><line style="stroke:#333333;stroke-width:1.0;" x1="875" x2="875" y1="467.9375" y2="487.9375"/><polygon fill="#333333" points="871,477.9375,875,487.9375,879,477.9375,875,481.9375" style="stroke:#333333;stroke-width:1.0;"/><line style="stroke:#333333;stroke-width:1.0;" x1="875" x2="875" y1="533.0938" y2="553.0938"/><polygon fill="#333333" points="871,543.0938,875,553.0938,879,543.0938,875,547.0938" style="stroke:#333333;stroke-width:1.0;"/><line style="stroke:#333333;stroke-width:1.0;" x1="875" x2="875" y1="598.25" y2="619.5391"/><polygon fill="#333333" points="871,609.5391,875,619.5391,879,609.5391,875,613.5391" style="stroke:#333333;stroke-width:1.0;"/><line style="stroke:#333333;stroke-width:1.0;" x1="875" x2="875" y1="664.6953" y2="684.6953"/><polygon fill="#333333" points="871,674.6953,875,684.6953,879,674.6953,875,678.6953" style="stroke:#333333;stroke-width:1.0;"/><line style="stroke:#333333;stroke-width:1.0;" x1="762" x2="762" y1="690.6953" y2="710.6953"/><polygon fill="#333333" points="758,700.6953,762,710.6953,766,700.6953,762,704.6953" style="stroke:#333333;stroke-width:1.0;"/><line style="stroke:#333333;stroke-width:1.0;" x1="28" x2="28" y1="415.3594" y2="419.3594"/><line style="stroke:#333333;stroke-width:1.0;" x1="28" x2="425.5" y1="419.3594" y2="419.3594"/><line style="stroke:#333333;stroke-width:1.0;" x1="425.5" x2="425.5" y1="419.3594" y2="499.2266"/><polygon fill="#333333" points="421.5,489.2266,425.5,499.2266,429.5,489.2266,425.5,493.2266" style="stroke:#333333;stroke-width:1.0;"/><line style="stroke:#333333;stroke-width:1.0;" x1="288" x2="288" y1="415.3594" y2="419.3594"/><line style="stroke:#333333;stroke-width:1.0;" x1="288" x2="875" y1="419.3594" y2="419.3594"/><line style="stroke:#333333;stroke-width:1.0;" x1="875" x2="875" y1="419.3594" y2="435.3594"/><polygon fill="#333333" points="871,425.3594,875,435.3594,879,425.3594,875,429.3594" style="stroke:#333333;stroke-width:1.0;"/><line style="stroke:#333333;stroke-width:1.0;" x1="425.5" x2="425.5" y1="598.25" y2="670.6953"/><line style="stroke:#333333;stroke-width:1.0;" x1="425.5" x2="746" y1="670.6953" y2="670.6953"/><line style="stroke:#333333;stroke-width:1.0;" x1="746" x2="746" y1="670.6953" y2="684.6953"/><polygon fill="#333333" points="742,674.6953,746,684.6953,750,674.6953,746,678.6953" style="stroke:#333333;stroke-width:1.0;"/><text fill="#000000" font-family="Liberation Sans" font-size="10" lengthAdjust="spacing" textLength="24" x="145" y="21.3809">build</text><text fill="#000000" font-family="Liberation Sans" font-size="10" lengthAdjust="spacing" textLength="108" x="462" y="21.3809">release &#8212; needs: build</text><text fill="#000000" font-family="Liberation Sans" font-size="10" lengthAdjust="spacing" textLength="102" x="807" y="21.3809">pages &#8212; needs: build</text><!--SRC=[bLFDRjD04BxxAKRgfQtg9AW5slJIaZQ0LA4eQMz8QECTswkiTwtTTKEWI9nu0CIxSETH-YJCh9FAJSi1NrQQR-QRd- -pNoXJ2oSga9YBHeUnDU63g12kr1oT2CeQc0dZ4_zSvanzGNWnw82-5D8kbIaW5zfZ1vcBR54usnWvijewM9OgOD9945bGjogiu6i2yCOwYQxDt1aC3WV7hpcwnR5pUJa-79yJmjDiPy-2S4-2bm-r7TQjHj-wOnaRi1rfk_buF3wvVBKzxEZu_6WmU3pIo_WzvXNEsMKaNYSTnk_PmZOMhtt2B3mJ1QNDV6zLQVZp6wwTAWfqVWXruqlemsGAzpz-GYMKWTsG5obbz_VteHQXz7jSihHkaMkx_2ILfsXM4gL3ZS8Z22Cfiq0FSnjAqhn6Yf0PvetIyXH2YIjmZG5YvtsqHWqY3-X01SXiLMiCw7i9byLnaxjOUfTubYKPZahC5hO97yqkAs-DxsVhqDdjqTvfCfnXQ6guNjMUamA_AJ5NZI6Nz3sZQOoUtHvo_dj3r5h3rDBC5d8w6PFN8IqmqA0joc6VkfYJDgPK9g3ayX4DhJJoLPiApKFFk0q3coFoINi4FGxKCcUMcrfR8M5oCIQ5Wyffjyw6JKJJ3KABHf7MH6dBaUGa3DrheyNzzrzW42LfkpxXyC8kpPC-r7tIpBKY-T-gyAwPmxHbu4r4COn-IRKWNS81EAir_wVCVZEzeWwt95vM2aEgynJH-EIgCf0lhalibWFnWV9abyQZ99oSmVNH4mUmGAoPMu2dHxDNwVZpUDpruDIoQmvU6KH1XwJ5M-FznzhdKj8eKZdCM6Y9dtjbg3JjNM4G1EKEwIgR_s5BgxRTlzMAU4UpQBOB9705vBFrhIUSrIcMCQ4jRWqTrssrzS7MoLy0]--></g></svg>