<?xml version="1.0" encoding="us-ascii" standalone="no"?><svg xmlns="http://www.w3.org/2000/svg" xmlns:xlink="http://www.w3.org/1999/xlink" contentStyleType="text/css" height="875px" preserveAspectRatio="none" style="width:529px;height:875px;background:#FFFFFF;" version="1.1" viewBox="0 0 529 875" width="529px" zoomAndPan="magnify"><defs/><g><rect fill="none" height="12.5781" style="stroke:none;stroke-width:1.0;" width="496.5" x="15" y="11"/><ellipse cx="100" cy="53.5781" fill="#003087" rx="10" ry="10" style="stroke:#222222;stroke-width:1.0;"/><rect fill="#EEF3FA" height="45.1563" rx="12.5" ry="12.5" style="stroke:#003087;stroke-width:0.5;" width="151" x="24.5" y="83.5781"/><text fill="#003087" font-family="Liberation Sans" font-size="10" lengthAdjust="spacing" textLength="131" x="34.5" y="103.959">Scan Python dependencies</text><text fill="#003087" font-family="Liberation Sans" font-size="10" lengthAdjust="spacing" textLength="97" x="34.5" y="116.5371">for outdated versions</text><rect fill="#EEF3FA" height="45.1563" rx="12.5" ry="12.5" style="stroke:#003087;stroke-width:0.5;" width="158" x="21" y="148.7344"/><text fill="#003087" font-family="Liberation Sans" font-size="10" lengthAdjust="spacing" textLength="138" x="31" y="169.1152">Group minor + patch updates</text><text fill="#003087" font-family="Liberation Sans" font-size="10" lengthAdjust="spacing" textLength="56" x="31" y="181.6934">into one PR</text><rect fill="#EEF3FA" height="45.1563" rx="12.5" ry="12.5" style="stroke:#003087;stroke-width:0.5;" width="135" x="32.5" y="213.8906"/><text fill="#003087" font-family="Liberation Sans" font-size="10" lengthAdjust="spacing" textLength="115" x="42.5" y="234.2715">Open PR targeting main</text><text fill="#003087" font-family="Liberation Sans" font-size="10" lengthAdjust="spacing" textLength="83" x="42.5" y="246.8496">(max 5 open PRs)</text><rect fill="#EEF3FA" height="32.5781" rx="12.5" ry="12.5" style="stroke:#003087;stroke-width:0.5;" width="149" x="25.5" y="279.0469"/><text fill="#003087" font-family="Liberation Sans" font-size="10" lengthAdjust="spacing" textLength="129" x="35.5" y="299.4277">CI workflow triggered on PR</text><ellipse cx="100" cy="342.625" fill="none" rx="11" ry="11" style="stroke:#222222;stroke-width:1.0;"/><ellipse cx="100" cy="342.625" fill="#222222" rx="6" ry="6" style="stroke:#222222;stroke-width:1.0;"/><line style="stroke:#000000;stroke-width:1.5;" x1="15" x2="15" y1="11" y2="863.4063"/><ellipse cx="268.5" cy="373.625" fill="#003087" rx="10" ry="10" style="stroke:#222222;stroke-width:1.0;"/><rect fill="#EEF3FA" height="45.1563" rx="12.5" ry="12.5" style="stroke:#003087;stroke-width:0.5;" width="132" x="202.5" y="403.625"/><text fill="#003087" font-family="Liberation Sans" font-size="10" lengthAdjust="spacing" textLength="98" x="212.5" y="424.0059">Scan action versions</text><text fill="#003087" font-family="Liberation Sans" font-size="10" lengthAdjust="spacing" textLength="112" x="212.5" y="436.584">for outdated pinned refs</text><rect fill="#EEF3FA" height="45.1563" rx="12.5" ry="12.5" style="stroke:#003087;stroke-width:0.5;" width="148" x="194.5" y="468.7813"/><text fill="#003087" font-family="Liberation Sans" font-size="10" lengthAdjust="spacing" textLength="127" x="204.5" y="489.1621">Open PR per major update</text><text fill="#003087" font-family="Liberation Sans" font-size="10" lengthAdjust="spacing" textLength="128" x="204.5" y="501.7402">or grouped minor/patch PR</text><rect fill="#EEF3FA" height="32.5781" rx="12.5" ry="12.5" style="stroke:#003087;stroke-width:0.5;" width="149" x="194" y="533.9375"/><text fill="#003087" font-family="Liberation Sans" font-size="10" lengthAdjust="spacing" textLength="129" x="204" y="554.3184">CI workflow triggered on PR</text><ellipse cx="268.5" cy="597.5156" fill="none" rx="11" ry="11" style="stroke:#222222;stroke-width:1.0;"/><ellipse cx="268.5" cy="597.5156" fill="#222222" rx="6" ry="6" style="stroke:#222222;stroke-width:1.0;"/><line style="stroke:#000000;stroke-width:1.5;" x1="183" x2="183" y1="11" y2="863.4063"/><ellipse cx="432.5" cy="628.5156" fill="#003087" rx="10" ry="10" style="stroke:#222222;stroke-width:1.0;"/><rect fill="#EEF3FA" height="45.1563" rx="12.5" ry="12.5" style="stroke:#003087;stroke-width:0.5;" width="125" x="370" y="658.5156"/><text fill="#003087" font-family="Liberation Sans" font-size="10" lengthAdjust="spacing" textLength="105" x="380" y="678.8965">Scan base image tags</text><text fill="#003087" font-family="Liberation Sans" font-size="10" lengthAdjust="spacing" textLength="83" x="380" y="691.4746">for newer versions</text><rect fill="#EEF3FA" height="45.1563" rx="12.5" ry="12.5" style="stroke:#003087;stroke-width:0.5;" width="135" x="365" y="723.6719"/><text fill="#003087" font-family="Liberation Sans" font-size="10" lengthAdjust="spacing" textLength="115" x="375" y="744.0527">Open PR targeting main</text><text fill="#003087" font-family="Liberation Sans" font-size="10" lengthAdjust="spacing" textLength="83" x="375" y="756.6309">(max 5 open PRs)</text><rect fill="#EEF3FA" height="32.5781" rx="12.5" ry="12.5" style="stroke:#003087;stroke-width:0.5;" width="149" x="358" y="788.8281"/><text fill="#003087" font-family="Liberation Sans" font-size="10" lengthAdjust="spacing" textLength="129" x="368" y="809.209">CI workflow triggered on PR</text><ellipse cx="432.5" cy="852.4063" fill="none" rx="11" ry="11" style="stroke:#222222;stroke-width:1.0;"/><ellipse cx="432.5" cy="852.4063" fill="#222222" rx="6" ry="6" style="stroke:#222222;stroke-width:1.0;"/><line style="stroke:#000000;stroke-width:1.5;" x1="352" x2="352" y1="11" y2="863.4063"/><line style="stroke:#000000;stroke-width:1.5;" x1="511" x2="511" y1="11" y2="863.4063"/><line style="stroke:#333333;stroke-width:1.0;" x1="100" x2="100" y1="28.5781" y2="43.5781"/><polygon fill="#333333" points="96,33.5781,100,43.5781,104,33.5781,100,37.5781" style="stroke:#333333;stroke-width:1.0;"/><line style="stroke:#333333;stroke-width:1.0;" x1="100" x2="100" y1="63.5781" y2="83.5781"/><polygon fill="#333333" points="96,73.5781,100,83.5781,104,73.5781,100,77.5781" style="stroke:#333333;stroke-width:1.0;"/><line style="stroke:#333333;stroke-width:1.0;" x1="100" x2="100" y1="128.7344" y2="148.7344"/><polygon fill="#333333" points="96,138.7344,100,148.7344,104,138.7344,100,142.7344" style="stroke:#333333;stroke-width:1.0;"/><line style="stroke:#333333;stroke-width:1.0;" x1="100" x2="100" y1="193.8906" y2="213.8906"/><polygon fill="#333333" points="96,203.8906,100,213.8906,104,203.8906,100,207.8906" style="stroke:#333333;stroke-width:1.0;"/><line style="stroke:#333333;stroke-width:1.0;" x1="100" x2="100" y1="259.0469" y2="279.0469"/><polygon fill="#333333" points="96,269.0469,100,279.0469,104,269.0469,100,273.0469" style="stroke:#333333;stroke-width:1.0;"/><line style="stroke:#333333;stroke-width:1.0;" x1="100" x2="100" y1="311.625" y2="331.625"/><polygon fill="#333333" points="96,321.625,100,331.625,104,321.625,100,325.625" style="stroke:#333333;stroke-width:1.0;"/><line style="stroke:#333333;stroke-width:1.0;" x1="268.5" x2="268.5" y1="383.625" y2="403.625"/><polygon fill="#333333" points="264.5,393.625,268.5,403.625,272.5,393.625,268.5,397.625" style="stroke:#333333;stroke-width:1.0;"/><line style="stroke:#333333;stroke-width:1.0;" x1="268.5" x2="268.5" y1="448.7813" y2="468.7813"/><polygon fill="#333333" points="264.5,458.7813,268.5,468.7813,272.5,458.7813,268.5,462.7813" style="stroke:#333333;stroke-width:1.0;"/><line style="stroke:#333333;stroke-width:1.0;" x1="268.5" x2="268.5" y1="513.9375" y2="533.9375"/><polygon fill="#333333" points="264.5,523.9375,268.5,533.9375,272.5,523.9375,268.5,527.9375" style="stroke:#333333;stroke-width:1.0;"/><line style="stroke:#333333;stroke-width:1.0;" x1="268.5" x2="268.5" y1="566.5156" y2="586.5156"/><polygon fill="#333333" points="264.5,576.5156,268.5,586.5156,272.5,576.5156,268.5,580.5156" style="stroke:#333333;stroke-width:1.0;"/><line style="stroke:#333333;stroke-width:1.0;" x1="432.5" x2="432.5" y1="638.5156" y2="658.5156"/><polygon fill="#333333" points="428.5,648.5156,432.5,658.5156,436.5,648.5156,432.5,652.5156" style="stroke:#333333;stroke-width:1.0;"/><line style="stroke:#333333;stroke-width:1.0;" x1="432.5" x2="432.5" y1="703.6719" y2="723.6719"/><polygon fill="#333333" points="428.5,713.6719,432.5,723.6719,436.5,713.6719,432.5,717.6719" style="stroke:#333333;stroke-width:1.0;"/><line style="stroke:#333333;stroke-width:1.0;" x1="432.5" x2="432.5" y1="768.8281" y2="788.8281"/><polygon fill="#333333" points="428.5,778.8281,432.5,788.8281,436.5,778.8281,432.5,782.8281" style="stroke:#333333;stroke-width:1.0;"/><line style="stroke:#333333;stroke-width:1.0;" x1="432.5" x2="432.5" y1="821.4063" y2="841.4063"/><polygon fill="#333333" points="428.5,831.4063,432.5,841.4063,436.5,831.4063,432.5,835.4063" style="stroke:#333333;stroke-width:1.0;"/><text fill="#000000" font-family="Liberation Sans" font-size="10" lengthAdjust="spacing" textLength="99" x="49.5" y="21.3809">pip (requirements.txt)</text><text fill="#000000" font-family="Liberation Sans" font-size="10" lengthAdjust="spacing" textLength="159" x="188" y="21.3809">GitHub Actions (.github/workflows)</text><text fill="#000000" font-family="Liberation Sans" font-size="10" lengthAdjust="spacing" textLength="88" x="387.5" y="21.3809">Docker (Dockerfile)</text><!--SRC=[hLF1SjCm4BtxAtQcbsIOISs4GfkUGeWBCnGOmZ6NjRssHMp9IEiweUMxkFDbhEosk2O73kYYcTNRj-yzIMwdT8qMAqWfmwRao6Z-W1N1UnMJHLP6mmQr2zmnv4Pz9tWU3WvTWQbfbSuXmzBHu2J6P9TRq-XqPKfZeIqKKp00OCBgHl41RWE0ryQcP7laIHZEm_DNlZhYE5cletcqb1ElPepUCDg_Ykl7tW7hQD2FeInjc7f9u-5H55siNux5hiwNByBmgQIpRZtbHMjDsn7VW-RTEjhOrxgqBpoBroJ5b6hIASQ6PuUgX5y_uOjLUKxMBQ0bsfK7c5mRGHoca0aTbYLmOOc04kCEZgboGdEDUrKr5Po14JxuzDb1JVOFvX8gfQNz6TJ8IG5DdIAJ4mS4Ff2QKb2Q3HXDqZqBH5GNMn3SrQg6YQLlZR9KaMOtuprFxmBdxoPOR1AKWGSkv9drRaWdYjnMUxscOJyfXHkn92_HNGQBAp_mkA2j7gWGwCVU3SYedDY_oGgLtkf9XVk1sQb0L- -WDNQNbN8bt6SeOutkY1oRMgnSANxRnB1C_ATmC9dbYeicFdreT2DRs04VjOyirKfhsInbRY3LvrxXLm7sdhRUvaF6dUdJtd9dy5zKlp79JaWd_PwfaaOoOtG4giAS9AZyNgQcLfe6iV_NB7y3]--></g></svg>