<?xml version="1.0" encoding="us-ascii" standalone="no"?><svg xmlns="http://www.w3.org/2000/svg" xmlns:xlink="http://www.w3.org/1999/xlink" contentStyleType="text/css" height="282px" preserveAspectRatio="none" style="width:520px;height:282px;background:#FFFFFF;" version="1.1" viewBox="0 0 520 282" width="520px" zoomAndPan="magnify"><defs/><g><rect fill="#F8FBFF" height="270.5547" style="stroke:#003087;stroke-width:0.5;" width="303" x="211" y="6"/><text fill="#000000" font-family="Liberation Sans" font-size="10" font-weight="bold" lengthAdjust="spacing" textLength="128" x="298.5" y="16.3809">GitHub Actions workflows</text><line style="stroke:#003087;stroke-width:0.5;stroke-dasharray:5.0,5.0;" x1="35" x2="35" y1="50.1563" y2="233.3984"/><line style="stroke:#003087;stroke-width:0.5;stroke-dasharray:5.0,5.0;" x1="106" x2="106" y1="50.1563" y2="233.3984"/><line style="stroke:#003087;stroke-width:0.5;stroke-dasharray:5.0,5.0;" x1="176" x2="176" y1="50.1563" y2="233.3984"/><line style="stroke:#003087;stroke-width:0.5;stroke-dasharray:5.0,5.0;" x1="236" x2="236" y1="50.1563" y2="233.3984"/><line style="stroke:#003087;stroke-width:0.5;stroke-dasharray:5.0,5.0;" x1="304" x2="304" y1="50.1563" y2="233.3984"/><line style="stroke:#003087;stroke-width:0.5;stroke-dasharray:5.0,5.0;" x1="380" x2="380" y1="50.1563" y2="233.3984"/><line style="stroke:#003087;stroke-width:0.5;stroke-dasharray:5.0,5.0;" x1="464" x2="464" y1="50.1563" y2="233.3984"/><rect fill="#EEF3FA" height="39.1563" rx="2.5" ry="2.5" style="stroke:#003087;stroke-width:0.5;" width="61" x="5" y="10"/><text fill="#003087" font-family="Liberation Sans" font-size="10" font-weight="bold" lengthAdjust="spacing" textLength="47" x="12" y="27.3809">push / PR</text><text fill="#003087" font-family="Liberation Sans" font-size="10" font-weight="bold" lengthAdjust="spacing" textLength="31.3125" x="19.8438" y="39.959">&#8594; dev</text><rect fill="#EEF3FA" height="39.1563" rx="2.5" ry="2.5" style="stroke:#003087;stroke-width:0.5;" width="61" x="5" y="232.3984"/><text fill="#003087" font-family="Liberation Sans" font-size="10" font-weight="bold" lengthAdjust="spacing" textLength="47" x="12" y="249.7793">push / PR</text><text fill="#003087" font-family="Liberation Sans" font-size="10" font-weight="bold" lengthAdjust="spacing" textLength="31.3125" x="19.8438" y="262.3574">&#8594; dev</text><rect fill="#EEF3FA" height="39.1563" rx="2.5" ry="2.5" style="stroke:#003087;stroke-width:0.5;" width="61" x="76" y="10"/><text fill="#003087" font-family="Liberation Sans" font-size="10" font-weight="bold" lengthAdjust="spacing" textLength="47" x="83" y="27.3809">push / PR</text><text fill="#003087" font-family="Liberation Sans" font-size="10" font-weight="bold" lengthAdjust="spacing" textLength="36.3125" x="88.3438" y="39.959">&#8594; main</text><rect fill="#EEF3FA" height="39.1563" rx="2.5" ry="2.5" style="stroke:#003087;stroke-width:0.5;" width="61" x="76" y="232.3984"/><text fill="#003087" font-family="Liberation Sans" font-size="10" font-weight="bold" lengthAdjust="spacing" textLength="47" x="83" y="249.7793">push / PR</text><text fill="#003087" font-family="Liberation Sans" font-size="10" font-weight="bold" lengthAdjust="spacing" textLength="36.3125" x="88.3438" y="262.3574">&#8594; main</text><rect fill="#EEF3FA" height="39.1563" rx="2.5" ry="2.5" style="stroke:#003087;stroke-width:0.5;" width="58" x="147" y="10"/><text fill="#003087" font-family="Liberation Sans" font-size="10" font-weight="bold" lengthAdjust="spacing" textLength="35" x="158.5" y="27.3809">weekly</text><text fill="#003087" font-family="Liberation Sans" font-size="10" font-weight="bold" lengthAdjust="spacing" textLength="44" x="154" y="39.959">(Monday)</text><rect fill="#EEF3FA" height="39.1563" rx="2.5" ry="2.5" style="stroke:#003087;stroke-width:0.5;" width="58" x="147" y="232.3984"/><text fill="#003087" font-family="Liberation Sans" font-size="10" font-weight="bold" lengthAdjust="spacing" textLength="35" x="158.5" y="249.7793">weekly</text><text fill="#003087" font-family="Liberation Sans" font-size="10" font-weight="bold" lengthAdjust="spacing" textLength="44" x="154" y="262.3574">(Monday)</text><rect fill="#EEF3FA" height="26.5781" rx="2.5" ry="2.5" style="stroke:#003087;stroke-width:0.5;" width="43" x="215" y="22.5781"/><text fill="#003087" font-family="Liberation Sans" font-size="10" font-weight="bold" lengthAdjust="spacing" textLength="29" x="222" y="39.959">ci.yml</text><rect fill="#EEF3FA" height="26.5781" rx="2.5" ry="2.5" style="stroke:#003087;stroke-width:0.5;" width="43" x="215" y="232.3984"/><text fill="#003087" font-family="Liberation Sans" font-size="10" font-weight="bold" lengthAdjust="spacing" textLength="29" x="222" y="249.7793">ci.yml</text><rect fill="#EEF3FA" height="26.5781" rx="2.5" ry="2.5" style="stroke:#003087;stroke-width:0.5;" width="73" x="268" y="22.5781"/><text fill="#003087" font-family="Liberation Sans" font-size="10" font-weight="bold" lengthAdjust="spacing" textLength="59" x="275" y="39.959">security.yml</text><rect fill="#EEF3FA" height="26.5781" rx="2.5" ry="2.5" style="stroke:#003087;stroke-width:0.5;" width="73" x="268" y="232.3984"/><text fill="#003087" font-family="Liberation Sans" font-size="10" font-weight="bold" lengthAdjust="spacing" textLength="59" x="275" y="249.7793">security.yml</text><rect fill="#EEF3FA" height="26.5781" rx="2.5" ry="2.5" style="stroke:#003087;stroke-width:0.5;" width="58" x="351" y="22.5781"/><text fill="#003087" font-family="Liberation Sans" font-size="10" font-weight="bold" lengthAdjust="spacing" textLength="44" x="358" y="39.959">docs.yml</text><rect fill="#EEF3FA" height="26.5781" rx="2.5" ry="2.5" style="stroke:#003087;stroke-width:0.5;" width="58" x="351" y="232.3984"/><text fill="#003087" font-family="Liberation Sans" font-size="10" font-weight="bold" lengthAdjust="spacing" textLength="44" x="358" y="249.7793">docs.yml</text><rect fill="#EEF3FA" height="26.5781" rx="2.5" ry="2.5" style="stroke:#003087;stroke-width:0.5;" width="91" x="419" y="22.5781"/><text fill="#003087" font-family="Liberation Sans" font-size="10" font-weight="bold" lengthAdjust="spacing" textLength="77" x="426" y="39.959">dependabot.yml</text><rect fill="#EEF3FA" height="26.5781" rx="2.5" ry="2.5" style="stroke:#003087;stroke-width:0.5;" width="91" x="419" y="232.3984"/><text fill="#003087" font-family="Liberation Sans" font-size="10" font-weight="bold" lengthAdjust="spacing" textLength="77" x="426" y="249.7793">dependabot.yml</text><polygon fill="#003087" points="224.5,73.4766,234.5,77.4766,224.5,81.4766,228.5,77.4766" style="stroke:#003087;stroke-width:1.0;"/><line style="stroke:#003087;stroke-width:1.0;" x1="35.5" x2="230.5" y1="77.4766" y2="77.4766"/><text fill="#555555" font-family="Liberation Sans" font-size="9" lengthAdjust="spacing" textLength="70" x="42.5" y="73.499">test job &#183; e2e job</text><polygon fill="#003087" points="224.5,98.7969,234.5,102.7969,224.5,106.7969,228.5,102.7969" style="stroke:#003087;stroke-width:1.0;"/><line style="stroke:#003087;stroke-width:1.0;" x1="106.5" x2="230.5" y1="102.7969" y2="102.7969"/><text fill="#555555" font-family="Liberation Sans" font-size="9" lengthAdjust="spacing" textLength="70" x="113.5" y="98.8193">test job &#183; e2e job</text><polygon fill="#003087" points="292.5,124.1172,302.5,128.1172,292.5,132.1172,296.5,128.1172" style="stroke:#003087;stroke-width:1.0;"/><line style="stroke:#003087;stroke-width:1.0;" x1="106.5" x2="298.5" y1="128.1172" y2="128.1172"/><text fill="#555555" font-family="Liberation Sans" font-size="9" lengthAdjust="spacing" textLength="98" x="113.5" y="124.1396">bandit &#183; pip-audit &#183; trivy</text><polygon fill="#003087" points="368,160.7578,378,164.7578,368,168.7578,372,164.7578" style="stroke:#003087;stroke-width:1.0;"/><line style="stroke:#003087;stroke-width:1.0;" x1="106.5" x2="374" y1="164.7578" y2="164.7578"/><text fill="#555555" font-family="Liberation Sans" font-size="9" lengthAdjust="spacing" textLength="92" x="113.5" y="149.46">build &#183; release &#183; pages</text><text fill="#555555" font-family="Liberation Sans" font-size="9" lengthAdjust="spacing" textLength="146" x="113.5" y="160.7803">(only when tfg-doc/** files change)</text><polygon fill="#003087" points="292.5,186.0781,302.5,190.0781,292.5,194.0781,296.5,190.0781" style="stroke:#003087;stroke-width:1.0;"/><line style="stroke:#003087;stroke-width:1.0;" x1="176" x2="298.5" y1="190.0781" y2="190.0781"/><text fill="#555555" font-family="Liberation Sans" font-size="9" lengthAdjust="spacing" textLength="98" x="183" y="186.1006">bandit &#183; pip-audit &#183; trivy</text><polygon fill="#003087" points="452.5,211.3984,462.5,215.3984,452.5,219.3984,456.5,215.3984" style="stroke:#003087;stroke-width:1.0;"/><line style="stroke:#003087;stroke-width:1.0;" x1="176" x2="458.5" y1="215.3984" y2="215.3984"/><text fill="#555555" font-family="Liberation Sans" font-size="9" lengthAdjust="spacing" textLength="166" x="183" y="211.4209">pip packages &#183; GitHub Actions &#183; Docker</text><!--SRC=[bPDDSjD048NtSuekPqDIPI88FmuBgknWmS9GARBDPYIrx47ZQJ4pYYqejXo0ox3dA9o47WdRikmoXJUM-dtT_VGqSeKofRHo2Hdcij8-9kC_o2N2J2LefLTau4uQ9zmnyavzGNWITKIta1cjb9b3BhN3ZfB8j9XRgansGveih1RAe-YsukSAJOhmLG2ChQLL2vv5qLKqUXcAgISx8PkXxKipbUDC6JoktahhLQfAQVo_WPxFi-aqleh7-r1u-1CpccnyhH4IqXbh4reVNno4_i9u54_YM7phXcF8jy4Sqd5yFNtHZEeik1cDdqKHLpjEdpU__RaovDmCxZixR6nhpJk_3bFAtGF3eApS0YxXzkEz-Vtz1n-IXm585_vFSakfJ0E6YtroXLZe-juyUayca_LvWxL58H9Qm-2jyk-g91mBFgQiaIroJIitOAjxerBrk5xgPa2g-gB3jBBArrjaK-Y36QLk2uMR0m1BPAi9-Hs6fU0QduEr41m635-p1NW57fs7JvJ0hv-0Jp5S2X52E4biW8r5nX9fCkK3LAfoAAk_DzwgXthB1xU1hPJEWcfHetJOTCavEawPZAxveqG3FfyFkU7ouW9ofP4pMqWpntCXslJ_ny2kWvDWc17Uc1PXQQ1whv0hRoWjq8e_]--></g></svg>