<svg xmlns="http://www.w3.org/2000/svg" xmlns:xlink="http://www.w3.org/1999/xlink" contentStyleType="text/css" height="1010px" preserveAspectRatio="none" style="width:1098px;height:1010px;background:#FFFFFF;" version="1.1" viewBox="0 0 1098 1010" width="1098px" zoomAndPan="magnify"><defs/><g><rect fill="none" height="541.4609" style="stroke:#000000;stroke-width:1.5;" width="1081.6543" x="10" y="374.5469"/><rect fill="none" height="338.8359" style="stroke:#000000;stroke-width:1.5;" width="1061.6543" x="20" y="570.1719"/><line style="stroke:#181818;stroke-width:0.5;stroke-dasharray:5.0,5.0;" x1="44" x2="44" y1="77.5781" y2="933.0078"/><line style="stroke:#181818;stroke-width:0.5;stroke-dasharray:5.0,5.0;" x1="204.7261" x2="204.7261" y1="77.5781" y2="933.0078"/><line style="stroke:#181818;stroke-width:0.5;stroke-dasharray:5.0,5.0;" x1="401.8979" x2="401.8979" y1="77.5781" y2="933.0078"/><line style="stroke:#181818;stroke-width:0.5;stroke-dasharray:5.0,5.0;" x1="599.3926" x2="599.3926" y1="77.5781" y2="933.0078"/><line style="stroke:#181818;stroke-width:0.5;stroke-dasharray:5.0,5.0;" x1="835.8472" x2="835.8472" y1="77.5781" y2="933.0078"/><line style="stroke:#181818;stroke-width:0.5;stroke-dasharray:5.0,5.0;" x1="1041.1816" x2="1041.1816" y1="77.5781" y2="933.0078"/><text fill="#8B4513" font-family="Liberation Sans" font-size="10" font-weight="bold" lengthAdjust="spacing" textLength="22.2363" x="30" y="75.3809">User</text><ellipse cx="44.1182" cy="13.5" fill="#F5E6D3" rx="8" ry="8" style="stroke:#8B4513;stroke-width:0.5;"/><path d="M44.1182,21.5 L44.1182,48.5 M31.1182,29.5 L57.1182,29.5 M44.1182,48.5 L31.1182,63.5 M44.1182,48.5 L57.1182,63.5 " fill="none" style="stroke:#8B4513;stroke-width:0.5;"/><text fill="#8B4513" font-family="Liberation Sans" font-size="10" font-weight="bold" lengthAdjust="spacing" textLength="22.2363" x="30" y="942.3887">User</text><ellipse cx="44.1182" cy="953.0859" fill="#F5E6D3" rx="8" ry="8" style="stroke:#8B4513;stroke-width:0.5;"/><path d="M44.1182,961.0859 L44.1182,988.0859 M31.1182,969.0859 L57.1182,969.0859 M44.1182,988.0859 L31.1182,1003.0859 M44.1182,988.0859 L57.1182,1003.0859 " fill="none" style="stroke:#8B4513;stroke-width:0.5;"/><rect fill="#D6E8F7" height="26.5781" rx="2.5" ry="2.5" style="stroke:#0056A0;stroke-width:0.5;" width="57.3252" x="176.7261" y="50"/><text fill="#003087" font-family="Liberation Sans" font-size="10" font-weight="bold" lengthAdjust="spacing" textLength="43.3252" x="183.7261" y="67.3809">Frontend</text><rect fill="#D6E8F7" height="26.5781" rx="2.5" ry="2.5" style="stroke:#0056A0;stroke-width:0.5;" width="57.3252" x="176.7261" y="932.0078"/><text fill="#003087" font-family="Liberation Sans" font-size="10" font-weight="bold" lengthAdjust="spacing" textLength="43.3252" x="183.7261" y="949.3887">Frontend</text><rect fill="#D6E8F7" height="26.5781" rx="2.5" ry="2.5" style="stroke:#0056A0;stroke-width:0.5;" width="61.7783" x="371.8979" y="50"/><text fill="#003087" font-family="Liberation Sans" font-size="10" font-weight="bold" lengthAdjust="spacing" textLength="47.7783" x="378.8979" y="67.3809">Controller</text><rect fill="#D6E8F7" height="26.5781" rx="2.5" ry="2.5" style="stroke:#0056A0;stroke-width:0.5;" width="61.7783" x="371.8979" y="932.0078"/><text fill="#003087" font-family="Liberation Sans" font-size="10" font-weight="bold" lengthAdjust="spacing" textLength="47.7783" x="378.8979" y="949.3887">Controller</text><rect fill="#D6E8F7" height="26.5781" rx="2.5" ry="2.5" style="stroke:#0056A0;stroke-width:0.5;" width="49.5859" x="575.3926" y="50"/><text fill="#003087" font-family="Liberation Sans" font-size="10" font-weight="bold" lengthAdjust="spacing" textLength="35.5859" x="582.3926" y="67.3809">Service</text><rect fill="#D6E8F7" height="26.5781" rx="2.5" ry="2.5" style="stroke:#0056A0;stroke-width:0.5;" width="49.5859" x="575.3926" y="932.0078"/><text fill="#003087" font-family="Liberation Sans" font-size="10" font-weight="bold" lengthAdjust="spacing" textLength="35.5859" x="582.3926" y="949.3887">Service</text><rect fill="#D6E8F7" height="26.5781" rx="2.5" ry="2.5" style="stroke:#0056A0;stroke-width:0.5;" width="66.2314" x="802.8472" y="50"/><text fill="#003087" font-family="Liberation Sans" font-size="10" font-weight="bold" lengthAdjust="spacing" textLength="52.2314" x="809.8472" y="67.3809">Repository</text><rect fill="#D6E8F7" height="26.5781" rx="2.5" ry="2.5" style="stroke:#0056A0;stroke-width:0.5;" width="66.2314" x="802.8472" y="932.0078"/><text fill="#003087" font-family="Liberation Sans" font-size="10" font-weight="bold" lengthAdjust="spacing" textLength="52.2314" x="809.8472" y="949.3887">Repository</text><text fill="#3A5A1A" font-family="Liberation Sans" font-size="10" lengthAdjust="spacing" textLength="54.4727" x="1011.1816" y="75.3809">PostgreSQL</text><path d="M1023.418,29 C1023.418,19 1041.418,19 1041.418,19 C1041.418,19 1059.418,19 1059.418,29 L1059.418,55 C1059.418,65 1041.418,65 1041.418,65 C1041.418,65 1023.418,65 1023.418,55 L1023.418,29 " fill="#E6F0D8" style="stroke:#5A7A3A;stroke-width:1.5;"/><path d="M1023.418,29 C1023.418,39 1041.418,39 1041.418,39 C1041.418,39 1059.418,39 1059.418,29 " fill="none" style="stroke:#5A7A3A;stroke-width:1.5;"/><text fill="#3A5A1A" font-family="Liberation Sans" font-size="10" lengthAdjust="spacing" textLength="54.4727" x="1011.1816" y="942.3887">PostgreSQL</text><path d="M1023.418,954.5859 C1023.418,944.5859 1041.418,944.5859 1041.418,944.5859 C1041.418,944.5859 1059.418,944.5859 1059.418,954.5859 L1059.418,980.5859 C1059.418,990.5859 1041.418,990.5859 1041.418,990.5859 C1041.418,990.5859 1023.418,990.5859 1023.418,980.5859 L1023.418,954.5859 " fill="#E6F0D8" style="stroke:#5A7A3A;stroke-width:1.5;"/><path d="M1023.418,954.5859 C1023.418,964.5859 1041.418,964.5859 1041.418,964.5859 C1041.418,964.5859 1059.418,964.5859 1059.418,954.5859 " fill="none" style="stroke:#5A7A3A;stroke-width:1.5;"/><polygon fill="#181818" points="193.3887,114.7344,203.3887,118.7344,193.3887,122.7344,197.3887,118.7344" style="stroke:#181818;stroke-width:1;"/><line style="stroke:#181818;stroke-width:1;" x1="44.1182" x2="199.3887" y1="118.7344" y2="118.7344"/><text fill="#000000" font-family="Liberation Sans" font-size="10" lengthAdjust="spacing" textLength="98.916" x="51.1182" y="101.959">1. Fill registration form</text><text fill="#000000" font-family="Liberation Sans" font-size="10" lengthAdjust="spacing" textLength="128.9355" x="59.4531" y="114.5371">(username, email, password)</text><path d="M127,131.7344 L127,186.7344 L282,186.7344 L282,141.7344 L272,131.7344 L127,131.7344 " fill="#FFFDE7" style="stroke:#AAAAAA;stroke-width:0.5;"/><path d="M272,131.7344 L272,141.7344 L282,141.7344 L272,131.7344 " fill="#FFFDE7" style="stroke:#AAAAAA;stroke-width:0.5;"/><text fill="#000000" font-family="Liberation Sans" font-size="9" lengthAdjust="spacing" textLength="95.5503" x="133" y="146.0771">2. Client-side validation:</text><text fill="#000000" font-family="Liberation Sans" font-size="9" lengthAdjust="spacing" textLength="126.7163" x="140.5015" y="157.3975">username &#8805; 3 chars, no spaces</text><text fill="#000000" font-family="Liberation Sans" font-size="9" lengthAdjust="spacing" textLength="49.5132" x="140.5015" y="168.7178">email format</text><text fill="#000000" font-family="Liberation Sans" font-size="9" lengthAdjust="spacing" textLength="79.1851" x="140.5015" y="180.0381">password &#8805; 8 chars</text><polygon fill="#181818" points="390.7871,206.5938,400.7871,210.5938,390.7871,214.5938,394.7871,210.5938" style="stroke:#181818;stroke-width:1;"/><line style="stroke:#181818;stroke-width:1;" x1="205.3887" x2="396.7871" y1="210.5938" y2="210.5938"/><text fill="#000000" font-family="Liberation Sans" font-size="10" lengthAdjust="spacing" textLength="173.3984" x="212.3887" y="206.3965">3. POST /v1/auth/register (JSON body)</text><path d="M325,223.5938 L325,255.5938 L479,255.5938 L479,233.5938 L469,223.5938 L325,223.5938 " fill="#FFFDE7" style="stroke:#AAAAAA;stroke-width:0.5;"/><path d="M469,223.5938 L469,233.5938 L479,233.5938 L469,223.5938 " fill="#FFFDE7" style="stroke:#AAAAAA;stroke-width:0.5;"/><text fill="#000000" font-family="Liberation Sans" font-size="9" lengthAdjust="spacing" textLength="133.5674" x="331" y="237.9365">4. Pydantic UserCreate validation</text><text fill="#000000" font-family="Liberation Sans" font-size="9" lengthAdjust="spacing" textLength="118.0371" x="338.5015" y="249.2568">(same rules, server-enforced)</text><polygon fill="#181818" points="588.1855,275.8125,598.1855,279.8125,588.1855,283.8125,592.1855,279.8125" style="stroke:#181818;stroke-width:1;"/><line style="stroke:#181818;stroke-width:1;" x1="402.7871" x2="594.1855" y1="279.8125" y2="279.8125"/><text fill="#000000" font-family="Liberation Sans" font-size="10" lengthAdjust="spacing" textLength="173.3984" x="409.7871" y="275.6152">5. register(username, email, password)</text><polygon fill="#181818" points="823.9629,302.3906,833.9629,306.3906,823.9629,310.3906,827.9629,306.3906" style="stroke:#181818;stroke-width:1;"/><line style="stroke:#181818;stroke-width:1;" x1="600.1855" x2="829.9629" y1="306.3906" y2="306.3906"/><text fill="#000000" font-family="Liberation Sans" font-size="10" lengthAdjust="spacing" textLength="142.2998" x="607.1855" y="302.1934">6. get_by_username(username)</text><polygon fill="#181818" points="1029.418,328.9688,1039.418,332.9688,1029.418,336.9688,1033.418,332.9688" style="stroke:#181818;stroke-width:1;"/><line style="stroke:#181818;stroke-width:1;" x1="835.9629" x2="1035.418" y1="332.9688" y2="332.9688"/><text fill="#000000" font-family="Liberation Sans" font-size="10" lengthAdjust="spacing" textLength="181.4551" x="842.9629" y="328.7715">7. SELECT users WHERE username = ?</text><polygon fill="#181818" points="846.9629,355.5469,836.9629,359.5469,846.9629,363.5469,842.9629,359.5469" style="stroke:#181818;stroke-width:1;"/><line style="stroke:#181818;stroke-width:1;stroke-dasharray:2.0,2.0;" x1="840.9629" x2="1040.418" y1="359.5469" y2="359.5469"/><text fill="#000000" font-family="Liberation Sans" font-size="10" lengthAdjust="spacing" textLength="35.5713" x="852.9629" y="355.3496">8. result</text><path d="M10,374.5469 L66.6699,374.5469 L66.6699,379.125 L56.6699,389.125 L10,389.125 L10,374.5469 " fill="#EEEEEE" style="stroke:#000000;stroke-width:1.5;"/><rect fill="none" height="541.4609" style="stroke:#000000;stroke-width:1.5;" width="1081.6543" x="10" y="374.5469"/><text fill="#000000" font-family="Liberation Sans" font-size="10" font-weight="bold" lengthAdjust="spacing" textLength="11.6699" x="25" y="385.9277">alt</text><text fill="#000000" font-family="Liberation Sans" font-size="10" font-weight="bold" lengthAdjust="spacing" textLength="120.6104" x="81.6699" y="386.9277">[username already taken]</text><polygon fill="#181818" points="413.7871,403.7031,403.7871,407.7031,413.7871,411.7031,409.7871,407.7031" style="stroke:#181818;stroke-width:1;"/><line style="stroke:#181818;stroke-width:1;stroke-dasharray:2.0,2.0;" x1="407.7871" x2="599.1855" y1="407.7031" y2="407.7031"/><text fill="#000000" font-family="Liberation Sans" font-size="10" lengthAdjust="spacing" textLength="70.0244" x="419.7871" y="403.5059">raise HTTP 409</text><polygon fill="#181818" points="216.3887,430.2813,206.3887,434.2813,216.3887,438.2813,212.3887,434.2813" style="stroke:#181818;stroke-width:1;"/><line style="stroke:#181818;stroke-width:1;stroke-dasharray:2.0,2.0;" x1="210.3887" x2="401.7871" y1="434.2813" y2="434.2813"/><text fill="#000000" font-family="Liberation Sans" font-size="10" lengthAdjust="spacing" textLength="52.8076" x="222.3887" y="430.084">409 Conflict</text><polygon fill="#181818" points="55.1182,456.8594,45.1182,460.8594,55.1182,464.8594,51.1182,460.8594" style="stroke:#181818;stroke-width:1;"/><line style="stroke:#181818;stroke-width:1;stroke-dasharray:2.0,2.0;" x1="49.1182" x2="204.3887" y1="460.8594" y2="460.8594"/><text fill="#000000" font-family="Liberation Sans" font-size="10" lengthAdjust="spacing" textLength="116.0449" x="61.1182" y="456.6621">"Username already taken"</text><line style="stroke:#000000;stroke-width:1;stroke-dasharray:2.0,2.0;" x1="10" x2="1091.6543" y1="469.8594" y2="469.8594"/><text fill="#000000" font-family="Liberation Sans" font-size="10" font-weight="bold" lengthAdjust="spacing" textLength="98.9355" x="15" y="480.2402">[username available]</text><polygon fill="#181818" points="823.9629,498.0156,833.9629,502.0156,823.9629,506.0156,827.9629,502.0156" style="stroke:#181818;stroke-width:1;"/><line style="stroke:#181818;stroke-width:1;" x1="600.1855" x2="829.9629" y1="502.0156" y2="502.0156"/><text fill="#000000" font-family="Liberation Sans" font-size="10" lengthAdjust="spacing" textLength="101.1572" x="607.1855" y="497.8184">9. get_by_email(email)</text><polygon fill="#181818" points="1029.418,524.5938,1039.418,528.5938,1029.418,532.5938,1033.418,528.5938" style="stroke:#181818;stroke-width:1;"/><line style="stroke:#181818;stroke-width:1;" x1="835.9629" x2="1035.418" y1="528.5938" y2="528.5938"/><text fill="#000000" font-family="Liberation Sans" font-size="10" lengthAdjust="spacing" textLength="166.4453" x="842.9629" y="524.3965">10. SELECT users WHERE email = ?</text><polygon fill="#181818" points="846.9629,551.1719,836.9629,555.1719,846.9629,559.1719,842.9629,555.1719" style="stroke:#181818;stroke-width:1;"/><line style="stroke:#181818;stroke-width:1;stroke-dasharray:2.0,2.0;" x1="840.9629" x2="1040.418" y1="555.1719" y2="555.1719"/><text fill="#000000" font-family="Liberation Sans" font-size="10" lengthAdjust="spacing" textLength="41.1328" x="852.9629" y="550.9746">11. result</text><path d="M20,570.1719 L76.6699,570.1719 L76.6699,574.75 L66.6699,584.75 L20,584.75 L20,570.1719 " fill="#EEEEEE" style="stroke:#000000;stroke-width:1.5;"/><rect fill="none" height="338.8359" style="stroke:#000000;stroke-width:1.5;" width="1061.6543" x="20" y="570.1719"/><text fill="#000000" font-family="Liberation Sans" font-size="10" font-weight="bold" lengthAdjust="spacing" textLength="11.6699" x="35" y="581.5527">alt</text><text fill="#000000" font-family="Liberation Sans" font-size="10" font-weight="bold" lengthAdjust="spacing" textLength="121.167" x="91.6699" y="582.5527">[email already registered]</text><polygon fill="#181818" points="413.7871,599.3281,403.7871,603.3281,413.7871,607.3281,409.7871,603.3281" style="stroke:#181818;stroke-width:1;"/><line style="stroke:#181818;stroke-width:1;stroke-dasharray:2.0,2.0;" x1="407.7871" x2="599.1855" y1="603.3281" y2="603.3281"/><text fill="#000000" font-family="Liberation Sans" font-size="10" lengthAdjust="spacing" textLength="70.0244" x="419.7871" y="599.1309">raise HTTP 409</text><polygon fill="#181818" points="216.3887,625.9063,206.3887,629.9063,216.3887,633.9063,212.3887,629.9063" style="stroke:#181818;stroke-width:1;"/><line style="stroke:#181818;stroke-width:1;stroke-dasharray:2.0,2.0;" x1="210.3887" x2="401.7871" y1="629.9063" y2="629.9063"/><text fill="#000000" font-family="Liberation Sans" font-size="10" lengthAdjust="spacing" textLength="52.8076" x="222.3887" y="625.709">409 Conflict</text><polygon fill="#181818" points="55.1182,652.4844,45.1182,656.4844,55.1182,660.4844,51.1182,656.4844" style="stroke:#181818;stroke-width:1;"/><line style="stroke:#181818;stroke-width:1;stroke-dasharray:2.0,2.0;" x1="49.1182" x2="204.3887" y1="656.4844" y2="656.4844"/><text fill="#000000" font-family="Liberation Sans" font-size="10" lengthAdjust="spacing" textLength="114.9268" x="61.1182" y="652.2871">"Email already registered"</text><line style="stroke:#000000;stroke-width:1;stroke-dasharray:2.0,2.0;" x1="20" x2="1081.6543" y1="665.4844" y2="665.4844"/><text fill="#000000" font-family="Liberation Sans" font-size="10" font-weight="bold" lengthAdjust="spacing" textLength="77.2607" x="25" y="675.8652">[email available]</text><path d="M528,684.0625 L528,705.0625 L671,705.0625 L671,694.0625 L661,684.0625 L528,684.0625 " fill="#FFFDE7" style="stroke:#AAAAAA;stroke-width:0.5;"/><path d="M661,684.0625 L661,694.0625 L671,694.0625 L661,684.0625 " fill="#FFFDE7" style="stroke:#AAAAAA;stroke-width:0.5;"/><text fill="#000000" font-family="Liberation Sans" font-size="9" lengthAdjust="spacing" textLength="122.5547" x="534" y="698.4053">12. Hash password with bcrypt</text><polygon fill="#181818" points="823.9629,724.9609,833.9629,728.9609,823.9629,732.9609,827.9629,728.9609" style="stroke:#181818;stroke-width:1;"/><line style="stroke:#181818;stroke-width:1;" x1="600.1855" x2="829.9629" y1="728.9609" y2="728.9609"/><text fill="#000000" font-family="Liberation Sans" font-size="10" lengthAdjust="spacing" textLength="211.7773" x="607.1855" y="724.7637">13. create(username, email, hashed_password)</text><polygon fill="#181818" points="1029.418,751.5391,1039.418,755.5391,1029.418,759.5391,1033.418,755.5391" style="stroke:#181818;stroke-width:1;"/><line style="stroke:#181818;stroke-width:1;" x1="835.9629" x2="1035.418" y1="755.5391" y2="755.5391"/><text fill="#000000" font-family="Liberation Sans" font-size="10" lengthAdjust="spacing" textLength="107.2461" x="842.9629" y="751.3418">14. INSERT INTO users</text><polygon fill="#181818" points="846.9629,778.1172,836.9629,782.1172,846.9629,786.1172,842.9629,782.1172" style="stroke:#181818;stroke-width:1;"/><line style="stroke:#181818;stroke-width:1;stroke-dasharray:2.0,2.0;" x1="840.9629" x2="1040.418" y1="782.1172" y2="782.1172"/><text fill="#000000" font-family="Liberation Sans" font-size="10" lengthAdjust="spacing" textLength="56.6846" x="852.9629" y="777.9199">15. User row</text><polygon fill="#181818" points="611.1855,804.6953,601.1855,808.6953,611.1855,812.6953,607.1855,808.6953" style="stroke:#181818;stroke-width:1;"/><line style="stroke:#181818;stroke-width:1;stroke-dasharray:2.0,2.0;" x1="605.1855" x2="834.9629" y1="808.6953" y2="808.6953"/><text fill="#000000" font-family="Liberation Sans" font-size="10" lengthAdjust="spacing" textLength="93.3643" x="617.1855" y="804.498">16. User ORM object</text><polygon fill="#181818" points="413.7871,831.2734,403.7871,835.2734,413.7871,839.2734,409.7871,835.2734" style="stroke:#181818;stroke-width:1;"/><line style="stroke:#181818;stroke-width:1;stroke-dasharray:2.0,2.0;" x1="407.7871" x2="599.1855" y1="835.2734" y2="835.2734"/><text fill="#000000" font-family="Liberation Sans" font-size="10" lengthAdjust="spacing" textLength="70.0293" x="419.7871" y="831.0762">17. UserRecord</text><polygon fill="#181818" points="216.3887,857.8516,206.3887,861.8516,216.3887,865.8516,212.3887,861.8516" style="stroke:#181818;stroke-width:1;"/><line style="stroke:#181818;stroke-width:1;stroke-dasharray:2.0,2.0;" x1="210.3887" x2="401.7871" y1="861.8516" y2="861.8516"/><text fill="#000000" font-family="Liberation Sans" font-size="10" lengthAdjust="spacing" textLength="130.0586" x="222.3887" y="857.6543">18. 201 Created (user JSON)</text><polygon fill="#181818" points="55.1182,897.0078,45.1182,901.0078,55.1182,905.0078,51.1182,901.0078" style="stroke:#181818;stroke-width:1;"/><line style="stroke:#181818;stroke-width:1;stroke-dasharray:2.0,2.0;" x1="49.1182" x2="204.3887" y1="901.0078" y2="901.0078"/><text fill="#000000" font-family="Liberation Sans" font-size="10" lengthAdjust="spacing" textLength="80.5957" x="61.1182" y="884.2324">19. Show success</text><text fill="#000000" font-family="Liberation Sans" font-size="10" lengthAdjust="spacing" textLength="72.2607" x="72.2314" y="896.8105">Redirect to login</text><!--SRC=[ZLHjRY974FtVfoYnVsp9ninYCBQqYNRn82VosWv3b3yhMJqp1NJSdYRT3OX4EK0Eaelb9AdkdYzilBj8W6RwLRrNhwhQF8bYnJL_XXpdV2tjH1NsZZyZt8eKDRT25P3mmZ1p29c8Fn6YNklGB7ckjg9Om9nBWwsJb6TF2wtMHJvMKcdOBeLjdnlyOur5Xf_H6Bx0Zr8i2f0ujwm5ebyhCh7YXOM_6C0dfNFK8U6xNcym_DXpRrzGlRiUngF91PquqJMwtnjLxnAxamYfaZdxkqN7CqlGLqIZJ-U3g7-8Q3A8XzVzVQ8Q_HMYd5kUSeElkGRyWlVv8QvuEEbTZ_Qv-dp08xwNkb3sG5hkFmTBc4okuzeNr-1BoiU25U7J-TMWxfGFtC2Q7bcxDPs9fc0iyau0pCl7VT2ONcebfSj5eCngkGz8K6z4XfsIncoo_VCfhfGHf6ld4sXwPBMJJkU3CdQXCVdbrWFob36drUi-_G5gNN05KHScGafAiX36bfC_L_hvIq7W8nTMq5wS03vp8Kze4etPagF7Z7c7rORordK2lE_2M0eixAaHESA6Iv7xf5VCqrS9uRz__eK-P4kkpGar2yoAPsW2o7Dv5To6DnMj3nk5CEOgS28OgmjorJb3gR9-5nxkancSRQ8plhRBir0YoJtwERc_es7CTtjL-4O0d5FSBYUZHGQkuMEDtBOh2OgEZAj2hoMIVe9HXbCiI7E6P4uZpQkfZATM0aaRTA4IypM7FReATLscq64N5cWVqzrZ5LXdE6OUKmNaAJYkYouayMqydddh3Vns4q_ZfWqVu4VcaJwCuagUaPDewBwZ5P2smND9TkGxiFm9dHDEemihJTTSq0pUp6OFSDwxP6Kp7A0rStG2j0HpAJBNtgPv1FDpUXLMxJLXXo7ThYqr6xACfn9B9I_TkgpTykOU-TzZLfw_S2hg7RGg3AFpgKI-S2gA6gjeNyci4549hpgDkH-SRndsNPQzOLhy1d67GhnnfRAMQm3D0hYB9fGNqHhVSBDizcuhx1BIJEzMWRyUyAgcjkqHxLxcr-RrU2yfBUQFpPIx13wktGfQmf_kadWwex_PVUY7Htf0sttQ9JSheDMsbOe0vQv5mn9mF_qCAlqTImE3vgOHqKN0JJ4ZMMys8gB5UD-B8DmAURWXmLqens_s9Q8nJ9Pg2sQTqHrd_DKAKyo59ZLW5KYr46wRt1tglly3]--></g></svg>