<svg xmlns="http://www.w3.org/2000/svg" xmlns:xlink="http://www.w3.org/1999/xlink" contentStyleType="text/css" height="644px" preserveAspectRatio="none" style="width:914px;height:644px;background:#FFFFFF;" version="1.1" viewBox="0 0 914 644" width="914px" zoomAndPan="magnify"><defs/><g><line style="stroke:#181818;stroke-width:0.5;stroke-dasharray:5.0,5.0;" x1="19" x2="19" y1="77.5781" y2="567.5313"/><line style="stroke:#181818;stroke-width:0.5;stroke-dasharray:5.0,5.0;" x1="204.7798" x2="204.7798" y1="77.5781" y2="567.5313"/><line style="stroke:#181818;stroke-width:0.5;stroke-dasharray:5.0,5.0;" x1="363.3335" x2="363.3335" y1="77.5781" y2="567.5313"/><line style="stroke:#181818;stroke-width:0.5;stroke-dasharray:5.0,5.0;" x1="530.8281" x2="530.8281" y1="77.5781" y2="567.5313"/><line style="stroke:#181818;stroke-width:0.5;stroke-dasharray:5.0,5.0;" x1="712.7954" x2="712.7954" y1="77.5781" y2="567.5313"/><line style="stroke:#181818;stroke-width:0.5;stroke-dasharray:5.0,5.0;" x1="878.9697" x2="878.9697" y1="77.5781" y2="567.5313"/><text fill="#8B4513" font-family="Liberation Sans" font-size="10" font-weight="bold" lengthAdjust="spacing" textLength="22.2363" x="5" y="75.3809">User</text><ellipse cx="19.1182" cy="13.5" fill="#F5E6D3" rx="8" ry="8" style="stroke:#8B4513;stroke-width:0.5;"/><path d="M19.1182,21.5 L19.1182,48.5 M6.1182,29.5 L32.1182,29.5 M19.1182,48.5 L6.1182,63.5 M19.1182,48.5 L32.1182,63.5 " fill="none" style="stroke:#8B4513;stroke-width:0.5;"/><text fill="#8B4513" font-family="Liberation Sans" font-size="10" font-weight="bold" lengthAdjust="spacing" textLength="22.2363" x="5" y="576.9121">User</text><ellipse cx="19.1182" cy="587.6094" fill="#F5E6D3" rx="8" ry="8" style="stroke:#8B4513;stroke-width:0.5;"/><path d="M19.1182,595.6094 L19.1182,622.6094 M6.1182,603.6094 L32.1182,603.6094 M19.1182,622.6094 L6.1182,637.6094 M19.1182,622.6094 L32.1182,637.6094 " fill="none" style="stroke:#8B4513;stroke-width:0.5;"/><rect fill="#D6E8F7" height="26.5781" rx="2.5" ry="2.5" style="stroke:#0056A0;stroke-width:0.5;" width="57.3252" x="176.7798" y="50"/><text fill="#003087" font-family="Liberation Sans" font-size="10" font-weight="bold" lengthAdjust="spacing" textLength="43.3252" x="183.7798" y="67.3809">Frontend</text><rect fill="#D6E8F7" height="26.5781" rx="2.5" ry="2.5" style="stroke:#0056A0;stroke-width:0.5;" width="57.3252" x="176.7798" y="566.5313"/><text fill="#003087" font-family="Liberation Sans" font-size="10" font-weight="bold" lengthAdjust="spacing" textLength="43.3252" x="183.7798" y="583.9121">Frontend</text><rect fill="#D6E8F7" height="26.5781" rx="2.5" ry="2.5" style="stroke:#0056A0;stroke-width:0.5;" width="61.7783" x="333.3335" y="50"/><text fill="#003087" font-family="Liberation Sans" font-size="10" font-weight="bold" lengthAdjust="spacing" textLength="47.7783" x="340.3335" y="67.3809">Controller</text><rect fill="#D6E8F7" height="26.5781" rx="2.5" ry="2.5" style="stroke:#0056A0;stroke-width:0.5;" width="61.7783" x="333.3335" y="566.5313"/><text fill="#003087" font-family="Liberation Sans" font-size="10" font-weight="bold" lengthAdjust="spacing" textLength="47.7783" x="340.3335" y="583.9121">Controller</text><rect fill="#D6E8F7" height="26.5781" rx="2.5" ry="2.5" style="stroke:#0056A0;stroke-width:0.5;" width="49.5859" x="506.8281" y="50"/><text fill="#003087" font-family="Liberation Sans" font-size="10" font-weight="bold" lengthAdjust="spacing" textLength="35.5859" x="513.8281" y="67.3809">Service</text><rect fill="#D6E8F7" height="26.5781" rx="2.5" ry="2.5" style="stroke:#0056A0;stroke-width:0.5;" width="49.5859" x="506.8281" y="566.5313"/><text fill="#003087" font-family="Liberation Sans" font-size="10" font-weight="bold" lengthAdjust="spacing" textLength="35.5859" x="513.8281" y="583.9121">Service</text><rect fill="#D6E8F7" height="26.5781" rx="2.5" ry="2.5" style="stroke:#0056A0;stroke-width:0.5;" width="66.2314" x="679.7954" y="50"/><text fill="#003087" font-family="Liberation Sans" font-size="10" font-weight="bold" lengthAdjust="spacing" textLength="52.2314" x="686.7954" y="67.3809">Repository</text><rect fill="#D6E8F7" height="26.5781" rx="2.5" ry="2.5" style="stroke:#0056A0;stroke-width:0.5;" width="66.2314" x="679.7954" y="566.5313"/><text fill="#003087" font-family="Liberation Sans" font-size="10" font-weight="bold" lengthAdjust="spacing" textLength="52.2314" x="686.7954" y="583.9121">Repository</text><text fill="#3A5A1A" font-family="Liberation Sans" font-size="10" lengthAdjust="spacing" textLength="54.4727" x="848.9697" y="75.3809">PostgreSQL</text><path d="M861.2061,29 C861.2061,19 879.2061,19 879.2061,19 C879.2061,19 897.2061,19 897.2061,29 L897.2061,55 C897.2061,65 879.2061,65 879.2061,65 C879.2061,65 861.2061,65 861.2061,55 L861.2061,29 " fill="#E6F0D8" style="stroke:#5A7A3A;stroke-width:1.5;"/><path d="M861.2061,29 C861.2061,39 879.2061,39 879.2061,39 C879.2061,39 897.2061,39 897.2061,29 " fill="none" style="stroke:#5A7A3A;stroke-width:1.5;"/><text fill="#3A5A1A" font-family="Liberation Sans" font-size="10" lengthAdjust="spacing" textLength="54.4727" x="848.9697" y="576.9121">PostgreSQL</text><path d="M861.2061,589.1094 C861.2061,579.1094 879.2061,579.1094 879.2061,579.1094 C879.2061,579.1094 897.2061,579.1094 897.2061,589.1094 L897.2061,615.1094 C897.2061,625.1094 879.2061,625.1094 879.2061,625.1094 C879.2061,625.1094 861.2061,625.1094 861.2061,615.1094 L861.2061,589.1094 " fill="#E6F0D8" style="stroke:#5A7A3A;stroke-width:1.5;"/><path d="M861.2061,589.1094 C861.2061,599.1094 879.2061,599.1094 879.2061,599.1094 C879.2061,599.1094 897.2061,599.1094 897.2061,589.1094 " fill="none" style="stroke:#5A7A3A;stroke-width:1.5;"/><polygon fill="#333333" points="193.4424,102.1563,203.4424,106.1563,193.4424,110.1563,197.4424,106.1563" style="stroke:#333333;stroke-width:1;"/><line style="stroke:#333333;stroke-width:1;" x1="19.1182" x2="199.4424" y1="106.1563" y2="106.1563"/><text fill="#444444" font-family="Liberation Sans" font-size="10" lengthAdjust="spacing" textLength="112.8174" x="26.1182" y="101.959">1. Submit simulation form</text><polygon fill="#333333" points="352.2227,141.3125,362.2227,145.3125,352.2227,149.3125,356.2227,145.3125" style="stroke:#333333;stroke-width:1;"/><line style="stroke:#333333;stroke-width:1;" x1="205.4424" x2="358.2227" y1="145.3125" y2="145.3125"/><text fill="#444444" font-family="Liberation Sans" font-size="10" lengthAdjust="spacing" textLength="107.2607" x="212.4424" y="128.5371">2. POST /v1/simulations</text><text fill="#444444" font-family="Liberation Sans" font-size="10" lengthAdjust="spacing" textLength="126.4453" x="220.7773" y="141.1152">(JSON body + Bearer token)</text><path d="M285,158.3125 L285,190.3125 L442,190.3125 L442,168.3125 L432,158.3125 L285,158.3125 " fill="#FFFDE7" style="stroke:#AAAAAA;stroke-width:0.5;"/><path d="M432,158.3125 L432,168.3125 L442,168.3125 L432,158.3125 " fill="#FFFDE7" style="stroke:#AAAAAA;stroke-width:0.5;"/><text fill="#000000" font-family="Liberation Sans" font-size="9" lengthAdjust="spacing" textLength="63.5229" x="291" y="172.6553">3. Validate JWT</text><text fill="#000000" font-family="Liberation Sans" font-size="9" lengthAdjust="spacing" textLength="129.0586" x="298.5015" y="183.9756">Parse SimulationCreate schema</text><polygon fill="#333333" points="519.6211,210.5313,529.6211,214.5313,519.6211,218.5313,523.6211,214.5313" style="stroke:#333333;stroke-width:1;"/><line style="stroke:#333333;stroke-width:1;" x1="364.2227" x2="525.6211" y1="214.5313" y2="214.5313"/><text fill="#444444" font-family="Liberation Sans" font-size="10" lengthAdjust="spacing" textLength="124.502" x="371.2227" y="210.334">4. service.run(data, user_id)</text><polygon fill="#333333" points="700.9111,237.1094,710.9111,241.1094,700.9111,245.1094,704.9111,241.1094" style="stroke:#333333;stroke-width:1;"/><line style="stroke:#333333;stroke-width:1;" x1="531.6211" x2="706.9111" y1="241.1094" y2="241.1094"/><text fill="#444444" font-family="Liberation Sans" font-size="10" lengthAdjust="spacing" textLength="157.29" x="538.6211" y="236.9121">5. matrix_repo.get_by_id(matrix_id)</text><polygon fill="#333333" points="867.2061,263.6875,877.2061,267.6875,867.2061,271.6875,871.2061,267.6875" style="stroke:#333333;stroke-width:1;"/><line style="stroke:#333333;stroke-width:1;" x1="712.9111" x2="873.2061" y1="267.6875" y2="267.6875"/><text fill="#444444" font-family="Liberation Sans" font-size="10" lengthAdjust="spacing" textLength="142.2949" x="719.9111" y="263.4902">6. SELECT population_matrices</text><polygon fill="#333333" points="723.9111,290.2656,713.9111,294.2656,723.9111,298.2656,719.9111,294.2656" style="stroke:#333333;stroke-width:1;"/><line style="stroke:#333333;stroke-width:1;stroke-dasharray:2.0,2.0;" x1="717.9111" x2="878.2061" y1="294.2656" y2="294.2656"/><text fill="#444444" font-family="Liberation Sans" font-size="10" lengthAdjust="spacing" textLength="53.3398" x="729.9111" y="290.0684">7. ORM row</text><polygon fill="#333333" points="542.6211,316.8438,532.6211,320.8438,542.6211,324.8438,538.6211,320.8438" style="stroke:#333333;stroke-width:1;"/><line style="stroke:#333333;stroke-width:1;stroke-dasharray:2.0,2.0;" x1="536.6211" x2="711.9111" y1="320.8438" y2="320.8438"/><text fill="#444444" font-family="Liberation Sans" font-size="10" lengthAdjust="spacing" textLength="115.0635" x="548.6211" y="316.6465">8. PopulationMatrix object</text><path d="M472,333.8438 L472,365.8438 L590,365.8438 L590,343.8438 L580,333.8438 L472,333.8438 " fill="#FFFDE7" style="stroke:#AAAAAA;stroke-width:0.5;"/><path d="M580,333.8438 L580,343.8438 L590,343.8438 L580,333.8438 " fill="#FFFDE7" style="stroke:#AAAAAA;stroke-width:0.5;"/><text fill="#000000" font-family="Liberation Sans" font-size="9" lengthAdjust="spacing" textLength="97.6685" x="478" y="348.1865">9. A @ v loop &#8212; NumPy</text><text fill="#000000" font-family="Liberation Sans" font-size="9" lengthAdjust="spacing" textLength="74.0171" x="485.5015" y="359.5068">(CPU-only, no I/O)</text><polygon fill="#333333" points="700.9111,386.0625,710.9111,390.0625,700.9111,394.0625,704.9111,390.0625" style="stroke:#333333;stroke-width:1;"/><line style="stroke:#333333;stroke-width:1;" x1="531.6211" x2="706.9111" y1="390.0625" y2="390.0625"/><text fill="#444444" font-family="Liberation Sans" font-size="10" lengthAdjust="spacing" textLength="103.374" x="538.6211" y="385.8652">10. sim_repo.create(...)</text><polygon fill="#333333" points="867.2061,412.6406,877.2061,416.6406,867.2061,420.6406,871.2061,416.6406" style="stroke:#333333;stroke-width:1;"/><line style="stroke:#333333;stroke-width:1;" x1="712.9111" x2="873.2061" y1="416.6406" y2="416.6406"/><text fill="#444444" font-family="Liberation Sans" font-size="10" lengthAdjust="spacing" textLength="126.1621" x="719.9111" y="412.4434">11. INSERT simulation_runs</text><polygon fill="#333333" points="723.9111,439.2188,713.9111,443.2188,723.9111,447.2188,719.9111,443.2188" style="stroke:#333333;stroke-width:1;"/><line style="stroke:#333333;stroke-width:1;stroke-dasharray:2.0,2.0;" x1="717.9111" x2="878.2061" y1="443.2188" y2="443.2188"/><text fill="#444444" font-family="Liberation Sans" font-size="10" lengthAdjust="spacing" textLength="100.6055" x="729.9111" y="439.0215">12. SimulationRun row</text><polygon fill="#333333" points="542.6211,465.7969,532.6211,469.7969,542.6211,473.7969,538.6211,469.7969" style="stroke:#333333;stroke-width:1;"/><line style="stroke:#333333;stroke-width:1;stroke-dasharray:2.0,2.0;" x1="536.6211" x2="711.9111" y1="469.7969" y2="469.7969"/><text fill="#444444" font-family="Liberation Sans" font-size="10" lengthAdjust="spacing" textLength="69.4727" x="548.6211" y="465.5996">13. ORM object</text><polygon fill="#333333" points="375.2227,492.375,365.2227,496.375,375.2227,500.375,371.2227,496.375" style="stroke:#333333;stroke-width:1;"/><line style="stroke:#333333;stroke-width:1;stroke-dasharray:2.0,2.0;" x1="369.2227" x2="530.6211" y1="496.375" y2="496.375"/><text fill="#444444" font-family="Liberation Sans" font-size="10" lengthAdjust="spacing" textLength="143.3984" x="381.2227" y="492.1777">14. SimulationRecord (Pydantic)</text><polygon fill="#333333" points="216.4424,518.9531,206.4424,522.9531,216.4424,526.9531,212.4424,522.9531" style="stroke:#333333;stroke-width:1;"/><line style="stroke:#333333;stroke-width:1;stroke-dasharray:2.0,2.0;" x1="210.4424" x2="363.2227" y1="522.9531" y2="522.9531"/><text fill="#444444" font-family="Liberation Sans" font-size="10" lengthAdjust="spacing" textLength="91.6992" x="222.4424" y="518.7559">15. HTTP 201 JSON</text><polygon fill="#333333" points="30.1182,545.5313,20.1182,549.5313,30.1182,553.5313,26.1182,549.5313" style="stroke:#333333;stroke-width:1;"/><line style="stroke:#333333;stroke-width:1;stroke-dasharray:2.0,2.0;" x1="24.1182" x2="204.4424" y1="549.5313" y2="549.5313"/><text fill="#444444" font-family="Liberation Sans" font-size="10" lengthAdjust="spacing" textLength="162.3242" x="36.1182" y="545.334">16. Render population dynamics plot</text><!--SRC=[VLHDSzem4BthL-oG2qmJ1vUFa1mwJGXCaqc0Oj9UEiF8jY1gR8bACgdRwKn_H7zXVqbNDXWxeUZWm-xRVKzlLzPFNAoeeZ64R46Jo0obC2CQCxZZFbFKS2d0eq8JlG_fyHyCt6OfgHzfA9-vMCA2HfgLCZuDdfPA9YBioqWgU7xaffpNx5l2HC3kcTPqoIuZlXGGiOKX9H1-3G_uYWe3Fmd0bLGXKtd3esQpqxriskWBggFhxg0tFCEC5LsWMytUDkQPD6BWooWalyfyD328VSNKksfttDO-fc5dqBrkLPaAz26ca1hgKyrUatNe6MtHVMI3xh1vtQkIjMY7klJ5BPIIprdZBIWxrS9sTgg5GfezWcXszjv-EBmU59xQvJYt3NCNyrDxq4pLO7keXWG3f3pOsb1XEHDXRGjPR09LM1-3IaPHtWzXWL5H5U8njUO1gnLaUXrK4LEsafgZldJJH6605DEmYYTIcwLYtiUx3IJq2R6giwOdxw3G1t01hWDUuiVSWEPn4kLFQ25LJ0gKBR5QSrKNyDQ1oTYRmUdQFTqLwIy2i_LRRpp2VGbJU0DNZ2gaDVA9YGOXsNZa6YFPpG5Q3doY4KVr36u_pqZMVq8LNiGh-lOLitaTFBAO4gl7zY6aK6JbeK-mbTTsy75cFZeg4NNhpN4sjJaF6wH0sZ9hthQiuq1CZUBVvpRgB9cP-ocMr3THMrpWRN7eGy7PHHS7TuF-35PojH4-pme3fac1FC6wCkUP0-FfFU2wbreZfdoT7hfTzBpFj83qlxB0b1srYm9mxi0bl8SrH5AkuE_lFp1AuacQ6rllJnvEf8ZIOtGGRax7ZPAR_xN5RJfsCt9JWcmMTSTn3dZXuahTZBp1T5PQgJcEue0HBkxKRkJJH1psn6tbncrys8b7N7bJtNQbBGlmlm3rIHhYM-91exH3M5Xv5RWD7sQp2Rnjkc1NklGQ45gy9Wl5sKynWP7Tx25C1Orve64LIKF-0G00]--></g></svg>