<svg xmlns="http://www.w3.org/2000/svg" xmlns:xlink="http://www.w3.org/1999/xlink" contentStyleType="text/css" height="997px" preserveAspectRatio="none" style="width:1204px;height:997px;background:#FFFFFF;" version="1.1" viewBox="0 0 1204 997" width="1204px" zoomAndPan="magnify"><defs/><g><rect fill="none" height="373.25" style="stroke:#000000;stroke-width:1.5;" width="1187.8555" x="10" y="529.75"/><line style="stroke:#181818;stroke-width:0.5;stroke-dasharray:5.0,5.0;" x1="34" x2="34" y1="77.5781" y2="920"/><line style="stroke:#181818;stroke-width:0.5;stroke-dasharray:5.0,5.0;" x1="248.0903" x2="248.0903" y1="77.5781" y2="920"/><line style="stroke:#181818;stroke-width:0.5;stroke-dasharray:5.0,5.0;" x1="545.0669" x2="545.0669" y1="77.5781" y2="920"/><line style="stroke:#181818;stroke-width:0.5;stroke-dasharray:5.0,5.0;" x1="747.5713" x2="747.5713" y1="77.5781" y2="920"/><line style="stroke:#181818;stroke-width:0.5;stroke-dasharray:5.0,5.0;" x1="950.6567" x2="950.6567" y1="77.5781" y2="920"/><line style="stroke:#181818;stroke-width:0.5;stroke-dasharray:5.0,5.0;" x1="1157.3828" x2="1157.3828" y1="77.5781" y2="920"/><text fill="#8B4513" font-family="Liberation Sans" font-size="10" font-weight="bold" lengthAdjust="spacing" textLength="22.2363" x="20" y="75.3809">User</text><ellipse cx="34.1182" cy="13.5" fill="#F5E6D3" rx="8" ry="8" style="stroke:#8B4513;stroke-width:0.5;"/><path d="M34.1182,21.5 L34.1182,48.5 M21.1182,29.5 L47.1182,29.5 M34.1182,48.5 L21.1182,63.5 M34.1182,48.5 L47.1182,63.5 " fill="none" style="stroke:#8B4513;stroke-width:0.5;"/><text fill="#8B4513" font-family="Liberation Sans" font-size="10" font-weight="bold" lengthAdjust="spacing" textLength="22.2363" x="20" y="929.3809">User</text><ellipse cx="34.1182" cy="940.0781" fill="#F5E6D3" rx="8" ry="8" style="stroke:#8B4513;stroke-width:0.5;"/><path d="M34.1182,948.0781 L34.1182,975.0781 M21.1182,956.0781 L47.1182,956.0781 M34.1182,975.0781 L21.1182,990.0781 M34.1182,975.0781 L47.1182,990.0781 " fill="none" style="stroke:#8B4513;stroke-width:0.5;"/><rect fill="#D6E8F7" height="26.5781" rx="2.5" ry="2.5" style="stroke:#0056A0;stroke-width:0.5;" width="57.3252" x="220.0903" y="50"/><text fill="#003087" font-family="Liberation Sans" font-size="10" font-weight="bold" lengthAdjust="spacing" textLength="43.3252" x="227.0903" y="67.3809">Frontend</text><rect fill="#D6E8F7" height="26.5781" rx="2.5" ry="2.5" style="stroke:#0056A0;stroke-width:0.5;" width="57.3252" x="220.0903" y="919"/><text fill="#003087" font-family="Liberation Sans" font-size="10" font-weight="bold" lengthAdjust="spacing" textLength="43.3252" x="227.0903" y="936.3809">Frontend</text><rect fill="#D6E8F7" height="26.5781" rx="2.5" ry="2.5" style="stroke:#0056A0;stroke-width:0.5;" width="61.7783" x="515.0669" y="50"/><text fill="#003087" font-family="Liberation Sans" font-size="10" font-weight="bold" lengthAdjust="spacing" textLength="47.7783" x="522.0669" y="67.3809">Controller</text><rect fill="#D6E8F7" height="26.5781" rx="2.5" ry="2.5" style="stroke:#0056A0;stroke-width:0.5;" width="61.7783" x="515.0669" y="919"/><text fill="#003087" font-family="Liberation Sans" font-size="10" font-weight="bold" lengthAdjust="spacing" textLength="47.7783" x="522.0669" y="936.3809">Controller</text><rect fill="#D6E8F7" height="26.5781" rx="2.5" ry="2.5" style="stroke:#0056A0;stroke-width:0.5;" width="49.5859" x="723.5713" y="50"/><text fill="#003087" font-family="Liberation Sans" font-size="10" font-weight="bold" lengthAdjust="spacing" textLength="35.5859" x="730.5713" y="67.3809">Service</text><rect fill="#D6E8F7" height="26.5781" rx="2.5" ry="2.5" style="stroke:#0056A0;stroke-width:0.5;" width="49.5859" x="723.5713" y="919"/><text fill="#003087" font-family="Liberation Sans" font-size="10" font-weight="bold" lengthAdjust="spacing" textLength="35.5859" x="730.5713" y="936.3809">Service</text><rect fill="#D6E8F7" height="26.5781" rx="2.5" ry="2.5" style="stroke:#0056A0;stroke-width:0.5;" width="66.2314" x="917.6567" y="50"/><text fill="#003087" font-family="Liberation Sans" font-size="10" font-weight="bold" lengthAdjust="spacing" textLength="52.2314" x="924.6567" y="67.3809">Repository</text><rect fill="#D6E8F7" height="26.5781" rx="2.5" ry="2.5" style="stroke:#0056A0;stroke-width:0.5;" width="66.2314" x="917.6567" y="919"/><text fill="#003087" font-family="Liberation Sans" font-size="10" font-weight="bold" lengthAdjust="spacing" textLength="52.2314" x="924.6567" y="936.3809">Repository</text><text fill="#3A5A1A" font-family="Liberation Sans" font-size="10" lengthAdjust="spacing" textLength="54.4727" x="1127.3828" y="75.3809">PostgreSQL</text><path d="M1139.6191,29 C1139.6191,19 1157.6191,19 1157.6191,19 C1157.6191,19 1175.6191,19 1175.6191,29 L1175.6191,55 C1175.6191,65 1157.6191,65 1157.6191,65 C1157.6191,65 1139.6191,65 1139.6191,55 L1139.6191,29 " fill="#E6F0D8" style="stroke:#5A7A3A;stroke-width:1.5;"/><path d="M1139.6191,29 C1139.6191,39 1157.6191,39 1157.6191,39 C1157.6191,39 1175.6191,39 1175.6191,29 " fill="none" style="stroke:#5A7A3A;stroke-width:1.5;"/><text fill="#3A5A1A" font-family="Liberation Sans" font-size="10" lengthAdjust="spacing" textLength="54.4727" x="1127.3828" y="929.3809">PostgreSQL</text><path d="M1139.6191,941.5781 C1139.6191,931.5781 1157.6191,931.5781 1157.6191,931.5781 C1157.6191,931.5781 1175.6191,931.5781 1175.6191,941.5781 L1175.6191,967.5781 C1175.6191,977.5781 1157.6191,977.5781 1157.6191,977.5781 C1157.6191,977.5781 1139.6191,977.5781 1139.6191,967.5781 L1139.6191,941.5781 " fill="#E6F0D8" style="stroke:#5A7A3A;stroke-width:1.5;"/><path d="M1139.6191,941.5781 C1139.6191,951.5781 1157.6191,951.5781 1157.6191,951.5781 C1157.6191,951.5781 1175.6191,951.5781 1175.6191,941.5781 " fill="none" style="stroke:#5A7A3A;stroke-width:1.5;"/><polygon fill="#181818" points="236.7529,114.7344,246.7529,118.7344,236.7529,122.7344,240.7529,118.7344" style="stroke:#181818;stroke-width:1;"/><line style="stroke:#181818;stroke-width:1;" x1="34.1182" x2="242.7529" y1="118.7344" y2="118.7344"/><text fill="#000000" font-family="Liberation Sans" font-size="10" lengthAdjust="spacing" textLength="94.4824" x="41.1182" y="101.959">1. Enter search filters</text><text fill="#000000" font-family="Liberation Sans" font-size="10" lengthAdjust="spacing" textLength="179.5215" x="49.4531" y="114.5371">(species, kingdom, country, source type)</text><polygon fill="#181818" points="533.9561,153.8906,543.9561,157.8906,533.9561,161.8906,537.9561,157.8906" style="stroke:#181818;stroke-width:1;"/><line style="stroke:#181818;stroke-width:1;" x1="248.7529" x2="539.9561" y1="157.8906" y2="157.8906"/><text fill="#000000" font-family="Liberation Sans" font-size="10" lengthAdjust="spacing" textLength="88.3545" x="255.7529" y="141.1152">2. GET /v1/matrices</text><text fill="#000000" font-family="Liberation Sans" font-size="10" lengthAdjust="spacing" textLength="264.8682" x="264.0879" y="153.6934">?species=...&amp;kingdom=...&amp;source_type=...&amp;skip=0&amp;limit=50</text><path d="M463,170.8906 L463,213.8906 L627,213.8906 L627,180.8906 L617,170.8906 L463,170.8906 " fill="#FFFDE7" style="stroke:#AAAAAA;stroke-width:0.5;"/><path d="M617,170.8906 L617,180.8906 L627,180.8906 L617,170.8906 " fill="#FFFDE7" style="stroke:#AAAAAA;stroke-width:0.5;"/><text fill="#000000" font-family="Liberation Sans" font-size="9" lengthAdjust="spacing" textLength="143.0684" x="469" y="185.2334">3. Validate query params (Pydantic)</text><text fill="#000000" font-family="Liberation Sans" font-size="9" lengthAdjust="spacing" textLength="79.3301" x="476.5015" y="196.5537">limit &#8804; 200, skip &#8805; 0</text><text fill="#000000" font-family="Liberation Sans" font-size="9" lengthAdjust="spacing" textLength="136.0854" x="476.5015" y="207.874">No auth required (public endpoint)</text><polygon fill="#181818" points="736.3643,247.0078,746.3643,251.0078,736.3643,255.0078,740.3643,251.0078" style="stroke:#181818;stroke-width:1;"/><line style="stroke:#181818;stroke-width:1;" x1="545.9561" x2="742.3643" y1="251.0078" y2="251.0078"/><text fill="#000000" font-family="Liberation Sans" font-size="10" lengthAdjust="spacing" textLength="150.0537" x="552.9561" y="234.2324">4. list_matrices(species, kingdom,</text><text fill="#000000" font-family="Liberation Sans" font-size="10" lengthAdjust="spacing" textLength="170.0732" x="561.291" y="246.8105">country_code, source_type, skip, limit)</text><polygon fill="#181818" points="938.7725,286.1641,948.7725,290.1641,938.7725,294.1641,942.7725,290.1641" style="stroke:#181818;stroke-width:1;"/><line style="stroke:#181818;stroke-width:1;" x1="748.3643" x2="944.7725" y1="290.1641" y2="290.1641"/><text fill="#000000" font-family="Liberation Sans" font-size="10" lengthAdjust="spacing" textLength="106.709" x="755.3643" y="273.3887">5. list(species, kingdom,</text><text fill="#000000" font-family="Liberation Sans" font-size="10" lengthAdjust="spacing" textLength="170.0732" x="763.6992" y="285.9668">country_code, source_type, skip, limit)</text><polygon fill="#181818" points="1145.6191,350.4766,1155.6191,354.4766,1145.6191,358.4766,1149.6191,354.4766" style="stroke:#181818;stroke-width:1;"/><line style="stroke:#181818;stroke-width:1;" x1="950.7725" x2="1151.6191" y1="354.4766" y2="354.4766"/><text fill="#000000" font-family="Liberation Sans" font-size="10" lengthAdjust="spacing" textLength="142.2949" x="957.7725" y="312.5449">6. SELECT population_matrices</text><text fill="#000000" font-family="Liberation Sans" font-size="10" lengthAdjust="spacing" textLength="97.7881" x="966.1074" y="325.123">WHERE (ILIKE filters)</text><text fill="#000000" font-family="Liberation Sans" font-size="10" lengthAdjust="spacing" textLength="132.8271" x="966.1074" y="337.7012">ORDER BY created_at DESC</text><text fill="#000000" font-family="Liberation Sans" font-size="10" lengthAdjust="spacing" textLength="84.458" x="966.1074" y="350.2793">LIMIT ? OFFSET ?</text><polygon fill="#181818" points="961.7725,377.0547,951.7725,381.0547,961.7725,385.0547,957.7725,381.0547" style="stroke:#181818;stroke-width:1;"/><line style="stroke:#181818;stroke-width:1;stroke-dasharray:2.0,2.0;" x1="955.7725" x2="1156.6191" y1="381.0547" y2="381.0547"/><text fill="#000000" font-family="Liberation Sans" font-size="10" lengthAdjust="spacing" textLength="61.6895" x="967.7725" y="376.8574">7. List of rows</text><path d="M852,394.0547 L852,437.0547 L1047,437.0547 L1047,404.0547 L1037,394.0547 L852,394.0547 " fill="#FFFDE7" style="stroke:#AAAAAA;stroke-width:0.5;"/><path d="M1037,394.0547 L1037,404.0547 L1047,404.0547 L1037,394.0547 " fill="#FFFDE7" style="stroke:#AAAAAA;stroke-width:0.5;"/><text fill="#000000" font-family="Liberation Sans" font-size="9" lengthAdjust="spacing" textLength="174.5552" x="858" y="408.3975">Returns MatrixSummaryRecord projections:</text><text fill="#000000" font-family="Liberation Sans" font-size="9" lengthAdjust="spacing" textLength="152.0508" x="858" y="419.7178">no matrix_a / matrix_u / matrix_f fields</text><text fill="#000000" font-family="Liberation Sans" font-size="9" lengthAdjust="spacing" textLength="100.0283" x="858" y="431.0381">(lightweight for list views)</text><polygon fill="#181818" points="759.3643,457.5938,749.3643,461.5938,759.3643,465.5938,755.3643,461.5938" style="stroke:#181818;stroke-width:1;"/><line style="stroke:#181818;stroke-width:1;stroke-dasharray:2.0,2.0;" x1="753.3643" x2="949.7725" y1="461.5938" y2="461.5938"/><text fill="#000000" font-family="Liberation Sans" font-size="10" lengthAdjust="spacing" textLength="149.5215" x="765.3643" y="457.3965">8. List of PopulationMatrix objects</text><polygon fill="#181818" points="556.9561,484.1719,546.9561,488.1719,556.9561,492.1719,552.9561,488.1719" style="stroke:#181818;stroke-width:1;"/><line style="stroke:#181818;stroke-width:1;stroke-dasharray:2.0,2.0;" x1="550.9561" x2="747.3643" y1="488.1719" y2="488.1719"/><text fill="#000000" font-family="Liberation Sans" font-size="10" lengthAdjust="spacing" textLength="142.8174" x="562.9561" y="483.9746">9. List of MatrixSummaryRecord</text><polygon fill="#181818" points="259.7529,510.75,249.7529,514.75,259.7529,518.75,255.7529,514.75" style="stroke:#181818;stroke-width:1;"/><line style="stroke:#181818;stroke-width:1;stroke-dasharray:2.0,2.0;" x1="253.7529" x2="544.9561" y1="514.75" y2="514.75"/><text fill="#000000" font-family="Liberation Sans" font-size="10" lengthAdjust="spacing" textLength="88.374" x="265.7529" y="510.5527">10. 200 JSON array</text><path d="M10,529.75 L66.6699,529.75 L66.6699,534.3281 L56.6699,544.3281 L10,544.3281 L10,529.75 " fill="#EEEEEE" style="stroke:#000000;stroke-width:1.5;"/><rect fill="none" height="373.25" style="stroke:#000000;stroke-width:1.5;" width="1187.8555" x="10" y="529.75"/><text fill="#000000" font-family="Liberation Sans" font-size="10" font-weight="bold" lengthAdjust="spacing" textLength="11.6699" x="25" y="541.1309">alt</text><text fill="#000000" font-family="Liberation Sans" font-size="10" font-weight="bold" lengthAdjust="spacing" textLength="54.4482" x="81.6699" y="542.1309">[no results]</text><polygon fill="#181818" points="45.1182,558.9063,35.1182,562.9063,45.1182,566.9063,41.1182,562.9063" style="stroke:#181818;stroke-width:1;"/><line style="stroke:#181818;stroke-width:1;stroke-dasharray:2.0,2.0;" x1="39.1182" x2="247.7529" y1="562.9063" y2="562.9063"/><text fill="#000000" font-family="Liberation Sans" font-size="10" lengthAdjust="spacing" textLength="159.3945" x="51.1182" y="558.709">Show "No matrices found" message</text><line style="stroke:#000000;stroke-width:1;stroke-dasharray:2.0,2.0;" x1="10" x2="1197.8555" y1="571.9063" y2="571.9063"/><text fill="#000000" font-family="Liberation Sans" font-size="10" font-weight="bold" lengthAdjust="spacing" textLength="69.9951" x="15" y="582.2871">[results found]</text><polygon fill="#181818" points="45.1182,612.6406,35.1182,616.6406,45.1182,620.6406,41.1182,616.6406" style="stroke:#181818;stroke-width:1;"/><line style="stroke:#181818;stroke-width:1;stroke-dasharray:2.0,2.0;" x1="39.1182" x2="247.7529" y1="616.6406" y2="616.6406"/><text fill="#000000" font-family="Liberation Sans" font-size="10" lengthAdjust="spacing" textLength="106.1719" x="51.1182" y="599.8652">11. Render results table</text><text fill="#000000" font-family="Liberation Sans" font-size="10" lengthAdjust="spacing" textLength="179.5215" x="62.2314" y="612.4434">(species, kingdom, country, source type)</text><polygon fill="#181818" points="236.7529,639.2188,246.7529,643.2188,236.7529,647.2188,240.7529,643.2188" style="stroke:#181818;stroke-width:1;"/><line style="stroke:#181818;stroke-width:1;" x1="34.1182" x2="242.7529" y1="643.2188" y2="643.2188"/><text fill="#000000" font-family="Liberation Sans" font-size="10" lengthAdjust="spacing" textLength="109.4775" x="41.1182" y="639.0215">12. Click on a matrix row</text><polygon fill="#181818" points="533.9561,665.7969,543.9561,669.7969,533.9561,673.7969,537.9561,669.7969" style="stroke:#181818;stroke-width:1;"/><line style="stroke:#181818;stroke-width:1;" x1="248.7529" x2="539.9561" y1="669.7969" y2="669.7969"/><text fill="#000000" font-family="Liberation Sans" font-size="10" lengthAdjust="spacing" textLength="111.1572" x="255.7529" y="665.5996">13. GET /v1/matrices/{id}</text><polygon fill="#181818" points="736.3643,692.375,746.3643,696.375,736.3643,700.375,740.3643,696.375" style="stroke:#181818;stroke-width:1;"/><line style="stroke:#181818;stroke-width:1;" x1="545.9561" x2="742.3643" y1="696.375" y2="696.375"/><text fill="#000000" font-family="Liberation Sans" font-size="10" lengthAdjust="spacing" textLength="77.8076" x="552.9561" y="692.1777">14. get_matrix(id)</text><polygon fill="#181818" points="938.7725,718.9531,948.7725,722.9531,938.7725,726.9531,942.7725,722.9531" style="stroke:#181818;stroke-width:1;"/><line style="stroke:#181818;stroke-width:1;" x1="748.3643" x2="944.7725" y1="722.9531" y2="722.9531"/><text fill="#000000" font-family="Liberation Sans" font-size="10" lengthAdjust="spacing" textLength="74.4922" x="755.3643" y="718.7559">15. get_by_id(id)</text><polygon fill="#181818" points="1145.6191,745.5313,1155.6191,749.5313,1145.6191,753.5313,1149.6191,749.5313" style="stroke:#181818;stroke-width:1;"/><line style="stroke:#181818;stroke-width:1;" x1="950.7725" x2="1151.6191" y1="749.5313" y2="749.5313"/><text fill="#000000" font-family="Liberation Sans" font-size="10" lengthAdjust="spacing" textLength="182.8467" x="957.7725" y="745.334">16. SELECT (full row, including matrix_a)</text><polygon fill="#181818" points="961.7725,772.1094,951.7725,776.1094,961.7725,780.1094,957.7725,776.1094" style="stroke:#181818;stroke-width:1;"/><line style="stroke:#181818;stroke-width:1;stroke-dasharray:2.0,2.0;" x1="955.7725" x2="1156.6191" y1="776.1094" y2="776.1094"/><text fill="#000000" font-family="Liberation Sans" font-size="10" lengthAdjust="spacing" textLength="110.0537" x="967.7725" y="771.9121">17. PopulationMatrix row</text><polygon fill="#181818" points="759.3643,798.6875,749.3643,802.6875,759.3643,806.6875,755.3643,802.6875" style="stroke:#181818;stroke-width:1;"/><line style="stroke:#181818;stroke-width:1;stroke-dasharray:2.0,2.0;" x1="753.3643" x2="949.7725" y1="802.6875" y2="802.6875"/><text fill="#000000" font-family="Liberation Sans" font-size="10" lengthAdjust="spacing" textLength="69.4727" x="765.3643" y="798.4902">18. ORM object</text><polygon fill="#181818" points="556.9561,825.2656,546.9561,829.2656,556.9561,833.2656,552.9561,829.2656" style="stroke:#181818;stroke-width:1;"/><line style="stroke:#181818;stroke-width:1;stroke-dasharray:2.0,2.0;" x1="550.9561" x2="747.3643" y1="829.2656" y2="829.2656"/><text fill="#000000" font-family="Liberation Sans" font-size="10" lengthAdjust="spacing" textLength="125.0439" x="562.9561" y="825.0684">19. MatrixRecord (full detail)</text><polygon fill="#181818" points="259.7529,851.8438,249.7529,855.8438,259.7529,859.8438,255.7529,855.8438" style="stroke:#181818;stroke-width:1;"/><line style="stroke:#181818;stroke-width:1;stroke-dasharray:2.0,2.0;" x1="253.7529" x2="544.9561" y1="855.8438" y2="855.8438"/><text fill="#000000" font-family="Liberation Sans" font-size="10" lengthAdjust="spacing" textLength="62.8125" x="265.7529" y="851.6465">20. 200 JSON</text><polygon fill="#181818" points="45.1182,891,35.1182,895,45.1182,899,41.1182,895" style="stroke:#181818;stroke-width:1;"/><line style="stroke:#181818;stroke-width:1;stroke-dasharray:2.0,2.0;" x1="39.1182" x2="247.7529" y1="895" y2="895"/><text fill="#000000" font-family="Liberation Sans" font-size="10" lengthAdjust="spacing" textLength="98.3789" x="51.1182" y="878.2246">21. Show matrix detail</text><text fill="#000000" font-family="Liberation Sans" font-size="10" lengthAdjust="spacing" textLength="155.625" x="62.2314" y="890.8027">(structure, stage names, metadata)</text><!--SRC=[fLR_Rjis4FwVJt5mWS86N4MAwyGra0LDB7VPycjMjc7008EMQ9iBBQeaPSSh-W1zZ-x5zYGxah8j9-umOFv34CNZTz_TVNUqVkHvGHLTGCQcj1HcA7DpInSChlc4AMgup26XkIRwa6N2_sGGXRLDFQUPNF5y1bCgDAljJ6ZwE5EopBDBAQI2rPoR-hvc7qkMf-o6QKrdxBtWinm4cnfICyAduIalQ6xW4m6ua2fZoWE-2iFkoVlGVdtcwjNW9EuDJt77ajvQTyBUvbjYreB1H8gCVAwvewb1qnUEUXTlkr7daADXDpuPTFOTRQt_nL563PrGpLxwwj9Jsg67VCKdmt3Gs_VLeLqQqJteN9e3iDJz3eOm70xYRLviWTyX7l6fyB_6pvgfHhMW6afSadff6aE5XrcUDRp1j5hk6rtYHoM5i5Xeb1ebzWqIffOyPOtAZLwc-_iZLaZDaTVQ0IXSacqcBSzxgSrCiUIdQsUGJGYnN1tlDz_1bXVq8GeWndU5EgGgdSEK2rpfttCqRUg2fPpfDc1MPvbSj275Z1crReEMfKePc7N1McIBPy5jFCvJ7uu3-10_mD4oEbfGep0c3tnU0Py5GV2wmdRl7dLiKVtwaHTduMl15zoSTKD2N5Nb4lcwj05q0lY52exXCy16KcjmvTVGl5zdc2sUjeXZup3WxozVuJWCaJyYu-el2FtshGHQcZacysF95SkWMPGJmLF0i0h9SzCYDa3hdn0NeeqLIsFZV1iWl3RZJP0l4-V2hf8tJcN6DXbqiNewRS-nHHogXRULHVYkX_-Vg0xCecOJLvoJ09BuEhvyW48MfN0pRxnNfb-_ZqSnDA-khtwCDy9ekPsxqI0UmSLla2g6cS_6rC0WJYxTvlNLpTK3dCFTS9XWzS-9S_W6NLVnd0OuPhK1EGKbLxfULQTbW14pfSert5WwJqcvM52r7h4KMnaA9VzWgMMh-sYQIt2adyOKZZQlvUvrYioPo3IQDd6spisAsITCiQrjLc79sKhNg-iJXNIhwlPsTE-tcVBCG4ui5rsL3CyuQVJXtUxCWHWg0Q5vlHF3m4eJVaZkRe4gHTSuVOIn0IgcyUQn8Umw3G-xdkv3CfShQDnMUS3YOMobdK4BVwKGXZVI1iFlVGCfmcammc-k4DuSfufWhgp_VHo0nwk7Py5n6bnYHpq2tgsqAeyLm1wPAeFMllDoUXnzujbdKisOMWD6s84pLZNWKvDdbiJpDegwtcYo7lEiiddU5D6kAvhJKWZBhmqyJqMPsTjz8pLxzhci8zJr2u7u-9vBAa9DtOrkAlbikUxq4w60F4AbUiycOuPoqTfcO5z1npK5VQF2nrXXfvSg_HvmKr-ZoXGRpquEWyA17FyHORaNQ6Jl5zSav1y0]--></g></svg>