<svg xmlns="http://www.w3.org/2000/svg" xmlns:xlink="http://www.w3.org/1999/xlink" contentStyleType="text/css" height="551px" preserveAspectRatio="none" style="width:759px;height:551px;background:#FFFFFF;" version="1.1" viewBox="0 0 759 551" width="759px" zoomAndPan="magnify"><defs/><g><ellipse cx="355.99" cy="16" fill="#222222" rx="10" ry="10" style="stroke:#222222;stroke-width:1;"/><g id="Draft"><rect fill="#EEF3FA" height="61.5078" rx="12.5" ry="12.5" style="stroke:#003087;stroke-width:0.5;" width="195.4683" x="258.49" y="100"/><line style="stroke:#003087;stroke-width:0.5;" x1="258.49" x2="453.9583" y1="123.8359" y2="123.8359"/><text fill="#003087" font-family="Liberation Sans" font-size="11" lengthAdjust="spacing" textLength="23.8369" x="344.3057" y="116.4189">Draft</text><text fill="#003087" font-family="Liberation Sans" font-size="11" lengthAdjust="spacing" textLength="175.4683" x="263.49" y="140.2549">entry / validate matrix_a dimensions</text><text fill="#003087" font-family="Liberation Sans" font-size="11" lengthAdjust="spacing" textLength="147.3613" x="263.49" y="154.0908">do / allow owner to edit values</text></g><g id="Private"><rect fill="#EEF3FA" height="50" rx="12.5" ry="12.5" style="stroke:#003087;stroke-width:0.5;" width="140.4521" x="285.99" y="249"/><line style="stroke:#003087;stroke-width:0.5;" x1="285.99" x2="426.4421" y1="272.8359" y2="272.8359"/><text fill="#003087" font-family="Liberation Sans" font-size="11" lengthAdjust="spacing" textLength="34.2354" x="339.0984" y="265.4189">Private</text><text fill="#003087" font-family="Liberation Sans" font-size="11" lengthAdjust="spacing" textLength="120.4521" x="290.99" y="289.2549">do / visible only to owner</text></g><g id="Shared"><rect fill="#EEF3FA" height="50" rx="12.5" ry="12.5" style="stroke:#003087;stroke-width:0.5;" width="205.2705" x="103.49" y="386"/><line style="stroke:#003087;stroke-width:0.5;" x1="103.49" x2="308.7605" y1="409.8359" y2="409.8359"/><text fill="#003087" font-family="Liberation Sans" font-size="11" lengthAdjust="spacing" textLength="35.4707" x="188.3899" y="402.4189">Shared</text><text fill="#003087" font-family="Liberation Sans" font-size="11" lengthAdjust="spacing" textLength="185.2705" x="108.49" y="426.2549">do / visible to owner and shared users</text></g><g id="Public"><rect fill="#EEF3FA" height="50" rx="12.5" ry="12.5" style="stroke:#003087;stroke-width:0.5;" width="135.543" x="379.99" y="386"/><line style="stroke:#003087;stroke-width:0.5;" x1="379.99" x2="515.533" y1="409.8359" y2="409.8359"/><text fill="#003087" font-family="Liberation Sans" font-size="11" lengthAdjust="spacing" textLength="29.96" x="432.7815" y="402.4189">Public</text><text fill="#003087" font-family="Liberation Sans" font-size="11" lengthAdjust="spacing" textLength="115.543" x="384.99" y="426.2549">do / visible to all visitors</text></g><ellipse cx="447.99" cy="534" fill="none" rx="11" ry="11" style="stroke:#222222;stroke-width:1;"/><ellipse cx="447.99" cy="534" fill="#222222" rx="6" ry="6" style="stroke:#222222;stroke-width:1;"/><!--link *start* to Draft--><g id="link_*start*_Draft"><path d="M355.99,26.25 C355.99,42.17 355.99,69.4 355.99,93.99 " fill="none" id="*start*-to-Draft" style="stroke:#333333;stroke-width:1;"/><polygon fill="#333333" points="355.99,99.99,359.99,90.99,355.99,94.99,351.99,90.99,355.99,99.99" style="stroke:#333333;stroke-width:1;"/><text fill="#555555" font-family="Liberation Sans" font-size="10" lengthAdjust="spacing" textLength="130.0293" x="356.99" y="67.3809">owner fills Create Matrix form</text></g><!--link Draft to Private--><g id="link_Draft_Private"><path d="M355.99,162.25 C355.99,188.14 355.99,218.93 355.99,242.88 " fill="none" id="Draft-to-Private" style="stroke:#333333;stroke-width:1;"/><polygon fill="#333333" points="355.99,248.88,359.99,239.88,355.99,243.88,351.99,239.88,355.99,248.88" style="stroke:#333333;stroke-width:1;"/><text fill="#555555" font-family="Liberation Sans" font-size="10" lengthAdjust="spacing" textLength="188.9746" x="356.99" y="203.3809">submit [matrix_a is square and non-empty]</text><text fill="#555555" font-family="Liberation Sans" font-size="10" lengthAdjust="spacing" textLength="180.7764" x="361.0891" y="215.959">/ persist record (source_type = "custom")</text></g><!--link Private to Shared--><g id="link_Private_Shared"><path d="M285.64,276.58 C200.79,280.14 65.57,291.68 33.99,329 C6,362.07 46.0791,381.1475 97.4891,393.2275 " fill="none" id="Private-to-Shared" style="stroke:#333333;stroke-width:1;"/><polygon fill="#333333" points="103.33,394.6,95.4836,388.6474,98.4626,393.4563,93.6536,396.4353,103.33,394.6" style="stroke:#333333;stroke-width:1;"/><text fill="#555555" font-family="Liberation Sans" font-size="10" lengthAdjust="spacing" textLength="109.4922" x="43.8889" y="340.3809">share [target user exists]</text><text fill="#555555" font-family="Liberation Sans" font-size="10" lengthAdjust="spacing" textLength="127.29" x="34.99" y="352.959">/ add user to shared_with list</text></g><!--link Shared to Private--><g id="link_Shared_Private"><path d="M207.05,385.76 C209.01,368.12 214.27,344.69 227.99,329 C243.07,311.75 258.9812,302.0273 280.0812,293.8973 " fill="none" id="Shared-to-Private" style="stroke:#333333;stroke-width:1;"/><polygon fill="#333333" points="285.68,291.74,275.8437,291.2434,281.0144,293.5377,278.72,298.7084,285.68,291.74" style="stroke:#333333;stroke-width:1;"/><text fill="#555555" font-family="Liberation Sans" font-size="10" lengthAdjust="spacing" textLength="65.5908" x="250.6648" y="340.3809">revoke sharing</text><text fill="#555555" font-family="Liberation Sans" font-size="10" lengthAdjust="spacing" textLength="108.9404" x="228.99" y="352.959">/ clear shared_with entry</text></g><!--link Private to Public--><g id="link_Private_Public"><path d="M348.59,299.33 C344.91,316.34 343.08,338.97 352.99,356 C360.24,368.46 366.4634,375.1138 378.7934,382.7738 " fill="none" id="Private-to-Public" style="stroke:#333333;stroke-width:1;"/><polygon fill="#333333" points="383.89,385.94,378.356,377.7929,379.6429,383.3015,374.1343,384.5884,383.89,385.94" style="stroke:#333333;stroke-width:1;"/><text fill="#555555" font-family="Liberation Sans" font-size="10" lengthAdjust="spacing" textLength="53.3594" x="377.6838" y="340.3809">make public</text><text fill="#555555" font-family="Liberation Sans" font-size="10" lengthAdjust="spacing" textLength="100.7471" x="353.99" y="352.959">/ set visibility = "public"</text></g><!--link Public to Private--><g id="link_Public_Private"><path d="M459.05,385.65 C465.02,368.63 469.27,346 458.99,329 C451.2,316.13 444.4082,309.2109 431.3382,301.5609 " fill="none" id="Public-to-Private" style="stroke:#333333;stroke-width:1;"/><polygon fill="#333333" points="426.16,298.53,431.9067,306.5284,430.4752,301.0557,435.9479,299.6241,426.16,298.53" style="stroke:#333333;stroke-width:1;"/><text fill="#555555" font-family="Liberation Sans" font-size="10" lengthAdjust="spacing" textLength="63.9014" x="486.3562" y="340.3809">restrict access</text><text fill="#555555" font-family="Liberation Sans" font-size="10" lengthAdjust="spacing" textLength="104.6338" x="465.99" y="352.959">/ set visibility = "private"</text></g><!--link Private to *end*--><g id="link_Private_*end*"><path d="M426.09,282.56 C484.17,290.44 560.14,305.05 578.99,329 C601.93,358.16 688.17,343.86 575.99,493 C547.86,530.4 490.9896,533.8 465.2796,533.5 " fill="none" id="Private-to-*end*" style="stroke:#333333;stroke-width:1;"/><polygon fill="#333333" points="459.28,533.43,468.2327,537.5347,464.2797,533.4883,468.3261,529.5353,459.28,533.43" style="stroke:#333333;stroke-width:1;"/><text fill="#555555" font-family="Liberation Sans" font-size="10" lengthAdjust="spacing" textLength="62.2607" x="661.0491" y="408.8809">owner deletes</text><text fill="#555555" font-family="Liberation Sans" font-size="10" lengthAdjust="spacing" textLength="118.3789" x="632.99" y="421.459">/ DELETE /v1/matrices/{id}</text></g><!--link Shared to *end*--><g id="link_Shared_*end*"><path d="M234.37,436.03 C256.51,453.78 288.66,477.47 319.99,493 C361.08,513.38 408.86,524.8378 431.4,529.6078 " fill="none" id="Shared-to-*end*" style="stroke:#333333;stroke-width:1;"/><polygon fill="#333333" points="437.27,530.85,429.2932,525.0733,432.3783,529.8148,427.6369,532.9,437.27,530.85" style="stroke:#333333;stroke-width:1;"/><text fill="#555555" font-family="Liberation Sans" font-size="10" lengthAdjust="spacing" textLength="62.2607" x="349.0491" y="477.3809">owner deletes</text><text fill="#555555" font-family="Liberation Sans" font-size="10" lengthAdjust="spacing" textLength="118.3789" x="320.99" y="489.959">/ DELETE /v1/matrices/{id}</text></g><!--link Public to *end*--><g id="link_Public_*end*"><path d="M447.99,436.2 C447.99,462.68 447.99,497.89 447.99,516.84 " fill="none" id="Public-to-*end*" style="stroke:#333333;stroke-width:1;"/><polygon fill="#333333" points="447.99,522.84,451.99,513.84,447.99,517.84,443.99,513.84,447.99,522.84" style="stroke:#333333;stroke-width:1;"/><text fill="#555555" font-family="Liberation Sans" font-size="10" lengthAdjust="spacing" textLength="62.2607" x="477.0491" y="477.3809">owner deletes</text><text fill="#555555" font-family="Liberation Sans" font-size="10" lengthAdjust="spacing" textLength="118.3789" x="448.99" y="489.959">/ DELETE /v1/matrices/{id}</text></g><!--SRC=[bPDDZzem48Rl-HKZzj0FYG92LIkaLg8GJhjRL7fZLsY81sBXsDJZ4EXg_tjj1rX2syFcW8ZddTVFVEGDt1j70nXzlviEnpzIAD1PcH43MW9K5HuOc4YG06IObaibCq0jGDEEB91s_jVb188KEMaqRD7b7vA4Dr9lqMBX8oiibPiOxUwn8BYLIx8OjJFK_6_bJFucwFKkWfoZC9NKQrYXOhg8B37RhAqfjHWPPInKkNHqIS0E7S5J0l3DM46sbjrqk_tkvq_XzChW9aqd_SdGHmBAjNfehQcEX_tud0ulr1_ZSnceA-ecpqaoV_y8xVPN65jSEHY0gRJluaegnJ2o563lmXpsi3AsI9AJpdVR7g03ErHI15MSrdw186H1cdrB-K4BuoMebAcEniu02Ub2MabyiWi0KojtmMS0N2uBBvcV7QMV-wyoRa6Ojj5jAhRkyFYWEx0bov8TMCfyF-4jcz9cj727BS4NQ6KbErEqtYN9Yt-4sacMIqLWj3e4geZteWf4iznVAG9G-0DpXtPD3aeEoxRtbt8aG27gC-yIbM9HIPU3yegcuN5blME16u9jV0qMx6qZa5JI7G9t7MiryyEiJXEAEquSiiVfRVepXSwkrpbzCfqdAVnmpnKqIZvL6xjP4yS2-9pGd8UbdV6uGUbNFjoOAKBRA3QkGoF_rR37xlmDw_SdlZeJ48-oQqGENWumyuRydvxMybR3uxMOVm00]--></g></svg>