<svg xmlns="http://www.w3.org/2000/svg" xmlns:xlink="http://www.w3.org/1999/xlink" contentStyleType="text/css" height="673px" preserveAspectRatio="none" style="width:508px;height:673px;background:#FFFFFF;" version="1.1" viewBox="0 0 508 673" width="508px" zoomAndPan="magnify"><defs/><g><g id="elem_choice"><polygon fill="#F1F1F1" points="265.5,398,277.5,410,265.5,422,253.5,410,265.5,398" style="stroke:#181818;stroke-width:0.5;"/></g><ellipse cx="265.5" cy="16" fill="#222222" rx="10" ry="10" style="stroke:#222222;stroke-width:1;"/><g id="Pending"><rect fill="#EEF3FA" height="61.5078" rx="12.5" ry="12.5" style="stroke:#003087;stroke-width:0.5;" width="173.4629" x="179" y="113"/><line style="stroke:#003087;stroke-width:0.5;" x1="179" x2="352.4629" y1="136.8359" y2="136.8359"/><text fill="#003087" font-family="Liberation Sans" font-size="11" lengthAdjust="spacing" textLength="40.3691" x="245.5469" y="129.4189">Pending</text><text fill="#003087" font-family="Liberation Sans" font-size="11" lengthAdjust="spacing" textLength="97.8345" x="184" y="153.2549">entry / assign job_id</text><text fill="#003087" font-family="Liberation Sans" font-size="11" lengthAdjust="spacing" textLength="153.4629" x="184" y="167.0908">do / wait for background worker</text></g><g id="Running"><rect fill="#EEF3FA" height="61.5078" rx="12.5" ry="12.5" style="stroke:#003087;stroke-width:0.5;" width="195.479" x="168" y="262"/><line style="stroke:#003087;stroke-width:0.5;" x1="168" x2="363.479" y1="285.8359" y2="285.8359"/><text fill="#003087" font-family="Liberation Sans" font-size="11" lengthAdjust="spacing" textLength="40.9761" x="245.2515" y="278.4189">Running</text><text fill="#003087" font-family="Liberation Sans" font-size="11" lengthAdjust="spacing" textLength="175.479" x="173" y="302.2549">do / execute Monte Carlo simulation</text><text fill="#003087" font-family="Liberation Sans" font-size="11" lengthAdjust="spacing" textLength="140.9214" x="173" y="316.0908">(100+ stochastic trajectories)</text></g><g id="Completed"><rect fill="#EEF3FA" height="61.5078" rx="12.5" ry="12.5" style="stroke:#003087;stroke-width:0.5;" width="252.9497" x="7" y="496"/><line style="stroke:#003087;stroke-width:0.5;" x1="7" x2="259.9497" y1="519.8359" y2="519.8359"/><text fill="#003087" font-family="Liberation Sans" font-size="11" lengthAdjust="spacing" textLength="53.1953" x="106.8772" y="512.4189">Completed</text><text fill="#003087" font-family="Liberation Sans" font-size="11" lengthAdjust="spacing" textLength="176.6821" x="12" y="536.2549">entry / store probability curve results</text><text fill="#003087" font-family="Liberation Sans" font-size="11" lengthAdjust="spacing" textLength="232.9497" x="12" y="550.0908">do / make results available via GET /v1/jobs/{id}</text></g><g id="Failed"><rect fill="#EEF3FA" height="61.5078" rx="12.5" ry="12.5" style="stroke:#003087;stroke-width:0.5;" width="205.8721" x="295.5" y="496"/><line style="stroke:#003087;stroke-width:0.5;" x1="295.5" x2="501.3721" y1="519.8359" y2="519.8359"/><text fill="#003087" font-family="Liberation Sans" font-size="11" lengthAdjust="spacing" textLength="29.96" x="383.4561" y="512.4189">Failed</text><text fill="#003087" font-family="Liberation Sans" font-size="11" lengthAdjust="spacing" textLength="135.1099" x="300.5" y="536.2549">entry / store error_message</text><text fill="#003087" font-family="Liberation Sans" font-size="11" lengthAdjust="spacing" textLength="185.8721" x="300.5" y="550.0908">do / expose error via GET /v1/jobs/{id}</text></g><ellipse cx="265.5" cy="656" fill="none" rx="11" ry="11" style="stroke:#222222;stroke-width:1;"/><ellipse cx="265.5" cy="656" fill="#222222" rx="6" ry="6" style="stroke:#222222;stroke-width:1;"/><!--link *start* to Pending--><g id="link_*start*_Pending"><path d="M265.5,26.06 C265.5,43.95 265.5,78.51 265.5,106.82 " fill="none" id="*start*-to-Pending" style="stroke:#333333;stroke-width:1;"/><polygon fill="#333333" points="265.5,112.82,269.5,103.82,265.5,107.82,261.5,103.82,265.5,112.82" style="stroke:#333333;stroke-width:1;"/><text fill="#555555" font-family="Liberation Sans" font-size="10" lengthAdjust="spacing" textLength="136.7285" x="266.5" y="67.3809">POST /v1/jobs/quasi-extinction</text><text fill="#555555" font-family="Liberation Sans" font-size="10" lengthAdjust="spacing" textLength="109.4873" x="280.1206" y="79.959">/ persist job record in DB</text></g><!--link Pending to Running--><g id="link_Pending_Running"><path d="M265.5,175.1 C265.5,200.47 265.5,230.58 265.5,255.94 " fill="none" id="Pending-to-Running" style="stroke:#333333;stroke-width:1;"/><polygon fill="#333333" points="265.5,261.94,269.5,252.94,265.5,256.94,261.5,252.94,265.5,261.94" style="stroke:#333333;stroke-width:1;"/><text fill="#555555" font-family="Liberation Sans" font-size="10" lengthAdjust="spacing" textLength="132.8516" x="269.8276" y="216.3809">[background worker available]</text><text fill="#555555" font-family="Liberation Sans" font-size="10" lengthAdjust="spacing" textLength="139.5068" x="266.5" y="228.959">/ start Monte Carlo computation</text></g><!--link Running to choice--><g id="link_Running_choice"><path d="M265.5,324.21 C265.5,348.44 265.5,375.07 265.5,391.91 " fill="none" id="Running-to-choice" style="stroke:#333333;stroke-width:1;"/><polygon fill="#333333" points="265.5,397.91,269.5,388.91,265.5,392.91,261.5,388.91,265.5,397.91" style="stroke:#333333;stroke-width:1;"/><text fill="#555555" font-family="Liberation Sans" font-size="10" lengthAdjust="spacing" textLength="78.9404" x="266.5" y="365.3809">computation ends</text></g><!--link choice to Completed--><g id="link_choice_Completed"><path d="M259.49,416.24 C243.6,430.08 204.094,464.4987 172.574,491.9587 " fill="none" id="choice-to-Completed" style="stroke:#333333;stroke-width:1;"/><polygon fill="#333333" points="168.05,495.9,177.4635,493.0041,171.82,492.6156,172.2085,486.9721,168.05,495.9" style="stroke:#333333;stroke-width:1;"/><text fill="#555555" font-family="Liberation Sans" font-size="10" lengthAdjust="spacing" textLength="40.5713" x="216.5" y="463.3809">[no error]</text></g><!--link choice to Failed--><g id="link_choice_Failed"><path d="M271.56,416.24 C287.57,430.08 327.3912,464.5158 359.1512,491.9758 " fill="none" id="choice-to-Failed" style="stroke:#333333;stroke-width:1;"/><polygon fill="#333333" points="363.69,495.9,359.498,486.9878,359.9077,492.6298,354.2657,493.0395,363.69,495.9" style="stroke:#333333;stroke-width:1;"/><text fill="#555555" font-family="Liberation Sans" font-size="10" lengthAdjust="spacing" textLength="97.8564" x="329.5" y="463.3809">[unhandled exception]</text></g><!--link Completed to *end*--><g id="link_Completed_*end*"><path d="M164.68,558.25 C181.98,575.01 203.9,596.19 223.5,615 C235.42,626.43 244.9479,635.4997 253.3879,643.5097 " fill="none" id="Completed-to-*end*" style="stroke:#333333;stroke-width:1;"/><polygon fill="#333333" points="257.74,647.64,253.9655,638.5431,254.1133,644.1981,248.4584,644.3459,257.74,647.64" style="stroke:#333333;stroke-width:1;"/><text fill="#555555" font-family="Liberation Sans" font-size="10" lengthAdjust="spacing" textLength="70.6006" x="238.6699" y="599.3809">user deletes job</text><text fill="#555555" font-family="Liberation Sans" font-size="10" lengthAdjust="spacing" textLength="98.9404" x="224.5" y="611.959">/ DELETE /v1/jobs/{id}</text></g><!--link Failed to *end*--><g id="link_Failed_*end*"><path d="M377.56,558.2 C364.41,575.93 346.39,598.11 327.5,615 C310.69,630.03 292.9771,640.4633 280.2471,647.2933 " fill="none" id="Failed-to-*end*" style="stroke:#333333;stroke-width:1;"/><polygon fill="#333333" points="274.96,650.13,284.7817,649.3997,279.3659,647.7661,280.9995,642.3503,274.96,650.13" style="stroke:#333333;stroke-width:1;"/><text fill="#555555" font-family="Liberation Sans" font-size="10" lengthAdjust="spacing" textLength="70.6006" x="367.6699" y="599.3809">user deletes job</text><text fill="#555555" font-family="Liberation Sans" font-size="10" lengthAdjust="spacing" textLength="98.9404" x="353.5" y="611.959">/ DELETE /v1/jobs/{id}</text></g><!--SRC=[dLBBRjim4BppAnR8fGyObc4KBOp0GEB8lQHjKEUM6C6AN5kC9LBbKfRJeFzUKbOYmMqlvKdQ6GvdTvPtsbJei0H56wmBlxJ6VyMIu5fdvD1hQs25XWN_ZRdIFmacam78EIhRQBE53HPC0oH3kTiwMnkri8LrqEJQanXUzUW9dWN0fNMAt95sbYJJvDF7M3qHE4lJvNHv4P1evPHzuPnjkkAqFI_50Vj3UuR0iQD4_1BYxjqQHgCvt91HiQ4Pt7nRtS9uFna_sep7FsfaFQA3rqR6ETsRCLJaMBE7G017ClG1si3LfH2z2Xdldc0CoAot9b8VjBetoePQWzh39bZhfmMDTJjolKBqzBqsvgXszmSJS8-wmAoWTRGKnkeyV0cz4IpG5HQaBQlQjzaAqIkr1kX0iWxC8PzrMHTuRF7D94dU1qqhSsIl9NY7ZoIzTPhuROYp3L7cLak2y_FZntp- -amqtw6peP4m5SL2T51aBG9Oa2SLcpGMA4JaraF6ChGPu702epOv6XN_wI2fYffh8OOYBtCFvXr1vMo6cIwqVm9Pkps5l3YiDNT9bBXxBVKJXRr6-9mEjk1Pgx0hdPNJHrhF3oKnuvOwOJfKbZleNtAzxTXdNCGPr1oYLHJB79ScPdkLNgUtwSdjVYp_SVat]--></g></svg>