<svg xmlns="http://www.w3.org/2000/svg" xmlns:xlink="http://www.w3.org/1999/xlink" contentStyleType="text/css" height="85px" preserveAspectRatio="none" style="width:874px;height:85px;background:#FFFFFF;" version="1.1" viewBox="0 0 874 85" width="874px" zoomAndPan="magnify"><defs/><g><ellipse cx="16" cy="39" fill="#222222" rx="10" ry="10" style="stroke:#222222;stroke-width:1;"/><g id="Unauthenticated"><rect fill="#EEF3FA" height="50" rx="12.5" ry="12.5" style="stroke:#003087;stroke-width:0.5;" width="197.2998" x="87" y="14"/><line style="stroke:#003087;stroke-width:0.5;" x1="87" x2="284.2998" y1="37.8359" y2="37.8359"/><text fill="#003087" font-family="Liberation Sans" font-size="11" lengthAdjust="spacing" textLength="80.1152" x="145.5923" y="30.4189">Unauthenticated</text><text fill="#003087" font-family="Liberation Sans" font-size="11" lengthAdjust="spacing" textLength="177.2998" x="92" y="54.2549">entry / show login and register forms</text></g><g id="Authenticated"><rect fill="#EEF3FA" height="61.5078" rx="12.5" ry="12.5" style="stroke:#003087;stroke-width:0.5;" width="283.4951" x="584" y="8"/><line style="stroke:#003087;stroke-width:0.5;" x1="584" x2="867.4951" y1="31.8359" y2="31.8359"/><text fill="#003087" font-family="Liberation Sans" font-size="11" lengthAdjust="spacing" textLength="67.2729" x="692.1111" y="24.4189">Authenticated</text><text fill="#003087" font-family="Liberation Sans" font-size="11" lengthAdjust="spacing" textLength="162.6099" x="589" y="48.2549">entry / store JWT in session state</text><text fill="#003087" font-family="Liberation Sans" font-size="11" lengthAdjust="spacing" textLength="263.4951" x="589" y="62.0908">do / unlock protected features (Simulate, My Matrices)</text></g><!--link *start* to Unauthenticated--><g id="link_*start*_Unauthenticated"><path d="M26.01,39 C38.3,39 55.72,39 80.84,39 " fill="none" id="*start*-to-Unauthenticated" style="stroke:#333333;stroke-width:1;"/><polygon fill="#333333" points="86.84,39,77.84,35,81.84,39,77.84,43,86.84,39" style="stroke:#333333;stroke-width:1;"/></g><!--link Unauthenticated to Authenticated--><g id="link_Unauthenticated_Authenticated"><path d="M284.2,26.32 C294.25,25.37 304.32,24.56 314,24 C420.48,17.75 447.44,19.32 554,24 C563.65,24.42 567.6026,24.5916 577.6226,25.2416 " fill="none" id="Unauthenticated-to-Authenticated" style="stroke:#333333;stroke-width:1;"/><polygon fill="#333333" points="583.61,25.63,574.8878,21.0558,578.6205,25.3063,574.3699,29.039,583.61,25.63" style="stroke:#333333;stroke-width:1;"/><text fill="#555555" font-family="Liberation Sans" font-size="10" lengthAdjust="spacing" textLength="238.4229" x="315" y="17.3809">login [credentials valid] / issue JWT token (7-day TTL)</text></g><!--link Authenticated to Unauthenticated--><g id="link_Authenticated_Unauthenticated"><path d="M583.55,42.56 C573.55,42.73 563.62,42.88 554,43 C447.34,44.25 420.65,44.67 314,43 C304.37,42.84 300.3281,42.7795 290.2981,42.5295 " fill="none" id="Authenticated-to-Unauthenticated" style="stroke:#333333;stroke-width:1;"/><polygon fill="#333333" points="284.3,42.38,293.1975,46.603,289.2984,42.5046,293.3969,38.6055,284.3,42.38" style="stroke:#333333;stroke-width:1;"/><text fill="#555555" font-family="Liberation Sans" font-size="10" lengthAdjust="spacing" textLength="154.5215" x="357" y="40.3809">logout / discard token from session</text></g><!--link Authenticated to Unauthenticated--><g id="link_Authenticated_Unauthenticated"><path d="M583.76,63.94 C573.71,65.16 563.72,66.2 554,67 C447.69,75.67 420.04,78.5 314,67 C304.31,65.94 300.1898,65.4963 290.2098,63.7463 " fill="none" id="Authenticated-to-Unauthenticated-1" style="stroke:#333333;stroke-width:1;"/><polygon fill="#333333" points="284.3,62.71,292.4739,68.2043,289.2249,63.5736,293.8556,60.3246,284.3,62.71" style="stroke:#333333;stroke-width:1;"/><text fill="#555555" font-family="Liberation Sans" font-size="10" lengthAdjust="spacing" textLength="200.1025" x="334" y="64.3809">token expires [TTL elapsed] / redirect to login</text></g><!--SRC=[ZL71IYD14BttLnHuKTbW98YB1o6AEOZk9Lds43sKqpMJ8ZrTeRh6R9Jzz-sPKHYYWdqQNhttvjMhjEQuGSKQF9NO19j9j5zO4zpn4oaQIuGvnkJIPymvln2SdWw6QOLUjXmhA34a6aoUi5XNAatqrn94ORjY8pUK6Xh1gmEu4lMaFUrWF9wCVvwtw9x1mStDR3ARvaaRPPyzLPNj6pZftZiuO9zrRpZeDngxVyu5AWrCGBbQ6NXMAjewd5iUFy9eT0c_8pQsecXSvEJUkJq0BY1_wmvESYsoXI0LHy3eGQdYPAHGYjRfex1rd-vPzUfbeUHREBSBpnZOFsPxJgaXkFspo7dN5E7mVEHn1ul5tP5pqwyocMWlohw9KcfltHtX8Nh9X2O6ATQmKR6yUjQMXDOe9JYSSzs4pFm1zpkuHrCkA7turoSbzOj8OzdVSofG_LlcKgL-Z_4jdrv6VpVSHbhcPO42RX9rbUIQkekr5-ogS_y1]--></g></svg>