<svg xmlns="http://www.w3.org/2000/svg" xmlns:xlink="http://www.w3.org/1999/xlink" contentStyleType="text/css" height="444px" preserveAspectRatio="none" style="width:288px;height:444px;background:#FFFFFF;" version="1.1" viewBox="0 0 288 444" width="288px" zoomAndPan="magnify"><defs/><g><!--cluster Custom Matrices--><g id="cluster_Custom Matrices"><rect fill="#FFFFFF" height="431" rx="2.5" ry="2.5" style="stroke:#003087;stroke-width:1;" width="176" x="106" y="7"/><text fill="#000000" font-family="Liberation Sans" font-size="11" font-weight="bold" lengthAdjust="spacing" textLength="88.6338" x="149.6831" y="20.4189">Custom Matrices</text></g><g id="elem_UC08"><ellipse cx="193.8111" cy="132.7622" fill="#EEF3FA" rx="71.8111" ry="16.7622" style="stroke:#003087;stroke-width:0.5;"/><text fill="#003087" font-family="Liberation Sans" font-size="11" lengthAdjust="spacing" textLength="106.9707" x="140.3257" y="135.2632">Create Custom Matrix</text></g><g id="elem_UC09"><ellipse cx="193.8326" cy="275.0665" fill="#EEF3FA" rx="65.8326" ry="15.5665" style="stroke:#003087;stroke-width:0.5;"/><text fill="#003087" font-family="Liberation Sans" font-size="11" lengthAdjust="spacing" textLength="92.9092" x="147.3781" y="277.5675">Edit Custom Matrix</text></g><g id="elem_UC10"><ellipse cx="193.7848" cy="342.157" fill="#EEF3FA" rx="71.2848" ry="16.657" style="stroke:#003087;stroke-width:0.5;"/><text fill="#003087" font-family="Liberation Sans" font-size="11" lengthAdjust="spacing" textLength="105.7515" x="140.909" y="344.6579">Delete Custom Matrix</text></g><g id="elem_UC11"><ellipse cx="194.073" cy="54.2146" fill="#EEF3FA" rx="61.573" ry="14.7146" style="stroke:#003087;stroke-width:0.5;"/><text fill="#003087" font-family="Liberation Sans" font-size="11" lengthAdjust="spacing" textLength="82.5376" x="152.8042" y="56.7156">Manage Visibility</text></g><g id="elem_UC12"><ellipse cx="193.7794" cy="211.1559" fill="#EEF3FA" rx="53.7794" ry="13.1559" style="stroke:#003087;stroke-width:0.5;"/><text fill="#003087" font-family="Liberation Sans" font-size="11" lengthAdjust="spacing" textLength="62.353" x="162.6029" y="213.6569">Share Matrix</text></g><g id="elem_UC13"><ellipse cx="193.8864" cy="408.1773" fill="#EEF3FA" rx="58.8864" ry="14.1773" style="stroke:#003087;stroke-width:0.5;"/><text fill="#003087" font-family="Liberation Sans" font-size="11" lengthAdjust="spacing" textLength="75.7915" x="155.9907" y="410.6783">Import Matrices</text></g><!--entity user--><g id="elem_user"><ellipse cx="32.5977" cy="213.5" fill="#FFFFFF" rx="8" ry="8" style="stroke:#003087;stroke-width:0.5;"/><path d="M32.5977,221.5 L32.5977,248.5 M19.5977,229.5 L45.5977,229.5 M32.5977,248.5 L19.5977,263.5 M32.5977,248.5 L45.5977,263.5 " fill="none" style="stroke:#003087;stroke-width:0.5;"/><text fill="#333333" font-family="Liberation Sans" font-size="11" lengthAdjust="spacing" textLength="53.1953" x="6" y="276.4189">Registered</text><text fill="#333333" font-family="Liberation Sans" font-size="11" lengthAdjust="spacing" textLength="23.2246" x="6" y="290.2549">User</text></g><!--link user to UC08--><g id="link_user_UC08"><path d="M59.3,216.72 C70.34,204.24 83.92,190.47 98,180 C115.72,166.83 132.2138,158.1093 150.5738,149.9793 " fill="none" id="user-to-UC08" style="stroke:#333333;stroke-width:1;"/><polygon fill="#333333" points="156.06,147.55,146.2112,147.5366,151.4882,149.5745,149.4503,154.8515,156.06,147.55" style="stroke:#333333;stroke-width:1;"/></g><!--link user to UC09--><g id="link_user_UC09"><path d="M59.13,253.18 C80.7,256.69 106.3584,260.8731 133.4284,265.2931 " fill="none" id="user-to-UC09" style="stroke:#333333;stroke-width:1;"/><polygon fill="#333333" points="139.35,266.26,131.1122,260.862,134.4153,265.4543,129.823,268.7574,139.35,266.26" style="stroke:#333333;stroke-width:1;"/></g><!--link user to UC10--><g id="link_user_UC10"><path d="M59.17,276.88 C70.29,287.72 83.96,299.54 98,308 C113,317.04 125.0883,322.3116 141.1883,327.6816 " fill="none" id="user-to-UC10" style="stroke:#333333;stroke-width:1;"/><polygon fill="#333333" points="146.88,329.58,139.608,322.9379,142.1369,327.998,137.0768,330.5269,146.88,329.58" style="stroke:#333333;stroke-width:1;"/></g><!--link user to UC11--><g id="link_user_UC11"><path d="M43.22,204.84 C52.46,171.86 69.31,127.56 98,98 C113.06,82.48 129.0177,73.9483 147.8077,67.0483 " fill="none" id="user-to-UC11" style="stroke:#333333;stroke-width:1;"/><polygon fill="#333333" points="153.44,64.98,143.6128,64.3275,148.7465,66.7035,146.3705,71.8372,153.44,64.98" style="stroke:#333333;stroke-width:1;"/></g><!--link user to UC12--><g id="link_user_UC12"><path d="M59.13,242.89 C85.02,236.73 119.4734,228.5207 149.1034,221.4607 " fill="none" id="user-to-UC12" style="stroke:#333333;stroke-width:1;"/><polygon fill="#333333" points="154.94,220.07,145.258,218.265,150.0762,221.2289,147.1122,226.0471,154.94,220.07" style="stroke:#333333;stroke-width:1;"/></g><!--link user to UC13--><g id="link_user_UC13"><path d="M46.4,293.27 C56.44,320.55 72.93,354.33 98,376 C111.43,387.61 123.4723,393.3966 140.0423,398.1466 " fill="none" id="user-to-UC13" style="stroke:#333333;stroke-width:1;"/><polygon fill="#333333" points="145.81,399.8,138.2607,393.4748,141.0036,398.4222,136.0562,401.1651,145.81,399.8" style="stroke:#333333;stroke-width:1;"/></g><!--link UC11 to UC08--><g id="link_UC11_UC08"><path d="M194,68.72 C194,82.08 194,95.79 194,109.86 " fill="none" id="UC11-to-UC08" style="stroke:#333333;stroke-width:1;stroke-dasharray:7.0,7.0;"/><polygon fill="#333333" points="194,115.86,198,106.86,194,110.86,190,106.86,194,115.86" style="stroke:#333333;stroke-width:1;"/><text fill="#555555" font-family="Liberation Sans" font-size="9" lengthAdjust="spacing" textLength="41.5327" x="164" y="96.0928">&#171;extends&#187;</text></g><!--link UC12 to UC08--><g id="link_UC12_UC08"><path d="M194,197.77 C194,184.64 194,170.47 194,156.12 " fill="none" id="UC12-to-UC08" style="stroke:#333333;stroke-width:1;stroke-dasharray:7.0,7.0;"/><polygon fill="#333333" points="194,150.12,190,159.12,194,155.12,198,159.12,194,150.12" style="stroke:#333333;stroke-width:1;"/><text fill="#555555" font-family="Liberation Sans" font-size="9" lengthAdjust="spacing" textLength="41.5327" x="164" y="177.8428">&#171;extends&#187;</text></g><!--SRC=[bP51Jy9048Nl-oicSD63fgKnWY4aYf2OY0S9dhmCxL0sjBjaTWYeyR_RRKLR0edkRVPxy-RDhbjfiqR6719Qu2QJiJNoX3d1evuJesXhO8h6ANTCETNl165OWsw9YTrgay82CqSrCiTubRBTc6HeCykmNMeXLHDi7CNe23uKm9tbXBWIjeCW2hhN_lR0eZqQZQFnRK5ycARwi-QCiHJaxxvLj8PhL9w6ArCiQDAC_ktSoCPijwL3Sr9Z-bLvlk_AH-yL9YgZXO1OO9qk1HBj4nKVfbIrSEkPKks4c99NCtF4BK3ddvcL-WtV6cwSs1mcAAnZSgqopDcG2OMW3dVdldys3BfUC4gq7CSzZ-yfenFzOU054pIO4hnef-Swq_Asfw6dqoKo7RHrF7Z8rvRb9-sU-QzHVZMuk1XK6UjLhruLy-jLsAWwZIfIoYlWilA46-ZtQITa4ZSOUDGvWRu0]--></g></svg>