<svg xmlns="http://www.w3.org/2000/svg" xmlns:xlink="http://www.w3.org/1999/xlink" contentStyleType="text/css" height="1668px" preserveAspectRatio="none" style="width:436px;height:1668px;background:#FFFFFF;" version="1.1" viewBox="0 0 436 1668" width="436px" zoomAndPan="magnify"><defs/><g><!--cluster Population Growth Simulator--><g id="cluster_Population Growth Simulator"><rect fill="#F5F8FF" height="1655" rx="2.5" ry="2.5" style="stroke:#003087;stroke-width:1;" width="236" x="193" y="7"/><text fill="#000000" font-family="Liberation Sans" font-size="10" font-weight="bold" lengthAdjust="spacing" textLength="138.3301" x="241.835" y="19.3809">Population Growth Simulator</text></g><!--cluster Authentication--><g id="cluster_Authentication"><path d="M246.5,1060 L317.4951,1060 A3.75,3.75 0 0 1 319.9951,1062.5 L326.9951,1078.5781 L375.5,1078.5781 A2.5,2.5 0 0 1 378,1081.0781 L378,1248.5 A2.5,2.5 0 0 1 375.5,1251 L246.5,1251 A2.5,2.5 0 0 1 244,1248.5 L244,1062.5 A2.5,2.5 0 0 1 246.5,1060 " fill="#F5F8FF" style="stroke:#003087;stroke-width:1.5;"/><line style="stroke:#003087;stroke-width:1.5;" x1="244" x2="326.9951" y1="1078.5781" y2="1078.5781"/><text fill="#003087" font-family="Liberation Sans" font-size="10" font-weight="bold" lengthAdjust="spacing" textLength="69.9951" x="248" y="1072.3809">Authentication</text></g><!--cluster Browse Matrices--><g id="cluster_Browse Matrices"><path d="M230,1275 L310.4775,1275 A3.75,3.75 0 0 1 312.9775,1277.5 L319.9775,1293.5781 L392,1293.5781 A2.5,2.5 0 0 1 394.5,1296.0781 L394.5,1536.5 A2.5,2.5 0 0 1 392,1539 L230,1539 A2.5,2.5 0 0 1 227.5,1536.5 L227.5,1277.5 A2.5,2.5 0 0 1 230,1275 " fill="#F5F8FF" style="stroke:#003087;stroke-width:1.5;"/><line style="stroke:#003087;stroke-width:1.5;" x1="227.5" x2="319.9775" y1="1293.5781" y2="1293.5781"/><text fill="#003087" font-family="Liberation Sans" font-size="10" font-weight="bold" lengthAdjust="spacing" textLength="79.4775" x="231.5" y="1287.3809">Browse Matrices</text></g><!--cluster Custom Matrices--><g id="cluster_Custom Matrices"><path d="M231.5,643 L313.0762,643 A3.75,3.75 0 0 1 315.5762,645.5 L322.5762,661.5781 L390.5,661.5781 A2.5,2.5 0 0 1 393,664.0781 L393,1033.5 A2.5,2.5 0 0 1 390.5,1036 L231.5,1036 A2.5,2.5 0 0 1 229,1033.5 L229,645.5 A2.5,2.5 0 0 1 231.5,643 " fill="#F5F8FF" style="stroke:#003087;stroke-width:1.5;"/><line style="stroke:#003087;stroke-width:1.5;" x1="229" x2="322.5762" y1="661.5781" y2="661.5781"/><text fill="#003087" font-family="Liberation Sans" font-size="10" font-weight="bold" lengthAdjust="spacing" textLength="80.5762" x="233" y="655.3809">Custom Matrices</text></g><!--cluster Simulations--><g id="cluster_Simulations"><path d="M226.5,46 L284.1748,46 A3.75,3.75 0 0 1 286.6748,48.5 L293.6748,64.5781 L395.5,64.5781 A2.5,2.5 0 0 1 398,67.0781 L398,426.5 A2.5,2.5 0 0 1 395.5,429 L226.5,429 A2.5,2.5 0 0 1 224,426.5 L224,48.5 A2.5,2.5 0 0 1 226.5,46 " fill="#F5F8FF" style="stroke:#003087;stroke-width:1.5;"/><line style="stroke:#003087;stroke-width:1.5;" x1="224" x2="293.6748" y1="64.5781" y2="64.5781"/><text fill="#003087" font-family="Liberation Sans" font-size="10" font-weight="bold" lengthAdjust="spacing" textLength="56.6748" x="228" y="58.3809">Simulations</text></g><!--cluster Quasi-Extinction--><g id="cluster_Quasi-Extinction"><path d="M219.5,453 L299.9531,453 A3.75,3.75 0 0 1 302.4531,455.5 L309.4531,471.5781 L402.5,471.5781 A2.5,2.5 0 0 1 405,474.0781 L405,616.5 A2.5,2.5 0 0 1 402.5,619 L219.5,619 A2.5,2.5 0 0 1 217,616.5 L217,455.5 A2.5,2.5 0 0 1 219.5,453 " fill="#F5F8FF" style="stroke:#003087;stroke-width:1.5;"/><line style="stroke:#003087;stroke-width:1.5;" x1="217" x2="309.4531" y1="471.5781" y2="471.5781"/><text fill="#003087" font-family="Liberation Sans" font-size="10" font-weight="bold" lengthAdjust="spacing" textLength="79.4531" x="221" y="465.3809">Quasi-Extinction</text></g><!--cluster i18n--><g id="cluster_i18n"><path d="M241,1563 L262.0098,1563 A3.75,3.75 0 0 1 264.5098,1565.5 L271.5098,1581.5781 L381,1581.5781 A2.5,2.5 0 0 1 383.5,1584.0781 L383.5,1635.5 A2.5,2.5 0 0 1 381,1638 L241,1638 A2.5,2.5 0 0 1 238.5,1635.5 L238.5,1565.5 A2.5,2.5 0 0 1 241,1563 " fill="#F5F8FF" style="stroke:#003087;stroke-width:1.5;"/><line style="stroke:#003087;stroke-width:1.5;" x1="238.5" x2="271.5098" y1="1581.5781" y2="1581.5781"/><text fill="#003087" font-family="Liberation Sans" font-size="10" font-weight="bold" lengthAdjust="spacing" textLength="20.0098" x="242.5" y="1575.3809">i18n</text></g><g id="elem_UC01"><ellipse cx="311.2258" cy="1163.1452" fill="#EEF3FA" rx="51.2258" ry="12.6452" style="stroke:#003087;stroke-width:0.5;"/><text fill="#003087" font-family="Liberation Sans" font-size="10" lengthAdjust="spacing" textLength="61.1279" x="280.6619" y="1165.237">Register User</text></g><g id="elem_UC02"><ellipse cx="311.1448" cy="1222.8941" fill="#EEF3FA" rx="31.1448" ry="11.8941" style="stroke:#003087;stroke-width:0.5;"/><text fill="#003087" font-family="Liberation Sans" font-size="10" lengthAdjust="spacing" textLength="27.8027" x="297.2434" y="1224.9859">Log In</text></g><g id="elem_UC03"><ellipse cx="311.1449" cy="1102.8941" fill="#EEF3FA" rx="36.6449" ry="11.8941" style="stroke:#003087;stroke-width:0.5;"/><text fill="#003087" font-family="Liberation Sans" font-size="10" lengthAdjust="spacing" textLength="35.5811" x="293.3544" y="1104.9859">Log Out</text></g><g id="elem_UC04"><ellipse cx="310.9824" cy="1382.8965" fill="#EEF3FA" rx="67.4824" ry="15.8965" style="stroke:#003087;stroke-width:0.5;"/><text fill="#003087" font-family="Liberation Sans" font-size="10" lengthAdjust="spacing" textLength="100.5908" x="260.687" y="1384.9883">Browse Matrix Catalog</text></g><g id="elem_UC05"><ellipse cx="310.8563" cy="1318.7713" fill="#EEF3FA" rx="51.8563" ry="12.7713" style="stroke:#003087;stroke-width:0.5;"/><text fill="#003087" font-family="Liberation Sans" font-size="10" lengthAdjust="spacing" textLength="62.7832" x="279.4647" y="1320.8631">Filter Matrices</text></g><g id="elem_UC06"><ellipse cx="311.2289" cy="1448.1458" fill="#EEF3FA" rx="58.7289" ry="14.1458" style="stroke:#003087;stroke-width:0.5;"/><text fill="#003087" font-family="Liberation Sans" font-size="10" lengthAdjust="spacing" textLength="80.0195" x="271.2191" y="1450.2376">View Matrix Detail</text></g><g id="elem_UC07"><ellipse cx="310.8873" cy="1509.9775" fill="#EEF3FA" rx="50.3873" ry="12.4775" style="stroke:#003087;stroke-width:0.5;"/><text fill="#003087" font-family="Liberation Sans" font-size="10" lengthAdjust="spacing" textLength="58.9014" x="281.4366" y="1512.0693">Export Matrix</text></g><g id="elem_UC08"><ellipse cx="311.0277" cy="874.1055" fill="#EEF3FA" rx="66.0277" ry="15.6055" style="stroke:#003087;stroke-width:0.5;"/><text fill="#003087" font-family="Liberation Sans" font-size="10" lengthAdjust="spacing" textLength="97.2461" x="262.4046" y="876.1973">Create Custom Matrix</text></g><g id="elem_UC09"><ellipse cx="311.0767" cy="939.0153" fill="#EEF3FA" rx="60.5767" ry="14.5153" style="stroke:#003087;stroke-width:0.5;"/><text fill="#003087" font-family="Liberation Sans" font-size="10" lengthAdjust="spacing" textLength="84.4629" x="268.8453" y="941.1071">Edit Custom Matrix</text></g><g id="elem_UC10"><ellipse cx="311.048" cy="1004.0096" fill="#EEF3FA" rx="65.548" ry="15.5096" style="stroke:#003087;stroke-width:0.5;"/><text fill="#003087" font-family="Liberation Sans" font-size="10" lengthAdjust="spacing" textLength="96.1377" x="262.9791" y="1006.1014">Delete Custom Matrix</text></g><g id="elem_UC11"><ellipse cx="311.1893" cy="688.2379" fill="#EEF3FA" rx="56.6893" ry="13.7379" style="stroke:#003087;stroke-width:0.5;"/><text fill="#003087" font-family="Liberation Sans" font-size="10" lengthAdjust="spacing" textLength="75.0342" x="273.6722" y="690.3297">Manage Visibility</text></g><g id="elem_UC12"><ellipse cx="311.0639" cy="748.8128" fill="#EEF3FA" rx="49.5639" ry="12.3128" style="stroke:#003087;stroke-width:0.5;"/><text fill="#003087" font-family="Liberation Sans" font-size="10" lengthAdjust="spacing" textLength="56.6846" x="282.7217" y="750.9046">Share Matrix</text></g><g id="elem_UC13"><ellipse cx="311.2354" cy="810.2471" fill="#EEF3FA" rx="54.2354" ry="13.2471" style="stroke:#003087;stroke-width:0.5;"/><text fill="#003087" font-family="Liberation Sans" font-size="10" lengthAdjust="spacing" textLength="68.9014" x="276.7847" y="812.3389">Import Matrices</text></g><g id="elem_UC14"><ellipse cx="310.7839" cy="97.7882" fill="#EEF3FA" rx="67.2839" ry="20.7882" style="stroke:#003087;stroke-width:0.5;"/><text fill="#003087" font-family="Liberation Sans" font-size="10" lengthAdjust="spacing" textLength="78.9111" x="271.3283" y="93.5909">Run Deterministic</text><text fill="#003087" font-family="Liberation Sans" font-size="10" lengthAdjust="spacing" textLength="46.6895" x="287.4392" y="106.169">Simulation</text></g><g id="elem_UC15"><ellipse cx="311.0424" cy="251.7882" fill="#EEF3FA" rx="59.0424" ry="20.7882" style="stroke:#003087;stroke-width:0.5;"/><text fill="#003087" font-family="Liberation Sans" font-size="10" lengthAdjust="spacing" textLength="67.2559" x="277.4144" y="247.5909">Run Stochastic</text><text fill="#003087" font-family="Liberation Sans" font-size="10" lengthAdjust="spacing" textLength="46.6895" x="287.6976" y="260.169">Simulation</text></g><g id="elem_UC16"><ellipse cx="311.0716" cy="399.0143" fill="#EEF3FA" rx="55.5716" ry="13.5143" style="stroke:#003087;stroke-width:0.5;"/><text fill="#003087" font-family="Liberation Sans" font-size="10" lengthAdjust="spacing" textLength="72.2607" x="274.9413" y="401.1061">Save Simulation</text></g><g id="elem_UC17"><ellipse cx="311.0778" cy="328.7882" fill="#EEF3FA" rx="57.0778" ry="20.7882" style="stroke:#003087;stroke-width:0.5;"/><text fill="#003087" font-family="Liberation Sans" font-size="10" lengthAdjust="spacing" textLength="64.4775" x="278.839" y="324.5909">Browse Saved</text><text fill="#003087" font-family="Liberation Sans" font-size="10" lengthAdjust="spacing" textLength="51.6895" x="285.2331" y="337.169">Simulations</text></g><g id="elem_UC18"><ellipse cx="310.8298" cy="174.7882" fill="#EEF3FA" rx="70.8298" ry="20.7882" style="stroke:#003087;stroke-width:0.5;"/><text fill="#003087" font-family="Liberation Sans" font-size="10" lengthAdjust="spacing" textLength="83.9258" x="268.8669" y="170.5909">View Demographic</text><text fill="#003087" font-family="Liberation Sans" font-size="10" lengthAdjust="spacing" textLength="40.0146" x="290.8224" y="183.169">Analytics</text></g><g id="elem_UC19"><ellipse cx="310.9043" cy="581.7882" fill="#EEF3FA" rx="77.9043" ry="20.7882" style="stroke:#003087;stroke-width:0.5;"/><text fill="#003087" font-family="Liberation Sans" font-size="10" lengthAdjust="spacing" textLength="93.9307" x="263.939" y="577.5909">Run Quasi-Extinction</text><text fill="#003087" font-family="Liberation Sans" font-size="10" lengthAdjust="spacing" textLength="37.2363" x="292.2861" y="590.169">Analysis</text></g><g id="elem_UC20"><ellipse cx="311.1203" cy="504.7882" fill="#EEF3FA" rx="66.1203" ry="20.7882" style="stroke:#003087;stroke-width:0.5;"/><text fill="#003087" font-family="Liberation Sans" font-size="10" lengthAdjust="spacing" textLength="43.3594" x="289.4406" y="500.5909">Configure</text><text fill="#003087" font-family="Liberation Sans" font-size="10" lengthAdjust="spacing" textLength="77.2656" x="272.4875" y="513.169">Extinction Stages</text></g><g id="elem_UC21"><ellipse cx="311.2012" cy="1608.2402" fill="#EEF3FA" rx="56.7012" ry="13.7402" style="stroke:#003087;stroke-width:0.5;"/><text fill="#003087" font-family="Liberation Sans" font-size="10" lengthAdjust="spacing" textLength="75.0635" x="273.6695" y="1610.332">Select Language</text></g><!--entity visitor--><g id="elem_visitor"><ellipse cx="19.8916" cy="1126" fill="#FFFFFF" rx="8" ry="8" style="stroke:#003087;stroke-width:0.5;"/><path d="M19.8916,1134 L19.8916,1161 M6.8916,1142 L32.8916,1142 M19.8916,1161 L6.8916,1176 M19.8916,1161 L32.8916,1176 " fill="none" style="stroke:#003087;stroke-width:0.5;"/><text fill="#333333" font-family="Liberation Sans" font-size="10" lengthAdjust="spacing" textLength="27.7832" x="6" y="1187.8809">Visitor</text></g><!--entity user--><g id="elem_user"><ellipse cx="133.6797" cy="746" fill="#FFFFFF" rx="8" ry="8" style="stroke:#003087;stroke-width:0.5;"/><path d="M133.6797,754 L133.6797,781 M120.6797,762 L146.6797,762 M133.6797,781 L120.6797,796 M133.6797,781 L146.6797,796 " fill="none" style="stroke:#003087;stroke-width:0.5;"/><text fill="#333333" font-family="Liberation Sans" font-size="10" lengthAdjust="spacing" textLength="48.3594" x="109.5" y="807.8809">Registered</text><text fill="#333333" font-family="Liberation Sans" font-size="10" lengthAdjust="spacing" textLength="21.1133" x="109.5" y="820.459">User</text></g><!--entity compadre--><g id="elem_compadre"><path d="M94,1359 C94,1349 133.4531,1349 133.4531,1349 C133.4531,1349 172.9063,1349 172.9063,1359 L172.9063,1393.1563 C172.9063,1403.1563 133.4531,1403.1563 133.4531,1403.1563 C133.4531,1403.1563 94,1403.1563 94,1393.1563 L94,1359 " fill="#EEF3FA" style="stroke:#003087;stroke-width:0.5;"/><path d="M94,1359 C94,1369 133.4531,1369 133.4531,1369 C133.4531,1369 172.9063,1369 172.9063,1359 " fill="none" style="stroke:#003087;stroke-width:0.5;"/><text fill="#003087" font-family="Liberation Sans" font-size="10" lengthAdjust="spacing" textLength="57.7832" x="104" y="1383.3809">COMPADRE</text><text fill="#003087" font-family="Liberation Sans" font-size="10" lengthAdjust="spacing" textLength="58.9063" x="104" y="1395.959">(external DB)</text></g><!--reverse link visitor to user--><g id="link_visitor_user"><path d="M52.33,1134 C79.98,1134 120,1134 120,1134 C120,1134 120,916.85 120,822.7 " fill="none" id="visitor-backto-user" style="stroke:#333333;stroke-width:1;"/><polygon fill="none" points="34.33,1134,52.33,1140,52.33,1128,34.33,1134" style="stroke:#333333;stroke-width:1;"/></g><!--link visitor to UC01--><g id="link_visitor_UC01"><path d="M34.04,1163 C74.28,1163 185.57,1163 253.92,1163 " fill="none" id="visitor-to-UC01" style="stroke:#333333;stroke-width:1;"/><polygon fill="#333333" points="259.92,1163,250.92,1159,254.92,1163,250.92,1167,259.92,1163" style="stroke:#333333;stroke-width:1;"/></g><!--link visitor to UC02--><g id="link_visitor_UC02"><path d="M29,1190.52 C29,1207.07 29,1223 29,1223 C29,1223 200.32,1223 273.74,1223 " fill="none" id="visitor-to-UC02" style="stroke:#333333;stroke-width:1;"/><polygon fill="#333333" points="279.74,1223,270.74,1219,274.74,1223,270.74,1227,279.74,1223" style="stroke:#333333;stroke-width:1;"/></g><!--link visitor to UC04--><g id="link_visitor_UC04"><path d="M34.22,1185.5 C84.81,1185.5 253,1185.5 253,1185.5 C253,1185.5 253,1330.71 253,1368.51 " fill="none" id="visitor-to-UC04" style="stroke:#333333;stroke-width:1;"/><polygon fill="#333333" points="253,1374.51,257,1365.51,253,1369.51,249,1365.51,253,1374.51" style="stroke:#333333;stroke-width:1;"/></g><!--link visitor to UC05--><g id="link_visitor_UC05"><path d="M34.16,1180.5 C87.04,1180.5 270,1180.5 270,1180.5 C270,1180.5 270,1274.93 270,1304.75 " fill="none" id="visitor-to-UC05" style="stroke:#333333;stroke-width:1;"/><polygon fill="#333333" points="270,1310.75,274,1301.75,270,1305.75,266,1301.75,270,1310.75" style="stroke:#333333;stroke-width:1;"/></g><!--link visitor to UC06--><g id="link_visitor_UC06"><path d="M23,1190.64 C23,1269.45 23,1448 23,1448 C23,1448 162.16,1448 246.37,1448 " fill="none" id="visitor-to-UC06" style="stroke:#333333;stroke-width:1;"/><polygon fill="#333333" points="252.37,1448,243.37,1444,247.37,1448,243.37,1452,252.37,1448" style="stroke:#333333;stroke-width:1;"/></g><!--link visitor to UC07--><g id="link_visitor_UC07"><path d="M18,1190.76 C18,1281.71 18,1510 18,1510 C18,1510 170.44,1510 254.3,1510 " fill="none" id="visitor-to-UC07" style="stroke:#333333;stroke-width:1;"/><polygon fill="#333333" points="260.3,1510,251.3,1506,255.3,1510,251.3,1514,260.3,1510" style="stroke:#333333;stroke-width:1;"/></g><!--link visitor to UC14--><g id="link_visitor_UC14"><path d="M13,1117.34 C13,931.05 13,98 13,98 C13,98 149.46,98 237.38,98 " fill="none" id="visitor-to-UC14" style="stroke:#333333;stroke-width:1;"/><polygon fill="#333333" points="243.38,98,234.38,94,238.38,98,234.38,102,243.38,98" style="stroke:#333333;stroke-width:1;"/></g><!--link visitor to UC15--><g id="link_visitor_UC15"><path d="M27,1117.24 C27,948 27,252 27,252 C27,252 162.58,252 245.81,252 " fill="none" id="visitor-to-UC15" style="stroke:#333333;stroke-width:1;"/><polygon fill="#333333" points="251.81,252,242.81,248,246.81,252,242.81,256,251.81,252" style="stroke:#333333;stroke-width:1;"/></g><!--link visitor to UC18--><g id="link_visitor_UC18"><path d="M20,1117.41 C20,939.68 20,175 20,175 C20,175 147.66,175 233.81,175 " fill="none" id="visitor-to-UC18" style="stroke:#333333;stroke-width:1;"/><polygon fill="#333333" points="239.81,175,230.81,171,234.81,175,230.81,179,239.81,175" style="stroke:#333333;stroke-width:1;"/></g><!--link visitor to UC21--><g id="link_visitor_UC21"><path d="M12,1190.77 C12,1298.85 12,1608 12,1608 C12,1608 161.73,1608 248.41,1608 " fill="none" id="visitor-to-UC21" style="stroke:#333333;stroke-width:1;"/><polygon fill="#333333" points="254.41,1608,245.41,1604,249.41,1608,245.41,1612,254.41,1608" style="stroke:#333333;stroke-width:1;"/></g><!--link user to UC03--><g id="link_user_UC03"><path d="M129,822.56 C129,910.27 129,1103 129,1103 C129,1103 214.99,1103 268.17,1103 " fill="none" id="user-to-UC03" style="stroke:#333333;stroke-width:1;"/><polygon fill="#333333" points="274.17,1103,265.17,1099,269.17,1103,265.17,1107,274.17,1103" style="stroke:#333333;stroke-width:1;"/></g><!--link user to UC08--><g id="link_user_UC08"><path d="M157.64,814 C191.76,814 250,814 250,814 C250,814 250,846.85 250,862.03 " fill="none" id="user-to-UC08" style="stroke:#333333;stroke-width:1;"/><polygon fill="#333333" points="250,868.03,254,859.03,250,863.03,246,859.03,250,868.03" style="stroke:#333333;stroke-width:1;"/></g><!--link user to UC09--><g id="link_user_UC09"><path d="M148,822.61 C148,869.71 148,939 148,939 C148,939 197.96,939 244.3,939 " fill="none" id="user-to-UC09" style="stroke:#333333;stroke-width:1;"/><polygon fill="#333333" points="250.3,939,241.3,935,245.3,939,241.3,943,250.3,939" style="stroke:#333333;stroke-width:1;"/></g><!--link user to UC10--><g id="link_user_UC10"><path d="M139,822.66 C139,887.65 139,1004 139,1004 C139,1004 190.88,1004 239.48,1004 " fill="none" id="user-to-UC10" style="stroke:#333333;stroke-width:1;"/><polygon fill="#333333" points="245.48,1004,236.48,1000,240.48,1004,236.48,1008,245.48,1004" style="stroke:#333333;stroke-width:1;"/></g><!--link user to UC11--><g id="link_user_UC11"><path d="M148,737.23 C148,713.21 148,688 148,688 C148,688 201.37,688 248.45,688 " fill="none" id="user-to-UC11" style="stroke:#333333;stroke-width:1;"/><polygon fill="#333333" points="254.45,688,245.45,684,249.45,688,245.45,692,254.45,688" style="stroke:#333333;stroke-width:1;"/></g><!--link user to UC12--><g id="link_user_UC12"><path d="M157.81,753.5 C185.25,753.5 224.52,753.5 258.75,753.5 " fill="none" id="user-to-UC12" style="stroke:#333333;stroke-width:1;"/><polygon fill="#333333" points="264.75,753.5,255.75,749.5,259.75,753.5,255.75,757.5,264.75,753.5" style="stroke:#333333;stroke-width:1;"/></g><!--link user to UC13--><g id="link_user_UC13"><path d="M157.81,805.5 C184.01,805.5 220.48,805.5 254.07,805.5 " fill="none" id="user-to-UC13" style="stroke:#333333;stroke-width:1;"/><polygon fill="#333333" points="260.07,805.5,251.07,801.5,255.07,805.5,251.07,809.5,260.07,805.5" style="stroke:#333333;stroke-width:1;"/></g><!--link user to UC16--><g id="link_user_UC16"><path d="M129,737.4 C129,637.98 129,399 129,399 C129,399 195.88,399 249.41,399 " fill="none" id="user-to-UC16" style="stroke:#333333;stroke-width:1;"/><polygon fill="#333333" points="255.41,399,246.41,395,250.41,399,246.41,403,255.41,399" style="stroke:#333333;stroke-width:1;"/></g><!--link user to UC17--><g id="link_user_UC17"><path d="M120,737.16 C120,624.59 120,329 120,329 C120,329 191.67,329 247.95,329 " fill="none" id="user-to-UC17" style="stroke:#333333;stroke-width:1;"/><polygon fill="#333333" points="253.95,329,244.95,325,248.95,329,244.95,333,253.95,329" style="stroke:#333333;stroke-width:1;"/></g><!--link user to UC19--><g id="link_user_UC19"><path d="M157.7,745.5 C188.85,745.5 239,745.5 239,745.5 C239,745.5 239,629.65 239,596.33 " fill="none" id="user-to-UC19" style="stroke:#333333;stroke-width:1;"/><polygon fill="#333333" points="239,590.33,235,599.33,239,595.33,243,599.33,239,590.33" style="stroke:#333333;stroke-width:1;"/></g><!--link user to UC20--><g id="link_user_UC20"><path d="M139,737.33 C139,660.09 139,505 139,505 C139,505 190.49,505 238.99,505 " fill="none" id="user-to-UC20" style="stroke:#333333;stroke-width:1;"/><polygon fill="#333333" points="244.99,505,235.99,501,239.99,505,235.99,509,244.99,505" style="stroke:#333333;stroke-width:1;"/></g><!--link compadre to UC04--><g id="link_compadre_UC04"><path d="M173.33,1383 C193.98,1383 213.76,1383 237.42,1383 " fill="none" id="compadre-to-UC04" style="stroke:#333333;stroke-width:1;"/><polygon fill="#333333" points="243.42,1383,234.42,1379,238.42,1383,234.42,1387,243.42,1383" style="stroke:#333333;stroke-width:1;"/></g><!--link UC14 to UC18--><g id="link_UC14_UC18"><path d="M311,119.04 C311,129.91 311,137.12 311,147.98 " fill="none" id="UC14-to-UC18" style="stroke:#333333;stroke-width:1;stroke-dasharray:7.0,7.0;"/><polygon fill="#333333" points="311,153.98,315,144.98,311,148.98,307,144.98,311,153.98" style="stroke:#333333;stroke-width:1;"/><text fill="#555555" font-family="Liberation Sans" font-size="9" lengthAdjust="spacing" textLength="43.0313" x="267" y="146.8528">&#171;includes&#187;</text></g><!--link UC15 to UC18--><g id="link_UC15_UC18"><path d="M311,230.96 C311,220.09 311,212.88 311,202.02 " fill="none" id="UC15-to-UC18" style="stroke:#333333;stroke-width:1;stroke-dasharray:7.0,7.0;"/><polygon fill="#333333" points="311,196.02,307,205.02,311,201.02,315,205.02,311,196.02" style="stroke:#333333;stroke-width:1;"/><text fill="#555555" font-family="Liberation Sans" font-size="9" lengthAdjust="spacing" textLength="43.0313" x="267" y="223.8328">&#171;includes&#187;</text></g><!--link UC16 to UC14--><g id="link_UC16_UC14"><path d="M363.5,403.5 C376.1,403.5 386,403.5 386,403.5 C386,403.5 386,98 386,98 C386,98 389.14,98 384.53,98 " fill="none" id="UC16-to-UC14" style="stroke:#333333;stroke-width:1;stroke-dasharray:7.0,7.0;"/><polygon fill="#333333" points="378.53,98,387.53,102,383.53,98,387.53,94,378.53,98" style="stroke:#333333;stroke-width:1;"/><text fill="#555555" font-family="Liberation Sans" font-size="9" lengthAdjust="spacing" textLength="41.5327" x="387" y="268.6128">&#171;extends&#187;</text></g><!--link UC16 to UC15--><g id="link_UC16_UC15"><path d="M363.6,394.5 C369.81,394.5 374,394.5 374,394.5 C374,394.5 374,252 374,252 C374,252 378.61,252 376.25,252 " fill="none" id="UC16-to-UC15" style="stroke:#333333;stroke-width:1;stroke-dasharray:7.0,7.0;"/><polygon fill="#333333" points="370.25,252,379.25,256,375.25,252,379.25,248,370.25,252" style="stroke:#333333;stroke-width:1;"/><text fill="#555555" font-family="Liberation Sans" font-size="9" lengthAdjust="spacing" textLength="41.5327" x="375" y="336.9228">&#171;extends&#187;</text></g><!--link UC20 to UC19--><g id="link_UC20_UC19"><path d="M311,526.04 C311,536.91 311,544.12 311,554.98 " fill="none" id="UC20-to-UC19" style="stroke:#333333;stroke-width:1;stroke-dasharray:7.0,7.0;"/><polygon fill="#333333" points="311,560.98,315,551.98,311,555.98,307,551.98,311,560.98" style="stroke:#333333;stroke-width:1;"/><text fill="#555555" font-family="Liberation Sans" font-size="9" lengthAdjust="spacing" textLength="41.5327" x="269" y="553.8528">&#171;extends&#187;</text></g><!--SRC=[jLHBJ-Cm4BxdLupAOU7GLLieBIk417sia61XgU34nKs6n2AnAzi1kYp_VST9tCGfxEEmLG_nV9-_UNhq8nShfbW64JwmF3LpASmtbY5Sy2KgPhWKi6121_ezveB_GEZt6g1EM2IVkOZXWQKQ6yYIXO-nahc89ZAL2fuJRffuoWMQzGf1AfF8e87a6aEc4Lu3W3Ef8bIbmawljzyRZworfRqpcyttvwU4s2Xzzbj3cOM6aB_NBMFsLFUBdwSQCSEM_oVW5TrZyJyfpuVpyNnUAI_CEaLOoZJwSssKai-58pzJxzwm-3bnEmr791Aa-630I50yJWn4N65e9oa8oe9txhZczD41fk6f_7RG3SPS6rGOtOjRZIM79a05cx9s9bUNrwVJczczsCKNuWgMmlHihw26CbknI64GLC9m_BFRBHK26mSJCPMWSorNULhEzrTAr2Imu9crsB1U0qh9rRfpcfi4XU5XGUyKDG7OTP623NFF-hwTzFebTY5ZE1VEEAYDLxbnLblADy_H6GL2-LqoetY8UkEfQN-12TKXbR6JEIWvSvxQMDnTXmvBz8xZixi_HSDuwWY79M7sig9tLr4SDjgAS99h8xFj22SAcK5emXkLSUKXukPzmb59c6AA7sZGYYaebqpOCEpuB7dApThXLTaN2LFOkbeL_poh4wphqzzkGZK6rEawlPjSsBAXohYWdlFmNjGq9tLGSnT6XWdxY5ZrPC6U4BRHGw_dbXGrHJQHZngTdM8cOyLMYNLuIizXJQutpF5MZjzpfdbtzcAu2FsPfk3ROAMe-KQmQjX4YWSUvmhlHSsctCc5emvwMxvvVrpxMr3FGmCNz2XpGjsjVdcB_f-WsXM4Q1doiWQRjztjdfIlhcKOj0q7RSEmRJXi6qOjGx-jqMzhKALz0oL26TGhhLWLNYQmoo9w6FJ9qht0RYddVjyxZRtJKVD4ZwDvwdkdWNVoD6dIcgUHT_8yK1SfZPbRjNfDsMI1sxHrYObqEm65rQGcVAK3MpVuN5O7li3nCSr9caUeJquiDlmDTbXX1mLcDxs8Mj1m2nhqAkYe1Vq2]--></g></svg>