<svg xmlns="http://www.w3.org/2000/svg" xmlns:xlink="http://www.w3.org/1999/xlink" contentStyleType="text/css" height="437px" preserveAspectRatio="none" style="width:432px;height:437px;background:#FFFFFF;" version="1.1" viewBox="0 0 432 437" width="432px" zoomAndPan="magnify"><defs/><g><!--cluster Simulations & Analytics--><g id="cluster_Simulations &amp; Analytics"><rect fill="#FFFFFF" height="424" rx="2.5" ry="2.5" style="stroke:#003087;stroke-width:1;" width="186" x="240" y="7"/><text fill="#000000" font-family="Liberation Sans" font-size="11" font-weight="bold" lengthAdjust="spacing" textLength="125.3076" x="270.3462" y="20.4189">Simulations &amp; Analytics</text></g><g id="elem_UC14"><ellipse cx="332.8637" cy="62.067" fill="#EEF3FA" rx="72.8637" ry="22.567" style="stroke:#003087;stroke-width:0.5;"/><text fill="#003087" font-family="Liberation Sans" font-size="11" lengthAdjust="spacing" textLength="86.8022" x="289.4626" y="57.65">Run Deterministic</text><text fill="#003087" font-family="Liberation Sans" font-size="11" lengthAdjust="spacing" textLength="51.3584" x="307.1845" y="71.4859">Simulation</text></g><g id="elem_UC15"><ellipse cx="332.7981" cy="248.067" fill="#EEF3FA" rx="63.7981" ry="22.567" style="stroke:#003087;stroke-width:0.5;"/><text fill="#003087" font-family="Liberation Sans" font-size="11" lengthAdjust="spacing" textLength="73.9814" x="295.8073" y="243.65">Run Stochastic</text><text fill="#003087" font-family="Liberation Sans" font-size="11" lengthAdjust="spacing" textLength="51.3584" x="307.1189" y="257.4859">Simulation</text></g><g id="elem_UC16"><ellipse cx="332.8491" cy="399.9698" fill="#EEF3FA" rx="60.3491" ry="14.4698" style="stroke:#003087;stroke-width:0.5;"/><text fill="#003087" font-family="Liberation Sans" font-size="11" lengthAdjust="spacing" textLength="79.4868" x="293.1057" y="402.4708">Save Simulation</text></g><g id="elem_UC17"><ellipse cx="333.137" cy="328.067" fill="#EEF3FA" rx="61.637" ry="22.567" style="stroke:#003087;stroke-width:0.5;"/><text fill="#003087" font-family="Liberation Sans" font-size="11" lengthAdjust="spacing" textLength="70.9253" x="297.6744" y="323.65">Browse Saved</text><text fill="#003087" font-family="Liberation Sans" font-size="11" lengthAdjust="spacing" textLength="56.8584" x="304.7078" y="337.4859">Simulations</text></g><g id="elem_UC18"><ellipse cx="332.7642" cy="155.067" fill="#EEF3FA" rx="76.7642" ry="22.567" style="stroke:#003087;stroke-width:0.5;"/><text fill="#003087" font-family="Liberation Sans" font-size="11" lengthAdjust="spacing" textLength="92.3184" x="286.605" y="150.65">View Demographic</text><text fill="#003087" font-family="Liberation Sans" font-size="11" lengthAdjust="spacing" textLength="44.0161" x="310.7562" y="164.4859">Analytics</text></g><!--entity visitor--><g id="elem_visitor"><ellipse cx="21.2808" cy="166.5" fill="#FFFFFF" rx="8" ry="8" style="stroke:#003087;stroke-width:0.5;"/><path d="M21.2808,174.5 L21.2808,201.5 M8.2808,182.5 L34.2808,182.5 M21.2808,201.5 L8.2808,216.5 M21.2808,201.5 L34.2808,216.5 " fill="none" style="stroke:#003087;stroke-width:0.5;"/><text fill="#333333" font-family="Liberation Sans" font-size="11" lengthAdjust="spacing" textLength="30.5615" x="6" y="229.4189">Visitor</text></g><!--entity user--><g id="elem_user"><ellipse cx="124.5977" cy="292.5" fill="#FFFFFF" rx="8" ry="8" style="stroke:#003087;stroke-width:0.5;"/><path d="M124.5977,300.5 L124.5977,327.5 M111.5977,308.5 L137.5977,308.5 M124.5977,327.5 L111.5977,342.5 M124.5977,327.5 L137.5977,342.5 " fill="none" style="stroke:#003087;stroke-width:0.5;"/><text fill="#333333" font-family="Liberation Sans" font-size="11" lengthAdjust="spacing" textLength="53.1953" x="98" y="355.4189">Registered</text><text fill="#333333" font-family="Liberation Sans" font-size="11" lengthAdjust="spacing" textLength="23.2246" x="98" y="369.2549">User</text></g><!--reverse link visitor to user--><g id="link_visitor_user"><path d="M47.6952,230.0648 C56.2852,241.9648 56.87,242.62 67,256 C76.97,269.18 88.17,283.53 97.94,295.93 " fill="none" id="visitor-backto-user" style="stroke:#333333;stroke-width:1;"/><polygon fill="none" points="37.16,215.47,42.8303,233.5766,52.5602,226.5531,37.16,215.47" style="stroke:#333333;stroke-width:1;"/></g><!--link visitor to UC14--><g id="link_visitor_UC14"><path d="M37.16,183.44 C45.58,177.16 56.52,169.56 67,164 C137.98,126.33 220.2891,97.1202 274.8791,79.5302 " fill="none" id="visitor-to-UC14" style="stroke:#333333;stroke-width:1;"/><polygon fill="#333333" points="280.59,77.69,270.797,76.643,275.831,79.2235,273.2505,84.2575,280.59,77.69" style="stroke:#333333;stroke-width:1;"/></g><!--link visitor to UC15--><g id="link_visitor_UC15"><path d="M37.01,197.49 C78.9,204.66 195.7661,224.6673 269.0561,237.2173 " fill="none" id="visitor-to-UC15" style="stroke:#333333;stroke-width:1;"/><polygon fill="#333333" points="274.97,238.23,266.7742,232.7684,270.0417,237.3861,265.424,240.6536,274.97,238.23" style="stroke:#333333;stroke-width:1;"/></g><!--link visitor to UC18--><g id="link_visitor_UC18"><path d="M37.01,193.12 C76.57,188.01 182.3195,174.3492 256.3495,164.7792 " fill="none" id="visitor-to-UC18" style="stroke:#333333;stroke-width:1;"/><polygon fill="#333333" points="262.3,164.01,252.8615,161.1969,257.3413,164.651,253.8871,169.1308,262.3,164.01" style="stroke:#333333;stroke-width:1;"/></g><!--link user to UC16--><g id="link_user_UC16"><path d="M151.19,338.06 C172.69,346.37 204.2,358.34 232,368 C252.66,375.18 270.2048,380.8648 289.0848,386.7848 " fill="none" id="user-to-UC16" style="stroke:#333333;stroke-width:1;"/><polygon fill="#333333" points="294.81,388.58,287.4191,382.0705,290.039,387.084,285.0255,389.704,294.81,388.58" style="stroke:#333333;stroke-width:1;"/></g><!--link user to UC17--><g id="link_user_UC17"><path d="M151.24,328 C181.08,328 225.27,328 265.21,328 " fill="none" id="user-to-UC17" style="stroke:#333333;stroke-width:1;"/><polygon fill="#333333" points="271.21,328,262.21,324,266.21,328,262.21,332,271.21,328" style="stroke:#333333;stroke-width:1;"/></g><!--link UC14 to UC18--><g id="link_UC14_UC18"><path d="M333,84.63 C333,99.16 333,111.97 333,126.49 " fill="none" id="UC14-to-UC18" style="stroke:#333333;stroke-width:1;stroke-dasharray:7.0,7.0;"/><polygon fill="#333333" points="333,132.49,337,123.49,333,127.49,329,123.49,333,132.49" style="stroke:#333333;stroke-width:1;"/><text fill="#555555" font-family="Liberation Sans" font-size="9" lengthAdjust="spacing" textLength="43.0313" x="302" y="112.3428">&#171;includes&#187;</text></g><!--link UC15 to UC18--><g id="link_UC15_UC18"><path d="M333,225.49 C333,210.97 333,198.16 333,183.63 " fill="none" id="UC15-to-UC18" style="stroke:#333333;stroke-width:1;stroke-dasharray:7.0,7.0;"/><polygon fill="#333333" points="333,177.63,329,186.63,333,182.63,337,186.63,333,177.63" style="stroke:#333333;stroke-width:1;"/><text fill="#555555" font-family="Liberation Sans" font-size="9" lengthAdjust="spacing" textLength="43.0313" x="302" y="205.3428">&#171;includes&#187;</text></g><!--link UC16 to UC14--><g id="link_UC16_UC14"><path d="M279.6,393.08 C262.49,388.47 244.71,380.78 232,368 C196.42,332.22 196.81,308.69 202,258.5 C208.7,193.69 192.73,167 232,115 C244.53,98.41 258.2993,88.9739 276.6393,80.7139 " fill="none" id="UC16-to-UC14" style="stroke:#333333;stroke-width:1;stroke-dasharray:7.0,7.0;"/><polygon fill="#333333" points="282.11,78.25,272.2613,78.2987,277.551,80.3033,275.5465,85.5931,282.11,78.25" style="stroke:#333333;stroke-width:1;"/><text fill="#555555" font-family="Liberation Sans" font-size="9" lengthAdjust="spacing" textLength="41.5327" x="182" y="268.8428">&#171;extends&#187;</text></g><!--link UC16 to UC15--><g id="link_UC16_UC15"><path d="M281.17,392.47 C263.9,387.8 245.61,380.24 232,368 C203.3,342.19 178.87,317.4 202,286.5 C217.69,265.53 238.3499,256.5803 263.4599,251.9403 " fill="none" id="UC16-to-UC15" style="stroke:#333333;stroke-width:1;stroke-dasharray:7.0,7.0;"/><polygon fill="#333333" points="269.36,250.85,259.783,248.552,264.4432,251.7586,261.2367,256.4188,269.36,250.85" style="stroke:#333333;stroke-width:1;"/><text fill="#555555" font-family="Liberation Sans" font-size="9" lengthAdjust="spacing" textLength="41.5327" x="182" y="296.8428">&#171;extends&#187;</text></g><!--SRC=[bPB9JiCm48RlVefHaL0v5BKgBGLLbTXwGXo8uCHbYAV9YCH6jaDPtnqxQI09Yy0dUxxV_ooslMDrZmPpaBJ28dDBhTm5vWJdV4i67Mi54Iehx7VAY9y9HgC6j2bAlMQLm0epImroY_5TOdIXv8dEj85roev4Gr1OYj4Il0Y0OsqacKguDHoEXxFz4ErOR9sTBSVB8qz2CMtrMyCPO-V9ttshqbgkutArN0t53bMIqR-TMxKPezUbGpjJA_kaN9jOEVG3Ro8oMZbm6WmdgGF9eIB_O49K3VUksRBVz00jF5Jx6brImjQH8NcZhYnL6ly2HeYD4kQlWy4czDbgB-AyoCf_OM4RZXHcJuvZsojRw5yM2ax9- -Qil3_7D-hpmax8SNKosgkLaTDnYZ_9Gh_z21y8lh9fOCT-Slw_18bi6jXQ5LwWVysqzZNbEZ5uduPK7qNNkbaOPjtsOB2eYkm49jt0J8JXrATfwxGlHF20tKe9Xp2ViugpGf9TB0AR_CAc6xPNCdfqf6G7JJhe7G00]--></g></svg>