<svg xmlns="http://www.w3.org/2000/svg" xmlns:xlink="http://www.w3.org/1999/xlink" contentStyleType="text/css" height="303px" preserveAspectRatio="none" style="width:378px;height:303px;background:#FFFFFF;" version="1.1" viewBox="0 0 378 303" width="378px" zoomAndPan="magnify"><defs/><g><!--cluster Browse Matrices--><g id="cluster_Browse Matrices"><rect fill="#FFFFFF" height="284" rx="2.5" ry="2.5" style="stroke:#003087;stroke-width:1;" width="179" x="193" y="7"/><text fill="#000000" font-family="Liberation Sans" font-size="11" font-weight="bold" lengthAdjust="spacing" textLength="87.4253" x="238.7874" y="20.4189">Browse Matrices</text></g><g id="elem_UC04"><ellipse cx="282.4074" cy="258.0815" fill="#EEF3FA" rx="73.4074" ry="17.0815" style="stroke:#003087;stroke-width:0.5;"/><text fill="#003087" font-family="Liberation Sans" font-size="11" lengthAdjust="spacing" textLength="110.6499" x="227.0825" y="260.5825">Browse Matrix Catalog</text></g><g id="elem_UC05"><ellipse cx="282.2841" cy="180.1568" fill="#EEF3FA" rx="56.2841" ry="13.6568" style="stroke:#003087;stroke-width:0.5;"/><text fill="#003087" font-family="Liberation Sans" font-size="11" lengthAdjust="spacing" textLength="69.0615" x="247.7534" y="182.6578">Filter Matrices</text></g><g id="elem_UC06"><ellipse cx="282.3073" cy="54.1615" fill="#EEF3FA" rx="63.8073" ry="15.1615" style="stroke:#003087;stroke-width:0.5;"/><text fill="#003087" font-family="Liberation Sans" font-size="11" lengthAdjust="spacing" textLength="88.0215" x="238.2966" y="56.6624">View Matrix Detail</text></g><g id="elem_UC07"><ellipse cx="282.6787" cy="117.8357" fill="#EEF3FA" rx="54.6787" ry="13.3357" style="stroke:#003087;stroke-width:0.5;"/><text fill="#003087" font-family="Liberation Sans" font-size="11" lengthAdjust="spacing" textLength="64.7915" x="250.283" y="120.3367">Export Matrix</text></g><!--entity visitor--><g id="elem_visitor"><ellipse cx="48.2808" cy="119.5" fill="#FFFFFF" rx="8" ry="8" style="stroke:#003087;stroke-width:0.5;"/><path d="M48.2808,127.5 L48.2808,154.5 M35.2808,135.5 L61.2808,135.5 M48.2808,154.5 L35.2808,169.5 M48.2808,154.5 L61.2808,169.5 " fill="none" style="stroke:#003087;stroke-width:0.5;"/><text fill="#333333" font-family="Liberation Sans" font-size="11" lengthAdjust="spacing" textLength="30.5615" x="33" y="182.4189">Visitor</text></g><!--entity compadre--><g id="elem_compadre"><path d="M6,239.5 C6,229.5 48.3984,229.5 48.3984,229.5 C48.3984,229.5 90.7969,229.5 90.7969,239.5 L90.7969,276.1719 C90.7969,286.1719 48.3984,286.1719 48.3984,286.1719 C48.3984,286.1719 6,286.1719 6,276.1719 L6,239.5 " fill="#EEF3FA" style="stroke:#003087;stroke-width:0.5;"/><path d="M6,239.5 C6,249.5 48.3984,249.5 48.3984,249.5 C48.3984,249.5 90.7969,249.5 90.7969,239.5 " fill="none" style="stroke:#003087;stroke-width:0.5;"/><text fill="#003087" font-family="Liberation Sans" font-size="11" lengthAdjust="spacing" textLength="63.5615" x="16" y="264.9189">COMPADRE</text><text fill="#003087" font-family="Liberation Sans" font-size="11" lengthAdjust="spacing" textLength="64.7969" x="16" y="278.7549">(external DB)</text></g><!--link visitor to UC04--><g id="link_visitor_UC04"><path d="M64.01,154.88 C100.72,172.28 192.5284,215.8197 243.6384,240.0497 " fill="none" id="visitor-to-UC04" style="stroke:#333333;stroke-width:1;"/><polygon fill="#333333" points="249.06,242.62,242.6411,235.1502,244.542,240.4781,239.2141,242.379,249.06,242.62" style="stroke:#333333;stroke-width:1;"/></g><!--link visitor to UC05--><g id="link_visitor_UC05"><path d="M64.01,150 C97.15,154.57 173.6562,165.1308 226.9862,172.4808 " fill="none" id="visitor-to-UC05" style="stroke:#333333;stroke-width:1;"/><polygon fill="#333333" points="232.93,173.3,224.5604,168.1087,227.9768,172.6173,223.4682,176.0338,232.93,173.3" style="stroke:#333333;stroke-width:1;"/></g><!--link visitor to UC06--><g id="link_visitor_UC06"><path d="M64.25,139.35 C78.5,131.2 100.82,118.93 121,110 C161.34,92.14 203.5736,77.8311 236.5036,67.5311 " fill="none" id="visitor-to-UC06" style="stroke:#333333;stroke-width:1;"/><polygon fill="#333333" points="242.23,65.74,232.4463,64.6091,237.458,67.2326,234.8345,72.2443,242.23,65.74" style="stroke:#333333;stroke-width:1;"/></g><!--link visitor to UC07--><g id="link_visitor_UC07"><path d="M64.01,146.12 C97.34,141.81 174.6395,131.8192 227.9395,124.9292 " fill="none" id="visitor-to-UC07" style="stroke:#333333;stroke-width:1;"/><polygon fill="#333333" points="233.89,124.16,224.4515,121.3468,228.9313,124.801,225.4771,129.2808,233.89,124.16" style="stroke:#333333;stroke-width:1;"/></g><!--link compadre to UC04--><g id="link_compadre_UC04"><path d="M91.24,258 C123.86,258 163.98,258 202.65,258 " fill="none" id="compadre-to-UC04" style="stroke:#333333;stroke-width:1;"/><polygon fill="#333333" points="208.65,258,199.65,254,203.65,258,199.65,262,208.65,258" style="stroke:#333333;stroke-width:1;"/><text fill="#555555" font-family="Liberation Sans" font-size="9" lengthAdjust="spacing" textLength="54.0352" x="122" y="255.3428">provides data</text></g><!--link UC04 to UC05--><g id="link_UC04_UC05"><path d="M282.5,240.69 C282.5,226.51 282.5,212.71 282.5,199.64 " fill="none" id="UC04-to-UC05" style="stroke:#333333;stroke-width:1;stroke-dasharray:7.0,7.0;"/><polygon fill="#333333" points="282.5,193.64,278.5,202.64,282.5,198.64,286.5,202.64,282.5,193.64" style="stroke:#333333;stroke-width:1;"/><text fill="#555555" font-family="Liberation Sans" font-size="9" lengthAdjust="spacing" textLength="43.0313" x="251.5" y="221.0928">&#171;includes&#187;</text></g><!--SRC=[jL8zRy8m5DpzAvx20aEh80gq5KBYSofjLLIcBe_a4IoCZMo7e5RzxtKIGfEeGplKatLtFj_vsUouFA36FOIqmLZOkPBs4VS43tnD6YrN4fOe3JC_APVydQ3TBf5cYw5Ak8nWWy9GYLbZi8kqYcKuKK9fIBRS4Yi9OaC16e8F1Z1MEYIT2nk-t_5l-obQisZCPlFEVEIOD4nL_Lboni0wvlU-URIAQoTR5TSGBQx_9x2cmAAC1FqvTAMsrYh97AebAhTtitN6iddUEHCcQ6F1Aj0ysbe8UPh8_GN6yhVqLjnmj_403HppFRiyY3TvMZoFfY-pDzcaaoKjKS1qtChKWTeVCDHkzDyjlR5BwWukq6eUaF6orCqoUeA9inSgQgKchnF_9bNCkN3sbtC5b_PfhZWbnTafMUIYe7ifFJiTbBPdGS6aOs3dFd1rDSmlgW7TEj2h0tt6YfeN5xY7WrP77fB9lWvZ6NgTMpfsCE0o4B7ZXqFs1G00]--></g></svg>