<svg xmlns="http://www.w3.org/2000/svg" xmlns:xlink="http://www.w3.org/1999/xlink" contentStyleType="text/css" height="200px" preserveAspectRatio="none" style="width:313px;height:200px;background:#FFFFFF;" version="1.1" viewBox="0 0 313 200" width="313px" zoomAndPan="magnify"><defs/><g><!--cluster Quasi-Extinction Analysis--><g id="cluster_Quasi-Extinction Analysis"><rect fill="#FFFFFF" height="187" rx="2.5" ry="2.5" style="stroke:#003087;stroke-width:1;" width="201" x="106" y="7"/><text fill="#000000" font-family="Liberation Sans" font-size="11" font-weight="bold" lengthAdjust="spacing" textLength="135.7007" x="138.6497" y="20.4189">Quasi-Extinction Analysis</text></g><g id="elem_UC19"><ellipse cx="206.5462" cy="155.067" fill="#EEF3FA" rx="84.5462" ry="22.567" style="stroke:#003087;stroke-width:0.5;"/><text fill="#003087" font-family="Liberation Sans" font-size="11" lengthAdjust="spacing" textLength="103.3237" x="154.8843" y="150.65">Run Quasi-Extinction</text><text fill="#003087" font-family="Liberation Sans" font-size="11" lengthAdjust="spacing" textLength="40.96" x="186.0662" y="164.4859">Analysis</text></g><g id="elem_UC20"><ellipse cx="206.5838" cy="62.067" fill="#EEF3FA" rx="71.5838" ry="22.567" style="stroke:#003087;stroke-width:0.5;"/><text fill="#003087" font-family="Liberation Sans" font-size="11" lengthAdjust="spacing" textLength="47.6953" x="182.7362" y="57.65">Configure</text><text fill="#003087" font-family="Liberation Sans" font-size="11" lengthAdjust="spacing" textLength="84.9922" x="164.0877" y="71.4859">Extinction Stages</text></g><!--entity user--><g id="elem_user"><ellipse cx="32.5977" cy="73.5" fill="#FFFFFF" rx="8" ry="8" style="stroke:#003087;stroke-width:0.5;"/><path d="M32.5977,81.5 L32.5977,108.5 M19.5977,89.5 L45.5977,89.5 M32.5977,108.5 L19.5977,123.5 M32.5977,108.5 L45.5977,123.5 " fill="none" style="stroke:#003087;stroke-width:0.5;"/><text fill="#333333" font-family="Liberation Sans" font-size="11" lengthAdjust="spacing" textLength="53.1953" x="6" y="136.4189">Registered</text><text fill="#333333" font-family="Liberation Sans" font-size="11" lengthAdjust="spacing" textLength="23.2246" x="6" y="150.2549">User</text></g><!--link user to UC19--><g id="link_user_UC19"><path d="M59.25,115.89 C82.12,122 110.604,129.6188 140.234,137.5488 " fill="none" id="user-to-UC19" style="stroke:#333333;stroke-width:1;"/><polygon fill="#333333" points="146.03,139.1,138.3701,132.9092,141.2,137.8073,136.3018,140.6372,146.03,139.1" style="stroke:#333333;stroke-width:1;"/></g><!--link user to UC20--><g id="link_user_UC20"><path d="M59.25,101.96 C83.62,95.31 115.1622,86.6816 146.0122,78.2516 " fill="none" id="user-to-UC20" style="stroke:#333333;stroke-width:1;"/><polygon fill="#333333" points="151.8,76.67,142.0639,75.1838,146.9768,77.988,144.1727,82.9009,151.8,76.67" style="stroke:#333333;stroke-width:1;"/></g><!--link UC20 to UC19--><g id="link_UC20_UC19"><path d="M206.5,84.63 C206.5,99.16 206.5,111.97 206.5,126.49 " fill="none" id="UC20-to-UC19" style="stroke:#333333;stroke-width:1;stroke-dasharray:7.0,7.0;"/><polygon fill="#333333" points="206.5,132.49,210.5,123.49,206.5,127.49,202.5,123.49,206.5,132.49" style="stroke:#333333;stroke-width:1;"/><text fill="#555555" font-family="Liberation Sans" font-size="9" lengthAdjust="spacing" textLength="41.5327" x="176.5" y="112.3428">&#171;extends&#187;</text></g><!--SRC=[bP51Jm8n48Nl_HMJvQ87p28nYY4aIE1aJ8Hmup9iPql3CZNJRa2D_ztjhiPTua7dqAHzRxvvRVtUyWiA7a1JZcKH5ex34nu87ksM18Dr32jah_nlpfLz8nWCMgBVeNP7omPoB3orb2rcUoEkP3rpXHCuxcmWrJAKdZBq1EyAuC699ccClJGTfdUtyVGCqPlF5yF5j59YcAxxeqN6B5JAtxbDj0vrM5U7AfG5P5FGlycTR2BkM1EwaphJR-hwEgiVVLH1L45vWE10hDa5q3OcgZvCgUR2oPACzO64z8RNdYG1zF6PHQcVyCbpYTxsvwTWkMw7AMFnwgrFwbWNovBXtBFXRzDbPAvdWr6qpXpdrfH26sxnLW4DVHklqvWyXe1-Vz9qjdQLhE8ALuq6zp0UqoaGQp-Pg4y0]--></g></svg>